<svg width="62" height="51" viewBox="0 0 62 51" fill="none" xmlns="http://www.w3.org/2000/svg">
<g clip-path="url(#clip0_133_2069)">
<path d="M9.10978 46.609L7.11084 46.7391V45.6982C7.63515 46.0235 8.29054 46.3488 9.10978 46.609Z" fill="#E30613" stroke="#1D1D1B" stroke-width="0.3266" stroke-miterlimit="10"/>
<path d="M7.04524 45.6331L3.40782 44.885L3.11289 44.6898L4.52198 43.4213L4.16152 42.9009L0.130859 40.7217L1.96595 40.5591C2.49027 41.0144 3.27674 41.6975 4.12875 42.6407C5.04629 43.6815 5.27568 44.1694 5.96384 44.8524C6.25877 45.0801 6.58646 45.3729 7.04524 45.6331Z" fill="#E30613" stroke="#1D1D1B" stroke-width="0.3266" stroke-miterlimit="10"/>
<path d="M57.6414 42.9662L57.2809 43.389L58.69 44.4949L57.4447 45.1779L54.987 45.5357L54.8559 45.5683L54.8232 45.6333L54.4955 46.1862L54.3316 46.5765L51.9395 46.8693L51.8739 46.9018L43.3866 49.6339L42.0431 49.8291C41.6826 49.8941 41.2894 49.9267 40.9289 49.9917C40.4373 49.5364 40.1096 49.1461 39.8803 48.8533C39.6181 48.5281 39.487 48.3329 39.2249 48.2353C38.8316 48.1052 38.6022 48.3329 38.3401 48.1703C38.209 48.1052 38.209 48.0077 37.9796 47.162C37.8485 46.7066 37.783 46.5765 37.8813 46.479C38.0124 46.3163 38.2418 46.5115 38.5695 46.3814C38.9299 46.2188 38.8972 45.861 39.2576 45.6984C39.4543 45.6008 39.6836 45.6008 39.8147 45.6333C39.8475 45.5682 40.0769 45.2755 39.9786 44.8202C39.913 44.4949 39.6836 44.2998 39.5853 44.2022C39.7492 44.007 39.913 43.8119 40.0769 43.6167C40.4046 43.6167 40.6995 43.6167 41.0272 43.6167C41.0927 43.7143 41.1255 43.7793 41.191 43.8769C41.486 43.8769 41.7481 43.8769 42.0431 43.8769C42.1086 44.0395 42.2724 44.4624 42.7312 44.7551C43.0589 44.9828 43.3538 45.0478 43.5504 45.0478C43.616 45.4381 43.7143 45.8285 43.7798 46.2188C44.4352 45.9911 45.5166 45.4707 46.5653 44.4299C47.8105 43.1939 48.302 41.8278 48.4659 41.1448C48.171 41.1773 47.7122 41.2098 47.2206 41.0472C46.6963 40.8846 46.3031 40.5918 45.8443 40.0389C44.8612 38.933 44.3042 37.632 44.0092 36.7864C43.8781 36.9165 43.7471 37.0791 43.5832 37.2092C43.2555 37.0791 42.5346 36.7538 42.3052 36.0708C42.2069 35.7781 42.2069 35.4853 42.4035 34.5746C42.6001 33.729 42.6984 33.2086 43.0261 32.4279C43.2883 31.7124 43.7471 30.7691 44.4352 29.6958C46.0737 29.7283 47.745 29.7283 49.3834 29.7609L49.3179 29.7934L50.3338 30.9643L50.9564 31.0293L54.0039 31.2895L55.5113 32.0702L57.8052 34.8999L58.6572 36.5587L61.4099 38.6078L61.4754 39.8438L60.2629 40.2666L61.9669 40.3967L59.8369 42.0555L57.6414 42.9662Z" fill="#E30613" stroke="#1D1D1B" stroke-width="0.3266" stroke-miterlimit="10"/>
<path d="M24.1182 47.1621C23.856 48.0077 23.8888 48.0728 23.7577 48.1704C23.4955 48.333 23.2662 48.1053 22.8729 48.2354C22.578 48.333 22.4797 48.5282 22.2175 48.8534C21.9882 49.1461 21.6605 49.5364 21.1689 49.9918C20.7429 49.9267 20.3169 49.8942 19.8909 49.8292L11.6657 47.6174L9.10971 46.6091C8.29048 46.3489 7.63508 46.0237 7.11077 45.6984V45.6659L7.01246 45.6334C6.58646 45.3407 6.25876 45.0804 5.96384 44.8202C5.27568 44.1697 5.04629 43.6819 4.12874 42.6085C3.27673 41.6653 2.52303 40.9497 1.96595 40.5269L0.425781 39.356L0.49132 38.4127L3.27673 36.4287L6.61923 31.8751L8.45432 31.127C9.40464 31.062 10.355 30.9969 11.3053 30.9318C11.5674 30.7692 11.8624 30.5741 12.1573 30.3789C12.4194 30.1838 12.6816 30.0211 12.911 29.826H12.8782C14.4839 29.826 16.0896 29.7935 17.6626 29.7935C18.1213 30.444 18.6784 31.3872 19.1044 32.5581C19.596 33.9242 19.7598 35.1276 19.7926 36.0058C19.7598 36.1685 19.6615 36.4937 19.3994 36.7864C19.0717 37.1767 18.6457 37.3069 18.4818 37.3394C18.318 37.1767 18.1869 37.0141 18.0886 36.884C18.0558 37.1117 17.3349 40.4618 14.8772 41.1123C14.5495 41.2099 14.1235 41.275 13.6319 41.2099C13.8285 41.8929 14.3201 43.2265 15.5325 44.495C16.5812 45.5358 17.6953 46.0562 18.318 46.2839C18.3835 45.8936 18.4818 45.5033 18.5473 45.113C18.7112 45.0804 19.0389 45.0154 19.3666 44.8202C19.8254 44.5275 19.9892 44.1047 20.0547 43.9421C20.3497 43.9421 20.6118 43.9421 20.9068 43.9421C20.9723 43.8445 21.0051 43.7794 21.0706 43.6819C21.3983 43.6819 21.6932 43.6819 22.0209 43.6819C22.1848 43.877 22.3486 44.1047 22.5452 44.2998C22.4797 44.3324 22.1848 44.495 22.0865 44.8528C21.9881 45.2756 22.2175 45.6334 22.2503 45.6659C22.3814 45.6334 22.6108 45.6334 22.8074 45.731C23.1679 45.8936 23.1351 46.2514 23.4955 46.414C23.8232 46.5441 24.0854 46.3489 24.1837 46.5116C24.3148 46.5766 24.282 46.7067 24.1182 47.1621Z" fill="#E30613" stroke="#1D1D1B" stroke-width="0.3266" stroke-miterlimit="10"/>
<path d="M36.079 22.0522C35.9152 22.2148 32.9987 25.012 29.394 24.0688C27.69 23.6134 26.6414 22.5401 26.1826 21.9871L27.1002 22.0197L27.1985 20.2308L27.264 14.3762L27.2968 14.2786L28.968 13.2052L30.4427 12.8149H31.9173L34.1456 13.9533L34.7682 14.6038V21.6944L34.8665 22.0522H36.079Z" fill="#E30613" stroke="#1D1D1B" stroke-width="0.3266" stroke-miterlimit="10"/>
<path d="M42.3052 50.9349H19.2026L19.8908 49.829C20.3168 49.8941 20.7428 49.9266 21.1688 49.9916C21.6604 49.5363 21.9881 49.146 22.2174 48.8532C22.4796 48.528 22.6107 48.3328 22.8728 48.2353C23.2661 48.1052 23.4954 48.3328 23.7576 48.1702C23.8887 48.1052 23.8887 48.0076 24.1181 47.1619C24.2491 46.7066 24.3147 46.5765 24.2164 46.4789C24.0853 46.3163 23.8559 46.5114 23.5282 46.3813C23.1678 46.2187 23.2005 45.8609 22.8401 45.6983C22.6434 45.6007 22.4141 45.6007 22.283 45.6332C22.2502 45.6007 21.988 45.2429 22.1191 44.8201C22.2174 44.4623 22.5124 44.2997 22.5779 44.2671C22.6434 44.137 22.709 44.0395 22.7417 43.9094C23.1022 43.8768 23.3971 43.9419 23.6265 44.0069C24.9045 44.3647 25.4944 45.6983 25.9204 46.674C26.1826 47.227 26.4775 48.0726 26.6086 49.1785C27.6244 49.1785 28.673 49.1785 29.6889 49.1785C29.6889 43.7142 29.6889 38.2825 29.6561 32.8182C30.5409 32.8182 31.3929 32.8182 32.2777 32.7856C32.2777 38.2825 32.2449 43.7467 32.2449 49.2435H35.4236C35.4236 49.1785 35.4236 49.1134 35.4236 49.0159C35.4563 48.1702 35.784 47.5522 36.1445 46.9017C36.8982 45.5682 37.2587 44.8851 37.4881 44.69C38.1434 44.137 38.8644 43.9419 39.3231 43.8768C39.3559 43.9419 39.3887 44.0069 39.4215 44.072C39.4215 44.1045 39.4542 44.137 39.4542 44.1696C39.4542 44.2021 39.487 44.2346 39.487 44.2671L39.5198 44.2346C39.6508 44.3322 39.8475 44.5273 39.913 44.8526C40.0113 45.2754 39.7819 45.6007 39.7492 45.6657C39.6181 45.6332 39.3887 45.6332 39.1921 45.7308C38.8316 45.8934 38.8644 46.2512 38.5039 46.4138C38.1762 46.5439 37.9141 46.3488 37.8157 46.5114C37.7502 46.609 37.783 46.7391 37.9141 47.1944C38.1762 48.0401 38.1434 48.1052 38.2745 48.2027C38.5367 48.3654 38.7661 48.1377 39.1593 48.2678C39.4542 48.3654 39.5525 48.5605 39.8147 48.8858C40.0441 49.1785 40.3718 49.5688 40.8633 50.0242C41.2238 49.9591 41.617 49.9266 41.9775 49.8615L42.3052 50.9349Z" fill="#1D1D1B" stroke="#1D1D1B" stroke-width="0.3266" stroke-miterlimit="10"/>
<path d="M15.4997 2.732V4.03302L14.3527 6.34233L13.5335 5.49667L13.2386 5.62677L13.1403 6.57001L11.5346 6.60254L10.9775 5.46415L10.2238 6.11466L9.37177 6.14718L8.91299 7.83851L8.38868 11.0911L10.2893 15.8073V16.9456L10.2238 17.3034L10.1582 17.3685L13.599 17.4661C13.599 18.2141 13.6318 18.9622 13.6318 19.7428C13.3697 20.8487 12.9764 21.6944 12.6815 22.2798C11.5018 24.4916 9.92885 25.6625 9.53561 25.9227C8.71637 26.5081 7.9299 26.8659 7.40559 27.0611C7.34005 26.996 7.27451 26.9635 7.20897 26.8985L5.30834 24.1988L3.80094 23.093L0.818911 22.8002L0.196289 23.158V20.2958L1.27768 16.4252L0.196289 17.1408L0.655063 15.0592L4.45633 8.09871L6.84851 3.67524L9.50284 2.2116L13.2058 0.227539H13.6646L14.6149 1.82129L15.4997 2.732Z" fill="#E30613" stroke="#1D1D1B" stroke-width="0.3266" stroke-miterlimit="10"/>
<path d="M60.4923 16.4253L61.6064 20.5235V23.1581L60.2629 20.7186L61.0494 22.6051L60.9183 22.8979L58.0018 23.1581L56.3961 24.329L54.3644 27.3213C54.135 27.0936 53.8073 26.7684 53.3485 26.4106C52.8897 26.0528 52.6931 26.0203 52.2999 25.7601C51.3168 25.1421 50.6942 24.2964 50.0388 23.3857C49.7766 23.028 49.6128 22.8003 49.4162 22.4425C49.2196 22.1172 48.6952 21.1089 48.4986 19.7103C48.4331 19.1899 48.3675 18.4744 48.4659 17.5962C49.5145 17.5637 50.5631 17.5311 51.6117 17.4986V17.4336L51.4807 15.8073L53.4468 11.1561L52.6276 6.66762L52.3327 6.08216H51.2513L50.8908 6.47247L48.8263 6.53752L48.7608 5.39912H48.4331L47.8105 6.40742L47.45 6.27731L46.4669 4.26073L46.1064 3.64275L46.3031 3.02476L48.1054 0.0649414L54.561 3.28497L61.2788 15.6772L61.5737 17.1734L60.4923 16.4253Z" fill="#E30613" stroke="#1D1D1B" stroke-width="0.3266" stroke-miterlimit="10"/>
<path d="M54.3646 27.3213L54.2336 27.5165L52.1691 28.9801H52.1363C51.9397 28.85 51.6775 28.6224 51.3498 28.3296C50.4651 27.5816 49.6786 26.8985 48.9904 25.9228C48.6627 25.4674 48.9249 25.7276 47.8435 23.7435C47.4175 22.9304 47.1553 22.5401 46.926 21.8571C46.6966 21.2391 46.5655 20.6861 46.4672 20.3284C46.3689 20.3284 46.2706 20.3284 46.1723 20.3284C45.6152 20.9789 45.0581 21.109 44.8287 21.1415C44.501 21.2066 44.2061 21.1415 43.6162 21.0439C43.0919 20.9463 42.6659 20.8488 42.371 20.7512C41.7811 20.7512 41.1913 20.7837 40.6342 20.7837C40.241 20.8488 39.52 20.9789 38.7991 21.5318C38.4059 21.8245 38.1437 22.1498 37.9799 22.41C37.7177 22.7353 37.3245 23.2231 36.8329 23.7761C36.112 24.5242 35.5222 25.1421 34.6374 25.6625C34.1786 25.9228 33.3921 26.3131 32.3107 26.4757C32.3107 28.5898 32.3107 30.6715 32.3107 32.7856C31.426 32.7856 30.5739 32.7856 29.6892 32.8182C29.6892 30.704 29.6892 28.5573 29.6892 26.4432C29.1649 26.3781 28.1162 26.2155 27.0021 25.4999C25.8879 24.7844 25.2981 23.9062 25.0031 23.4508C24.7737 23.0605 24.446 22.6051 23.9873 22.1498C23.2336 21.3692 22.4143 20.9789 21.8572 20.7512C21.3002 20.6536 20.5137 20.6211 19.5961 20.7187C18.7769 20.8162 18.0887 21.0114 17.5644 21.2066C17.3678 21.174 17.1712 21.174 17.0074 21.1415C16.5813 20.8162 16.1553 20.491 15.6966 20.1657C15.5655 20.8162 15.3689 21.5643 15.0084 22.3775C14.8446 22.8003 14.4841 23.6134 13.6976 24.7518C12.4852 26.5733 11.0433 28.0044 9.9619 28.9801C9.07712 28.3296 8.22511 27.6791 7.34033 27.0286C7.86464 26.8335 8.65111 26.4757 9.47035 25.8902C9.86359 25.5975 11.4693 24.4266 12.6162 22.2474C12.9112 21.6619 13.3044 20.8162 13.5665 19.7104C13.5665 18.9623 13.5338 18.2142 13.5338 17.4336H13.6649L16.5158 19.4502L21.6279 19.3851L25.0359 21.9221L26.1501 21.9872C26.6088 22.5401 27.6902 23.6134 29.3615 24.0688C32.9334 25.012 35.8826 22.2148 36.0465 22.0522H36.5052L40.241 19.5152H45.0581L47.6141 17.5637C47.6469 17.5637 48.335 17.5312 48.4006 17.5312H48.4334C48.335 18.4094 48.4006 19.1249 48.4661 19.6453C48.6627 21.0765 49.2198 22.0522 49.3837 22.3775C49.5803 22.7353 49.7441 22.9629 50.0063 23.3207C50.6617 24.2314 51.2515 25.0446 52.2674 25.6951C52.6606 25.9553 52.8572 25.9878 53.316 26.3456C53.8076 26.7359 54.1353 27.0611 54.3646 27.3213Z" fill="#1D1D1B" stroke="#1D1D1B" stroke-width="0.3266" stroke-miterlimit="10"/>
<path d="M52.1363 28.9476L50.3667 29.5981L49.2853 29.8258C47.6469 29.7932 45.9756 29.7932 44.3371 29.7607C43.6162 30.8341 43.1902 31.7773 42.928 32.4929C42.6004 33.306 42.502 33.7939 42.3054 34.6395C42.1088 35.5503 42.1088 35.843 42.2071 36.1357C42.4693 36.8187 43.1902 37.1765 43.4851 37.2741C43.1247 37.6644 42.7642 38.0222 42.4037 38.4125C41.7156 38.9004 41.2568 39.3883 40.9291 39.7786C39.7494 41.2422 39.4545 42.836 39.3562 43.454C39.3234 43.6491 39.3234 43.7792 39.2906 43.9093C38.7991 43.9744 38.0782 44.1695 37.4555 44.7224C37.2261 44.9176 36.8657 45.5681 36.112 46.9342C35.7515 47.5847 35.4238 48.2027 35.391 49.0483C35.391 49.1459 35.391 49.211 35.391 49.276H32.2124C32.2124 43.7792 32.2452 38.3149 32.2452 32.8181C32.2452 30.704 32.2452 28.6223 32.2452 26.5082C33.3266 26.313 34.0803 25.9552 34.5718 25.695C35.4894 25.1746 36.0464 24.5566 36.7674 23.8085C37.2917 23.2556 37.6521 22.7677 37.9143 22.4425C38.0782 22.1823 38.3403 21.857 38.7335 21.5643C39.4545 21.0114 40.1754 20.8812 40.5686 20.8162C41.1585 20.8162 41.7483 20.7837 42.3054 20.7837C42.6004 20.8812 43.0264 20.9788 43.5507 21.0764C44.1405 21.174 44.4682 21.239 44.7631 21.174C44.9925 21.1415 45.5496 20.9788 46.1067 20.3608C46.205 20.3608 46.3033 20.3608 46.4016 20.3608C46.4672 20.7186 46.5982 21.2716 46.8604 21.8895C47.1226 22.5726 47.3519 22.9629 47.7779 23.776C48.8593 25.7601 48.5972 25.4999 48.9249 25.9552C49.613 26.931 50.4323 27.614 51.2843 28.3621C51.6775 28.5898 51.9725 28.8175 52.1363 28.9476Z" fill="white" stroke="#1D1D1B" stroke-width="0.3266" stroke-miterlimit="10"/>
<path d="M29.6891 49.1785C28.6733 49.1785 27.6246 49.1785 26.6088 49.1785C26.4777 48.0726 26.15 47.2269 25.9206 46.674C25.4946 45.7308 24.872 44.3647 23.6268 44.0069C23.3974 43.9419 23.1025 43.9093 22.742 43.9093C22.742 43.8118 22.7092 43.6491 22.6764 43.454C22.5781 42.8035 22.2177 40.6243 20.6775 39.1931C20.186 38.7378 20.0549 38.7703 19.3012 38.0873C19.0063 37.7945 18.7441 37.5343 18.5147 37.3067C18.6786 37.2741 19.1046 37.144 19.4323 36.7537C19.6944 36.461 19.7927 36.1357 19.8255 35.9731C19.7927 35.0949 19.6289 33.8915 19.1373 32.5254C18.7113 31.3545 18.1542 30.4113 17.6955 29.7607C16.0898 29.7607 14.4841 29.7933 12.9111 29.7933C11.9608 29.5656 11.0433 29.3054 10.0929 29.0777C10.0602 29.0452 10.0274 29.0452 9.99463 29.0127C11.1088 28.0369 12.5179 26.5732 13.7304 24.7843C14.4841 23.6459 14.8445 22.8328 15.0411 22.41C15.3688 21.5968 15.5982 20.8162 15.7293 20.1982C16.1553 20.5235 16.5813 20.8488 17.0401 21.174C17.2367 21.2065 17.4333 21.2065 17.5972 21.2391C18.1215 21.0439 18.7769 20.8488 19.6289 20.7512C20.5464 20.6536 21.3329 20.6861 21.89 20.7837C22.4471 21.0114 23.2335 21.4342 24.02 22.1823C24.4788 22.6377 24.8065 23.093 25.0359 23.4833C25.298 23.9387 25.9206 24.8169 27.0348 25.5324C28.1162 26.2155 29.1648 26.4106 29.7219 26.4757C29.7219 28.5898 29.7219 30.7365 29.7219 32.8507C29.6891 38.2824 29.6891 43.7467 29.6891 49.1785Z" fill="white" stroke="#1D1D1B" stroke-width="0.3266" stroke-miterlimit="10"/>
<path d="M7.20898 21.5318C7.66776 21.2391 8.25761 20.7838 8.81469 20.0682C9.69947 18.9948 10.0272 17.889 10.191 17.271" stroke="#1D1D1B" stroke-width="0.3266" stroke-miterlimit="10"/>
<path d="M3.76828 15.2871C3.53889 15.5473 3.11289 16.1002 2.94904 16.9134C2.78519 17.6289 2.8835 18.2144 2.94904 18.5397C3.17843 18.3445 3.47335 18.0193 3.76828 17.5964C4.09598 17.076 4.25982 16.5881 4.32536 16.2629" stroke="#1D1D1B" stroke-width="0.3266" stroke-miterlimit="10"/>
<path d="M1.63814 20.7188C1.34322 21.4343 1.04829 22.1173 0.786133 22.8329" stroke="#1D1D1B" stroke-width="0.3266" stroke-miterlimit="10"/>
<path d="M9.20802 34.542C8.94586 34.6721 7.43846 35.3877 6.94692 37.079C6.68476 37.9897 6.81584 38.7703 6.91415 39.1606C7.86447 38.998 9.24079 38.9004 10.8793 39.2257C11.7313 39.3883 12.4522 39.6485 13.0421 39.9087C13.2387 40.3315 13.4353 40.7218 13.6319 41.1447" stroke="#1D1D1B" stroke-width="0.3266" stroke-miterlimit="10"/>
<path d="M7.111 45.6984C7.07823 45.6658 7.04546 45.6658 7.0127 45.6333" stroke="#1D1D1B" stroke-width="0.3266" stroke-miterlimit="10"/>
<path d="M16.9417 33.2084C16.5157 32.9482 15.8603 32.623 15.0411 32.5254C14.8444 32.4929 14.6478 32.4929 14.4512 32.4929C13.5664 32.4929 12.7144 32.5254 11.8296 32.5254C11.7313 32.4603 11.4364 32.2327 11.3053 31.7773C11.1743 31.387 11.2726 31.0292 11.3381 30.9316" stroke="#1D1D1B" stroke-width="0.3266" stroke-miterlimit="10"/>
<path d="M32.2778 32.8182C34.8339 32.7856 37.3899 32.7856 39.9459 32.7531C41.1256 31.3545 42.3053 29.9559 43.485 28.5898" stroke="#1D1D1B" stroke-width="0.3266" stroke-miterlimit="10"/>
<path d="M18.6128 28.5249C19.7597 29.9886 20.9067 31.4197 22.0536 32.8833C24.5769 32.8508 27.1329 32.8508 29.6561 32.8183" stroke="#1D1D1B" stroke-width="0.3266" stroke-miterlimit="10"/>
<path d="M44.7305 33.2733C45.6152 32.7203 46.3362 32.6227 46.8277 32.6227C47.3193 32.6227 47.647 32.7528 48.5645 32.7203C49.1871 32.7203 49.4821 32.7203 49.777 32.5902C50.4651 32.265 50.7273 31.4844 50.8584 31.0615" stroke="#1D1D1B" stroke-width="0.3266" stroke-miterlimit="10"/>
<path d="M52.8898 34.5747C53.152 34.7048 54.2661 35.1927 54.8888 36.4937C55.4458 37.6646 55.2165 38.7054 55.1509 39.0307C53.9057 39.0632 52.6604 39.0958 51.4152 39.1283C51.0875 39.1608 50.3666 39.2584 49.6129 39.7463C48.8919 40.2341 48.5315 40.8847 48.4004 41.1774" stroke="#1D1D1B" stroke-width="0.3266" stroke-miterlimit="10"/>
<path d="M39.5528 44.2345C39.5201 44.202 39.4873 44.202 39.4873 44.1694" stroke="#1D1D1B" stroke-width="0.3266" stroke-miterlimit="10"/>
<path d="M58.4607 15.3521C58.6573 15.6123 59.0178 16.1327 59.1817 16.9133C59.3455 17.6288 59.2144 18.2468 59.1489 18.5396C58.8212 18.1492 58.4935 17.6614 58.1986 17.0759C58.002 16.6856 57.8381 16.3278 57.707 16.0026" stroke="#1D1D1B" stroke-width="0.3266" stroke-miterlimit="10"/>
<path d="M54.6594 21.5319C53.9057 20.7188 53.0865 19.7105 52.3328 18.5721C52.0706 18.1493 51.8085 17.759 51.5791 17.3687" stroke="#1D1D1B" stroke-width="0.3266" stroke-miterlimit="10"/>
<path d="M60.1321 40.1362C58.854 40.9819 58.1003 41.8926 57.6416 42.5756C57.1173 43.3563 56.724 44.267 55.6426 45.0151C55.4132 45.1777 55.1839 45.2753 54.7579 45.5029C54.0697 45.8607 53.0538 46.2836 51.8086 46.7714" stroke="#1D1D1B" stroke-width="0.3266" stroke-miterlimit="10"/>
</g>
<defs>
<clipPath id="clip0_133_2069">
<rect width="62" height="51" fill="white"/>
</clipPath>
</defs>
</svg>
