<svg width="227" height="330" viewBox="0 0 227 330" fill="none" xmlns="http://www.w3.org/2000/svg">
<path d="M0 249.761C0 267.057 7.56665 291.874 39.3466 311.426C66.5865 327.97 127.876 342.258 184.626 312.93C220.946 292.626 225.486 266.305 226.243 253.521L0 249.761Z" fill="#0D0F17"/>
<path d="M0.756665 110.64L0 249.761C0 266.305 10.5933 282.85 31.7799 295.634C75.6665 321.202 147.55 321.954 192.193 297.138C214.893 284.354 226.243 267.809 226.243 250.513L226.999 111.392L0.756665 110.64Z" fill="url(#paint0_linear_155_1048)"/>
<path d="M188.409 50.4797C163.44 34.6876 115.013 22.6555 62.0465 39.9516C47.6699 44.4636 2.26999 62.5118 0 110.64C0 127.184 10.5933 143.729 31.7799 156.513C75.6665 182.081 147.55 182.833 192.193 158.017C214.893 145.233 226.243 128.688 226.243 111.392C226.999 86.576 213.379 66.2718 188.409 50.4797Z" fill="url(#paint1_radial_155_1048)"/>
<path d="M40.8599 54.2393V83.5675C40.8599 94.0956 47.6698 104.624 61.2898 112.896C89.2864 129.44 135.443 130.192 164.953 113.648C179.329 105.376 186.896 94.8476 186.896 83.5675V54.2393H40.8599Z" fill="url(#paint2_linear_155_1048)"/>
<path d="M166.466 25.6631C138.469 9.11893 92.3126 8.36693 62.8027 24.9111C34.0495 40.7032 33.2928 67.7754 61.2894 84.3196C89.286 100.864 135.442 101.616 164.952 85.0716C193.706 68.5274 194.462 42.2072 166.466 25.6631Z" fill="#2E2E2E"/>
<path d="M36.3203 44.4644V62.5125C36.3203 73.7926 43.887 85.0727 58.2636 94.0968C88.5302 112.145 137.713 112.145 168.737 94.8488C184.627 85.8247 192.193 74.5446 192.193 62.5125V44.4644H36.3203Z" fill="#0A4788"/>
<path d="M169.493 13.6316C139.226 -4.41654 90.043 -4.41653 59.0197 12.8796C27.9965 30.1758 27.2398 58.752 57.5064 76.0481C87.773 94.0963 136.956 94.0963 167.979 76.8002C199.003 59.504 199.759 31.6798 169.493 13.6316Z" fill="#1A6AB3"/>
<path d="M174.033 158.769C136.956 176.065 92.3128 160.273 162.683 126.433C213.379 102.368 217.919 138.465 174.033 158.769Z" fill="url(#paint3_linear_155_1048)"/>
<path d="M227 123.424C227 140.72 215.651 157.264 192.951 170.048C148.307 194.864 76.4243 194.112 32.5377 168.544C12.8644 157.264 2.27114 142.224 0.757812 127.184V238.481C0.757812 255.025 11.3511 271.569 32.5377 284.353C76.4243 309.921 148.307 310.673 192.951 285.857C215.651 273.073 227 256.529 227 239.233V123.424Z" fill="#2664AE"/>
<path opacity="0.5" d="M71.8831 210.657C77.9364 212.161 80.2064 212.913 86.2598 214.417C89.2864 221.937 90.7997 224.945 93.8264 232.465C90.7997 238.481 89.2864 241.489 86.2598 247.505C80.2064 246.753 77.1798 246.001 71.8831 243.745C68.8565 236.225 67.3431 232.465 64.3165 224.945C68.0998 219.681 69.6131 216.673 71.8831 210.657ZM73.3965 183.585C71.8831 186.593 71.1265 188.849 68.8565 191.857C71.1265 197.121 71.8831 200.129 74.1531 205.393C78.6931 206.897 80.9631 206.897 84.7464 207.649C87.0164 203.137 87.7731 200.881 90.0431 196.369C88.5298 191.857 87.0164 189.601 85.5031 185.089C82.4764 185.841 77.9364 185.089 73.3965 183.585ZM66.5865 189.601C68.0998 187.345 68.8565 185.089 69.6131 183.585C65.0732 182.081 60.5332 180.577 55.9932 179.073C56.7498 181.329 57.5065 183.585 59.0198 186.593C62.0465 187.345 63.5598 188.097 66.5865 189.601ZM40.1032 266.305C37.0766 264.801 34.8066 264.049 31.7799 261.793C30.2666 264.801 29.5099 266.305 27.9966 269.313C29.5099 274.578 30.2666 276.834 31.7799 281.346C34.8066 283.602 37.0766 284.354 40.1032 285.858C41.6166 282.85 42.3732 281.346 44.6432 278.338C43.1299 273.074 42.3732 270.818 40.1032 266.305ZM0 135.456V158.017C1.51333 159.521 3.02666 161.025 5.29665 162.529C6.80998 159.521 8.32331 158.017 9.83664 155.008C9.07997 151.248 7.56665 148.992 6.80998 145.984C5.29665 143.728 3.78332 140.72 2.26999 138.464C2.26999 136.96 1.51333 136.208 0 135.456ZM32.5366 188.097C37.8332 191.105 40.8599 192.609 46.1565 195.617C49.1832 190.353 50.6965 187.345 52.9665 182.081C52.9665 180.577 52.2099 179.073 51.4532 177.569C44.6432 175.313 37.8332 171.553 31.7799 168.545C30.2666 167.793 28.7533 166.289 26.4833 165.537C25.7266 166.289 25.7266 167.041 24.9699 168.545C27.9966 176.065 29.5099 180.577 32.5366 188.097ZM195.219 236.225C192.949 241.489 192.193 244.497 190.679 249.761C192.949 253.521 193.706 255.025 195.219 258.785C199.003 256.529 201.273 255.777 205.056 253.521C206.569 247.505 208.083 245.249 209.596 239.233C208.083 236.225 206.569 233.969 205.056 230.961C201.273 233.217 199.003 234.721 195.219 236.225ZM188.409 248.257C191.436 239.985 192.949 236.225 195.219 227.953C192.193 222.689 190.679 220.433 188.409 215.169C183.113 218.177 180.086 218.929 174.033 221.185C171.006 228.705 169.493 232.465 167.223 239.985C170.25 246.001 171.763 248.257 174.033 254.273C180.086 252.769 182.356 251.265 188.409 248.257ZM127.876 203.889C129.39 200.129 130.146 197.873 132.416 193.361C131.66 191.105 130.903 189.601 129.39 187.345C125.606 187.345 121.066 188.097 117.283 188.097C116.526 190.353 115.77 191.857 114.256 194.113C115.77 197.873 116.526 200.129 118.796 203.889C122.58 203.889 124.093 203.889 127.876 203.889ZM0 178.321V181.329C1.51333 186.593 2.26999 189.601 4.53999 195.617C3.02666 198.625 1.51333 200.129 0 203.137V206.145C2.26999 202.385 3.02666 200.881 5.29665 197.121C3.78332 189.601 2.26999 185.841 0 178.321ZM150.576 189.601C152.846 193.361 153.603 195.617 155.873 200.129C159.656 199.377 161.926 198.625 165.71 197.121C167.98 191.857 168.736 189.601 170.25 184.337C169.493 182.833 168.736 181.329 167.98 180.577C162.683 182.081 157.386 183.585 152.09 185.089C152.09 185.841 151.333 187.345 150.576 189.601ZM155.116 264.801C156.63 268.561 157.386 270.066 159.656 273.826C163.44 273.074 164.953 272.322 167.98 271.569C169.493 267.057 170.25 264.801 172.52 260.289C171.006 257.281 170.25 255.025 167.98 252.017C164.196 253.521 162.683 253.521 159.656 254.273C158.143 258.033 156.63 260.289 155.116 264.801ZM136.2 217.425C140.74 216.673 143.01 216.673 146.793 215.921C149.063 210.657 149.82 207.649 152.09 202.385C149.82 197.873 149.063 195.617 146.793 191.105C142.253 191.857 139.983 192.609 136.2 192.609C133.93 197.873 133.173 200.129 130.903 205.393C132.416 210.657 133.93 212.913 136.2 217.425ZM108.96 242.993C111.986 236.225 113.5 232.465 116.526 225.697C122.58 225.697 125.606 225.697 132.416 224.945C135.443 231.713 136.956 234.721 139.983 241.489C136.956 249.009 135.443 252.769 132.416 260.289C126.363 261.041 123.336 261.041 116.526 261.041C113.5 253.521 111.986 249.761 108.96 242.993ZM110.473 242.993C113.5 249.761 115.013 252.769 117.283 259.537C123.336 259.537 125.606 259.537 131.66 258.785C134.686 252.017 136.2 249.009 138.47 241.489C135.443 235.473 133.93 232.465 131.66 226.449C125.606 227.201 123.336 227.201 117.283 227.201C115.013 233.217 113.5 236.225 110.473 242.993ZM43.1299 239.233C39.3466 237.729 37.0766 236.225 33.2932 233.969C31.0232 237.729 30.2666 239.233 28.7533 242.241C30.2666 248.257 31.7799 250.513 33.2932 256.529C37.0766 258.785 39.3466 259.537 43.1299 261.793C45.3999 258.033 46.1565 256.529 47.6699 252.769C46.1565 247.505 45.3999 244.497 43.1299 239.233ZM0 127.936C0.756665 127.936 0 127.184 0 127.936ZM104.42 264.049C106.69 259.537 107.446 257.281 109.716 252.769C107.446 248.257 106.69 246.001 104.42 241.489C100.636 241.489 98.3664 240.737 94.5831 240.737C92.3131 245.249 91.5564 246.753 89.2864 251.265C91.5564 255.777 92.3131 258.785 94.5831 263.297C98.3664 263.297 99.8797 263.297 104.42 264.049ZM49.9399 273.826C46.9132 279.842 44.6432 283.602 41.6166 288.866C42.3732 288.866 42.3732 289.618 43.1299 289.618C45.3999 285.106 47.6699 281.346 50.6965 275.33C58.2632 278.338 62.0465 279.842 69.6131 282.098C72.6398 289.618 74.1531 294.13 76.4231 299.394C77.1798 299.394 77.1798 299.394 77.9365 299.394C75.6665 293.378 73.3965 288.114 70.3698 279.842C62.0465 279.09 58.2632 277.586 49.9399 273.826ZM94.5831 196.369C98.3664 197.121 100.636 197.121 104.42 197.121C105.933 193.361 107.446 191.105 108.203 188.097C102.15 188.097 96.0964 187.345 90.0431 186.593C92.3131 190.353 93.0697 192.609 94.5831 196.369ZM176.303 257.281C174.033 263.297 173.276 265.553 171.006 271.569C173.276 276.082 174.033 277.586 176.303 282.098C180.843 280.594 182.356 279.842 186.896 277.586C189.166 271.57 189.923 268.561 192.193 262.545C189.923 258.785 189.166 256.529 186.896 252.769C182.356 255.025 180.086 255.777 176.303 257.281ZM105.176 303.154C110.473 303.154 112.743 303.906 118.04 303.906C118.04 303.906 118.04 303.906 118.04 304.658C118.796 304.658 118.796 304.658 119.553 304.658C119.553 303.906 118.796 303.154 118.796 302.402C112.743 302.402 110.473 302.402 104.42 301.65C103.663 302.402 103.663 303.154 103.663 303.906C104.42 303.906 104.42 303.906 105.176 303.906C105.176 303.154 105.176 303.154 105.176 303.154ZM149.82 264.801C141.496 266.305 137.713 267.057 129.39 267.809C125.606 277.586 123.336 282.098 118.796 291.874C121.066 297.138 122.58 300.146 124.093 303.906C124.85 303.906 124.85 303.906 125.606 303.906C124.093 300.146 122.58 296.386 120.31 291.874C124.093 282.85 126.363 278.338 130.146 269.313C137.713 268.561 141.496 267.809 149.82 266.305C153.603 274.578 155.873 278.338 159.656 285.858C157.386 291.874 155.873 295.634 154.36 300.146C155.116 300.146 155.116 300.146 155.873 300.146C157.386 295.634 158.9 291.874 161.17 285.858C155.873 277.586 153.603 273.074 149.82 264.801ZM30.2666 256.529C27.9966 250.513 27.2399 247.505 24.9699 241.489C21.1866 239.233 18.9166 237.729 15.1333 234.721C12.8633 238.481 12.1066 239.985 9.83664 242.993C12.1066 249.761 12.8633 252.769 15.1333 258.785C18.9166 261.793 21.1866 263.297 24.9699 265.553C27.2399 262.545 28.7533 260.289 30.2666 256.529ZM84.7464 275.33C87.0164 270.817 87.7731 268.561 90.0431 264.049C87.7731 258.785 87.0164 255.777 84.7464 250.513C80.2064 249.761 77.9365 249.009 74.1531 248.257C71.8831 252.769 71.1265 255.025 68.8565 258.785C71.1265 264.049 71.8831 267.057 74.1531 272.322C78.6931 273.826 80.9631 274.578 84.7464 275.33ZM27.2399 238.481C30.2666 233.217 31.0232 230.961 34.0499 225.697C31.0232 217.425 30.2666 213.665 27.2399 205.393C21.9433 201.633 18.9166 200.129 13.62 196.369C10.5933 200.881 9.83664 203.137 6.80998 207.649C9.07997 216.673 10.5933 220.433 13.62 229.457C18.9166 233.217 21.1866 235.473 27.2399 238.481ZM26.4833 198.625C27.9966 195.617 28.7533 194.113 30.2666 191.105C28.7533 185.841 27.9966 183.585 26.4833 179.073C23.4566 176.817 21.9433 176.065 18.16 173.809C16.6466 176.817 15.89 178.321 14.3766 180.577C15.89 185.841 16.6466 188.097 18.16 193.361C21.9433 195.617 23.4566 197.121 26.4833 198.625ZM8.32331 239.233C9.83664 236.225 10.5933 235.473 12.1066 232.465C10.5933 227.201 9.83664 224.945 8.32331 219.681C5.29665 217.425 3.78332 215.921 0.756665 212.913V231.713V232.465C3.02666 235.473 4.53999 236.977 8.32331 239.233ZM66.5865 255.777C68.0998 252.769 68.8565 250.513 71.1265 247.505C68.8565 242.993 68.0998 240.737 66.5865 236.225C62.8032 235.473 61.2898 234.721 58.2632 233.217C56.7498 236.225 55.9932 238.481 53.7232 241.489C55.2365 246.001 55.9932 248.257 58.2632 252.769C61.2898 254.273 62.8032 255.025 66.5865 255.777ZM44.6432 198.625C40.1032 196.369 38.5899 195.617 34.0499 193.361C31.7799 197.121 31.0232 198.625 28.7533 202.385C31.0232 208.401 31.7799 211.409 34.0499 217.425C37.8332 219.681 40.1032 220.433 44.6432 222.689C46.9132 218.929 47.6699 216.673 49.9399 212.913C47.6699 207.649 46.9132 204.641 44.6432 198.625ZM63.5598 216.673C65.0731 212.913 66.5865 210.657 68.0998 206.897C65.8298 201.633 65.0731 199.377 63.5598 194.113C59.7765 192.609 57.5065 191.857 53.7232 190.353C51.4532 194.113 50.6965 195.617 49.1832 199.377C51.4532 204.641 52.2099 207.649 53.7232 212.913C57.5065 214.417 59.0198 215.169 63.5598 216.673Z" fill="#213058"/>
<path d="M196.733 207.649C189.167 199.377 187.653 196.369 183.113 191.105C186.14 189.601 188.41 188.097 191.437 186.593C194.463 189.601 197.49 193.361 200.517 196.369C204.3 188.097 207.327 180.577 210.353 173.057C212.623 170.801 215.65 169.297 217.92 167.041C213.38 179.073 208.84 191.105 203.543 203.889C203.543 205.393 203.543 218.177 203.543 219.681C201.273 221.185 199.003 222.689 196.733 224.193C195.977 221.937 196.733 209.153 196.733 207.649ZM96.8535 277.585C96.8535 279.842 95.3402 279.841 93.8269 279.841C95.3402 281.346 95.3402 282.098 96.8535 284.354C96.0969 284.354 96.0969 284.354 95.3402 284.354C93.8269 282.85 93.8269 282.098 92.3135 279.841C91.5569 279.841 89.2869 279.841 88.5302 279.841C88.5302 281.346 88.5302 282.098 88.5302 284.354C87.7736 284.354 87.7736 284.354 87.7736 284.354C87.7736 280.593 87.7736 276.081 87.7736 273.073C97.6102 272.321 96.8535 270.817 96.8535 277.585ZM89.2869 273.073C88.5302 273.825 88.5302 273.073 89.2869 273.073C88.5302 275.329 88.5302 276.081 88.5302 276.833C88.5302 276.833 88.5302 277.585 89.2869 277.585C91.5569 277.585 93.0702 277.585 95.3402 277.585C95.3402 277.585 96.0969 277.585 96.0969 276.833C95.3402 272.321 96.8535 273.825 89.2869 273.073ZM118.04 239.233C124.093 238.481 130.903 236.977 136.957 234.721C136.957 236.225 136.2 249.761 136.2 251.265C138.47 250.513 140.74 249.761 143.01 249.009C143.01 247.505 144.523 209.153 144.523 206.897C142.253 207.649 139.983 208.401 137.713 209.153C137.713 218.929 137.713 215.169 136.957 225.697C130.903 227.201 124.093 229.457 117.283 230.209C117.283 219.681 117.283 224.193 117.283 214.417C115.013 215.169 112.743 215.169 110.474 215.921C110.474 216.673 110.474 256.529 110.474 257.281C112.743 257.281 115.013 256.529 117.283 256.529C118.04 254.273 118.04 240.737 118.04 239.233ZM86.2602 273.825C86.2602 279.089 87.0169 279.089 81.7202 279.089C80.9636 279.089 78.6936 279.089 77.9369 279.089C77.9369 280.593 77.9369 281.346 77.9369 283.602C77.1803 283.602 77.1803 283.602 77.1803 283.602C77.1803 279.841 77.1803 275.329 77.1803 272.321C83.2336 272.321 86.2602 270.817 86.2602 273.825ZM85.5036 273.825C83.2336 273.073 80.9636 273.073 78.6936 273.073C78.6936 273.073 77.9369 273.073 77.9369 273.825C77.9369 275.329 77.9369 276.081 77.9369 276.833C77.9369 276.833 77.9369 277.585 78.6936 277.585C87.0169 278.337 85.5036 279.089 85.5036 273.825ZM74.1536 257.281C74.1536 256.529 79.4503 239.233 81.7202 231.713C84.7469 240.737 87.0169 249.009 89.2869 258.033C90.8002 258.033 93.0702 258.033 94.5835 258.033C98.3669 244.497 102.15 230.209 106.69 215.921C104.42 215.921 101.394 216.673 99.1235 216.673C96.0969 225.697 95.3402 229.457 92.3135 241.489C90.0436 233.217 87.7736 225.697 84.7469 217.425C82.4769 217.425 80.2069 217.425 77.9369 217.425C75.6669 225.697 74.1536 230.209 71.1269 240.737C68.8569 232.465 65.8303 223.441 63.5603 216.673C61.2903 216.673 59.0203 215.921 55.9937 215.921C59.777 229.457 64.317 242.993 68.1003 257.281C70.3703 257.281 71.8836 257.281 74.1536 257.281ZM179.33 224.945C171.763 229.457 164.197 232.465 156.63 236.225C156.63 234.721 156.63 230.209 156.63 228.705C162.683 226.449 168.737 223.441 174.79 220.433C174.79 219.681 174.79 212.161 174.79 211.409C168.737 214.417 162.683 217.425 156.63 219.681C156.63 218.929 156.63 212.913 156.63 212.161C164.197 209.153 171.763 205.393 179.33 200.881C179.33 199.377 179.33 193.361 179.33 191.857C169.493 197.121 159.657 201.633 149.063 205.393C149.063 206.897 147.55 245.249 147.55 247.505C157.387 243.745 167.223 239.233 177.06 233.969C178.573 232.465 179.33 226.449 179.33 224.945ZM99.8802 283.602C97.6102 283.602 98.3669 280.594 98.3669 277.585C98.3669 270.817 98.3669 271.569 102.907 271.569C105.177 271.569 107.447 270.817 107.447 273.073C107.447 285.106 108.204 282.85 99.8802 283.602ZM105.934 273.073C103.664 272.321 101.394 273.073 99.1235 273.073C99.1235 273.073 98.3669 273.073 98.3669 273.825C98.3669 279.089 98.3669 279.089 98.3669 281.346C98.3669 281.346 98.3669 282.098 99.1235 282.098C101.394 282.098 102.907 282.098 105.177 282.098C105.177 282.098 105.934 282.098 105.934 281.346C105.934 276.081 105.934 276.081 105.934 273.073ZM174.033 262.545C173.277 262.545 173.277 262.545 173.277 263.297C173.277 261.793 173.277 261.041 173.277 258.785C171.007 260.289 168.737 261.041 166.467 262.545C166.467 264.049 166.467 264.801 166.467 267.057C165.71 267.057 165.71 267.057 165.71 267.809C166.467 255.025 164.953 256.529 171.007 253.521C175.547 249.761 174.79 249.009 174.033 262.545ZM167.223 255.777L166.467 256.529C166.467 258.033 166.467 258.785 166.467 261.041C168.737 259.537 171.007 258.785 173.277 257.281C173.277 250.513 174.79 252.017 167.223 255.777ZM183.87 245.249C182.357 247.505 181.6 249.761 180.087 252.769C178.573 253.521 178.573 253.521 177.06 254.273C177.06 252.017 177.06 251.265 177.06 249.009C176.303 249.009 176.303 249.009 176.303 249.761C176.303 250.513 175.547 260.289 175.547 261.793C176.303 261.793 176.303 261.793 176.303 261.041C176.303 258.785 176.303 258.033 176.303 255.777C177.817 255.025 177.817 255.025 179.33 254.273C180.843 255.777 181.6 256.529 182.357 257.281C183.113 257.281 183.113 256.529 183.87 256.529C182.357 255.025 181.6 254.273 180.087 252.769C181.6 249.761 183.113 246.753 183.87 244.497C184.627 245.249 183.87 245.249 183.87 245.249ZM207.327 224.945C202.787 249.009 202.787 252.769 199.76 255.025C129.39 303.154 66.587 291.122 62.8036 288.866C60.5336 288.866 59.777 286.61 60.5336 285.106C67.3436 252.769 56.7503 268.561 109.717 262.545C142.253 258.785 174.033 245.249 205.057 222.689C206.57 221.185 207.327 222.689 207.327 224.945ZM205.057 224.193C205.057 224.193 162.683 258.033 109.717 264.049C61.2903 269.313 67.3436 258.785 65.0736 270.065C61.2903 289.618 59.777 287.362 68.857 288.114C115.77 294.13 155.873 282.098 199.003 252.769C199.76 252.017 200.517 251.265 200.517 250.513C202.03 242.241 203.543 233.217 205.813 224.945C205.813 224.945 205.057 224.193 205.057 224.193ZM162.683 261.041C160.413 261.793 158.143 263.297 155.117 264.049C155.117 261.793 155.117 261.041 155.117 258.785C154.36 258.785 154.36 258.785 154.36 259.537C154.36 264.049 154.36 267.057 153.603 271.569C154.36 271.569 154.36 271.569 154.36 270.817C154.36 268.561 154.36 267.809 154.36 265.553C156.63 264.801 158.9 263.297 161.927 262.545C161.927 264.801 161.927 265.553 161.927 267.809C162.683 267.809 162.683 267.809 162.683 267.057C162.683 265.553 163.44 256.529 163.44 255.025C162.683 255.025 162.683 255.025 162.683 255.777C162.683 258.033 162.683 259.537 162.683 261.041ZM186.14 255.777C189.167 254.273 191.437 252.769 194.463 250.513C194.463 249.761 194.463 249.761 194.463 249.009C192.193 250.513 189.923 252.017 186.897 253.521C186.897 252.017 186.897 251.265 186.897 249.761C189.167 248.257 190.68 247.505 192.95 246.001C192.95 245.249 192.95 245.249 192.95 244.497C190.68 246.001 189.167 246.753 186.897 248.257C186.897 246.753 186.897 246.001 186.897 244.497C189.167 242.993 191.437 241.489 194.463 239.985C194.463 239.233 194.463 239.233 194.463 238.481C191.437 239.985 189.167 242.241 186.14 243.745C186.14 252.017 186.14 255.777 186.14 255.777ZM108.204 272.321C109.717 272.321 110.474 272.321 111.987 271.569C111.987 272.321 111.987 278.337 111.987 282.098C112.743 282.098 112.743 282.098 112.743 282.098C112.743 281.346 112.743 273.073 112.743 271.569C114.257 271.569 115.013 271.569 116.527 270.817C116.527 270.065 116.527 270.065 116.527 269.313C113.5 270.065 110.473 270.065 107.447 270.817C108.204 271.569 108.204 272.321 108.204 272.321ZM127.877 279.841C128.633 279.841 128.633 279.841 128.633 279.841C128.633 279.089 128.633 269.313 128.633 267.809C127.877 267.809 127.877 267.809 127.877 267.809C127.877 269.313 127.877 278.337 127.877 279.841ZM118.04 281.346C121.067 280.594 123.337 280.594 126.363 279.841C126.363 279.089 126.363 279.089 126.363 278.337C124.093 279.089 121.823 279.089 119.553 279.841C119.553 278.337 119.553 277.585 119.553 276.081C121.823 276.081 123.337 275.329 125.607 275.329C125.607 274.577 125.607 274.577 125.607 273.825C123.337 274.577 121.823 274.577 119.553 274.577C119.553 273.073 119.553 272.321 119.553 270.817C121.823 270.065 124.093 270.065 127.12 269.313C127.12 268.561 127.12 268.561 127.12 267.809C124.093 268.561 121.823 268.561 118.797 269.313C118.04 277.585 118.04 277.585 118.04 281.346ZM153.603 262.545C153.603 258.785 151.333 261.041 146.037 262.545C145.28 262.545 144.523 264.049 144.523 264.801C144.523 270.065 144.523 269.313 149.063 267.809C149.82 267.809 150.577 267.057 152.09 267.057C152.09 267.057 152.847 267.057 152.847 267.809C152.847 272.321 153.603 270.817 146.037 273.073C145.28 273.073 145.28 273.073 145.28 272.321C144.523 272.321 144.523 272.321 144.523 272.321C144.523 275.329 146.793 273.825 149.063 273.073C151.333 272.321 153.603 272.321 153.603 269.313C153.603 267.057 154.36 264.801 152.09 265.553C144.523 268.561 145.28 269.313 146.037 264.801C146.037 264.801 146.037 264.049 146.793 264.049C149.063 263.297 150.577 262.545 152.847 261.793C152.847 261.793 153.603 261.793 153.603 262.545C153.603 262.545 153.603 262.545 153.603 263.297C152.847 262.545 152.847 262.545 153.603 262.545ZM138.47 275.329C136.2 272.321 133.93 270.065 132.417 267.057C131.66 267.057 131.66 267.057 130.903 267.057V279.089C131.66 279.089 131.66 279.089 131.66 279.089C131.66 276.081 131.66 271.569 131.66 268.561C133.93 271.569 136.2 274.577 137.713 276.833C138.47 276.833 138.47 276.833 139.227 276.081C139.227 267.809 139.227 264.801 139.227 264.049C138.47 264.049 138.47 264.049 138.47 264.049C138.47 267.809 138.47 272.321 138.47 275.329Z" fill="url(#paint4_linear_155_1048)"/>
<defs>
<linearGradient id="paint0_linear_155_1048" x1="0" y1="213.029" x2="227.13" y2="213.029" gradientUnits="userSpaceOnUse">
<stop stop-color="#0D0F17"/>
<stop offset="0.3368" stop-color="#181A20"/>
<stop offset="1" stop-color="#2B2B2E"/>
</linearGradient>
<radialGradient id="paint1_radial_155_1048" cx="0" cy="0" r="1" gradientUnits="userSpaceOnUse" gradientTransform="translate(195.704 106.024) scale(212.356 211.048)">
<stop stop-color="#39393D"/>
<stop offset="0.468" stop-color="#2B2B2E"/>
<stop offset="1" stop-color="#1A1B21"/>
</radialGradient>
<linearGradient id="paint2_linear_155_1048" x1="40.794" y1="90.5266" x2="186.97" y2="90.5266" gradientUnits="userSpaceOnUse">
<stop stop-color="#0D0F17"/>
<stop offset="0.3368" stop-color="#181A20"/>
<stop offset="1" stop-color="#2B2B2E"/>
</linearGradient>
<linearGradient id="paint3_linear_155_1048" x1="165.354" y1="120.168" x2="163.757" y2="166.773" gradientUnits="userSpaceOnUse">
<stop stop-color="#39393D"/>
<stop offset="1" stop-color="#1A1B21"/>
</linearGradient>
<linearGradient id="paint4_linear_155_1048" x1="41.8584" y1="228.862" x2="207.93" y2="228.862" gradientUnits="userSpaceOnUse">
<stop stop-color="#B5B4B4"/>
<stop offset="1" stop-color="white"/>
</linearGradient>
</defs>
</svg>
