<svg width="108" height="108" viewBox="0 0 108 108" fill="none" xmlns="http://www.w3.org/2000/svg">
<path d="M45 69.7502C50.9674 69.7502 56.6903 67.3796 60.9099 63.1601C65.1295 58.9405 67.5 53.2175 67.5 47.2502C67.5 41.2828 65.1295 35.5598 60.9099 31.3403C56.6903 27.1207 50.9674 24.7502 45 24.7502C39.0326 24.7502 33.3097 27.1207 29.0901 31.3403C24.8705 35.5598 22.5 41.2828 22.5 47.2502C22.5 53.2175 24.8705 58.9405 29.0901 63.1601C33.3097 67.3796 39.0326 69.7502 45 69.7502ZM72.0585 31.1132C74.7143 35.5678 76.2295 40.6092 76.4697 45.7899C76.7098 50.9706 75.6674 56.1305 73.4349 60.8117C71.2025 65.4929 67.8491 69.5507 63.6722 72.625C59.4953 75.6993 54.6242 77.6951 49.491 78.4352L49.5 78.7502V83.2502H54C55.1935 83.2502 56.3381 83.7243 57.182 84.5682C58.0259 85.4121 58.5 86.5567 58.5 87.7502C58.5 88.9436 58.0259 90.0882 57.182 90.9322C56.3381 91.7761 55.1935 92.2502 54 92.2502H49.5V96.7502C49.5 97.9436 49.0259 99.0882 48.182 99.9322C47.3381 100.776 46.1935 101.25 45 101.25C43.8065 101.25 42.6619 100.776 41.818 99.9322C40.9741 99.0882 40.5 97.9436 40.5 96.7502V92.2502H36C34.8065 92.2502 33.6619 91.7761 32.818 90.9322C31.9741 90.0882 31.5 88.9436 31.5 87.7502C31.5 86.5567 31.9741 85.4121 32.818 84.5682C33.6619 83.7243 34.8065 83.2502 36 83.2502H40.5V78.7502C40.5 78.6422 40.5 78.5387 40.509 78.4352C32.6394 77.2821 25.4971 73.1955 20.5151 66.9954C15.5332 60.7954 13.0804 52.9407 13.6487 45.0074C14.2171 37.0741 17.7647 29.6493 23.5795 24.2228C29.3944 18.7963 37.0464 15.7697 45 15.7502C52.9138 15.7405 60.5396 18.7185 66.3525 24.0887L74.6775 15.7637H67.545C66.3515 15.7637 65.2069 15.2896 64.363 14.4457C63.5191 13.6017 63.045 12.4571 63.045 11.2637C63.045 10.0702 63.5191 8.92561 64.363 8.08169C65.2069 7.23778 66.3515 6.76367 67.545 6.76367H85.545C86.7385 6.76367 87.8831 7.23778 88.727 8.08169C89.5709 8.92561 90.045 10.0702 90.045 11.2637V29.2637C90.045 30.4571 89.5709 31.6017 88.727 32.4457C87.8831 33.2896 86.7385 33.7637 85.545 33.7637C84.3515 33.7637 83.2069 33.2896 82.363 32.4457C81.5191 31.6017 81.045 30.4571 81.045 29.2637V22.1267L72.063 31.1132H72.0585Z" fill="#999999"/>
</svg>
