<svg width="108" height="108" viewBox="0 0 108 108" fill="none" xmlns="http://www.w3.org/2000/svg">
<path d="M45.0002 69.7502C50.9676 69.7502 56.6906 67.3796 60.9101 63.1601C65.1297 58.9405 67.5002 53.2175 67.5002 47.2502C67.5002 41.2828 65.1297 35.5598 60.9101 31.3403C56.6906 27.1207 50.9676 24.7502 45.0002 24.7502C39.0329 24.7502 33.3099 27.1207 29.0903 31.3403C24.8708 35.5598 22.5002 41.2828 22.5002 47.2502C22.5002 53.2175 24.8708 58.9405 29.0903 63.1601C33.3099 67.3796 39.0329 69.7502 45.0002 69.7502ZM72.0587 31.1132C74.7146 35.5678 76.2298 40.6092 76.4699 45.7899C76.71 50.9706 75.6676 56.1305 73.4352 60.8117C71.2027 65.4929 67.8493 69.5507 63.6724 72.625C59.4956 75.6993 54.6244 77.6951 49.4912 78.4352L49.5002 78.7502V83.2502H54.0002C55.1937 83.2502 56.3383 83.7243 57.1822 84.5682C58.0261 85.4121 58.5002 86.5567 58.5002 87.7502C58.5002 88.9436 58.0261 90.0882 57.1822 90.9322C56.3383 91.7761 55.1937 92.2502 54.0002 92.2502H49.5002V96.7502C49.5002 97.9436 49.0261 99.0882 48.1822 99.9322C47.3383 100.776 46.1937 101.25 45.0002 101.25C43.8068 101.25 42.6622 100.776 41.8183 99.9322C40.9743 99.0882 40.5002 97.9436 40.5002 96.7502V92.2502H36.0002C34.8068 92.2502 33.6622 91.7761 32.8183 90.9322C31.9743 90.0882 31.5002 88.9436 31.5002 87.7502C31.5002 86.5567 31.9743 85.4121 32.8183 84.5682C33.6622 83.7243 34.8068 83.2502 36.0002 83.2502H40.5002V78.7502C40.5002 78.6422 40.5002 78.5387 40.5092 78.4352C32.6397 77.2821 25.4973 73.1955 20.5154 66.9954C15.5335 60.7954 13.0806 52.9407 13.649 45.0074C14.2173 37.0741 17.7649 29.6493 23.5798 24.2228C29.3947 18.7963 37.0467 15.7697 45.0002 15.7502C52.914 15.7405 60.5398 18.7185 66.3527 24.0887L74.6777 15.7637H67.5452C66.3518 15.7637 65.2072 15.2896 64.3633 14.4457C63.5193 13.6017 63.0452 12.4571 63.0452 11.2637C63.0452 10.0702 63.5193 8.92561 64.3633 8.08169C65.2072 7.23778 66.3518 6.76367 67.5452 6.76367H85.5452C86.7387 6.76367 87.8833 7.23778 88.7272 8.08169C89.5711 8.92561 90.0452 10.0702 90.0452 11.2637V29.2637C90.0452 30.4571 89.5711 31.6017 88.7272 32.4457C87.8833 33.2896 86.7387 33.7637 85.5452 33.7637C84.3518 33.7637 83.2072 33.2896 82.3633 32.4457C81.5193 31.6017 81.0452 30.4571 81.0452 29.2637V22.1267L72.0632 31.1132H72.0587Z" fill="#999999"/>
</svg>
