<svg width="108" height="108" viewBox="0 0 108 108" fill="none" xmlns="http://www.w3.org/2000/svg">
<path d="M92.0498 15.9501H92.043L103.356 18.2113C103.964 18.3328 104.463 18.7783 104.639 19.3791C104.727 19.6709 104.735 19.9813 104.661 20.2772C104.588 20.5732 104.435 20.8436 104.22 21.0598L94.9523 30.3343C93.8434 31.4411 92.3407 32.0626 90.774 32.0623H83.0925L63.7875 51.3741C64.1558 52.7647 64.2235 54.2179 63.9862 55.6368C63.7488 57.0556 63.2118 58.4077 62.411 59.6027C61.6101 60.7978 60.5638 61.8085 59.3417 62.5675C58.1197 63.3264 56.7499 63.8163 55.3236 64.0044C53.8974 64.1924 52.4474 64.0744 51.0704 63.6582C49.6933 63.2419 48.4208 62.537 47.3375 61.5904C46.2542 60.6438 45.3851 59.4772 44.7881 58.1683C44.191 56.8595 43.8798 55.4384 43.875 53.9998C43.876 52.4466 44.2341 50.9144 44.9217 49.5216C45.6092 48.1288 46.6078 46.9128 47.8402 45.9674C49.0726 45.0221 50.5059 44.3727 52.0293 44.0696C53.5526 43.7664 55.1253 43.8176 56.6257 44.2191L75.9375 24.9006V17.2258C75.9375 15.6598 76.5585 14.1546 77.6655 13.0476L86.94 3.77308C87.1562 3.55795 87.4266 3.40543 87.7226 3.33174C88.0185 3.25805 88.3289 3.26594 88.6207 3.35458C89.2215 3.53008 89.667 4.02958 89.7885 4.63708L92.0498 15.9501Z" fill="#999999"/>
<path d="M13.4999 53.9999C13.5069 59.7911 14.7557 65.5135 17.1623 70.7811C19.5688 76.0486 23.077 80.7388 27.4503 84.5352C31.8236 88.3316 36.9603 91.146 42.5137 92.7884C48.0672 94.4309 53.9083 94.8632 59.643 94.0563C65.3778 93.2494 70.8728 91.2219 75.7573 88.1108C80.6419 84.9996 84.8025 80.877 87.9583 76.0212C91.1141 71.1654 93.1919 65.6892 94.0514 59.9621C94.9109 54.235 94.5321 48.3902 92.9407 42.8219C92.7172 42.1713 92.6285 41.4821 92.68 40.7962C92.7314 40.1103 92.9219 39.442 93.2398 38.832C93.5578 38.2221 93.9965 37.6832 94.5294 37.2482C95.0622 36.8133 95.678 36.4913 96.3393 36.3019C97.0005 36.1125 97.6934 36.0597 98.3757 36.1466C99.0581 36.2335 99.7156 36.4584 100.308 36.8076C100.901 37.1567 101.416 37.6229 101.823 38.1776C102.23 38.7323 102.519 39.3639 102.674 40.0341C105.756 50.8174 105.17 62.3186 101.01 72.7334C96.8496 83.1481 89.3495 91.8871 79.6865 97.5793C70.0234 103.271 58.7441 105.595 47.6181 104.185C36.4922 102.775 26.149 97.7111 18.2114 89.7884C10.2825 81.8528 5.21347 71.5086 3.80021 60.3801C2.38695 49.2515 4.70949 37.9687 10.4032 28.3031C16.0969 18.6375 24.8393 11.1364 35.2579 6.97762C45.6764 2.8188 57.1811 2.23772 67.9657 5.32562C69.2498 5.701 70.3331 6.56943 70.9789 7.74112C71.6247 8.91282 71.7804 10.2925 71.4121 11.5787C71.0437 12.8648 70.1812 13.9529 69.0131 14.605C67.8449 15.2572 66.4661 15.4205 65.1779 15.0591C59.1474 13.3289 52.7973 13.0231 46.6284 14.1659C40.4594 15.3087 34.6403 17.8688 29.6297 21.6444C24.6191 25.42 20.554 30.308 17.7549 35.9228C14.9558 41.5377 13.4992 47.726 13.4999 53.9999Z" fill="#999999"/>
<path d="M33.7501 54.0002C33.7505 57.6897 34.7582 61.309 36.6645 64.4679C38.5708 67.6267 41.3033 70.2052 44.5674 71.9251C47.8315 73.645 51.5032 74.4411 55.1865 74.2275C58.8698 74.014 62.4249 72.7988 65.4683 70.7132C68.5112 68.6223 70.9245 65.7393 72.4473 62.376C73.9702 59.0127 74.5445 55.2971 74.1083 51.631C73.9903 50.7413 74.1116 49.8363 74.4596 49.0091C74.8077 48.1819 75.3699 47.4624 76.0884 46.9247C76.8069 46.3871 77.6558 46.0506 78.5476 45.95C79.4393 45.8494 80.3418 45.9883 81.1621 46.3525C81.9821 46.7118 82.6922 47.2823 83.2199 48.0056C83.7476 48.729 84.074 49.5793 84.1658 50.47C84.8992 56.7346 83.6643 63.0723 80.6323 68.6032C77.6003 74.1341 72.9217 78.584 67.2459 81.3352C61.57 84.0864 55.1785 85.0024 48.9584 83.9562C42.7384 82.91 36.9982 79.9533 32.5348 75.4967C28.0714 71.04 25.106 65.3044 24.0503 59.0859C22.9946 52.8674 23.901 46.4745 26.6436 40.7945C29.3861 35.1145 33.8289 30.4292 39.3552 27.3888C44.8815 24.3484 51.2173 23.1038 57.4831 23.8277C58.154 23.89 58.8057 24.0855 59.4001 24.4029C59.9944 24.7203 60.5195 25.1532 60.9444 25.6761C61.3693 26.199 61.6855 26.8015 61.8745 27.4483C62.0636 28.095 62.1216 28.773 62.0452 29.4424C61.9688 30.1119 61.7596 30.7594 61.4297 31.3469C61.0999 31.9344 60.656 32.4502 60.1243 32.864C59.5925 33.2778 58.9835 33.5812 58.3329 33.7566C57.6823 33.932 57.0032 33.9757 56.3355 33.8852C53.4982 33.5558 50.6233 33.8303 47.8997 34.6908C45.176 35.5513 42.6652 36.9783 40.5321 38.878C38.3991 40.7777 36.692 43.1072 35.5232 45.7135C34.3543 48.3198 33.75 51.1438 33.7501 54.0002Z" fill="#999999"/>
</svg>
