<svg width="661" height="250" viewBox="0 0 661 250" fill="none" xmlns="http://www.w3.org/2000/svg">
<path d="M10.939 53.2041C67.5712 48.8478 124.398 37.1589 180.954 31.0917C282.665 20.1806 385.98 15.015 488.234 11.8998C528.726 10.6662 580.132 5.48418 619.031 21.2871C630.44 25.9221 617.673 34.9271 612.356 38.6016C568.051 69.2215 513.487 85.9415 463.618 104.939C431.63 117.125 399.283 128.443 367.45 141.028C354.593 146.111 338.804 151.085 327.606 159.699C320.065 165.5 346.555 157.66 355.872 155.735C399.61 146.7 443.633 139.433 488.025 134.457C527.233 130.062 566.738 127.147 606.202 126.738C617.445 126.622 636.556 124.34 647.506 129.659C659.39 135.431 629.918 158.617 628.94 159.49C593.969 190.722 553.521 214.125 514.101 239.074" stroke="#FF182C" stroke-width="20" stroke-linecap="round"/>
</svg>
