<svg width="152" height="169" viewBox="0 0 152 169" fill="none" xmlns="http://www.w3.org/2000/svg">
<g clip-path="url(#clip0_99_1702)">
<path d="M55.9197 105.593C55.9197 112.919 58.9698 123.529 72.4414 131.613C84.1337 138.686 110.06 144.749 133.953 132.371C149.204 123.782 151.237 112.667 151.492 107.362L55.9197 105.593Z" fill="#0D0F17"/>
<path d="M56.1739 46.9863L55.9197 105.593C55.9197 112.666 60.4949 119.487 69.3912 124.792C87.9464 135.654 118.194 136.16 137.257 125.55C146.916 120.245 151.746 112.919 151.746 105.846L152 46.9863H56.1739Z" fill="url(#paint0_linear_99_1702)"/>
<path d="M135.478 21.4722C124.803 14.9042 104.468 9.85188 82.1003 16.9251C76.2541 18.6934 56.6822 26.5245 55.9197 46.7338C55.9197 53.807 60.4949 60.6277 69.3912 65.9326C87.9464 76.7951 118.194 77.3003 137.257 66.6904C146.916 61.3855 151.746 54.0597 151.746 46.9864C151.746 36.6292 146.408 28.0402 135.478 21.4722Z" fill="url(#paint1_radial_99_1702)"/>
<path d="M73.204 23.2405V35.8713C73.204 40.4184 76 44.7128 81.8461 48.2494C93.7926 55.3227 113.365 55.5753 125.565 48.7547C131.666 45.2181 134.97 40.671 134.97 36.1239V23.4931L73.204 23.2405Z" fill="url(#paint2_linear_99_1702)"/>
<path d="M135.108 23.2268C135.136 13.4607 121.275 5.50443 104.149 5.45603C87.0224 5.40763 73.1161 13.2854 73.0882 23.0515C73.0602 32.8176 86.9213 40.7739 104.048 40.8222C121.174 40.8706 135.08 32.9929 135.108 23.2268Z" fill="#2E2E2E"/>
<path d="M71.1705 18.946V26.5245C71.1705 31.3242 74.2207 36.1239 80.5752 39.9132C93.2842 47.4916 114.127 47.7442 127.09 40.4184C133.699 36.6292 137.003 31.8295 137.003 26.7771V19.1987L71.1705 18.946Z" fill="url(#paint3_linear_99_1702)"/>
<path d="M137.109 18.9724C137.139 8.50869 122.369 -0.0154243 104.12 -0.0667587C85.8702 -0.118093 71.052 8.32279 71.0222 18.7865C70.9924 29.2502 85.7623 37.7743 104.012 37.8256C122.261 37.8769 137.079 29.4361 137.109 18.9724Z" fill="#FFB948"/>
<path d="M129.378 67.1958C113.619 74.5217 94.8093 67.7011 124.548 53.5546C146.408 43.1973 148.187 58.6069 129.378 67.1958Z" fill="url(#paint4_linear_99_1702)"/>
<path d="M151.746 52.2915C151.746 59.3647 146.916 66.6906 137.257 71.9955C118.194 82.6054 87.9464 82.3528 69.3912 71.2377C61.0033 66.438 56.6822 60.1226 55.9197 53.8072V101.046C55.9197 108.12 60.4949 114.94 69.3912 120.245C87.9464 131.108 118.194 131.613 137.257 121.003C146.916 115.698 151.746 108.372 151.746 101.299V52.2915Z" fill="url(#paint5_linear_99_1702)"/>
<path opacity="0.5" d="M86.4214 89.1733C88.9632 89.9312 89.9799 90.1838 92.5217 90.689C93.7926 93.7204 94.3009 95.2361 95.5719 98.2675C94.3009 100.794 93.7926 102.309 92.5217 104.836C89.9799 104.33 88.709 104.078 86.4214 103.32C85.1504 100.288 84.6421 98.5201 83.3712 95.4887C84.6421 92.9626 85.1504 91.6995 86.4214 89.1733ZM87.1839 77.8056C86.6755 79.0687 86.1672 79.8266 85.4046 81.3423C86.4213 83.6158 86.6755 84.8789 87.6923 87.1524C89.4715 87.6577 90.4882 87.9103 92.2675 88.1629C93.2842 86.142 93.5384 85.3841 94.5551 83.3632C93.7926 81.5949 93.2842 80.3318 92.5217 78.5635C90.7424 78.5635 88.9632 78.3109 87.1839 77.8056ZM84.1337 80.0792C84.6421 79.0687 84.8963 78.3109 85.4046 77.553C83.3712 77.0478 81.3377 76.5426 79.3043 75.7847C79.5585 76.7952 80.0668 77.553 80.5752 79.0687C82.1003 79.5739 82.8628 79.8266 84.1337 80.0792ZM72.9498 112.667C71.4247 111.909 70.9163 111.656 69.3912 110.646C68.6287 111.909 68.3745 112.414 67.612 113.677C68.3745 115.698 68.6287 116.708 69.3912 118.982C70.6622 119.74 71.4247 120.245 72.9498 121.003C73.7123 119.74 73.9665 118.982 74.729 117.719C73.9665 115.698 73.7123 114.688 72.9498 112.667ZM56.1739 57.3438V66.9432C56.9364 67.4484 57.4448 68.2062 58.4615 68.9641C59.224 67.701 59.4782 66.9432 60.4949 65.6801C59.9866 64.1644 59.7324 63.1539 59.224 61.8908C58.4615 60.8804 57.9531 59.6173 57.4448 58.6068C56.9364 58.1016 56.428 57.849 56.1739 57.3438ZM69.6454 79.8266C71.9331 81.0896 73.204 81.8475 75.4916 82.8579C76.7625 80.5844 77.2708 79.5739 78.5418 77.3004C78.2876 76.5426 78.0334 76.0373 77.7792 75.2795C74.729 74.269 71.9331 72.7533 69.3912 71.2376C68.6287 70.7324 67.8662 70.2272 67.3578 69.9745C67.1036 70.2272 66.8494 70.7324 66.8494 70.985C67.8662 74.5216 68.3745 76.2899 69.6454 79.8266ZM138.528 100.036C137.766 102.309 137.257 103.572 136.495 105.846C137.257 107.362 137.766 108.12 138.528 109.635C140.053 108.877 140.816 108.372 142.595 107.362C143.358 105.088 143.866 103.825 144.629 101.299C143.866 99.7832 143.358 99.278 142.595 97.7623C140.816 98.7728 140.053 99.278 138.528 100.036ZM135.478 105.341C136.749 102.057 137.257 100.288 138.528 96.7518C137.257 94.4783 136.749 93.4678 135.478 91.1943C133.191 92.2047 131.92 92.71 129.378 93.7204C128.107 97.0044 127.599 98.5201 126.328 101.804C127.599 104.33 128.107 105.341 129.378 107.867C131.92 106.856 133.191 106.351 135.478 105.341ZM110.06 86.142C110.823 84.3736 111.077 83.6158 111.839 81.8475C111.331 80.837 111.077 80.0792 110.569 79.3213C108.789 79.5739 107.264 79.5739 105.485 79.5739C105.231 80.3318 104.722 81.0896 104.214 82.1001C104.977 83.8684 105.231 84.6263 105.993 86.142C107.773 86.3946 108.535 86.3946 110.06 86.142ZM55.9197 75.5321V76.7952C56.6822 79.0687 56.9364 80.3318 57.6989 82.8579C56.9364 84.121 56.428 84.8789 55.9197 85.8893V87.1524C56.9364 85.6367 57.1906 84.8789 58.2073 83.1106C57.4448 80.0792 56.9364 78.5635 55.9197 75.5321ZM119.719 80.0792C120.482 81.8475 120.99 82.6053 121.752 84.3737C123.532 83.8684 124.294 83.6158 125.819 83.1106C126.582 80.837 127.09 79.8266 127.853 77.553C127.599 77.0478 127.344 76.5426 127.09 76.0373C125.057 76.7952 122.769 77.3004 120.482 77.8056C120.227 78.5635 119.973 79.3213 119.719 80.0792ZM121.498 111.909C122.261 113.424 122.515 114.182 123.278 115.698C124.803 115.193 125.565 115.193 126.836 114.688C127.599 112.667 127.853 111.909 128.615 109.888C127.853 108.372 127.599 107.867 126.836 106.351C125.311 106.856 124.548 107.109 123.278 107.362C122.769 109.13 122.261 110.14 121.498 111.909ZM113.364 91.9521C115.144 91.6995 116.16 91.6995 117.94 91.1943C118.956 88.9207 119.211 87.9103 120.227 85.6367C119.211 83.8684 118.956 82.858 117.94 80.837C116.16 81.0896 115.144 81.3423 113.364 81.5949C112.348 83.8684 112.094 84.8789 111.077 87.1524C112.094 88.9207 112.602 89.9312 113.364 91.9521ZM102.181 102.815C103.451 99.7832 104.214 98.5201 105.485 95.4887C108.027 95.4887 109.552 95.4887 112.094 95.2361C113.364 98.0149 114.127 99.5306 115.398 102.309C114.127 105.593 113.364 107.109 112.094 110.14C109.552 110.393 108.027 110.393 105.485 110.393C103.96 107.362 103.451 105.846 102.181 102.815ZM102.689 102.815C103.96 105.593 104.468 106.856 105.739 109.635C108.281 109.635 109.298 109.635 111.839 109.383C113.11 106.604 113.619 105.088 114.89 102.309C113.619 99.7832 113.11 98.5201 111.839 95.7414C109.298 95.994 108.027 95.994 105.739 95.994C104.468 98.7727 103.706 100.036 102.689 102.815ZM74.2207 101.299C72.6956 100.541 71.6789 100.036 70.1538 99.278C69.3913 100.794 68.8829 101.552 68.1203 102.815C68.8829 105.088 69.3913 106.351 70.1538 108.877C71.6789 109.888 72.4414 110.14 74.2207 110.898C74.9832 109.383 75.4916 108.625 76.2541 107.109C75.4916 104.836 75.2374 103.572 74.2207 101.299ZM99.8929 111.656C100.655 109.888 101.164 108.877 101.926 107.109C101.164 105.088 100.655 104.078 99.8929 102.309C98.1137 102.057 97.3511 102.057 95.5719 101.804C94.8093 103.572 94.3009 104.583 93.5384 106.351C94.3009 108.372 94.8093 109.383 95.5719 111.404C97.3511 111.404 98.1137 111.656 99.8929 111.656ZM77.0167 115.951C75.4916 118.729 74.729 120.245 73.4581 122.519C73.7123 122.519 73.7123 122.771 73.9665 122.771C74.9832 120.75 75.7458 119.235 77.0167 116.708C80.321 117.972 81.8461 118.729 85.1504 119.74C86.4214 122.771 87.1839 124.792 87.9464 127.066C88.2006 127.066 88.2006 127.066 88.4548 127.066C87.4381 124.287 86.6755 122.266 85.4046 118.982C82.1003 117.972 80.321 117.466 77.0167 115.951ZM96.0802 83.1106C97.8595 83.3632 98.622 83.3632 100.401 83.6158C101.164 82.1001 101.418 81.0896 102.181 79.8266C99.6387 79.8266 97.0969 79.5739 94.5551 79.3213C94.8093 80.3318 95.3177 81.3423 96.0802 83.1106ZM130.395 109.13C129.378 111.656 129.124 112.667 128.107 115.193C129.124 116.961 129.378 117.719 130.395 119.487C132.174 118.729 133.191 118.477 134.97 117.719C135.732 115.193 136.241 113.93 137.257 111.404C136.495 109.888 135.987 108.877 134.97 107.362C133.191 107.867 132.174 108.372 130.395 109.13ZM100.655 128.329C102.943 128.581 103.96 128.581 106.247 128.581V128.834C106.502 128.834 106.502 128.834 106.756 128.834C106.502 128.581 106.502 128.329 106.247 128.076C103.706 128.076 102.689 128.076 100.147 127.824C99.8929 128.076 99.8929 128.581 99.6387 128.834C99.8929 128.834 100.147 128.834 100.147 128.834C100.401 128.329 100.401 128.329 100.655 128.329ZM119.211 111.909C115.652 112.667 113.873 112.919 110.569 113.172C108.789 117.214 108.027 119.235 106.247 123.276C107.264 125.297 107.773 126.813 108.535 128.581C108.789 128.581 108.789 128.581 109.043 128.581C108.281 127.066 107.773 125.55 106.756 123.529C108.281 119.74 109.298 117.972 110.823 113.93C114.127 113.677 115.652 113.424 118.956 112.667C120.482 115.951 121.498 117.719 123.023 121.003C122.007 123.529 121.498 125.045 120.736 126.813C120.99 126.813 120.99 126.813 121.244 126.813C122.007 125.045 122.769 123.276 123.532 120.75C121.752 117.466 120.99 115.698 119.211 111.909ZM68.8829 108.625C68.1203 106.099 67.612 104.836 66.8494 102.057C65.0702 101.046 64.3076 100.288 62.5284 99.278C61.7658 100.794 61.2575 101.552 60.4949 102.815C61.2575 105.593 61.7658 106.856 62.5284 109.635C64.3076 110.898 65.0702 111.404 66.8494 112.414C67.612 110.898 67.8662 110.14 68.8829 108.625ZM91.7591 116.456C92.7759 114.435 93.03 113.677 94.0468 111.656C93.03 109.383 92.7759 108.372 91.7591 106.099C89.9799 105.846 88.9632 105.593 87.1839 105.088C86.1672 106.856 85.913 107.867 84.8963 109.635C85.913 111.909 86.1672 113.172 87.1839 115.445C89.2173 115.951 89.9799 116.203 91.7591 116.456ZM67.3578 101.046C68.6287 99.0254 69.1371 98.0149 70.1538 95.7414C68.8829 92.2047 68.3745 90.4364 67.3578 86.8998C65.0702 85.3841 63.7993 84.6263 61.5117 83.1106C60.4949 85.1315 59.7324 86.142 58.7157 87.9103C59.7324 91.6995 60.4949 93.4678 61.5117 97.0044C63.7993 98.7728 65.0702 99.5306 67.3578 101.046ZM67.3578 84.121C68.1203 82.8579 68.3745 82.3527 69.1371 81.0896C68.3745 79.0687 68.1203 78.0583 67.3578 75.7847C66.0869 75.0269 65.3244 74.5216 64.0535 73.5112C63.2909 74.7742 63.0367 75.2795 62.2742 76.5426C63.0367 78.8161 63.2909 79.8266 64.0535 81.8475C65.0702 82.858 65.8327 83.3632 67.3578 84.121ZM59.224 101.299C59.9866 100.036 60.2407 99.5306 61.0033 98.5201C60.2407 96.2466 59.9866 95.2361 59.224 92.9626C57.9531 91.9521 57.1906 91.4469 55.9197 90.1838V98.2675V98.5201C57.1906 99.7832 57.9531 100.288 59.224 101.299ZM83.8795 108.372C84.6421 106.856 84.8963 106.351 85.6588 104.836C84.8963 103.067 84.6421 102.057 83.8795 100.036C82.3545 99.5306 81.5919 99.278 80.321 98.7727C79.5585 100.036 79.3043 100.794 78.5418 102.309C79.3043 104.33 79.5585 105.341 80.321 107.109C81.8461 107.614 82.6086 107.867 83.8795 108.372ZM74.9832 84.121C73.204 83.3632 72.4414 82.858 70.6622 81.8475C69.8996 83.3632 69.3912 84.121 68.3745 85.8893C69.1371 88.4155 69.6454 89.6786 70.6622 92.4573C72.4414 93.4678 73.204 93.973 74.9832 94.7309C75.7458 92.9626 76.2541 92.2047 77.2708 90.4364C76.2541 87.9103 75.7458 86.6472 74.9832 84.121ZM82.6086 91.6995C83.3712 90.1838 83.8795 89.1733 84.6421 87.6577C83.8795 85.3841 83.3712 84.3736 82.6086 82.1001C80.8294 81.5949 80.0668 81.0896 78.5418 80.5844C77.7792 82.1001 77.2709 82.858 76.5083 84.3737C77.2709 86.6472 77.7792 87.9103 78.5418 89.9312C80.321 90.9417 81.0836 91.1943 82.6086 91.6995Z" fill="#D69630"/>
<path d="M139.037 87.6577C135.987 84.1211 135.224 82.858 133.191 80.5845C134.461 79.8266 135.478 79.3214 136.495 78.5635C137.766 79.8266 139.037 81.3423 140.308 82.6054C141.833 79.3214 143.104 75.7848 144.374 72.7534C145.391 71.9955 146.408 70.9851 147.679 69.9746C145.9 75.0269 143.866 80.3319 141.579 85.6368C141.579 86.142 141.324 91.6996 141.324 92.2048C140.308 92.9627 139.291 93.4679 138.274 94.2257C139.037 93.9731 139.037 88.4156 139.037 87.6577ZM96.8427 117.466C96.8427 118.224 96.3344 118.224 95.5718 118.224C96.0802 118.982 96.3344 119.235 96.8427 119.993C96.5885 119.993 96.5885 119.993 96.3344 119.993C95.826 119.235 95.5718 118.982 95.0635 118.224C94.8093 118.224 93.7926 118.224 93.5384 118.224C93.5384 118.982 93.5384 119.235 93.5384 119.993C93.2842 119.993 93.2842 119.993 93.03 119.993C93.03 118.477 93.03 116.709 93.03 115.193C97.0969 115.193 96.8427 114.688 96.8427 117.466ZM93.5384 115.698C93.5384 115.698 93.2842 115.698 93.2842 115.951C93.2842 116.456 93.2842 116.709 93.2842 117.466C93.2842 117.719 93.2842 117.719 93.5384 117.719C94.3009 117.719 95.3176 117.719 96.0802 117.719C96.0802 117.719 96.3344 117.719 96.3344 117.466C96.3344 115.193 96.8427 115.698 93.5384 115.698ZM105.993 101.299C108.789 100.794 111.331 100.289 114.127 99.278C114.127 100.036 113.873 105.846 113.873 106.099C114.89 105.846 115.906 105.593 116.669 105.088C116.669 104.33 117.177 88.1629 117.177 87.4051C116.16 87.6577 115.144 88.1629 114.127 88.4156C114.127 92.4574 114.127 91.1943 113.873 95.2362C111.077 95.994 108.535 96.7519 105.739 97.2571C105.739 92.71 105.739 94.9836 105.739 90.4365C104.722 90.6891 103.706 90.6891 102.689 90.9417C102.689 91.1943 102.689 107.867 102.435 108.372C103.451 108.372 104.468 108.12 105.485 107.867C105.993 107.614 105.993 102.057 105.993 101.299ZM92.5217 115.951C92.5217 118.224 92.7758 118.224 90.4882 117.972C90.234 117.972 89.2173 117.972 88.9631 117.719C88.9631 118.477 88.9631 118.729 88.9631 119.487C88.7089 119.487 88.7089 119.487 88.4548 119.487C88.4548 117.972 88.4548 116.203 88.4548 114.688C90.9966 115.193 92.5217 114.688 92.5217 115.951ZM92.0133 115.951C92.0133 115.698 92.0133 115.698 91.7591 115.698C90.9966 115.698 89.9798 115.698 89.2173 115.445C89.2173 115.445 88.9631 115.445 88.9631 115.698C88.9631 116.203 88.9631 116.456 88.9631 117.214C88.9631 117.466 88.9631 117.466 89.2173 117.466C92.7758 117.719 92.0133 117.972 92.0133 115.951ZM87.1839 109.13C87.1839 108.625 89.4715 101.299 90.4882 98.2676C91.5049 102.057 92.7758 105.593 93.7926 109.383C94.5551 109.383 95.3176 109.383 96.0802 109.383C97.8594 103.573 99.3845 97.5097 101.164 91.6996C100.147 91.9522 99.1303 91.9522 97.8594 91.9522C96.5885 95.994 96.3344 97.5097 94.8093 102.309C93.7926 99.0254 92.7758 95.4888 91.7591 92.2048C90.7424 92.2048 89.9798 92.2048 88.9631 92.2048C87.9464 95.7414 87.438 97.7624 85.913 102.057C84.8962 98.5202 83.6253 94.731 82.8628 91.6996C81.8461 91.6996 80.8293 91.447 79.8126 91.447C81.3377 97.2571 83.117 103.067 84.8962 108.877C85.6588 108.877 86.4213 108.877 87.1839 109.13ZM131.665 95.2362C128.615 97.0045 125.311 98.5202 122.007 99.7833C122.007 99.0254 122.007 97.2571 122.007 96.7519C124.548 95.7414 127.09 94.4783 129.632 93.2153C129.632 92.9627 129.886 89.6786 129.886 89.426C127.344 90.6891 124.803 91.9522 122.261 92.9626C122.261 92.4574 122.261 90.1839 122.261 89.9313C125.311 88.6682 128.615 87.1525 131.92 85.3842C131.92 84.6263 131.92 82.3528 132.174 81.5949C128.107 83.8685 123.786 85.8894 119.465 87.4051C119.465 88.1629 118.956 104.33 118.956 105.088C123.023 103.573 127.344 101.552 131.411 99.278C131.665 98.2676 131.665 95.7414 131.665 95.2362ZM98.1136 119.993C97.3511 119.993 97.3511 118.729 97.3511 117.466C97.3511 114.688 97.3511 114.94 99.3845 114.94C100.147 114.94 101.418 114.435 101.418 115.698C101.164 120.498 101.672 119.74 98.1136 119.993ZM100.91 115.698C99.8929 115.445 98.8762 115.698 98.1136 115.698L97.8594 115.951C97.8594 117.972 97.8594 118.224 97.8594 119.235C97.8594 119.487 97.8594 119.487 98.1136 119.487C98.8762 119.487 99.8929 119.487 100.655 119.235L100.91 118.982C100.91 116.961 100.91 116.709 100.91 115.698ZM129.632 110.898C129.378 110.898 129.378 111.151 129.124 111.151C129.124 110.393 129.124 110.141 129.124 109.383C128.107 109.888 127.09 110.393 126.073 110.898C126.073 111.656 126.073 111.909 126.073 112.667C125.819 112.667 125.819 112.667 125.565 112.919C125.819 107.362 125.311 108.12 127.599 107.109C130.14 105.846 129.886 105.593 129.632 110.898ZM126.582 108.12L126.328 108.372C126.328 109.13 126.328 109.383 126.328 110.141C127.344 109.635 128.361 109.13 129.378 108.625C129.378 106.099 129.886 106.604 126.582 108.12ZM133.445 103.825C132.936 104.836 132.428 105.846 131.92 106.857C131.411 107.109 131.157 107.362 130.649 107.614C130.649 106.604 130.649 106.351 130.649 105.341C130.395 105.341 130.395 105.593 130.14 105.593C130.14 106.099 129.886 110.141 129.886 110.646C130.14 110.646 130.14 110.393 130.395 110.393C130.395 109.635 130.395 109.13 130.395 108.12C130.903 107.867 131.157 107.614 131.665 107.362C132.174 107.867 132.428 108.12 132.936 108.625C133.191 108.372 133.191 108.372 133.445 108.372C132.936 107.867 132.428 107.362 131.92 106.857C132.428 105.593 133.191 104.33 133.699 103.32C133.953 103.573 133.699 103.825 133.445 103.825ZM143.358 95.2362C141.579 105.341 141.579 107.109 140.053 108.12C110.314 128.329 83.8795 123.277 82.1002 122.519C81.5919 122.266 81.3377 121.256 81.3377 120.498C84.3879 106.857 79.8126 113.425 102.181 110.898C115.906 109.383 129.378 103.573 142.341 94.2257C143.104 93.7205 143.612 94.2257 143.358 95.2362ZM142.595 94.9836C142.595 94.9836 124.548 109.383 102.181 111.909C81.5919 114.182 84.3879 109.635 83.3711 114.688C81.5919 123.024 81.0835 121.761 85.1504 122.519C104.977 125.297 122.007 119.993 140.308 107.614C140.562 107.362 140.816 107.109 140.816 106.604C141.579 103.067 142.341 99.5307 142.849 95.7414C143.104 94.9836 142.849 94.731 142.595 94.9836ZM124.803 110.646C123.786 111.151 122.769 111.404 121.752 111.909C121.752 110.898 121.752 110.646 121.752 109.635C121.498 109.635 121.498 109.635 121.244 109.888C121.244 111.909 121.244 112.919 120.99 114.94C121.244 114.94 121.244 114.94 121.498 114.688C121.498 113.93 121.498 113.425 121.498 112.414C122.515 111.909 123.532 111.656 124.548 111.151C124.548 112.161 124.548 112.414 124.548 113.425C124.803 113.425 124.803 113.425 125.057 113.172C125.057 112.667 125.311 108.625 125.311 108.12C125.057 108.12 125.057 108.12 124.803 108.372C124.803 109.383 124.803 109.635 124.803 110.646ZM134.461 108.12C135.732 107.362 136.749 106.604 138.02 105.846C138.02 105.593 138.02 105.593 138.02 105.341C137.003 106.099 135.987 106.604 134.97 107.362C134.97 106.604 134.97 106.351 134.97 105.593C135.732 105.088 136.495 104.583 137.512 104.078C137.512 103.825 137.512 103.825 137.512 103.573C136.749 104.078 135.732 104.583 134.97 105.088C134.97 104.33 134.97 104.078 134.97 103.32C135.987 102.815 137.003 102.057 138.02 101.299C138.02 101.046 138.02 101.046 138.02 100.794C136.749 101.552 135.732 102.309 134.461 103.067C134.461 106.857 134.461 108.12 134.461 108.12ZM101.672 115.445C102.435 115.445 102.689 115.445 103.451 115.193C103.451 115.445 103.451 118.224 103.451 119.487C103.706 119.487 103.706 119.487 103.96 119.487C103.96 119.235 103.96 115.445 103.96 115.193C104.722 115.193 104.976 114.94 105.739 114.94C105.739 114.688 105.739 114.688 105.739 114.435C104.468 114.688 103.197 114.688 101.926 114.94C101.672 114.94 101.672 115.193 101.672 115.445ZM109.806 118.477C110.06 118.477 110.06 118.477 110.314 118.477C110.314 117.972 110.314 114.182 110.314 113.425C110.06 113.425 110.06 113.425 109.806 113.425C110.06 113.93 109.806 117.972 109.806 118.477ZM105.739 119.235C106.756 118.982 108.027 118.729 109.298 118.477C109.298 118.224 109.298 118.224 109.298 117.972C108.281 118.224 107.264 118.477 106.247 118.477C106.247 117.719 106.247 117.466 106.247 116.961C107.01 116.709 107.772 116.709 108.789 116.456C108.789 116.203 108.789 116.203 108.789 115.951C108.027 116.203 107.264 116.203 106.247 116.456C106.247 115.698 106.247 115.445 106.247 114.94C107.264 114.688 108.281 114.688 109.298 114.435C109.298 114.182 109.298 114.182 109.298 113.93C108.027 114.182 107.01 114.435 105.739 114.688C105.739 117.466 105.739 117.466 105.739 119.235ZM120.736 111.151C120.736 109.635 119.973 110.393 117.686 111.404C117.431 111.404 116.923 111.909 116.923 112.414C116.923 114.688 116.923 114.435 118.702 113.677C119.211 113.425 119.465 113.425 119.973 113.172C119.973 113.172 120.227 113.172 120.227 113.425C120.227 115.193 120.482 114.688 117.431 115.698C117.177 115.698 117.177 115.445 117.177 115.193C116.923 115.193 116.923 115.193 116.669 115.445C116.669 116.709 117.431 116.203 118.448 115.698C119.211 115.445 120.227 115.193 120.482 114.182C120.482 113.172 120.736 112.161 119.973 112.414C116.923 113.677 117.177 113.93 117.177 111.909C117.177 111.656 117.177 111.656 117.431 111.656C118.194 111.404 119.211 111.151 119.973 110.646C119.973 110.646 120.227 110.646 120.227 110.898C120.227 110.898 120.227 110.898 120.227 111.151C120.482 111.151 120.482 111.151 120.736 111.151ZM114.381 116.709C113.364 115.445 112.602 114.435 111.585 113.172C111.331 113.172 111.331 113.172 111.077 113.425V118.477C111.331 118.477 111.331 118.477 111.585 118.477C111.585 117.214 111.585 115.445 111.585 114.182C112.348 115.445 113.364 116.709 114.381 117.719C114.635 117.719 114.635 117.719 114.89 117.466C114.89 113.93 115.144 112.667 115.144 112.414C114.89 112.414 114.89 112.414 114.635 112.667C114.381 113.425 114.381 115.445 114.381 116.709Z" fill="url(#paint6_linear_99_1702)"/>
<path d="M0 141.97C0 147.78 2.54181 156.117 13.2174 162.685C22.3679 168.242 42.9565 173.042 62.0201 163.19C74.2207 156.369 75.7458 147.528 76 143.233L0 141.97Z" fill="#0D0F17"/>
<path d="M0.254181 95.2363L0 141.97C0 147.528 3.55853 153.085 10.6756 157.38C25.4181 165.969 49.5652 166.221 64.5619 157.885C72.1873 153.591 76 148.033 76 142.223L76.2542 95.4889L0.254181 95.2363Z" fill="url(#paint7_linear_99_1702)"/>
<path d="M63.291 75.0269C54.903 69.722 38.6355 65.6801 20.8428 71.4903C16.0134 73.006 0.762542 79.0688 0 95.2362C0 100.794 3.55853 106.351 10.6756 110.646C25.4181 119.235 49.5652 119.487 64.5619 111.151C72.1873 106.857 76 101.299 76 95.4888C76.2542 87.1525 71.6789 80.3318 63.291 75.0269Z" fill="url(#paint8_radial_99_1702)"/>
<path d="M13.7257 76.29V86.1421C13.7257 89.6787 16.0133 93.2153 20.5886 95.9941C29.9933 101.552 45.4983 101.804 55.4113 96.2467C60.2408 93.4679 62.7826 89.9313 62.7826 86.1421V76.29H13.7257Z" fill="url(#paint9_linear_99_1702)"/>
<path d="M55.9198 66.6907C46.5151 61.1331 31.0101 60.8805 21.097 66.438C11.4382 71.743 11.184 80.8372 20.5887 86.3947C29.9934 91.9523 45.4984 92.2049 55.4114 86.6473C65.0703 81.0898 65.3245 72.2482 55.9198 66.6907Z" fill="#2E2E2E"/>
<path d="M12.2007 73.0061V79.0689C12.2007 82.8581 14.7425 86.6474 19.5719 89.6788C29.7391 95.7415 46.2609 95.7415 56.6823 89.9314C62.0201 86.9 64.5619 83.1107 64.5619 79.0689V73.0061H12.2007Z" fill="#0A4788"/>
<path d="M56.9364 62.6487C46.7692 56.586 30.2475 56.586 19.8261 62.3961C9.40467 68.2063 9.15049 77.8057 19.3177 83.6159C29.4849 89.6786 46.0067 89.6786 56.4281 83.8685C66.8495 78.0583 67.1037 68.7115 56.9364 62.6487Z" fill="#1A6AB3"/>
<path d="M58.4615 111.404C46.0067 117.214 31.01 111.909 54.6488 100.541C71.6789 92.4574 73.204 104.583 58.4615 111.404Z" fill="url(#paint10_linear_99_1702)"/>
<path d="M76.2541 99.5308C76.2541 105.341 72.4414 110.898 64.816 115.193C49.8194 123.529 25.6722 123.277 10.9297 114.688C4.32104 110.898 0.762512 105.846 0.25415 100.794V138.181C0.25415 143.739 3.81268 149.296 10.9297 153.591C25.6722 162.179 49.8194 162.432 64.816 154.096C72.4414 149.801 76.2541 144.244 76.2541 138.434V99.5308Z" fill="#2664AE"/>
<path opacity="0.5" d="M24.1472 128.834C26.1806 129.339 26.9431 129.592 28.9766 130.097C29.9933 132.623 30.5017 133.634 31.5184 136.16C30.5017 138.181 29.9933 139.191 28.9766 141.212C26.9431 140.96 25.9264 140.707 24.1472 139.949C23.1304 137.423 22.6221 136.16 21.6054 133.634C22.8763 131.865 23.3846 130.855 24.1472 128.834ZM24.6555 119.74C24.1472 120.75 23.893 121.508 23.1304 122.519C23.893 124.287 24.1472 125.297 24.9097 127.066C26.4348 127.571 27.1973 127.571 28.4682 127.824C29.2308 126.308 29.4849 125.55 30.2475 124.034C29.7391 122.519 29.2308 121.761 28.7224 120.245C27.7057 120.498 26.1806 120.245 24.6555 119.74ZM22.3679 121.761C22.8763 121.003 23.1304 120.245 23.3846 119.74C21.8595 119.235 20.3344 118.729 18.8094 118.224C19.0635 118.982 19.3177 119.74 19.8261 120.75C20.8428 121.003 21.3512 121.256 22.3679 121.761ZM13.4716 147.528C12.4548 147.022 11.6923 146.77 10.6756 146.012C10.1672 147.022 9.91304 147.528 9.40468 148.538C9.91304 150.306 10.1672 151.064 10.6756 152.58C11.6923 153.338 12.4548 153.59 13.4716 154.096C13.9799 153.085 14.2341 152.58 14.9967 151.57C14.4883 149.801 14.2341 149.043 13.4716 147.528ZM0 103.573V111.151C0.508361 111.656 1.01672 112.161 1.77926 112.667C2.28763 111.656 2.79599 111.151 3.30435 110.141C3.05017 108.877 2.54181 108.12 2.28763 107.109C1.77926 106.351 1.2709 105.341 0.762542 104.583C0.762542 104.078 0.508361 103.825 0 103.573ZM10.9298 121.256C12.709 122.266 13.7258 122.771 15.505 123.782C16.5217 122.013 17.0301 121.003 17.7926 119.235C17.7926 118.729 17.5385 118.224 17.2843 117.719C14.9967 116.961 12.709 115.698 10.6756 114.688C10.1672 114.435 9.65886 113.93 8.89632 113.677C8.64214 113.93 8.64214 114.182 8.38796 114.688C9.40468 117.214 9.91304 118.729 10.9298 121.256ZM65.5786 137.423C64.8161 139.191 64.5619 140.202 64.0535 141.97C64.8161 143.233 65.0702 143.738 65.5786 145.002C66.8495 144.244 67.612 143.991 68.8829 143.233C69.3913 141.212 69.8997 140.454 70.408 138.433C69.8997 137.423 69.3913 136.665 68.8829 135.655C67.612 136.413 66.8495 136.918 65.5786 137.423ZM63.291 141.465C64.3077 138.686 64.8161 137.423 65.5786 134.644C64.5619 132.876 64.0535 132.118 63.291 130.35C61.5117 131.36 60.495 131.613 58.4615 132.371C57.4448 134.897 56.9365 136.16 56.1739 138.686C57.1906 140.707 57.699 141.465 58.4615 143.486C60.495 142.981 61.2575 142.475 63.291 141.465ZM42.9565 126.561C43.4649 125.297 43.7191 124.54 44.4816 123.024C44.2274 122.266 43.9732 121.761 43.4649 121.003C42.194 121.003 40.6689 121.256 39.398 121.256C39.1438 122.013 38.8896 122.519 38.3813 123.277C38.8896 124.54 39.1438 125.297 39.9064 126.561C41.1773 126.561 41.6856 126.561 42.9565 126.561ZM0 117.972V118.982C0.508361 120.75 0.762542 121.761 1.52508 123.782C1.01672 124.792 0.508361 125.297 0 126.308V127.318C0.762542 126.055 1.01672 125.55 1.77926 124.287C1.2709 121.761 0.762542 120.498 0 117.972ZM50.5819 121.761C51.3445 123.024 51.5987 123.782 52.3612 125.297C53.6321 125.045 54.3946 124.792 55.6656 124.287C56.4281 122.519 56.6823 121.761 57.1906 119.993C56.9365 119.487 56.6823 118.982 56.4281 118.729C54.6488 119.235 52.8696 119.74 51.0903 120.245C51.0903 120.498 50.8361 121.003 50.5819 121.761ZM52.107 147.022C52.6154 148.286 52.8696 148.791 53.6321 150.054C54.903 149.801 55.4114 149.549 56.4281 149.296C56.9365 147.78 57.1906 147.022 57.9532 145.507C57.4448 144.496 57.1906 143.738 56.4281 142.728C55.1572 143.233 54.6488 143.233 53.6321 143.486C53.1237 144.749 52.6154 145.507 52.107 147.022ZM45.7525 131.108C47.2776 130.855 48.0401 130.855 49.311 130.602C50.0736 128.834 50.3278 127.824 51.0903 126.055C50.3278 124.54 50.0736 123.782 49.311 122.266C47.786 122.519 47.0234 122.771 45.7525 122.771C44.99 124.54 44.7358 125.297 43.9732 127.066C44.4816 128.834 44.99 129.592 45.7525 131.108ZM36.602 139.697C37.6187 137.423 38.1271 136.16 39.1438 133.886C41.1773 133.886 42.194 133.886 44.4816 133.634C45.4983 135.907 46.0067 136.918 47.0234 139.191C46.0067 141.718 45.4983 142.981 44.4816 145.507C42.4482 145.759 41.4314 145.759 39.1438 145.759C38.1271 143.233 37.6187 141.97 36.602 139.697ZM37.1104 139.697C38.1271 141.97 38.6355 142.981 39.398 145.254C41.4314 145.254 42.194 145.254 44.2274 145.002C45.2441 142.728 45.7525 141.718 46.515 139.191C45.4983 137.17 44.99 136.16 44.2274 134.139C42.194 134.392 41.4314 134.392 39.398 134.392C38.6355 136.413 38.1271 137.423 37.1104 139.697ZM14.4883 138.433C13.2174 137.928 12.4548 137.423 11.1839 136.665C10.4214 137.928 10.1672 138.434 9.65886 139.444C10.1672 141.465 10.6756 142.223 11.1839 144.244C12.4548 145.002 13.2174 145.254 14.4883 146.012C15.2508 144.749 15.505 144.244 16.0134 142.981C15.505 141.212 15.2508 140.202 14.4883 138.433ZM0 101.046C0.254181 101.046 0 100.794 0 101.046ZM35.0769 146.77C35.8395 145.254 36.0936 144.496 36.8562 142.981C36.0936 141.465 35.8395 140.707 35.0769 139.191C33.806 139.191 33.0435 138.939 31.7726 138.939C31.01 140.454 30.7559 140.96 29.9933 142.475C30.7559 143.991 31.01 145.002 31.7726 146.517C33.0435 146.517 33.5518 146.517 35.0769 146.77ZM16.7759 150.054C15.7592 152.075 14.9967 153.338 13.9799 155.106C14.2341 155.106 14.2341 155.359 14.4883 155.359C15.2508 153.843 16.0134 152.58 17.0301 150.559C19.5719 151.57 20.8428 152.075 23.3846 152.833C24.4013 155.359 24.9097 156.874 25.6722 158.643C25.9264 158.643 25.9264 158.643 26.1806 158.643C25.4181 156.622 24.6555 154.854 23.6388 152.075C20.8428 151.822 19.5719 151.317 16.7759 150.054ZM31.7726 124.034C33.0435 124.287 33.806 124.287 35.0769 124.287C35.5853 123.024 36.0936 122.266 36.3478 121.256C34.3144 121.256 32.2809 121.003 30.2475 120.75C31.01 122.013 31.2642 122.771 31.7726 124.034ZM59.2241 144.496C58.4615 146.517 58.2074 147.275 57.4448 149.296C58.2074 150.812 58.4615 151.317 59.2241 152.833C60.7492 152.327 61.2575 152.075 62.7826 151.317C63.5452 149.296 63.7993 148.286 64.5619 146.265C63.7993 145.002 63.5452 144.244 62.7826 142.981C61.2575 143.738 60.495 143.991 59.2241 144.496ZM35.3311 159.906C37.1104 159.906 37.8729 160.158 39.6522 160.158C39.6522 160.158 39.6522 160.158 39.6522 160.411C39.9064 160.411 39.9064 160.411 40.1605 160.411C40.1605 160.158 39.9064 159.906 39.9064 159.653C37.8729 159.653 37.1104 159.653 35.0769 159.401C34.8227 159.653 34.8227 159.906 34.8227 160.158C35.0769 160.158 35.0769 160.158 35.3311 160.158C35.3311 159.906 35.3311 159.906 35.3311 159.906ZM50.3278 147.022C47.5318 147.528 46.2609 147.78 43.4649 148.033C42.194 151.317 41.4314 152.833 39.9064 156.117C40.6689 157.885 41.1773 158.895 41.6856 160.158C41.9398 160.158 41.9398 160.158 42.194 160.158C41.6856 158.895 41.1773 157.632 40.4147 156.117C41.6856 153.085 42.4482 151.57 43.7191 148.538C46.2609 148.286 47.5318 148.033 50.3278 147.528C51.5987 150.306 52.3612 151.57 53.6321 154.096C52.8696 156.117 52.3612 157.38 51.8528 158.895C52.107 158.895 52.107 158.895 52.3612 158.895C52.8696 157.38 53.3779 156.117 54.1405 154.096C52.3612 151.317 51.5987 149.801 50.3278 147.022ZM10.1672 144.244C9.40468 142.223 9.1505 141.212 8.38796 139.191C7.11706 138.433 6.35451 137.928 5.08361 136.918C4.32107 138.181 4.06689 138.686 3.30435 139.697C4.06689 141.97 4.32107 142.981 5.08361 145.002C6.35451 146.012 7.11706 146.517 8.38796 147.275C9.1505 146.265 9.65886 145.507 10.1672 144.244ZM28.4682 150.559C29.2308 149.043 29.4849 148.286 30.2475 146.77C29.4849 145.002 29.2308 143.991 28.4682 142.223C26.9431 141.97 26.1806 141.718 24.9097 141.465C24.1472 142.981 23.893 143.738 23.1304 145.002C23.893 146.77 24.1472 147.78 24.9097 149.549C26.4348 150.054 27.1973 150.306 28.4682 150.559ZM9.1505 138.181C10.1672 136.413 10.4214 135.655 11.4381 133.886C10.4214 131.108 10.1672 129.845 9.1505 127.066C7.37124 125.803 6.35451 125.297 4.57525 124.034C3.55853 125.55 3.30435 126.308 2.28763 127.824C3.05017 130.855 3.55853 132.118 4.57525 135.149C6.35451 136.413 7.11706 137.17 9.1505 138.181ZM8.89632 124.792C9.40468 123.782 9.65886 123.277 10.1672 122.266C9.65886 120.498 9.40468 119.74 8.89632 118.224C7.8796 117.466 7.37124 117.214 6.10033 116.456C5.59197 117.466 5.33779 117.972 4.82943 118.729C5.33779 120.498 5.59197 121.256 6.10033 123.024C7.37124 123.782 7.8796 124.287 8.89632 124.792ZM2.79599 138.433C3.30435 137.423 3.55853 137.17 4.06689 136.16C3.55853 134.392 3.30435 133.634 2.79599 131.865C1.77926 131.108 1.2709 130.602 0.254181 129.592V135.907V136.16C1.01672 137.17 1.52508 137.676 2.79599 138.433ZM22.3679 143.991C22.8763 142.981 23.1304 142.223 23.893 141.212C23.1304 139.697 22.8763 138.939 22.3679 137.423C21.097 137.17 20.5886 136.918 19.5719 136.413C19.0635 137.423 18.8094 138.181 18.0468 139.191C18.5552 140.707 18.8094 141.465 19.5719 142.981C20.5886 143.486 21.097 143.738 22.3679 143.991ZM14.9967 124.792C13.4716 124.034 12.9632 123.782 11.4381 123.024C10.6756 124.287 10.4214 124.792 9.65886 126.055C10.4214 128.076 10.6756 129.087 11.4381 131.108C12.709 131.865 13.4716 132.118 14.9967 132.876C15.7592 131.613 16.0134 130.855 16.7759 129.592C16.0134 127.824 15.7592 126.813 14.9967 124.792ZM21.3512 130.855C21.8595 129.592 22.3679 128.834 22.8763 127.571C22.1137 125.803 21.8595 125.045 21.3512 123.277C20.0803 122.771 19.3177 122.519 18.0468 122.013C17.2843 123.277 17.0301 123.782 16.5217 125.045C17.2843 126.813 17.5385 127.824 18.0468 129.592C19.3177 130.097 19.8261 130.35 21.3512 130.855Z" fill="#213058"/>
<path d="M66.0869 127.824C63.5451 125.045 63.0368 124.034 61.5117 122.266C62.5284 121.761 63.2909 121.256 64.3077 120.75C65.3244 121.761 66.3411 123.024 67.3578 124.034C68.6287 121.256 69.6454 118.729 70.6622 116.203C71.4247 115.445 72.4414 114.94 73.204 114.182C71.6789 118.224 70.1538 122.266 68.3745 126.561C68.3745 127.066 68.3745 131.36 68.3745 131.865C67.612 132.371 66.8495 132.876 66.0869 133.381C65.8327 132.623 66.0869 128.329 66.0869 127.824ZM32.5351 151.317C32.5351 152.075 32.0267 152.075 31.5184 152.075C32.0267 152.58 32.0267 152.833 32.5351 153.59C32.2809 153.59 32.2809 153.59 32.0267 153.59C31.5184 153.085 31.5184 152.833 31.01 152.075C30.7558 152.075 29.9933 152.075 29.7391 152.075C29.7391 152.58 29.7391 152.833 29.7391 153.59C29.4849 153.59 29.4849 153.59 29.4849 153.59C29.4849 152.327 29.4849 150.812 29.4849 149.801C32.7893 149.549 32.5351 149.043 32.5351 151.317ZM29.9933 149.801C29.7391 150.054 29.7391 149.801 29.9933 149.801C29.7391 150.559 29.7391 150.812 29.7391 151.064C29.7391 151.064 29.7391 151.317 29.9933 151.317C30.7558 151.317 31.2642 151.317 32.0267 151.317C32.0267 151.317 32.2809 151.317 32.2809 151.064C32.0267 149.549 32.5351 150.054 29.9933 149.801ZM39.6521 138.433C41.6856 138.181 43.9732 137.676 46.0067 136.918C46.0067 137.423 45.7525 141.97 45.7525 142.475C46.515 142.223 47.2776 141.97 48.0401 141.717C48.0401 141.212 48.5485 128.329 48.5485 127.571C47.7859 127.824 47.0234 128.076 46.2608 128.329C46.2608 131.613 46.2608 130.35 46.0067 133.886C43.9732 134.392 41.6856 135.149 39.398 135.402C39.398 131.865 39.398 133.381 39.398 130.097C38.6354 130.35 37.8729 130.35 37.1103 130.602C37.1103 130.855 37.1103 144.244 37.1103 144.496C37.8729 144.496 38.6354 144.244 39.398 144.244C39.6521 143.486 39.6521 138.939 39.6521 138.433ZM28.9765 150.054C28.9765 151.822 29.2307 151.822 27.4515 151.822C27.1973 151.822 26.4347 151.822 26.1806 151.822C26.1806 152.327 26.1806 152.58 26.1806 153.338C25.9264 153.338 25.9264 153.338 25.9264 153.338C25.9264 152.075 25.9264 150.559 25.9264 149.549C27.9598 149.549 28.9765 149.043 28.9765 150.054ZM28.7224 150.054C27.9598 149.801 27.1973 149.801 26.4347 149.801C26.4347 149.801 26.1806 149.801 26.1806 150.054C26.1806 150.559 26.1806 150.812 26.1806 151.064C26.1806 151.064 26.1806 151.317 26.4347 151.317C29.2307 151.57 28.7224 151.822 28.7224 150.054ZM24.9097 144.496C24.9097 144.244 26.6889 138.433 27.4515 135.907C28.4682 138.939 29.2307 141.717 29.9933 144.749C30.5016 144.749 31.2642 144.749 31.7725 144.749C33.0434 140.202 34.3143 135.402 35.8394 130.602C35.0769 130.602 34.0602 130.855 33.2976 130.855C32.2809 133.886 32.0267 135.149 31.01 139.191C30.2475 136.413 29.4849 133.886 28.4682 131.108C27.7056 131.108 26.9431 131.108 26.1806 131.108C25.418 133.886 24.9097 135.402 23.8929 138.939C23.1304 136.16 22.1137 133.129 21.3511 130.855C20.5886 130.855 19.826 130.602 18.8093 130.602C20.0802 135.149 21.6053 139.697 22.8762 144.496C23.6388 144.496 24.1471 144.496 24.9097 144.496ZM60.2408 133.634C57.699 135.149 55.1572 136.16 52.6153 137.423C52.6153 136.918 52.6153 135.402 52.6153 134.897C54.6488 134.139 56.6822 133.129 58.7157 132.118C58.7157 131.865 58.7157 129.339 58.7157 129.087C56.6822 130.097 54.6488 131.108 52.6153 131.865C52.6153 131.613 52.6153 129.592 52.6153 129.339C55.1572 128.329 57.699 127.066 60.2408 125.55C60.2408 125.045 60.2408 123.024 60.2408 122.519C56.9364 124.287 53.6321 125.803 50.0735 127.066C50.0735 127.571 49.5652 140.454 49.5652 141.212C52.8695 139.949 56.1739 138.433 59.4782 136.665C59.9866 136.16 60.2408 134.139 60.2408 133.634ZM33.5518 153.338C32.7893 153.338 33.0434 152.327 33.0434 151.317C33.0434 149.043 33.0434 149.296 34.5685 149.296C35.3311 149.296 36.0936 149.043 36.0936 149.801C36.0936 153.843 36.3478 153.085 33.5518 153.338ZM35.5852 149.801C34.8227 149.549 34.0602 149.801 33.2976 149.801C33.2976 149.801 33.0434 149.801 33.0434 150.054C33.0434 151.822 33.0434 151.822 33.0434 152.58C33.0434 152.58 33.0434 152.833 33.2976 152.833C34.0602 152.833 34.5685 152.833 35.3311 152.833C35.3311 152.833 35.5852 152.833 35.5852 152.58C35.5852 150.812 35.5852 150.812 35.5852 149.801ZM58.4615 146.265C58.2073 146.265 58.2073 146.265 58.2073 146.517C58.2073 146.012 58.2073 145.759 58.2073 145.002C57.4448 145.507 56.6822 145.759 55.9197 146.265C55.9197 146.77 55.9197 147.022 55.9197 147.78C55.6655 147.78 55.6655 147.78 55.6655 148.033C55.9197 143.738 55.4113 144.244 57.4448 143.233C58.9699 141.97 58.7157 141.718 58.4615 146.265ZM56.1739 143.991L55.9197 144.244C55.9197 144.749 55.9197 145.002 55.9197 145.759C56.6822 145.254 57.4448 145.002 58.2073 144.496C58.2073 142.223 58.7157 142.728 56.1739 143.991ZM61.7658 140.454C61.2575 141.212 61.0033 141.97 60.4949 142.981C59.9866 143.233 59.9866 143.233 59.4782 143.486C59.4782 142.728 59.4782 142.475 59.4782 141.717C59.224 141.717 59.224 141.717 59.224 141.97C59.224 142.223 58.9699 145.507 58.9699 146.012C59.224 146.012 59.224 146.012 59.224 145.759C59.224 145.002 59.224 144.749 59.224 143.991C59.7324 143.738 59.7324 143.738 60.2408 143.486C60.7491 143.991 61.0033 144.244 61.2575 144.496C61.5117 144.496 61.5117 144.244 61.7658 144.244C61.2575 143.738 61.0033 143.486 60.4949 142.981C61.0033 141.97 61.5117 140.96 61.7658 140.202C62.02 140.454 61.7658 140.454 61.7658 140.454ZM69.6454 133.634C68.1204 141.718 68.1204 142.981 67.1036 143.738C43.4648 159.906 22.3679 155.864 21.097 155.106C20.3344 155.106 20.0802 154.348 20.3344 153.843C22.622 142.981 19.0635 148.286 36.8561 146.265C47.7859 145.002 58.4615 140.454 68.8829 132.876C69.3913 132.371 69.6454 132.876 69.6454 133.634ZM68.8829 133.381C68.8829 133.381 54.6488 144.749 36.8561 146.77C20.5886 148.538 22.622 145.002 21.8595 148.791C20.5886 155.359 20.0802 154.601 23.1304 154.854C38.8896 156.874 52.3612 152.833 66.8495 142.981C67.1036 142.728 67.3578 142.475 67.3578 142.223C67.8662 139.444 68.3745 136.413 69.1371 133.634C69.1371 133.634 68.8829 133.381 68.8829 133.381ZM54.6488 145.759C53.8862 146.012 53.1237 146.517 52.107 146.77C52.107 146.012 52.107 145.759 52.107 145.002C51.8528 145.002 51.8528 145.002 51.8528 145.254C51.8528 146.77 51.8528 147.78 51.5986 149.296C51.8528 149.296 51.8528 149.296 51.8528 149.043C51.8528 148.286 51.8528 148.033 51.8528 147.275C52.6153 147.022 53.3779 146.517 54.3946 146.265C54.3946 147.022 54.3946 147.275 54.3946 148.033C54.6488 148.033 54.6488 148.033 54.6488 147.78C54.6488 147.275 54.903 144.244 54.903 143.738C54.6488 143.738 54.6488 143.738 54.6488 143.991C54.6488 144.749 54.6488 145.254 54.6488 145.759ZM62.5284 143.991C63.5451 143.486 64.3077 142.981 65.3244 142.223C65.3244 141.97 65.3244 141.97 65.3244 141.717C64.5618 142.223 63.7993 142.728 62.7826 143.233C62.7826 142.728 62.7826 142.475 62.7826 141.97C63.5451 141.465 64.0535 141.212 64.816 140.707C64.816 140.454 64.816 140.454 64.816 140.202C64.0535 140.707 63.5451 140.96 62.7826 141.465C62.7826 140.96 62.7826 140.707 62.7826 140.202C63.5451 139.697 64.3077 139.191 65.3244 138.686C65.3244 138.433 65.3244 138.433 65.3244 138.181C64.3077 138.686 63.5451 139.444 62.5284 139.949C62.5284 142.728 62.5284 143.991 62.5284 143.991ZM36.3478 149.549C36.8561 149.549 37.1103 149.549 37.6187 149.296C37.6187 149.549 37.6187 151.57 37.6187 152.833C37.8729 152.833 37.8729 152.833 37.8729 152.833C37.8729 152.58 37.8729 149.801 37.8729 149.296C38.3812 149.296 38.6354 149.296 39.1438 149.043C39.1438 148.791 39.1438 148.791 39.1438 148.538C38.1271 148.791 37.1103 148.791 36.0936 149.043C36.3478 149.296 36.3478 149.549 36.3478 149.549ZM42.9565 152.075C43.2107 152.075 43.2107 152.075 43.2107 152.075C43.2107 151.822 43.2107 148.538 43.2107 148.033C42.9565 148.033 42.9565 148.033 42.9565 148.033C42.9565 148.538 42.9565 151.57 42.9565 152.075ZM39.6521 152.58C40.6689 152.327 41.4314 152.327 42.4481 152.075C42.4481 151.822 42.4481 151.822 42.4481 151.57C41.6856 151.822 40.923 151.822 40.1605 152.075C40.1605 151.57 40.1605 151.317 40.1605 150.812C40.923 150.812 41.4314 150.559 42.1939 150.559C42.1939 150.306 42.1939 150.306 42.1939 150.054C41.4314 150.306 40.923 150.306 40.1605 150.306C40.1605 149.801 40.1605 149.549 40.1605 149.043C40.923 148.791 41.6856 148.791 42.7023 148.538C42.7023 148.286 42.7023 148.286 42.7023 148.033C41.6856 148.286 40.923 148.286 39.9063 148.538C39.6521 151.317 39.6521 151.317 39.6521 152.58ZM51.5986 146.265C51.5986 145.002 50.8361 145.759 49.0568 146.265C48.8026 146.265 48.5485 146.77 48.5485 147.022C48.5485 148.791 48.5485 148.538 50.0735 148.033C50.3277 148.033 50.5819 147.78 51.0903 147.78C51.0903 147.78 51.3444 147.78 51.3444 148.033C51.3444 149.549 51.5986 149.043 49.0568 149.801C48.8026 149.801 48.8026 149.801 48.8026 149.549C48.5485 149.549 48.5485 149.549 48.5485 149.549C48.5485 150.559 49.311 150.054 50.0735 149.801C50.8361 149.549 51.5986 149.549 51.5986 148.538C51.5986 147.78 51.8528 147.022 51.0903 147.275C48.5485 148.286 48.8026 148.538 49.0568 147.022C49.0568 147.022 49.0568 146.77 49.311 146.77C50.0735 146.517 50.5819 146.265 51.3444 146.012C51.3444 146.012 51.5986 146.012 51.5986 146.265C51.5986 146.265 51.5986 146.265 51.5986 146.517C51.3444 146.265 51.3444 146.265 51.5986 146.265ZM46.515 150.559C45.7525 149.549 44.9899 148.791 44.4816 147.78C44.2274 147.78 44.2274 147.78 43.9732 147.78V151.822C44.2274 151.822 44.2274 151.822 44.2274 151.822C44.2274 150.812 44.2274 149.296 44.2274 148.286C44.9899 149.296 45.7525 150.306 46.2608 151.064C46.515 151.064 46.515 151.064 46.7692 150.812C46.7692 148.033 46.7692 147.022 46.7692 146.77C46.515 146.77 46.515 146.77 46.515 146.77C46.515 148.033 46.515 149.549 46.515 150.559Z" fill="url(#paint11_linear_99_1702)"/>
</g>
<defs>
<linearGradient id="paint0_linear_99_1702" x1="55.9171" y1="90.1927" x2="151.99" y2="90.1927" gradientUnits="userSpaceOnUse">
<stop stop-color="#0D0F17"/>
<stop offset="0.3368" stop-color="#181A20"/>
<stop offset="1" stop-color="#2B2B2E"/>
</linearGradient>
<radialGradient id="paint1_radial_99_1702" cx="0" cy="0" r="1" gradientUnits="userSpaceOnUse" gradientTransform="translate(138.697 44.9316) scale(89.8228 89.2699)">
<stop stop-color="#39393D"/>
<stop offset="0.468" stop-color="#2B2B2E"/>
<stop offset="1" stop-color="#1A1B21"/>
</radialGradient>
<linearGradient id="paint2_linear_99_1702" x1="73.1722" y1="38.3765" x2="135.002" y2="38.3765" gradientUnits="userSpaceOnUse">
<stop stop-color="#0D0F17"/>
<stop offset="0.3368" stop-color="#181A20"/>
<stop offset="1" stop-color="#2B2B2E"/>
</linearGradient>
<linearGradient id="paint3_linear_99_1702" x1="71.0854" y1="32.248" x2="137.089" y2="32.248" gradientUnits="userSpaceOnUse">
<stop stop-color="#C28017"/>
<stop offset="1" stop-color="#E8A230"/>
</linearGradient>
<linearGradient id="paint4_linear_99_1702" x1="125.859" y1="50.9142" x2="125.184" y2="70.6274" gradientUnits="userSpaceOnUse">
<stop stop-color="#39393D"/>
<stop offset="1" stop-color="#1A1B21"/>
</linearGradient>
<linearGradient id="paint5_linear_99_1702" x1="55.7415" y1="90.4466" x2="150.132" y2="90.4466" gradientUnits="userSpaceOnUse">
<stop stop-color="#C28017"/>
<stop offset="1" stop-color="#E8A230"/>
</linearGradient>
<linearGradient id="paint6_linear_99_1702" x1="73.6221" y1="96.8903" x2="143.868" y2="96.8903" gradientUnits="userSpaceOnUse">
<stop stop-color="#B5B4B4"/>
<stop offset="1" stop-color="white"/>
</linearGradient>
<linearGradient id="paint7_linear_99_1702" x1="0" y1="129.631" x2="76.2982" y2="129.631" gradientUnits="userSpaceOnUse">
<stop stop-color="#0D0F17"/>
<stop offset="0.3368" stop-color="#181A20"/>
<stop offset="1" stop-color="#2B2B2E"/>
</linearGradient>
<radialGradient id="paint8_radial_99_1702" cx="0" cy="0" r="1" gradientUnits="userSpaceOnUse" gradientTransform="translate(65.7413 93.6856) scale(71.335 70.8959)">
<stop stop-color="#39393D"/>
<stop offset="0.468" stop-color="#2B2B2E"/>
<stop offset="1" stop-color="#1A1B21"/>
</radialGradient>
<linearGradient id="paint9_linear_99_1702" x1="13.7036" y1="88.4798" x2="62.8072" y2="88.4798" gradientUnits="userSpaceOnUse">
<stop stop-color="#0D0F17"/>
<stop offset="0.3368" stop-color="#181A20"/>
<stop offset="1" stop-color="#2B2B2E"/>
</linearGradient>
<linearGradient id="paint10_linear_99_1702" x1="55.5463" y1="98.4368" x2="55.0098" y2="114.092" gradientUnits="userSpaceOnUse">
<stop stop-color="#39393D"/>
<stop offset="1" stop-color="#1A1B21"/>
</linearGradient>
<linearGradient id="paint11_linear_99_1702" x1="14.061" y1="134.95" x2="69.848" y2="134.95" gradientUnits="userSpaceOnUse">
<stop stop-color="#B5B4B4"/>
<stop offset="1" stop-color="white"/>
</linearGradient>
<clipPath id="clip0_99_1702">
<rect width="152" height="169" fill="white"/>
</clipPath>
</defs>
</svg>
