<svg width="92" height="77" viewBox="0 0 92 77" fill="none" xmlns="http://www.w3.org/2000/svg">
<g clip-path="url(#clip0_111_82)">
<path d="M13.5179 69.9566L10.5518 70.1505V68.5995C11.3298 69.0842 12.3023 69.5689 13.5179 69.9566Z" fill="#E30613" stroke="#1D1D1B" stroke-width="0.3266" stroke-miterlimit="10"/>
<path d="M10.4545 68.5025L5.05704 67.3877L4.61941 67.0969L6.71032 65.2066L6.17543 64.4311L0.194458 61.1836L2.9175 60.9413C3.69552 61.6199 4.86253 62.6377 6.12681 64.0433C7.48833 65.5943 7.82871 66.3214 8.84985 67.3392C9.28748 67.6785 9.77374 68.1148 10.4545 68.5025Z" fill="#E30613" stroke="#1D1D1B" stroke-width="0.3266" stroke-miterlimit="10"/>
<path d="M85.5327 64.5281L84.9978 65.1582L87.0887 66.8061L85.2409 67.824L81.594 68.3572L81.3995 68.4056L81.3509 68.5026L80.8646 69.3265L80.6215 69.9082L77.0718 70.3444L76.9746 70.3929L64.3805 74.4643L62.3868 74.7551C61.8519 74.852 61.2684 74.9005 60.7335 74.9975C60.0042 74.3189 59.5179 73.7373 59.1775 73.301C58.7885 72.8163 58.594 72.5255 58.205 72.3801C57.6215 72.1862 57.2811 72.5255 56.8921 72.2832C56.6976 72.1862 56.6976 72.0408 56.3572 70.7806C56.1627 70.1021 56.0655 69.9082 56.2114 69.7628C56.4059 69.5204 56.7462 69.8112 57.2325 69.6174C57.7674 69.375 57.7188 68.8418 58.2536 68.5995C58.5454 68.4541 58.8858 68.4541 59.0803 68.5026C59.1289 68.4056 59.4693 67.9694 59.3234 67.2908C59.2261 66.8061 58.8858 66.5153 58.7399 66.3699C58.983 66.0791 59.2262 65.7883 59.4693 65.4975C59.9555 65.4975 60.3932 65.4975 60.8794 65.4975C60.9767 65.6429 61.0253 65.7398 61.1226 65.8852C61.5602 65.8852 61.9492 65.8852 62.3868 65.8852C62.4841 66.1276 62.7272 66.7577 63.408 67.1939C63.8942 67.5332 64.3319 67.6301 64.6236 67.6301C64.7209 68.2117 64.8667 68.7934 64.964 69.375C65.9365 69.0357 67.5412 68.2602 69.0972 66.7092C70.945 64.8674 71.6743 62.8316 71.9175 61.8138C71.4798 61.8623 70.7991 61.9107 70.0697 61.6684C69.2917 61.426 68.7082 60.9898 68.0274 60.1658C66.5686 58.5179 65.742 56.5791 65.3044 55.3189C65.1099 55.5128 64.9154 55.7551 64.6722 55.949C64.186 55.7551 63.1162 55.2704 62.7758 54.2526C62.63 53.8163 62.63 53.3801 62.9217 52.023C63.2135 50.7628 63.3593 49.9873 63.8456 48.824C64.2346 47.7577 64.9154 46.3521 65.9365 44.7526C68.3678 44.801 70.8477 44.801 73.279 44.8495L73.1818 44.898L74.6892 46.6429L75.613 46.7398L80.1352 47.1276L82.372 48.2908L85.7758 52.5077L87.0401 54.9796L91.1247 58.0332L91.2219 59.875L89.4228 60.5051L91.9513 60.699L88.7906 63.1709L85.5327 64.5281Z" fill="#E30613" stroke="#1D1D1B" stroke-width="0.3266" stroke-miterlimit="10"/>
<path d="M35.7885 70.7806C35.3995 72.0408 35.4481 72.1377 35.2536 72.2832C34.8646 72.5255 34.5243 72.1862 33.9407 72.3801C33.5031 72.5255 33.3572 72.8163 32.9682 73.301C32.6279 73.7372 32.1416 74.3189 31.4122 74.9974C30.7801 74.9005 30.1479 74.852 29.5158 74.7551L17.3107 71.4592L13.5179 69.9566C12.3023 69.5689 11.3298 69.0842 10.5517 68.5995V68.551L10.4059 68.5025C9.77373 68.0663 9.28747 67.6786 8.84984 67.2908C7.8287 66.3214 7.48832 65.5944 6.12679 63.9949C4.86252 62.5893 3.74413 61.5229 2.91749 60.8928L0.63208 59.148L0.729332 57.7423L4.86252 54.7857L9.82236 48L12.5454 46.8852C13.9555 46.7883 15.3657 46.6913 16.7758 46.5944C17.1649 46.352 17.6025 46.0612 18.0401 45.7704C18.4291 45.4796 18.8181 45.2372 19.1585 44.9464H19.1099C21.4925 44.9464 23.8752 44.8979 26.2092 44.8979C26.89 45.8673 27.7166 47.2729 28.3488 49.0178C29.0782 51.0536 29.3213 52.8469 29.3699 54.1556C29.3213 54.3979 29.1754 54.8826 28.7864 55.3189C28.3002 55.9005 27.668 56.0944 27.4249 56.1428C27.1818 55.9005 26.9873 55.6582 26.8414 55.4643C26.7928 55.8036 25.723 60.7959 22.0761 61.7653C21.5898 61.9107 20.9577 62.0076 20.2283 61.9107C20.52 62.9286 21.2494 64.9158 23.0486 66.8061C24.6046 68.3571 26.2579 69.1326 27.1818 69.4719C27.279 68.8903 27.4249 68.3087 27.5221 67.727C27.7653 67.6786 28.2515 67.5816 28.7378 67.2908C29.4185 66.8546 29.6617 66.2245 29.7589 65.9821C30.1966 65.9821 30.5856 65.9821 31.0232 65.9821C31.1205 65.8367 31.1691 65.7398 31.2663 65.5944C31.7526 65.5944 32.1902 65.5944 32.6765 65.5944C32.9196 65.8852 33.1627 66.2245 33.4545 66.5153C33.3572 66.5638 32.9196 66.8061 32.7737 67.3393C32.6279 67.9694 32.9682 68.5025 33.0169 68.551C33.2114 68.5025 33.5517 68.5025 33.8435 68.648C34.3784 68.8903 34.3298 69.4235 34.8646 69.6658C35.3509 69.8597 35.7399 69.5689 35.8858 69.8112C36.0803 69.9082 36.0317 70.102 35.7885 70.7806Z" fill="#E30613" stroke="#1D1D1B" stroke-width="0.3266" stroke-miterlimit="10"/>
<path d="M53.5369 33.3622C53.2938 33.6046 48.9661 37.7729 43.6173 36.3673C41.0887 35.6888 39.5327 34.0893 38.8519 33.2653L40.2134 33.3138L40.3593 30.6479L40.4566 21.9235L40.5052 21.778L42.9851 20.1786L45.1733 19.5969H47.3614L50.668 21.2934L51.5919 22.2627V32.8291L51.7378 33.3622H53.5369Z" fill="#E30613" stroke="#1D1D1B" stroke-width="0.3266" stroke-miterlimit="10"/>
<path d="M62.7758 76.4031H28.4946L29.5158 74.7551C30.1479 74.8521 30.78 74.9005 31.4122 74.9975C32.1416 74.3189 32.6278 73.7373 32.9682 73.301C33.3572 72.8164 33.5517 72.5255 33.9407 72.3801C34.5242 72.1863 34.8646 72.5255 35.2536 72.2832C35.4481 72.1863 35.4481 72.0408 35.7885 70.7806C35.983 70.1021 36.0803 69.9082 35.9344 69.7628C35.7399 69.5204 35.3995 69.8113 34.9132 69.6174C34.3784 69.375 34.427 68.8419 33.8921 68.5995C33.6003 68.4541 33.26 68.4541 33.0655 68.5026C33.0168 68.4541 32.6278 67.921 32.8223 67.2908C32.9682 66.7577 33.4058 66.5153 33.5031 66.4669C33.6003 66.273 33.6976 66.1276 33.7462 65.9337C34.2811 65.8852 34.7187 65.9822 35.0591 66.0791C36.9555 66.6123 37.8308 68.5995 38.4629 70.0536C38.8519 70.8776 39.2896 72.1378 39.4841 73.7857C40.9915 73.7857 42.5475 73.7857 44.0549 73.7857C44.0549 65.6429 44.0549 57.5485 44.0063 49.4056C45.3192 49.4056 46.5834 49.4056 47.8963 49.3572C47.8963 57.5485 47.8477 65.6914 47.8477 73.8827H52.5644C52.5644 73.7857 52.5644 73.6888 52.5644 73.5434C52.613 72.2832 53.0993 71.3623 53.6342 70.3929C54.7526 68.4056 55.2874 67.3878 55.6278 67.097C56.6003 66.273 57.6701 65.9822 58.3509 65.8852C58.3995 65.9822 58.4481 66.0791 58.4967 66.1761C58.4967 66.2245 58.5454 66.273 58.5454 66.3215C58.5454 66.3699 58.594 66.4184 58.594 66.4669L58.6426 66.4184C58.8371 66.5638 59.1289 66.8546 59.2261 67.3393C59.372 67.9694 59.0316 68.4541 58.983 68.551C58.7885 68.5026 58.4481 68.5026 58.1564 68.648C57.6215 68.8903 57.6701 69.4235 57.1352 69.6658C56.649 69.8597 56.26 69.5689 56.1141 69.8113C56.0168 69.9567 56.0655 70.1505 56.26 70.8291C56.649 72.0893 56.6003 72.1863 56.7948 72.3317C57.1838 72.574 57.5242 72.2347 58.1077 72.4286C58.5454 72.574 58.6912 72.8648 59.0803 73.3495C59.4206 73.7857 59.9069 74.3674 60.6363 75.0459C61.1712 74.949 61.7547 74.9005 62.2896 74.8036L62.7758 76.4031Z" fill="#1D1D1B" stroke="#1D1D1B" stroke-width="0.3266" stroke-miterlimit="10"/>
<path d="M23 4.57138V6.51015L21.2981 9.95148L20.0824 8.69127L19.6448 8.88515L19.4989 10.2908L17.1163 10.3392L16.2896 8.6428L15.1712 9.61219L13.907 9.66066L13.2262 12.1811L12.4482 17.028L15.2685 24.0561V25.7525L15.1712 26.2857L15.074 26.3826L20.1797 26.528C20.1797 27.6428 20.2283 28.7576 20.2283 29.9209C19.8393 31.5688 19.2558 32.829 18.8182 33.7015C17.0676 36.9974 14.7336 38.7423 14.1501 39.13C12.9345 40.0025 11.7674 40.5357 10.9894 40.8265C10.8922 40.7295 10.7949 40.6811 10.6977 40.5841L7.87737 36.5612L5.64059 34.9132L1.21564 34.477L0.291748 35.0101V30.7448L1.8964 24.977L0.291748 26.0433L0.972509 22.9413L6.6131 12.5688L10.1628 5.97699L14.1015 3.79587L19.5962 0.839233H20.277L21.6871 3.21423L23 4.57138Z" fill="#E30613" stroke="#1D1D1B" stroke-width="0.3266" stroke-miterlimit="10"/>
<path d="M89.7632 24.977L91.4164 31.0842V35.0102L89.4228 31.375L90.5898 34.1862L90.3953 34.6224L86.0676 35.0102L83.6849 36.7551L80.6701 41.2143C80.3298 40.875 79.8435 40.3903 79.1627 39.8571C78.482 39.324 78.1902 39.2755 77.6067 38.8877C76.1479 37.9668 75.2241 36.7066 74.2515 35.3495C73.8625 34.8163 73.6194 34.477 73.3277 33.9439C73.0359 33.4592 72.2579 31.9566 71.9661 29.8724C71.8689 29.0969 71.7716 28.0306 71.9175 26.7219C73.4735 26.6735 75.0296 26.625 76.5856 26.5765V26.4796L76.3911 24.0561L79.3086 17.125L78.093 10.4362L77.6553 9.56376H76.0507L75.5158 10.1454L72.4524 10.2423L72.3551 8.5459H71.8689L70.945 10.0485L70.4101 9.85458L68.9513 6.84947L68.4164 5.92856L68.7082 5.00764L71.3826 0.596924L80.9619 5.39539L90.9302 23.8622L91.3678 26.0918L89.7632 24.977Z" fill="#E30613" stroke="#1D1D1B" stroke-width="0.3266" stroke-miterlimit="10"/>
<path d="M80.6701 41.2143L80.4756 41.5051L77.4122 43.6862H77.3636C77.0718 43.4924 76.6828 43.1531 76.1965 42.7169C74.8836 41.6021 73.7166 40.5842 72.6955 39.1301C72.2092 38.4516 72.5982 38.8393 70.9936 35.8827C70.3614 34.6709 69.9724 34.0893 69.632 33.0715C69.2917 32.1505 69.0972 31.3266 68.9513 30.7934C68.8054 30.7934 68.6595 30.7934 68.5137 30.7934C67.687 31.7628 66.8604 31.9567 66.52 32.0051C66.0337 32.1021 65.5961 32.0051 64.7208 31.8597C63.9428 31.7143 63.3107 31.5689 62.8731 31.4235C61.9978 31.4235 61.1225 31.472 60.2959 31.472C59.7124 31.5689 58.6426 31.7628 57.5729 32.5868C56.9893 33.023 56.6003 33.5077 56.3572 33.8954C55.9682 34.3801 55.3847 35.1072 54.6553 35.9311C53.5855 37.0459 52.7103 37.9669 51.3974 38.7424C50.7166 39.1301 49.5496 39.7118 47.9449 39.9541C47.9449 43.1046 47.9449 46.2067 47.9449 49.3572C46.632 49.3572 45.3678 49.3572 44.0549 49.4056C44.0549 46.2551 44.0549 43.0561 44.0549 39.9056C43.2769 39.8087 41.7208 39.5664 40.0676 38.5C38.4143 37.4337 37.539 36.125 37.1014 35.4465C36.761 34.8648 36.2748 34.1862 35.594 33.5077C34.4756 32.3444 33.26 31.7628 32.4333 31.4235C31.6067 31.2781 30.4397 31.2296 29.0781 31.375C27.8625 31.5204 26.8413 31.8112 26.0633 32.1021C25.7716 32.0536 25.4798 32.0536 25.2367 32.0051C24.6046 31.5204 23.9724 31.0357 23.2917 30.551C23.0972 31.5204 22.8054 32.6352 22.2705 33.847C22.0274 34.4771 21.4925 35.6888 20.3255 37.3852C18.5263 40.0995 16.3868 42.2322 14.7822 43.6862C13.4693 42.7169 12.205 41.7475 10.8921 40.7781C11.6701 40.4873 12.8371 39.9541 14.0528 39.0817C14.6363 38.6454 17.0189 36.9005 18.7208 33.6531C19.1585 32.7806 19.742 31.5204 20.131 29.8725C20.131 28.7577 20.0824 27.6429 20.0824 26.4796H20.2769L24.5073 29.4847L32.0929 29.3878L37.15 33.1684L38.8033 33.2653C39.4841 34.0893 41.0887 35.6888 43.5686 36.3674C48.8688 37.773 53.2452 33.6046 53.4883 33.3623H54.169L59.7124 29.5817H66.8604L70.6532 26.6735C70.7018 26.6735 71.723 26.625 71.8202 26.625H71.8688C71.723 27.9337 71.8202 29 71.9175 29.7755C72.2092 31.9082 73.0359 33.3623 73.279 33.847C73.5707 34.3801 73.8139 34.7194 74.2029 35.2526C75.1754 36.6097 76.0507 37.8215 77.5581 38.7908C78.1416 39.1786 78.4333 39.2271 79.1141 39.7602C79.8435 40.3419 80.3297 40.8266 80.6701 41.2143Z" fill="#1D1D1B" stroke="#1D1D1B" stroke-width="0.3266" stroke-miterlimit="10"/>
<path d="M77.3636 43.6377L74.7378 44.6071L73.1331 44.9464C70.7018 44.8979 68.2219 44.8979 65.7906 44.8495C64.7209 46.4489 64.0887 47.8546 63.6997 48.9209C63.2135 50.1326 63.0676 50.8597 62.7758 52.1199C62.4841 53.477 62.4841 53.9132 62.6299 54.3495C63.0189 55.3673 64.0887 55.9005 64.5263 56.0459C63.9915 56.6275 63.4566 57.1607 62.9217 57.7423C61.9006 58.4693 61.2198 59.1964 60.7335 59.778C58.983 61.9591 58.5454 64.3341 58.3995 65.2551C58.3509 65.5459 58.3509 65.7398 58.3022 65.9336C57.5729 66.0306 56.5031 66.3214 55.5792 67.1454C55.2388 67.4362 54.7039 68.4056 53.5855 70.4413C53.0507 71.4107 52.5644 72.3316 52.5158 73.5918C52.5158 73.7372 52.5158 73.8341 52.5158 73.9311H47.7991C47.7991 65.7398 47.8477 57.5969 47.8477 49.4056C47.8477 46.2551 47.8477 43.153 47.8477 40.0025C49.4523 39.7117 50.5707 39.1785 51.3001 38.7908C52.6617 38.0153 53.4883 37.0943 54.5581 35.9796C55.3361 35.1556 55.871 34.4285 56.26 33.9438C56.5031 33.5561 56.8921 33.0714 57.4756 32.6352C58.5454 31.8112 59.6151 31.6173 60.1987 31.5204C61.0739 31.5204 61.9492 31.4719 62.7758 31.4719C63.2135 31.6173 63.8456 31.7627 64.6236 31.9081C65.4989 32.0535 65.9851 32.1505 66.4228 32.0535C66.7631 32.0051 67.5898 31.7627 68.4164 30.8418C68.5623 30.8418 68.7082 30.8418 68.854 30.8418C68.9513 31.375 69.1458 32.1989 69.5348 33.1199C69.9238 34.1377 70.2642 34.7193 70.8963 35.9311C72.501 38.8877 72.112 38.5 72.5982 39.1785C73.6194 40.6326 74.835 41.6505 76.0993 42.7653C76.6828 43.1046 77.1204 43.4438 77.3636 43.6377Z" fill="white" stroke="#1D1D1B" stroke-width="0.3266" stroke-miterlimit="10"/>
<path d="M44.0549 73.7857C42.5475 73.7857 40.9915 73.7857 39.4841 73.7857C39.2896 72.1378 38.8033 70.8776 38.4629 70.0536C37.8308 68.648 36.9069 66.6122 35.0591 66.0791C34.7188 65.9821 34.2811 65.9337 33.7462 65.9337C33.7462 65.7883 33.6976 65.5459 33.649 65.2551C33.5031 64.2857 32.9682 61.0383 30.6828 58.9056C29.9534 58.227 29.7589 58.2755 28.6405 57.2577C28.2029 56.8214 27.8139 56.4337 27.4735 56.0944C27.7166 56.0459 28.3488 55.852 28.835 55.2704C29.224 54.8342 29.3699 54.3495 29.4185 54.1071C29.3699 52.7985 29.1268 51.0051 28.3974 48.9694C27.7653 47.2245 26.9386 45.8189 26.2579 44.8495C23.8752 44.8495 21.4925 44.898 19.1585 44.898C17.7484 44.5587 16.3868 44.1709 14.9767 43.8316C14.9281 43.7832 14.8794 43.7832 14.8308 43.7347C16.4841 42.2806 18.575 40.0995 20.3742 37.4337C21.4925 35.7372 22.0274 34.5255 22.3192 33.8954C22.8054 32.6837 23.1458 31.5204 23.3403 30.5995C23.9725 31.0842 24.6046 31.5689 25.2854 32.0536C25.5771 32.102 25.8689 32.102 26.112 32.1505C26.89 31.8597 27.8625 31.5689 29.1268 31.4235C30.4883 31.2781 31.6553 31.3265 32.482 31.4719C33.3086 31.8112 34.4756 32.4413 35.6427 33.5561C36.3234 34.2347 36.8097 34.9133 37.1501 35.4949C37.5391 36.1735 38.4629 37.4821 40.1162 38.5485C41.7209 39.5663 43.2769 39.8571 44.1035 39.9541C44.1035 43.1046 44.1035 46.3036 44.1035 49.4541C44.0549 57.5485 44.0549 65.6913 44.0549 73.7857Z" fill="white" stroke="#1D1D1B" stroke-width="0.3266" stroke-miterlimit="10"/>
<path d="M10.6976 32.5867C11.3784 32.1504 12.2537 31.4719 13.0803 30.4056C14.3932 28.8061 14.8795 27.1581 15.1226 26.2372" stroke="#1D1D1B" stroke-width="0.3266" stroke-miterlimit="10"/>
<path d="M5.59186 23.2806C5.25148 23.6684 4.61935 24.4924 4.37622 25.7041C4.13309 26.7704 4.27897 27.6429 4.37622 28.1276C4.7166 27.8368 5.15423 27.3521 5.59186 26.722C6.07812 25.9465 6.32125 25.2194 6.4185 24.7347" stroke="#1D1D1B" stroke-width="0.3266" stroke-miterlimit="10"/>
<path d="M2.43126 31.375C1.99363 32.4413 1.556 33.4592 1.16699 34.5255" stroke="#1D1D1B" stroke-width="0.3266" stroke-miterlimit="10"/>
<path d="M13.6638 51.9745C13.2748 52.1684 11.038 53.2347 10.3086 55.7551C9.91964 57.1122 10.1141 58.2755 10.26 58.8571C11.6702 58.6148 13.7125 58.4694 16.1437 58.9541C17.408 59.1964 18.4778 59.5842 19.353 59.9719C19.6448 60.602 19.9366 61.1837 20.2283 61.8138" stroke="#1D1D1B" stroke-width="0.3266" stroke-miterlimit="10"/>
<path d="M10.5518 68.5995C10.5031 68.551 10.4545 68.551 10.4059 68.5026" stroke="#1D1D1B" stroke-width="0.3266" stroke-miterlimit="10"/>
<path d="M25.1394 49.9872C24.5073 49.5995 23.5348 49.1148 22.3191 48.9694C22.0274 48.9209 21.7356 48.9209 21.4439 48.9209C20.131 48.9209 18.8667 48.9694 17.5538 48.9694C17.4079 48.8724 16.9703 48.5331 16.7758 47.8546C16.5813 47.2729 16.7272 46.7398 16.8244 46.5944" stroke="#1D1D1B" stroke-width="0.3266" stroke-miterlimit="10"/>
<path d="M47.8964 49.4056C51.6892 49.3572 55.482 49.3572 59.2748 49.3087C61.0253 47.2245 62.7759 45.1403 64.5264 43.1046" stroke="#1D1D1B" stroke-width="0.3266" stroke-miterlimit="10"/>
<path d="M27.6194 43.0077C29.3213 45.1888 31.0232 47.3215 32.7251 49.5026C36.4693 49.4541 40.2621 49.4541 44.0063 49.4057" stroke="#1D1D1B" stroke-width="0.3266" stroke-miterlimit="10"/>
<path d="M66.3741 50.0841C67.687 49.2601 68.7568 49.1147 69.4862 49.1147C70.2156 49.1147 70.7018 49.3086 72.0634 49.2601C72.9873 49.2601 73.4249 49.2601 73.8625 49.0663C74.8837 48.5816 75.2727 47.4183 75.4672 46.7882" stroke="#1D1D1B" stroke-width="0.3266" stroke-miterlimit="10"/>
<path d="M78.482 52.0229C78.871 52.2168 80.5243 52.9439 81.4482 54.8826C82.2748 56.6275 81.9344 58.1786 81.8372 58.6633C79.9894 58.7117 78.1416 58.7602 76.2938 58.8087C75.8076 58.8571 74.7378 59.0025 73.6194 59.7296C72.5496 60.4566 72.0148 61.426 71.8203 61.8622" stroke="#1D1D1B" stroke-width="0.3266" stroke-miterlimit="10"/>
<path d="M58.6913 66.4183C58.6427 66.3699 58.5941 66.3699 58.5941 66.3214" stroke="#1D1D1B" stroke-width="0.3266" stroke-miterlimit="10"/>
<path d="M86.7484 23.3776C87.0401 23.7653 87.575 24.5408 87.8182 25.7041C88.0613 26.7704 87.8668 27.6913 87.7695 28.1276C87.2833 27.5459 86.797 26.8189 86.3594 25.9464C86.0676 25.3648 85.8245 24.8316 85.63 24.347" stroke="#1D1D1B" stroke-width="0.3266" stroke-miterlimit="10"/>
<path d="M81.1078 32.5868C79.9894 31.375 78.7738 29.8725 77.6554 28.1761C77.2664 27.546 76.8774 26.9643 76.537 26.3827" stroke="#1D1D1B" stroke-width="0.3266" stroke-miterlimit="10"/>
<path d="M89.2283 60.3112C87.3319 61.5714 86.2135 62.9285 85.5327 63.9464C84.7547 65.1096 84.1712 66.4668 82.5665 67.5816C82.2262 67.8239 81.8858 67.9693 81.2536 68.3086C80.2325 68.8418 78.7251 69.4719 76.8773 70.1989" stroke="#1D1D1B" stroke-width="0.3266" stroke-miterlimit="10"/>
</g>
<defs>
<clipPath id="clip0_111_82">
<rect width="92" height="76" fill="white" transform="translate(0 0.5)"/>
</clipPath>
</defs>
</svg>
