<svg width="664" height="664" viewBox="0 0 664 664" fill="none" xmlns="http://www.w3.org/2000/svg">
<g clip-path="url(#clip0_12_372)">
<path d="M662.903 270.182C646.233 238.152 627.854 206.927 607.835 176.624C577.478 130.543 537.731 87.356 485.713 60.1187C365.038 -3.08084 226.121 21.6067 134.398 94.4608C42.6754 167.315 117.603 260.66 100.793 330.672C83.9832 400.684 30.5327 398.042 16.787 499.7C3.04142 601.358 158.839 661.809 279.5 635.714C400.161 609.619 401.778 562.899 504.041 560.151C606.303 557.402 667.484 528.544 688.862 421.401C696.38 383.739 697.174 342.823 680.762 306.848C675.201 294.657 669.215 282.399 662.903 270.182Z" fill="#FF182C"/>
<path opacity="0.7" d="M662.903 270.182C646.233 238.152 627.854 206.927 607.835 176.624C577.478 130.543 537.731 87.356 485.713 60.1187C365.038 -3.08084 226.121 21.6067 134.398 94.4608C42.6754 167.315 117.603 260.66 100.793 330.672C83.9832 400.684 30.5327 398.042 16.787 499.7C3.04142 601.358 158.839 661.809 279.5 635.714C400.161 609.619 401.778 562.899 504.041 560.151C606.303 557.402 667.485 528.544 688.862 421.401C696.38 383.739 697.175 342.823 680.762 306.848C675.201 294.657 669.215 282.399 662.903 270.182Z" fill="#FF182C"/>
<path d="M148.324 175.455C145.748 172.799 141.286 170.329 133.544 170.143C116.147 169.718 120.821 182.029 116.147 184.99C111.472 187.952 110.197 183.29 105.523 186.318C100.848 189.346 102.973 195.229 99.1618 196.079C95.3504 196.929 90.304 192.214 85.5896 195.216C80.8752 198.217 80.915 200.74 78.7902 200.74C76.6654 200.74 72.4291 199.04 69.8794 200.74C67.3296 202.44 64.3682 204.512 64.3682 204.512H109.932" stroke="#263238" stroke-linecap="round" stroke-linejoin="round"/>
<path d="M153.118 183.051L151.79 182.453C151.588 180.864 151.054 179.335 150.223 177.965" stroke="#263238" stroke-linecap="round" stroke-linejoin="round"/>
<path d="M115.775 204.512H171.75C171.75 204.512 173.078 200.7 168.351 198.151C163.623 195.601 161.564 197.726 159.865 195.601C158.351 193.715 163.238 189.134 155.336 184.26" stroke="#263238" stroke-linecap="round" stroke-linejoin="round"/>
<path d="M532.78 431.985C530.204 429.329 525.742 426.872 518 426.673C500.603 426.248 505.264 438.558 500.603 441.533C495.942 444.508 494.653 439.833 489.979 442.861C485.304 445.889 487.429 451.772 483.604 452.622C479.78 453.472 474.694 448.797 470.032 451.772C465.371 454.747 465.358 457.297 463.233 457.297C461.108 457.297 456.872 455.597 454.322 457.297C451.772 458.996 448.811 461.108 448.811 461.108H494.375" stroke="#263238" stroke-linecap="round" stroke-linejoin="round"/>
<path d="M537.574 439.568C537.163 439.355 536.724 439.156 536.246 438.957C536.043 437.372 535.509 435.847 534.679 434.481" stroke="#263238" stroke-linecap="round" stroke-linejoin="round"/>
<path d="M500.231 461.055H556.206C556.206 461.055 557.534 457.243 552.807 454.694C548.079 452.144 546.02 454.269 544.321 452.144C542.807 450.258 547.694 445.677 539.779 440.79" stroke="#263238" stroke-linecap="round" stroke-linejoin="round"/>
<path d="M237.048 98.046H296.649C296.649 98.046 298.667 91.9505 291.23 87.8868C283.794 83.8231 280.394 87.2095 277.685 83.8231C274.976 80.4367 285.135 71.6454 264.83 62.8407C264.83 62.8407 263.502 43.8902 235.72 43.2129C223.768 42.9207 218.323 46.4134 215.441 50.8622" stroke="#263238" stroke-linecap="round" stroke-linejoin="round"/>
<path d="M218.868 98.0459H228.788" stroke="#263238" stroke-linecap="round" stroke-linejoin="round"/>
<path d="M211.829 60.2114C210.979 63.0932 210.063 65.5234 207.978 66.8514C200.528 71.5924 198.496 64.1954 191.059 68.8833C183.623 73.5711 186.996 83.0929 180.9 84.4474C174.805 85.802 166.691 78.3652 159.24 83.1194C151.79 87.8737 151.79 91.9241 148.417 91.9241C145.044 91.9241 138.258 89.2681 134.194 91.9241C130.131 94.5801 125.403 98.0196 125.403 98.0196H201.511" stroke="#263238" stroke-linecap="round" stroke-linejoin="round"/>
<path d="M327.989 638.688C346.861 638.688 362.159 637.315 362.159 635.621C362.159 633.926 346.861 632.553 327.989 632.553C309.118 632.553 293.82 633.926 293.82 635.621C293.82 637.315 309.118 638.688 327.989 638.688Z" fill="#263238"/>
<path d="M201.604 382.238C201.604 382.238 194.286 385.532 196.119 397.232C197.952 408.931 252.798 484.999 266.689 536.193C280.58 587.388 269.624 629.804 327.777 625.05C385.93 620.296 393.579 554.839 406.368 503.312C419.157 451.786 450.976 418.838 452.848 395.439C454.72 372.039 439.674 376.05 439.674 376.05" stroke="#263238" stroke-miterlimit="10"/>
<path d="M280.752 451.042C280.752 451.042 285.972 485.477 286.237 487.31C286.503 489.142 281.018 508.956 284.67 519.912C288.322 530.868 293.807 547.8 296.157 552.793C298.508 557.787 298.813 558.265 299.026 566.073C299.238 573.882 297.193 589.805 300.062 595.024C301.411 597.557 303.524 599.601 306.101 600.864C308.678 602.128 311.588 602.547 314.417 602.062C320.154 601.026 323.023 596.856 322.239 590.323C321.456 583.789 318.853 575.197 317.286 567.893C315.719 560.589 314.152 554.613 313.103 550.151C312.053 545.688 312.319 548.583 312.067 531.559C311.814 514.534 310.739 506.526 309.982 498.173C309.225 489.82 309.451 488.518 309.198 486.221C308.946 483.923 318.587 451.268 318.587 451.268L280.5 448.399L280.752 451.042Z" fill="white" stroke="#263238" stroke-miterlimit="10"/>
<path d="M317.286 567.919C315.719 560.615 314.152 554.639 313.103 550.177C312.053 545.715 312.319 548.61 312.067 531.585C311.814 514.56 310.739 506.552 309.982 498.199C309.982 498.199 306.383 536.3 298.999 565.263C298.999 565.516 298.999 565.755 298.999 566.033C299.252 573.855 297.167 589.765 300.035 594.984C301.384 597.517 303.498 599.561 306.075 600.824C308.652 602.088 311.562 602.507 314.391 602.022C320.128 600.986 322.996 596.816 322.213 590.283C321.429 583.749 318.853 575.223 317.286 567.919Z" fill="#263238" stroke="#263238" stroke-miterlimit="10"/>
<path d="M322.239 590.349C321.456 583.829 318.853 575.223 317.286 567.919C315.719 560.615 314.152 554.639 313.103 550.177C313.103 550.177 314.431 555.13 308.415 558.782C306.947 559.791 305.209 560.331 303.428 560.331C301.648 560.331 299.909 559.791 298.441 558.782C298.827 561.211 299.022 563.667 299.026 566.126C299.278 573.948 297.193 589.858 300.062 595.077C301.411 597.61 303.524 599.654 306.101 600.917C308.678 602.181 311.588 602.6 314.417 602.115C320.154 601.053 323.023 596.883 322.239 590.349Z" fill="white" stroke="#263238" stroke-miterlimit="10"/>
<path d="M314.417 602.089C320.154 601.053 323.023 596.883 322.239 590.349C322.173 589.831 322.08 589.26 322 588.716C320.526 595.993 316.462 600.349 309.451 599.22C303.873 598.33 300.274 591.252 298.588 587.082C298.525 589.811 299.027 592.524 300.062 595.05C301.411 597.584 303.524 599.627 306.101 600.891C308.678 602.154 311.588 602.574 314.417 602.089Z" fill="white" stroke="#263238" stroke-miterlimit="10"/>
<path d="M337.631 493.564C337.631 493.564 338.149 502.701 339.981 506.353C341.814 510.005 345.718 510.523 348.069 515.224C350.419 519.925 351.19 521.227 348.321 531.16C346.807 536.472 343.859 545.237 348.573 549.752C355.851 556.658 362.013 547.096 364.509 540.868C366.9 535.051 367.006 529.035 366.302 522.873C365.253 513.737 365.253 512.953 365.253 511.386C365.253 509.819 371.521 500.948 368.122 492.09C364.722 483.233 358.733 484.003 358.733 484.003C358.733 484.003 340.499 480.523 337.631 493.564Z" fill="#263238" stroke="#263238" stroke-miterlimit="10"/>
<path d="M330.327 453.91C330.327 453.91 332.146 487.828 335.798 494.614C339.45 501.4 351.455 504.786 355.891 501.918C360.326 499.049 363.713 484.176 365.027 475.57C366.342 466.965 367.856 455.225 367.856 455.225L330.327 453.91Z" fill="white" stroke="#263238" stroke-miterlimit="10"/>
<path d="M282.864 359.224C282.864 359.224 275.029 391.827 274.511 404.867C273.993 417.908 271.377 439.303 270.341 444.787C269.707 448.139 269.445 451.55 269.557 454.96C269.557 454.96 274.511 453.14 293.289 455.743C312.067 458.346 313.899 458.877 317.299 458.877H320.685L324.072 455.743L323.554 458.877C323.554 458.877 318.083 461.533 336.343 459.395C354.603 457.257 360.34 458.612 366.076 458.346C371.813 458.08 376.249 457.563 376.249 457.563C376.249 457.563 378.347 440.298 373.593 417.138C368.839 393.978 369.157 380.605 364.456 371.986L359.768 363.381C359.768 363.381 323.501 365.2 310.194 364.948C301.47 364.604 292.849 362.93 284.63 359.981" fill="#263238"/>
<path d="M282.864 359.224C282.864 359.224 275.029 391.827 274.511 404.867C273.993 417.908 271.377 439.303 270.341 444.787C269.707 448.139 269.445 451.55 269.557 454.96C269.557 454.96 274.511 453.14 293.289 455.743C312.067 458.346 313.899 458.877 317.299 458.877H320.685L324.072 455.743L323.554 458.877C323.554 458.877 318.083 461.533 336.343 459.395C354.603 457.257 360.34 458.612 366.076 458.346C371.813 458.08 376.249 457.563 376.249 457.563C376.249 457.563 378.347 440.298 373.593 417.138C368.839 393.978 369.157 380.605 364.456 371.986L359.768 363.381C359.768 363.381 323.501 365.2 310.194 364.948C301.47 364.604 292.849 362.93 284.63 359.981" stroke="#FB2639" stroke-miterlimit="10"/>
<path d="M218.775 357.644L212.905 362.717C212.905 362.717 204.087 365.917 202.493 368.586C200.9 371.256 199.559 376.86 198.217 377.404C196.876 377.949 193.41 378.201 194.751 379.808C196.092 381.415 198.735 380.87 198.735 380.87C198.735 380.87 199.811 386.182 200.608 387.271C201.404 388.36 204.339 386.209 209.691 384.071C215.043 381.933 215.827 382.743 216.889 378.998C217.951 375.253 219.824 368.586 219.824 368.586L223.569 365.12L218.775 357.644Z" fill="white" stroke="#263238" stroke-miterlimit="10"/>
<path d="M218.775 357.644L214.552 361.296L219.797 368.732V368.586L223.542 365.12L218.775 357.644Z" fill="#E43A3A" stroke="#263238" stroke-miterlimit="10"/>
<path d="M198.748 380.87L210.7 374.868C211.069 374.681 211.495 374.642 211.891 374.761C212.286 374.88 212.621 375.146 212.825 375.505C213.78 377.097 214.508 378.813 214.99 380.605" stroke="#263238" stroke-miterlimit="10"/>
<path d="M212.865 374.337L214.831 373.354C215.131 373.207 215.46 373.125 215.794 373.113C216.129 373.101 216.462 373.16 216.773 373.285C217.083 373.41 217.364 373.599 217.597 373.84C217.829 374.081 218.009 374.367 218.124 374.682L218.297 375.133C218.412 375.44 218.464 375.768 218.447 376.096C218.431 376.424 218.347 376.744 218.202 377.039C218.056 377.333 217.851 377.593 217.6 377.805C217.349 378.016 217.057 378.174 216.743 378.267L215.322 378.679L212.865 374.337Z" fill="#263238" stroke="#263238" stroke-miterlimit="10"/>
<path d="M210.754 374.868C210.754 374.868 212.294 374.044 212.294 371.03" stroke="#263238" stroke-miterlimit="10"/>
<path d="M423.34 355.453L429.98 359.437C429.98 359.437 439.196 361.123 441.228 363.5C443.26 365.877 445.504 371.163 446.912 371.468C448.32 371.774 451.772 371.468 450.723 373.261C449.674 375.054 446.965 374.988 446.965 374.988C446.965 374.988 446.792 380.419 446.181 381.628C445.571 382.836 442.317 381.189 436.7 379.981C431.082 378.772 430.418 379.689 428.732 376.183C427.045 372.677 424.097 366.395 424.097 366.395L419.834 363.607L423.34 355.453Z" fill="white" stroke="#263238" stroke-miterlimit="10"/>
<path d="M423.34 355.453L428.121 358.348L424.137 366.568L424.07 366.422L419.807 363.633L423.34 355.453Z" fill="#E43A3A" stroke="#263238" stroke-miterlimit="10"/>
<path d="M446.965 375.027L434.123 371.043C433.727 370.923 433.299 370.959 432.929 371.145C432.558 371.33 432.273 371.65 432.131 372.039C431.44 373.761 430.993 375.572 430.803 377.418" stroke="#263238" stroke-miterlimit="10"/>
<path d="M431.945 370.937L429.86 370.299C429.541 370.2 429.204 370.169 428.872 370.209C428.54 370.248 428.22 370.357 427.933 370.529C427.646 370.701 427.398 370.931 427.206 371.205C427.015 371.479 426.883 371.79 426.819 372.119L426.726 372.597C426.664 372.919 426.668 373.251 426.739 373.571C426.811 373.891 426.947 374.194 427.14 374.459C427.333 374.724 427.579 374.947 427.862 375.113C428.145 375.28 428.459 375.386 428.785 375.426L430.259 375.598L431.945 370.937Z" fill="#263238" stroke="#263238" stroke-miterlimit="10"/>
<path d="M434.123 371.096C434.123 371.096 432.476 370.552 431.972 367.564" stroke="#263238" stroke-miterlimit="10"/>
<path d="M296.144 255.959C296.144 255.959 270.062 263.13 268.986 269.013C267.911 274.896 260.713 294.099 260.713 295.44C260.713 296.781 251.908 327.206 251.908 327.206C251.908 327.206 248.442 329.862 248.163 330.951C248.163 330.951 235.083 338.428 230.01 344.032C224.937 349.636 216.398 354.178 216.929 355.984C217.46 357.79 220.143 368.799 228.682 368.533C237.221 368.268 263.648 355.187 268.986 349.848C274.325 344.51 282.054 328.016 282.054 328.016C282.054 328.016 276.742 345.36 278.07 349.37C279.398 353.381 280.726 360.579 285.015 362.451C289.305 364.324 302.904 369.091 327.511 368.586C352.119 368.082 358.746 367.258 362.225 362.185C365.636 357.075 367.742 351.207 368.361 345.094C368.901 341.383 369.167 337.636 369.157 333.886C369.157 331.482 375.041 344.51 389.449 353.368C403.858 362.225 412.676 370.725 415.345 367.79C418.015 364.855 427.364 360.579 425.757 352.836C424.15 345.094 418.28 343.766 411.069 336.555C406.784 332.291 403.262 327.323 400.658 321.867C400.658 321.867 401.468 318.136 399.861 316.263L398.267 314.391C399.779 310.974 400.423 307.237 400.142 303.512C399.862 299.787 398.666 296.188 396.66 293.037C392.067 285.673 386.982 278.628 381.441 271.948C375.572 264.737 376.9 262.864 371.03 259.398C365.16 255.932 367.564 256.198 354.204 253.529C340.844 250.859 337.339 253.037 319.875 252.878C302.412 252.718 296.144 255.959 296.144 255.959Z" fill="#263238" stroke="#FD3748" stroke-miterlimit="10"/>
<path d="M369.078 333.886C369.078 333.886 371.481 317.87 373.062 304.511C374.642 291.151 370.924 280.487 368.52 276.49" stroke="#FB2D3E" stroke-miterlimit="10"/>
<path d="M281.536 282.359C281.536 282.359 278.601 291.974 281.005 299.982C283.408 307.99 283.408 311.934 283.143 316.263C282.877 320.592 282.08 328.016 282.08 328.016" stroke="#FB2D3E" stroke-miterlimit="10"/>
<path d="M284.723 342.956C285.52 342.425 300.739 321.602 300.739 321.602L303.395 323.474L286.582 345.625" stroke="#F33546" stroke-miterlimit="10"/>
<path d="M343.979 325.068L358.932 350.964L361.88 348.839L347.192 324.005" stroke="#F33546" stroke-miterlimit="10"/>
<path d="M304.205 366.727C304.205 366.727 303.143 364.855 294.59 356.302" stroke="#FB2D3E" stroke-miterlimit="10"/>
<path d="M327.432 368.587C327.432 368.587 337.046 364.324 339.184 359.291" stroke="#FF2F41" stroke-miterlimit="10"/>
<path d="M336.25 367.524C337.331 367.353 338.364 366.955 339.279 366.355C340.195 365.755 340.973 364.968 341.562 364.044" stroke="#FF2F41" stroke-miterlimit="10"/>
<path d="M307.326 231.072C307.326 231.072 298.282 233.237 297.751 235.587C297.469 237.199 297.288 238.827 297.206 240.461C297.02 241.192 292.678 243.715 291.244 246.251C289.809 248.788 292.147 249.319 292.147 250.049C292.147 250.78 288.893 253.117 289.796 254.379C290.397 255.52 291.31 256.466 292.43 257.106C293.55 257.746 294.829 258.053 296.117 257.991C300.46 258.177 319.251 257.088 320.021 257.274C320.792 257.46 333.023 254.618 342.066 254.923C351.11 255.229 359.237 258.177 359.782 255.826C360.326 253.476 355.798 247.513 355.798 247.513C355.798 247.513 359.051 246.796 356.701 242.639C354.35 238.482 351.641 237.938 351.641 237.035C351.641 236.132 354.536 234.857 347.657 232.506C342.154 230.789 336.436 229.859 330.672 229.744C327.047 229.558 311.323 229.2 311.323 229.2L307.326 231.072Z" fill="#E43A3A" stroke="#263238" stroke-miterlimit="10"/>
<path d="M351.601 237.088C346.534 239.57 341.714 242.527 337.206 245.919C331.655 250.461 329.384 253.993 325.094 255.016" stroke="#263238" stroke-miterlimit="10"/>
<path d="M355.758 247.566C355.758 247.566 351.854 246.424 344.032 249.451C336.21 252.479 337.71 253.435 331.402 254.246" stroke="#263238" stroke-miterlimit="10"/>
<path d="M297.206 240.514C297.206 240.514 300.101 241.842 306.662 248.947C313.222 256.052 317.02 255.016 317.02 255.016" stroke="#263238" stroke-miterlimit="10"/>
<path d="M292.16 250.102C293.488 250.461 296.078 254.763 304.656 255.773" stroke="#263238" stroke-miterlimit="10"/>
<path d="M309.318 231.377C308.858 235.343 309.545 239.357 311.296 242.944C314.192 248.177 317.087 253.422 319.796 252.878C322.505 252.333 332.266 242.041 334.258 239.332C335.777 236.793 336.931 234.053 337.684 231.191C337.684 231.191 321.057 239.332 309.318 231.377Z" fill="white" stroke="#263238" stroke-miterlimit="10"/>
<path d="M337.684 231.191C337.684 231.191 321.057 239.332 309.318 231.377C309.166 232.7 309.139 234.034 309.238 235.361C313.008 241.35 318.338 246.198 324.656 249.385C328.098 246.264 331.307 242.895 334.258 239.305C335.775 236.775 336.928 234.044 337.684 231.191Z" fill="#263238" stroke="#263238" stroke-miterlimit="10"/>
<path d="M304.112 210.116C304.112 210.116 300.128 206.57 299.066 209.704C298.5 211.241 298.377 212.906 298.71 214.509C299.043 216.113 299.82 217.591 300.951 218.775C303.461 221.537 305.042 221.962 305.042 221.962L304.112 210.116Z" fill="white" stroke="#263238" stroke-miterlimit="10"/>
<path d="M342.744 214.021C342.744 214.021 347.272 211.126 347.816 214.379C348.134 215.986 347.998 217.65 347.424 219.184C346.849 220.718 345.858 222.062 344.563 223.064C341.668 225.415 340.034 225.588 340.034 225.588L342.744 214.021Z" fill="white" stroke="#263238" stroke-miterlimit="10"/>
<path d="M321.243 177.514C321.243 177.514 309.49 174.858 307.14 184.154C304.789 193.45 302.625 208.058 302.811 214.698C302.996 221.338 306.423 231.138 308.229 233.13C310.035 235.122 315.28 240.355 319.079 240.541C322.877 240.727 331.907 238.376 336.064 234.206C340.22 230.036 339.49 226.079 341.668 219.386C343.846 212.692 347.086 203.131 345.094 193.543C343.102 183.955 344.563 186.318 336.967 180.356C329.371 174.393 319.079 170.648 321.243 177.514Z" fill="white" stroke="#263238" stroke-miterlimit="10"/>
<path d="M345.094 193.596C343.115 184.021 344.563 186.371 336.967 180.409C329.371 174.446 319.079 170.648 321.243 177.514C321.243 177.514 309.49 174.858 307.14 184.154C305.535 190.851 304.316 197.635 303.488 204.472L303.886 204.392C303.886 204.392 306.237 204.034 306.542 199.333C306.848 194.632 307.087 188.124 309.079 187.938C311.071 187.752 314.683 192.825 320.646 190.833C326.608 188.841 329.862 185.415 334.922 187.58C339.981 189.744 341.787 193.914 340.526 195.721C339.264 197.527 338.175 200.236 339.437 202.36C340.601 204.092 341.518 205.979 342.159 207.965C342.425 209.173 342.597 213.808 342.664 216.079C344.709 209.824 346.781 201.71 345.094 193.596Z" fill="#263238" stroke="#263238" stroke-miterlimit="10"/>
<path d="M318.707 205.707L319.61 208.602L318.348 211.856" stroke="#263238" stroke-miterlimit="10"/>
<path d="M318.162 217.102C318.162 217.633 321.057 220.355 325.4 218.177" stroke="#263238" stroke-miterlimit="10"/>
<path d="M321.243 227.752C322.138 227.752 322.863 227.027 322.863 226.132C322.863 225.237 322.138 224.512 321.243 224.512C320.348 224.512 319.623 225.237 319.623 226.132C319.623 227.027 320.348 227.752 321.243 227.752Z" fill="#263238"/>
<path d="M314.377 209.147C314.377 209.944 313.886 210.594 313.288 210.594C312.691 210.594 312.2 209.944 312.2 209.147C312.2 208.35 312.691 207.699 313.288 207.699C313.886 207.699 314.377 208.35 314.377 209.147Z" fill="#263238"/>
<path d="M331.907 209.691C331.939 210.023 331.845 210.355 331.643 210.621C331.441 210.887 331.147 211.067 330.818 211.125C330.22 211.125 329.742 210.488 329.742 209.691C329.742 208.894 330.22 208.244 330.818 208.244C331.416 208.244 331.907 208.881 331.907 209.691Z" fill="#263238"/>
<path d="M309.318 203.543C310.645 203.136 312.044 203.022 313.42 203.208C314.795 203.393 316.114 203.874 317.286 204.618" stroke="#263238" stroke-miterlimit="10"/>
<path d="M327.564 205.707C329.156 204.972 330.893 204.607 332.645 204.639C334.398 204.671 336.121 205.1 337.684 205.893" fill="white"/>
<path d="M327.564 205.707C329.156 204.972 330.893 204.607 332.645 204.639C334.398 204.671 336.121 205.1 337.684 205.893" stroke="#263238" stroke-miterlimit="10"/>
</g>
<defs>
<clipPath id="clip0_12_372">
<rect width="664" height="664" fill="white"/>
</clipPath>
</defs>
</svg>
