<svg width="249" height="204" viewBox="0 0 249 204" fill="none" xmlns="http://www.w3.org/2000/svg">
<g clip-path="url(#clip0_46_55)">
<path d="M36.4671 186.108L28.4653 186.628V182.472C30.5642 183.77 33.1877 185.069 36.4671 186.108Z" fill="#E30613" stroke="#1D1D1B" stroke-width="0.3266" stroke-miterlimit="10"/>
<path d="M28.2031 182.212L13.6424 179.225L12.4618 178.446L18.1024 173.38L16.6595 171.303L0.524658 162.601L7.87059 161.952C9.96943 163.77 13.1177 166.497 16.5283 170.264C20.2013 174.419 21.1195 176.368 23.8742 179.095C25.0548 180.004 26.3666 181.173 28.2031 182.212Z" fill="#E30613" stroke="#1D1D1B" stroke-width="0.3266" stroke-miterlimit="10"/>
<path d="M230.741 171.562L229.298 173.251L234.939 177.666L229.954 180.394L220.115 181.822L219.591 181.952L219.46 182.212L218.148 184.42L217.492 185.978L207.916 187.147L207.654 187.277L173.679 198.186L168.3 198.966C166.857 199.225 165.283 199.355 163.84 199.615C161.873 197.797 160.561 196.238 159.643 195.069C158.593 193.771 158.069 192.992 157.019 192.602C155.445 192.082 154.527 192.992 153.477 192.342C152.953 192.082 152.953 191.693 152.034 188.316C151.51 186.498 151.247 185.978 151.641 185.589C152.166 184.939 153.084 185.719 154.396 185.199C155.839 184.55 155.707 183.121 157.15 182.472C157.937 182.082 158.856 182.082 159.38 182.212C159.512 181.952 160.43 180.783 160.036 178.965C159.774 177.666 158.856 176.887 158.462 176.498C159.118 175.718 159.774 174.939 160.43 174.16C161.742 174.16 162.922 174.16 164.234 174.16C164.496 174.55 164.627 174.809 164.89 175.199C166.07 175.199 167.12 175.199 168.3 175.199C168.563 175.848 169.219 177.537 171.055 178.705C172.367 179.615 173.548 179.874 174.335 179.874C174.597 181.433 174.99 182.991 175.253 184.55C177.876 183.641 182.205 181.563 186.403 177.407C191.388 172.472 193.355 167.017 194.011 164.29C192.831 164.419 190.994 164.549 189.026 163.9C186.928 163.251 185.353 162.082 183.517 159.874C179.582 155.458 177.352 150.263 176.171 146.887C175.646 147.406 175.122 148.055 174.466 148.575C173.154 148.055 170.268 146.757 169.35 144.029C168.956 142.86 168.956 141.692 169.743 138.055C170.53 134.678 170.924 132.601 172.236 129.484C173.285 126.626 175.122 122.86 177.876 118.574C184.435 118.704 191.125 118.704 197.684 118.834L197.422 118.964L201.488 123.639L203.981 123.899L216.18 124.938L222.214 128.055L231.397 139.354L234.807 145.977L245.826 154.159L246.089 159.095L241.235 160.783L248.056 161.302L239.53 167.926L230.741 171.562Z" fill="#E30613" stroke="#1D1D1B" stroke-width="0.3266" stroke-miterlimit="10"/>
<path d="M96.5465 188.316C95.4971 191.693 95.6283 191.953 95.1036 192.342C94.0542 192.992 93.1359 192.082 91.5618 192.602C90.3812 192.992 89.9877 193.771 88.9382 195.07C88.02 196.238 86.7082 197.797 84.7406 199.615C83.0353 199.355 81.33 199.225 79.6247 198.966L46.6991 190.134L36.4673 186.108C33.1879 185.069 30.5643 183.771 28.4655 182.472V182.342L28.072 182.212C26.3667 181.043 25.0549 180.004 23.8743 178.965C21.1196 176.368 20.2013 174.42 16.5284 170.134C13.1178 166.368 10.1007 163.51 7.87066 161.822L1.70532 157.147L1.96768 153.38L13.1177 145.458L26.4978 127.276L33.8438 124.289C37.6479 124.029 41.4521 123.769 45.2562 123.509C46.3056 122.86 47.4862 122.081 48.6668 121.302C49.7162 120.522 50.7656 119.873 51.6839 119.094H51.5527C57.9804 119.094 64.4081 118.964 70.7046 118.964C72.5411 121.561 74.7711 125.328 76.4764 130.003C78.4441 135.458 79.0999 140.263 79.2311 143.77C79.0999 144.419 78.7064 145.718 77.657 146.887C76.3452 148.445 74.6399 148.965 73.984 149.094C73.3281 148.445 72.8034 147.796 72.4099 147.276C72.2787 148.185 69.3928 161.562 59.5545 164.16C58.2428 164.549 56.5374 164.809 54.5698 164.549C55.3568 167.277 57.3245 172.601 62.1781 177.667C66.3757 181.822 70.8358 183.9 73.3281 184.81C73.5905 183.251 73.984 181.693 74.2464 180.134C74.9023 180.004 76.214 179.744 77.5258 178.965C79.3623 177.796 80.0182 176.108 80.2805 175.459C81.4611 175.459 82.5106 175.459 83.6912 175.459C83.9535 175.069 84.0847 174.809 84.347 174.42C85.6588 174.42 86.8394 174.42 88.1512 174.42C88.8071 175.199 89.463 176.108 90.25 176.887C89.9877 177.017 88.8071 177.667 88.4135 179.095C88.02 180.783 88.9382 182.212 89.0694 182.342C89.5941 182.212 90.5124 182.212 91.2994 182.602C92.7424 183.251 92.6112 184.68 94.0542 185.329C95.3659 185.849 96.4154 185.069 96.8089 185.719C97.3336 185.978 97.2024 186.498 96.5465 188.316Z" fill="#E30613" stroke="#1D1D1B" stroke-width="0.3266" stroke-miterlimit="10"/>
<path d="M144.426 88.0539C143.77 88.7032 132.095 99.8723 117.666 96.106C110.845 94.2878 106.647 90.002 104.811 87.7941L108.484 87.924L108.877 80.781L109.139 57.4038L109.271 57.0142L115.961 52.7284L121.864 51.1699H127.767L136.687 55.7155L139.179 58.3129V86.6253L139.573 88.0539H144.426Z" fill="#E30613" stroke="#1D1D1B" stroke-width="0.3266" stroke-miterlimit="10"/>
<path d="M169.35 203.381H76.8699L79.6246 198.966C81.3299 199.225 83.0352 199.355 84.7405 199.615C86.7082 197.797 88.02 196.238 88.9382 195.069C89.9876 193.771 90.5123 192.991 91.5617 192.602C93.1359 192.082 94.0541 192.991 95.1035 192.342C95.6282 192.082 95.6282 191.693 96.5465 188.316C97.0712 186.498 97.3335 185.978 96.94 185.589C96.4153 184.939 95.4971 185.719 94.1853 185.199C92.7423 184.55 92.8735 183.121 91.4306 182.472C90.6435 182.082 89.7253 182.082 89.2005 182.212C89.0694 182.082 88.0199 180.654 88.5447 178.965C88.9382 177.537 90.1188 176.887 90.3811 176.757C90.6435 176.238 90.9059 175.848 91.037 175.329C92.48 175.199 93.6606 175.459 94.5788 175.718C99.6947 177.147 102.056 182.472 103.761 186.368C104.811 188.576 105.991 191.952 106.516 196.368C110.582 196.368 114.78 196.368 118.847 196.368C118.847 174.549 118.847 152.861 118.715 131.042C122.257 131.042 125.668 131.042 129.21 130.912C129.21 152.861 129.078 174.679 129.078 196.628H141.803C141.803 196.368 141.803 196.108 141.803 195.719C141.934 192.342 143.246 189.874 144.689 187.277C147.706 181.952 149.149 179.225 150.067 178.446C152.69 176.238 155.576 175.459 157.413 175.199C157.544 175.459 157.675 175.718 157.806 175.978C157.806 176.108 157.937 176.238 157.937 176.368C157.937 176.498 158.069 176.627 158.069 176.757L158.2 176.627C158.725 177.017 159.512 177.796 159.774 179.095C160.167 180.783 159.249 182.082 159.118 182.342C158.593 182.212 157.675 182.212 156.888 182.602C155.445 183.251 155.576 184.68 154.133 185.329C152.822 185.848 151.772 185.069 151.379 185.719C151.116 186.108 151.247 186.628 151.772 188.446C152.822 191.823 152.69 192.082 153.215 192.472C154.265 193.121 155.183 192.212 156.757 192.732C157.937 193.121 158.331 193.901 159.38 195.199C160.299 196.368 161.61 197.927 163.578 199.745C165.021 199.485 166.595 199.355 168.038 199.095L169.35 203.381Z" fill="#1D1D1B" stroke="#1D1D1B" stroke-width="0.3266" stroke-miterlimit="10"/>
<path d="M62.0469 10.9094V16.1043L57.4557 25.3253L54.1763 21.9486L52.9957 22.4681L52.6022 26.2344L46.1745 26.3643L43.9445 21.8187L40.9274 24.4162L37.5168 24.5461L35.6803 31.2995L33.5814 44.2868L41.1897 63.1184V67.6639L40.9274 69.0926L40.665 69.3523L54.4386 69.7419C54.4386 72.729 54.5698 75.7161 54.5698 78.833C53.5204 83.2487 51.9463 86.6254 50.7657 88.9631C46.0433 97.7945 39.7468 102.47 38.1726 103.509C34.8932 105.847 31.745 107.275 29.6461 108.054C29.3838 107.795 29.1214 107.665 28.8591 107.405L21.2508 96.6257L15.2166 92.21L3.27948 91.0411L0.787109 92.4697V81.0409L5.11596 65.586L0.787109 68.4432L2.62359 60.1313L17.8402 32.3385L27.4161 14.6757L38.0415 8.83144L52.8645 0.90918H54.701L58.5051 7.27296L62.0469 10.9094Z" fill="#E30613" stroke="#1D1D1B" stroke-width="0.3266" stroke-miterlimit="10"/>
<path d="M242.153 65.5859L246.613 81.9499V92.4697L241.235 82.7292L244.383 90.2618L243.859 91.4307L232.184 92.4697L225.756 97.1451L217.623 109.093C216.705 108.184 215.393 106.886 213.557 105.457C211.72 104.028 210.933 103.898 209.359 102.86C205.424 100.392 202.931 97.0152 200.308 93.3788C199.258 91.9502 198.602 91.0411 197.815 89.6125C197.028 88.3137 194.929 84.2877 194.142 78.7031C193.88 76.6251 193.618 73.7679 194.011 70.2614C198.209 70.1315 202.407 70.0016 206.604 69.8717V69.612L206.08 63.1183L213.95 44.5465L210.671 26.624L209.49 24.2863H205.161L203.718 25.8448L195.454 26.1045L195.192 21.559H193.88L191.388 25.585L189.945 25.0655L186.009 17.0134L184.566 14.5458L185.353 12.0782L192.568 0.259766L218.41 13.1172L245.302 62.5989L246.482 68.573L242.153 65.5859Z" fill="#E30613" stroke="#1D1D1B" stroke-width="0.3266" stroke-miterlimit="10"/>
<path d="M217.623 109.093L217.099 109.872L208.834 115.717H208.703C207.916 115.197 206.867 114.288 205.555 113.119C202.013 110.132 198.865 107.405 196.11 103.509C194.798 101.69 195.848 102.729 191.519 94.8072C189.814 91.5604 188.764 90.0019 187.846 87.2746C186.928 84.807 186.403 82.5991 186.01 81.1705C185.616 81.1705 185.222 81.1705 184.829 81.1705C182.599 83.768 180.369 84.2875 179.451 84.4174C178.139 84.6771 176.958 84.4173 174.597 84.0277C172.498 83.6381 170.793 83.2485 169.612 82.8589C167.251 82.8589 164.89 82.9887 162.66 82.9887C161.086 83.2485 158.2 83.768 155.314 85.9758C153.74 87.1447 152.69 88.4434 152.035 89.4824C150.985 90.7811 149.411 92.7292 147.443 94.9371C144.557 97.9242 142.196 100.392 138.654 102.47C136.818 103.509 133.67 105.067 129.341 105.717C129.341 114.158 129.341 122.47 129.341 130.912C125.799 130.912 122.389 130.912 118.847 131.042C118.847 122.6 118.847 114.028 118.847 105.587C116.748 105.327 112.55 104.678 108.09 101.82C103.63 98.9631 101.269 95.4566 100.088 93.6383C99.1701 92.0799 97.8583 90.2616 96.0219 88.4434C93.0048 85.3265 89.7254 83.768 87.4953 82.8589C85.2653 82.4693 82.1171 82.3394 78.4441 82.729C75.1647 83.1186 72.41 83.8979 70.3111 84.6771C69.5241 84.5472 68.737 84.5472 68.0811 84.4174C66.3758 83.1186 64.6705 81.8199 62.834 80.5212C62.3093 83.1186 61.5222 86.1057 60.0793 89.3525C59.4234 91.0409 57.9804 94.2877 54.8322 98.8333C49.9786 106.106 44.2068 111.821 39.878 115.717C36.3362 113.119 32.9256 110.522 29.3838 107.924C31.4826 107.145 34.6309 105.717 37.9103 103.379C39.4844 102.21 45.9121 97.5345 50.5033 88.833C51.6839 86.4953 53.2581 83.1186 54.3075 78.7029C54.3075 75.7159 54.1763 72.7288 54.1763 69.6118H54.701L66.1134 77.6639L86.5771 77.4042L100.22 87.5343L104.68 87.794C106.516 90.0019 110.845 94.2877 117.535 96.1059C131.833 99.8723 143.639 88.7032 144.295 88.0538H146.132L161.086 77.9237H180.369L190.601 70.1313C190.732 70.1313 193.487 70.0014 193.749 70.0014H193.88C193.487 73.508 193.749 76.3652 194.011 78.4432C194.798 84.1576 197.028 88.0538 197.684 89.3525C198.471 90.7811 199.127 91.6902 200.177 93.1188C202.8 96.7553 205.161 100.002 209.228 102.6C210.802 103.639 211.589 103.768 213.426 105.197C215.393 106.756 216.705 108.054 217.623 109.093Z" fill="#1D1D1B" stroke="#1D1D1B" stroke-width="0.3266" stroke-miterlimit="10"/>
<path d="M208.703 115.587L201.62 118.185L197.291 119.094C190.732 118.964 184.042 118.964 177.483 118.834C174.597 123.12 172.892 126.886 171.842 129.743C170.53 132.99 170.137 134.938 169.35 138.315C168.563 141.952 168.563 143.12 168.956 144.289C170.006 147.017 172.892 148.445 174.072 148.835C172.629 150.393 171.186 151.822 169.743 153.38C166.989 155.328 165.152 157.277 163.84 158.835C159.118 164.679 157.937 171.043 157.544 173.511C157.413 174.29 157.413 174.809 157.282 175.329C155.314 175.589 152.428 176.368 149.936 178.576C149.017 179.355 147.574 181.952 144.557 187.407C143.114 190.005 141.803 192.472 141.671 195.849C141.671 196.238 141.671 196.498 141.671 196.758H128.947C128.947 174.809 129.078 152.991 129.078 131.042C129.078 122.6 129.078 114.289 129.078 105.847C133.407 105.068 136.424 103.639 138.392 102.6C142.065 100.522 144.295 98.0544 147.181 95.0673C149.28 92.8595 150.723 90.9114 151.772 89.6127C152.428 88.5737 153.477 87.2749 155.052 86.1061C157.937 83.8982 160.823 83.3788 162.397 83.119C164.759 83.119 167.12 82.9891 169.35 82.9891C170.53 83.3788 172.236 83.7684 174.335 84.158C176.696 84.5476 178.008 84.8074 179.188 84.5476C180.106 84.4177 182.336 83.7684 184.566 81.3008C184.96 81.3008 185.354 81.3008 185.747 81.3008C186.009 82.7294 186.534 84.9372 187.584 87.4048C188.633 90.1322 189.551 91.6906 191.257 94.9375C195.585 102.86 194.536 101.821 195.848 103.639C198.602 107.535 201.882 110.262 205.292 113.25C206.867 114.159 208.047 115.068 208.703 115.587Z" fill="white" stroke="#1D1D1B" stroke-width="0.3266" stroke-miterlimit="10"/>
<path d="M118.847 196.368C114.78 196.368 110.582 196.368 106.516 196.368C105.991 191.953 104.679 188.576 103.761 186.368C102.056 182.602 99.5635 177.147 94.5788 175.718C93.6606 175.459 92.48 175.329 91.037 175.329C91.037 174.939 90.9058 174.29 90.7747 173.511C90.3811 170.913 88.9382 162.212 82.7728 156.497C80.8052 154.679 80.2805 154.809 77.2634 152.082C76.0828 150.913 75.0334 149.874 74.1151 148.965C74.771 148.835 76.4763 148.315 77.7881 146.757C78.8375 145.588 79.2311 144.289 79.3622 143.64C79.2311 140.133 78.5752 135.328 76.6075 129.873C74.9022 125.198 72.6722 121.432 70.8357 118.834C64.408 118.834 57.9803 118.964 51.6838 118.964C47.8797 118.055 44.2067 117.016 40.4026 116.107C40.2714 115.977 40.1402 115.977 40.009 115.847C44.4691 111.951 50.1097 106.106 54.9633 98.9635C57.9803 94.4179 59.4233 91.1711 60.2103 89.4827C61.5221 86.2359 62.4404 83.119 62.9651 80.6514C64.6704 81.9501 66.3757 83.2488 68.2122 84.5476C68.9992 84.6774 69.7863 84.6774 70.4422 84.8073C72.541 84.0281 75.1646 83.2488 78.5752 82.8592C82.2481 82.4696 85.3964 82.5995 87.6264 82.9891C89.8564 83.8982 93.0047 85.5865 96.1529 88.5736C97.9894 90.3918 99.3012 92.2101 100.219 93.7685C101.269 95.5868 103.761 99.0934 108.221 101.951C112.55 104.678 116.748 105.457 118.978 105.717C118.978 114.159 118.978 122.73 118.978 131.172C118.847 152.861 118.847 174.679 118.847 196.368Z" fill="white" stroke="#1D1D1B" stroke-width="0.3266" stroke-miterlimit="10"/>
<path d="M28.8589 85.9758C30.6954 84.8069 33.0566 82.9887 35.2866 80.1315C38.8284 75.8457 40.1401 71.43 40.796 68.9624" stroke="#1D1D1B" stroke-width="0.3266" stroke-miterlimit="10"/>
<path d="M15.0854 61.0405C14.1672 62.0795 12.4618 64.2874 11.806 67.5342C11.1501 70.3914 11.5436 72.7291 11.806 74.0278C12.7242 73.2486 13.9048 71.9499 15.0854 70.2615C16.3972 68.1835 17.0531 66.2355 17.3154 64.9367" stroke="#1D1D1B" stroke-width="0.3266" stroke-miterlimit="10"/>
<path d="M6.5588 82.729C5.37821 85.5862 4.19761 88.3135 3.14819 91.1708" stroke="#1D1D1B" stroke-width="0.3266" stroke-miterlimit="10"/>
<path d="M36.8609 137.925C35.8114 138.445 29.7773 141.302 27.8096 148.055C26.7602 151.692 27.2849 154.809 27.6785 156.367C31.4826 155.718 36.992 155.328 43.5509 156.627C46.9615 157.276 49.8474 158.315 52.2086 159.354C52.9957 161.043 53.7827 162.601 54.5698 164.29" stroke="#1D1D1B" stroke-width="0.3266" stroke-miterlimit="10"/>
<path d="M28.4653 182.472C28.3341 182.342 28.203 182.342 28.0718 182.212" stroke="#1D1D1B" stroke-width="0.3266" stroke-miterlimit="10"/>
<path d="M67.8187 132.6C66.1134 131.561 63.4898 130.263 60.2104 129.873C59.4233 129.743 58.6363 129.743 57.8492 129.743C54.3074 129.743 50.8968 129.873 47.355 129.873C46.9615 129.613 45.7809 128.704 45.2562 126.886C44.7315 125.327 45.125 123.899 45.3874 123.509" stroke="#1D1D1B" stroke-width="0.3266" stroke-miterlimit="10"/>
<path d="M129.209 131.042C139.441 130.912 149.673 130.912 159.905 130.782C164.627 125.198 169.35 119.613 174.072 114.159" stroke="#1D1D1B" stroke-width="0.3266" stroke-miterlimit="10"/>
<path d="M74.5088 113.899C79.1 119.743 83.6912 125.458 88.2824 131.302C98.3831 131.172 108.615 131.172 118.716 131.042" stroke="#1D1D1B" stroke-width="0.3266" stroke-miterlimit="10"/>
<path d="M179.057 132.86C182.599 130.652 185.485 130.263 187.452 130.263C189.42 130.263 190.732 130.782 194.405 130.652C196.897 130.652 198.078 130.652 199.258 130.133C202.013 128.834 203.063 125.717 203.587 124.029" stroke="#1D1D1B" stroke-width="0.3266" stroke-miterlimit="10"/>
<path d="M211.72 138.055C212.769 138.575 217.23 140.523 219.722 145.718C221.952 150.393 221.034 154.549 220.771 155.848C215.787 155.978 210.802 156.108 205.817 156.237C204.505 156.367 201.619 156.757 198.602 158.705C195.716 160.653 194.273 163.251 193.749 164.419" stroke="#1D1D1B" stroke-width="0.3266" stroke-miterlimit="10"/>
<path d="M158.332 176.629C158.2 176.498 158.069 176.498 158.069 176.368" stroke="#1D1D1B" stroke-width="0.3266" stroke-miterlimit="10"/>
<path d="M234.02 61.3003C234.807 62.3393 236.25 64.4172 236.906 67.5342C237.562 70.3914 237.037 72.859 236.775 74.0279C235.463 72.4694 234.151 70.5213 232.971 68.1836C232.184 66.6251 231.528 65.1965 231.003 63.8978" stroke="#1D1D1B" stroke-width="0.3266" stroke-miterlimit="10"/>
<path d="M218.804 85.9758C215.787 82.729 212.507 78.7029 209.49 74.1574C208.441 72.469 207.391 70.9105 206.473 69.3521" stroke="#1D1D1B" stroke-width="0.3266" stroke-miterlimit="10"/>
<path d="M240.71 160.263C235.594 163.64 232.577 167.276 230.741 170.004C228.642 173.121 227.068 176.757 222.739 179.744C221.821 180.394 220.903 180.783 219.197 181.692C216.443 183.121 212.376 184.809 207.391 186.757" stroke="#1D1D1B" stroke-width="0.3266" stroke-miterlimit="10"/>
</g>
<defs>
<clipPath id="clip0_46_55">
<rect width="248.188" height="203.641" fill="white"/>
</clipPath>
</defs>
</svg>
