<svg width="22" height="15" viewBox="0 0 22 15" fill="none" xmlns="http://www.w3.org/2000/svg">
<path d="M11 2C12.8387 1.99389 14.6419 2.50678 16.2021 3.47973C17.7624 4.45267 19.0164 5.84616 19.82 7.5C18.17 10.87 14.8 13 11 13C7.2 13 3.83 10.87 2.18 7.5C2.98362 5.84616 4.23763 4.45267 5.79788 3.47973C7.35813 2.50678 9.16126 1.99389 11 2ZM11 0C6 0 1.73 3.11 0 7.5C1.73 11.89 6 15 11 15C16 15 20.27 11.89 22 7.5C20.27 3.11 16 0 11 0ZM11 5C11.663 5 12.2989 5.26339 12.7678 5.73223C13.2366 6.20107 13.5 6.83696 13.5 7.5C13.5 8.16304 13.2366 8.79893 12.7678 9.26777C12.2989 9.73661 11.663 10 11 10C10.337 10 9.70107 9.73661 9.23223 9.26777C8.76339 8.79893 8.5 8.16304 8.5 7.5C8.5 6.83696 8.76339 6.20107 9.23223 5.73223C9.70107 5.26339 10.337 5 11 5ZM11 3C8.52 3 6.5 5.02 6.5 7.5C6.5 9.98 8.52 12 11 12C13.48 12 15.5 9.98 15.5 7.5C15.5 5.02 13.48 3 11 3Z" fill="#CCCCCC"/>
</svg>
