<svg width="201" height="201" viewBox="0 0 201 201" fill="none" xmlns="http://www.w3.org/2000/svg">
<path d="M100.831 0.141527C114.933 0.123314 128.88 3.08806 141.755 8.84114C154.63 14.5942 166.144 23.0055 175.538 33.5228C184.933 44.0401 191.997 56.4255 196.267 69.866C200.536 83.3065 201.915 97.498 200.312 111.509L176.535 108.789C177.755 98.1306 176.706 87.3353 173.458 77.1114C170.211 66.8874 164.837 57.466 157.691 49.4656C150.544 41.4653 141.786 35.0669 131.992 30.6906C122.198 26.3143 111.589 24.0591 100.862 24.0729L100.831 0.141527Z" fill="white"/>
<path fill-rule="evenodd" clip-rule="evenodd" d="M100.862 24.0729C111.589 24.0591 122.198 26.3143 131.992 30.6906C141.786 35.0669 150.544 41.4653 157.691 49.4656C164.837 57.466 170.211 66.8874 173.458 77.1114C176.706 87.3353 177.755 98.1306 176.535 108.789L200.312 111.509C201.077 104.816 201.163 98.0824 200.578 91.4089C199.938 84.1115 198.497 76.8863 196.267 69.866C191.997 56.4256 184.933 44.0401 175.538 33.5228C166.144 23.0055 154.63 14.5942 141.755 8.84114C135.03 5.83616 128.012 3.5919 120.833 2.1361C114.268 0.804746 107.567 0.132827 100.831 0.141527L100.862 24.0729Z" fill="#F93535"/>
<path d="M200.316 111.477C198.663 125.963 193.863 139.912 186.251 152.347C178.64 164.782 168.402 175.402 156.254 183.464C144.106 191.525 130.342 196.833 115.927 199.015C101.511 201.197 86.7933 200.201 72.8036 196.096L79.5419 173.132C90.1837 176.255 101.379 177.013 112.345 175.353C123.311 173.693 133.78 169.656 143.021 163.523C152.262 157.391 160.05 149.312 165.84 139.853C171.63 130.394 175.281 119.783 176.539 108.764L200.316 111.477Z" fill="white"/>
<path fill-rule="evenodd" clip-rule="evenodd" d="M176.539 108.764C175.281 119.783 171.63 130.394 165.84 139.853C160.05 149.312 152.262 157.391 143.021 163.523C133.78 169.656 123.311 173.693 112.345 175.353C101.379 177.013 90.1837 176.255 79.5419 173.132L72.8036 196.096C72.8062 196.096 72.8088 196.097 72.8114 196.098C79.2738 197.994 85.8917 199.226 92.5634 199.788C100.332 200.443 108.173 200.189 115.927 199.015C130.342 196.833 144.106 191.525 156.254 183.464C168.402 175.402 178.64 164.782 186.251 152.347C190.345 145.658 193.626 138.532 196.041 131.119C198.116 124.751 199.552 118.171 200.316 111.477L176.539 108.764Z" fill="#356CF9"/>
<path d="M72.7616 196.083C48.3356 188.904 27.5673 172.679 14.6913 150.716C1.81524 128.753 -2.19898 102.706 3.4671 77.8855L26.7983 83.2116C22.4882 102.092 25.5418 121.906 35.3364 138.613C45.131 155.32 60.9291 167.662 79.5097 173.123L72.7616 196.083Z" fill="white"/>
<path fill-rule="evenodd" clip-rule="evenodd" d="M79.5097 173.123C60.9291 167.662 45.131 155.32 35.3364 138.613C25.5418 121.906 22.4882 102.092 26.7983 83.2116L3.4671 77.8855C3.46426 77.898 3.4614 77.9105 3.45856 77.923C1.95827 84.5068 1.13897 91.1766 0.985423 97.8335C0.560353 116.262 5.23697 134.59 14.6913 150.716C24.1456 166.843 37.8548 179.876 54.1428 188.506C60.0378 191.629 66.2705 194.176 72.7616 196.083L79.5097 173.123Z" fill="#272523"/>
<path d="M3.40798 78.1413C8.39837 56.0133 20.7637 36.2394 38.4741 22.0658C56.1845 7.89207 78.1876 0.160826 100.871 0.141167L100.892 24.0726C83.6369 24.0875 66.8995 29.9686 53.4274 40.7503C39.9554 51.532 30.5492 66.5737 26.7531 83.4062L3.40798 78.1413Z" fill="white"/>
<path fill-rule="evenodd" clip-rule="evenodd" d="M26.7531 83.4062C30.5492 66.5737 39.9554 51.532 53.4274 40.7503C66.8995 29.9686 83.6369 24.0875 100.892 24.0726L100.871 0.141167C94.113 0.147024 87.4151 0.837408 80.8731 2.17877C65.4576 5.33956 50.9079 12.1149 38.4741 22.0658C26.0403 32.0166 16.2411 44.7276 9.77873 59.0757C7.03629 65.1647 4.89481 71.5485 3.40798 78.1413L26.7531 83.4062Z" fill="#272523"/>
</svg>
