<svg width="249" height="80" viewBox="0 0 249 80" fill="none" xmlns="http://www.w3.org/2000/svg">
<path d="M111.918 79.3442C173.728 79.3442 223.835 75.7252 223.835 71.261C223.835 66.7967 173.728 63.1777 111.918 63.1777C50.1072 63.1777 0 66.7967 0 71.261C0 75.7252 50.1072 79.3442 111.918 79.3442Z" fill="#F5F5F5"/>
<path d="M218.546 74.9581C235.081 72.4207 246.406 57.107 243.84 40.7541C241.275 24.4011 225.79 13.2014 209.255 15.7389C192.719 18.2763 181.394 33.5899 183.96 49.9429C186.526 66.2958 202.01 77.4956 218.546 74.9581Z" fill="#FF182C"/>
<path opacity="0.7" d="M218.546 74.9581C235.081 72.4207 246.406 57.107 243.84 40.7541C241.275 24.4011 225.79 13.2014 209.255 15.7389C192.719 18.2763 181.394 33.5899 183.96 49.9429C186.526 66.2958 202.01 77.4956 218.546 74.9581Z" fill="#98242E"/>
<path opacity="0.2" d="M211.575 24.8994C213.763 29.1294 210.224 30.7563 205.947 32.9199C201.67 35.0834 198.258 36.9558 196.071 32.7201C195.52 31.7104 195.179 30.6022 195.068 29.4605C194.957 28.3187 195.077 27.1664 195.423 26.0714C195.768 24.9764 196.331 23.9606 197.079 23.0839C197.827 22.2071 198.744 21.4869 199.777 20.9658C200.811 20.4446 201.939 20.1329 203.095 20.049C204.252 19.965 205.414 20.1106 206.513 20.477C207.612 20.8435 208.626 21.4235 209.495 22.1829C210.365 22.9424 211.072 23.8659 211.575 24.8994Z" fill="white"/>
<path opacity="0.1" d="M243.011 36.9443C243.868 44.4005 241.866 51.9035 237.4 57.9703C232.934 64.0371 226.329 68.2262 218.891 69.7096C211.453 71.1931 203.722 69.8628 197.228 65.9819C190.734 62.1009 185.948 55.9516 183.816 48.7495C184.291 52.8749 185.627 56.8578 187.74 60.4456C189.853 64.0334 192.696 67.148 196.091 69.5916C199.485 72.0353 203.355 73.7549 207.457 74.6413C211.558 75.5277 215.801 75.5616 219.917 74.7408C224.032 73.92 227.93 72.2626 231.364 69.8734C234.798 67.4843 237.692 64.4156 239.863 60.862C242.034 57.3084 243.435 53.3474 243.977 49.2301C244.519 45.1128 244.19 40.9292 243.011 36.9443Z" fill="black"/>
<g opacity="0.3">
<path d="M241.919 56.77C242.029 56.496 242.138 56.1991 242.242 55.9422C240.262 57.6548 228.297 57.5749 212.175 54.6293C196.053 51.6837 184.849 47.5336 183.614 45.2388C183.614 45.5356 183.614 45.8382 183.614 46.1293C186.696 49.2176 199.591 52.9167 212.065 55.1944C224.539 57.4721 237.93 58.5681 241.919 56.77Z" fill="white"/>
<path d="M238.288 63.1349C238.461 62.9008 238.629 62.6611 238.796 62.427C235.448 63.5687 224.845 63.2662 211.032 60.743C197.219 58.2198 187.204 54.789 184.491 52.5056C184.56 52.7853 184.63 53.0765 184.711 53.3448C188.693 56.1248 199.984 59.2759 210.934 61.2739C221.884 63.2719 233.561 64.3222 238.288 63.1349Z" fill="white"/>
<path d="M240.274 60.1037C240.424 59.8354 240.58 59.5728 240.73 59.2988C238.392 60.8343 226.906 60.6974 211.563 57.9002C196.22 55.103 185.444 51.1698 183.816 48.9036C183.856 49.2175 183.902 49.5201 183.954 49.8283C187.325 52.7911 199.591 56.279 211.459 58.4482C223.327 60.6174 236.083 61.6849 240.274 60.1037Z" fill="white"/>
</g>
<path d="M102.543 8.71843C102.543 8.71843 98.041 11.5099 97.4349 17.989C96.8288 24.4682 101.937 27.9675 101.043 32.2603C100.148 36.5531 104.408 39.7784 103.807 42.7183C103.807 42.7183 107.369 42.4843 108.587 39.6985C109.805 36.9128 106.307 33.8073 106.307 33.8073C107.161 34.282 107.907 34.926 108.498 35.6991C109.089 36.4721 109.512 37.3576 109.741 38.2999C109.741 38.2999 111.381 33.6989 113.487 34.6179C113.487 34.6179 113.228 32.5457 112.333 31.5239C113.266 32.0555 113.951 32.9291 114.238 33.9557C114.238 33.9557 116.304 29.7486 119.935 31.0044C119.935 31.0044 122.913 23.3607 120.206 16.4877C117.499 9.61466 109.822 1.40582 102.543 8.71843Z" fill="black"/>
<path d="M53.7971 55.5627C53.6869 55.355 53.5189 55.1828 53.3128 55.0667C53.1068 54.9505 52.8714 54.8951 52.6346 54.9071C52.3977 54.9191 52.1693 54.998 51.9764 55.1344C51.7834 55.2709 51.6341 55.4591 51.5459 55.6768C50.836 57.3609 50.9687 60.5119 52.0019 65.3813C52.608 68.2013 51.6268 70.7016 51.7191 72.6311C51.8115 74.5606 53.9414 73.613 56.1579 73.0992C58.3745 72.5855 63.6618 73.0478 63.6618 73.0478L62.6575 67.8702C62.6575 67.8702 59.3096 68.4411 57.8261 64.7477C56.7698 62.1389 55.0497 57.9146 53.7971 55.5627Z" fill="#FFC2BC"/>
<path d="M130.031 56.4019C130.031 56.4019 148.306 58.5654 159.157 56.6816L161.755 58.3941C161.755 58.3941 150.886 69.6627 144.138 69.6627C137.39 69.6627 127.797 57.7262 127.797 57.7262L130.031 56.4019Z" fill="#FF182C"/>
<path d="M144.173 69.6627C146.713 72.1915 149.628 71.5465 158.909 71.1697C167.354 70.8272 190.391 73.2248 191.73 63.5374C193.254 52.5143 161.588 51.6009 151.29 58.434C145.708 62.1389 139.74 65.2557 144.173 69.6627Z" fill="#2F2D2D"/>
<path d="M61.4162 73.1676L60.4927 67.2707C60.4927 67.2707 78.629 63.897 95.3107 60.94C111.992 57.983 121.286 51.6009 144.109 58.7422C148.421 60.0951 146.481 66.7798 145.408 68.3611C144.415 69.8281 139.341 71.5635 126.937 70.4047C126.058 70.3267 125.174 70.3401 124.299 70.4447C115.579 71.4263 106.791 71.6669 98.0294 71.1639C98.0294 71.1639 90.1965 73.8812 61.4162 73.1676Z" fill="#2F2D2D"/>
<path d="M112.633 31.8611C112.633 31.8611 108.252 30.5538 100.91 35.5259C93.5675 40.498 86.941 40.4238 76.9493 44.5853C66.9575 48.7468 65.9243 48.7183 65.9243 48.7183L67.656 52.5944C67.656 52.5944 90.0003 48.5071 97.1232 46.0752C104.246 43.6434 108.137 37.7694 120.697 41.7254L112.633 31.8611Z" fill="#FFC2BC"/>
<path d="M128.871 57.0754C128.871 57.0754 132.132 59.8726 144.121 59.884C156.11 59.8954 159.608 56.8128 159.608 56.8128C157.911 53.8923 156.463 50.8373 155.279 47.6792C153.784 43.5577 154.043 44.8877 151.203 39.2534C145.691 28.3216 143.786 22.1279 138.626 18.7028C137.064 17.6438 135.277 16.9532 133.402 16.6841C131.528 16.4149 129.616 16.5743 127.814 17.1501C123.243 18.6628 116.801 22.459 110.082 31.781C110.082 31.781 115.646 37.0671 118.665 41.6967C121.684 46.3263 128.553 47.2168 129.344 50.3279C130.579 55.1459 128.871 57.0754 128.871 57.0754Z" fill="#FFC2BC"/>
<path d="M143.971 57.0127C155.96 57.0127 159.977 53.873 159.977 53.873L153.553 43.6776C150.13 37.0843 149.887 37.0043 148.594 32.9798C147.567 29.7774 146.216 26.4265 143.832 23.7378C140.404 24.1773 129.708 25.7985 124.628 18.6001C124.003 18.958 123.398 19.3486 122.816 19.7703C123.497 21.5685 123.855 24.2116 128.547 28.0876C131.82 30.7935 130.856 34.367 126.637 36.8673C123.283 38.8539 120.045 37.5638 114.625 30.7763L112.449 28.3388C111.831 29.1095 111.71 29.5776 111.058 30.4453L116.697 39.1621C117.416 39.9575 118.074 40.8047 118.665 41.6967C121.684 46.332 128.553 47.2169 129.344 50.328C129.921 52.6685 129.817 53.656 129.529 54.0499C129.484 54.1104 129.454 54.1799 129.439 54.2535C129.425 54.327 129.427 54.4027 129.446 54.4753C129.465 54.5478 129.499 54.6154 129.548 54.6731C129.596 54.7308 129.656 54.7773 129.725 54.8092C131.439 55.6141 135.532 57.0012 143.971 57.0127Z" fill="#FF182C"/>
<path opacity="0.6" d="M143.971 57.0127C155.96 57.0127 159.977 53.873 159.977 53.873L153.553 43.6776C150.13 37.0843 149.887 37.0043 148.594 32.9798C147.567 29.7774 146.216 26.4265 143.832 23.7378C140.404 24.1773 129.708 25.7985 124.628 18.6001C124.003 18.958 123.398 19.3486 122.816 19.7703C123.497 21.5685 123.855 24.2116 128.547 28.0876C131.82 30.7935 130.856 34.367 126.637 36.8673C123.283 38.8539 120.045 37.5638 114.625 30.7763L112.449 28.3388C111.831 29.1095 111.71 29.5776 111.058 30.4453L116.697 39.1621C117.416 39.9575 118.074 40.8047 118.665 41.6967C121.684 46.332 128.553 47.2169 129.344 50.328C129.921 52.6685 129.817 53.656 129.529 54.0499C129.484 54.1104 129.454 54.1799 129.439 54.2535C129.425 54.327 129.427 54.4027 129.446 54.4753C129.465 54.5478 129.499 54.6154 129.548 54.6731C129.596 54.7308 129.656 54.7773 129.725 54.8092C131.439 55.6141 135.532 57.0012 143.971 57.0127Z" fill="#2F2D2D"/>
<path d="M120.195 19.342C120.195 19.342 121.649 20.889 123.364 19.6788C123.364 19.6788 125.257 28.5327 119.987 30.1882C114.717 31.8437 116.287 26.5804 116.287 26.5804L115.017 25.7413L120.195 19.342Z" fill="#FFC2BC"/>
<path opacity="0.2" d="M115.387 28.3159C115.387 28.3159 117.695 29.7202 120.004 27.3855C122.313 25.0507 120.039 19.051 120.039 19.051H117.205L115.387 22.5561L113.724 25.4617L114.169 27.9906L115.387 28.3159Z" fill="black"/>
<path d="M113.546 10.6825C117.892 14.6442 119.82 16.2255 120.287 20.387C120.992 26.6664 115.127 31.0847 109.672 28.4931C104.76 26.1583 98.4743 20.0787 100.298 14.1818C100.7 12.8847 101.428 11.71 102.415 10.7682C103.402 9.82639 104.615 9.14855 105.941 8.79851C107.266 8.44848 108.659 8.43776 109.99 8.76736C111.32 9.09697 112.544 9.75603 113.546 10.6825Z" fill="#FFC2BC"/>
<path d="M112.316 25.3875C112.685 25.6901 112.83 26.1239 112.628 26.3694C112.426 26.6149 111.97 26.5578 111.594 26.2609C111.219 25.9641 111.081 25.5245 111.283 25.2848C111.485 25.045 111.941 25.0907 112.316 25.3875Z" fill="black"/>
<path d="M108.928 19.148C109.303 19.4506 109.441 19.8901 109.245 20.1299C109.049 20.3697 108.581 20.324 108.212 20.0214C107.842 19.7189 107.698 19.285 107.894 19.0453C108.091 18.8055 108.547 18.8512 108.928 19.148Z" fill="black"/>
<path d="M105.228 22.9271C105.603 23.2239 105.741 23.6635 105.545 23.9032C105.349 24.143 104.887 24.0973 104.512 23.8005C104.137 23.5036 103.998 23.0584 104.194 22.8186C104.391 22.5789 104.887 22.6074 105.228 22.9271Z" fill="black"/>
<path d="M104.194 22.8357L103.207 23.515C103.207 23.515 104.31 23.6235 104.194 22.8357Z" fill="black"/>
<path d="M107.138 22.3735C107.575 23.4526 107.861 24.5858 107.987 25.7416C108.285 25.7028 108.57 25.5999 108.824 25.4401C109.077 25.2803 109.292 25.0676 109.453 24.8168L107.138 22.3735Z" fill="#EC837E"/>
<path d="M109.17 16.8476C109.14 16.8982 109.096 16.9383 109.042 16.9619C108.988 16.9855 108.927 16.9915 108.87 16.9789C107.594 16.7049 106.347 17.818 106.336 17.8294C106.282 17.8817 106.209 17.911 106.134 17.911C106.058 17.911 105.986 17.8817 105.932 17.8294C105.879 17.777 105.85 17.7063 105.85 17.6325C105.85 17.5587 105.879 17.4879 105.932 17.4355C105.995 17.3785 107.415 16.1112 108.968 16.448C109.041 16.4644 109.104 16.5081 109.145 16.5698C109.186 16.6315 109.201 16.7065 109.187 16.7791C109.185 16.8027 109.179 16.8258 109.17 16.8476Z" fill="black"/>
<path d="M102.255 22.6075C102.23 22.6488 102.194 22.683 102.152 22.707C102.109 22.7309 102.061 22.7439 102.013 22.7445C101.976 22.7453 101.939 22.7388 101.905 22.7253C101.87 22.7119 101.839 22.6919 101.813 22.6663C101.787 22.6408 101.766 22.6103 101.751 22.5767C101.737 22.5431 101.73 22.507 101.73 22.4705C101.717 22.0295 101.811 21.5918 102.005 21.1944C102.199 20.797 102.487 20.4515 102.844 20.1871C102.874 20.1667 102.908 20.1524 102.944 20.1451C102.98 20.1377 103.017 20.1375 103.053 20.1444C103.089 20.1513 103.123 20.1652 103.153 20.1853C103.184 20.2053 103.21 20.2312 103.23 20.2614C103.273 20.3227 103.288 20.398 103.274 20.4708C103.26 20.5436 103.217 20.6078 103.155 20.6495C102.875 20.8641 102.651 21.1419 102.501 21.4597C102.352 21.7774 102.281 22.126 102.295 22.4762C102.292 22.5225 102.279 22.5675 102.255 22.6075Z" fill="black"/>
<path d="M107.998 18.9541L107.011 19.6334C107.011 19.6334 108.085 19.7533 107.998 18.9541Z" fill="black"/>
<path d="M119.318 15.8656C119.318 15.8656 120.126 19.2222 122.088 21.4714C123.336 23.0125 124.212 24.8144 124.651 26.7403C124.963 25.4467 124.982 24.1009 124.707 22.7992C124.432 21.4974 123.868 20.272 123.058 19.2108C120.276 15.329 119.271 14.4841 119.271 14.4841L119.318 15.8656Z" fill="black"/>
<path d="M110.082 29.8174C110.082 29.8174 112.351 29.8973 112.657 33.5907C112.963 37.2841 113.932 36.502 113.234 39.2478L110.625 40.3895C110.868 39.2165 110.663 37.9959 110.048 36.9644C109.037 35.366 109.112 32.6145 109.112 32.6145C108.673 33.995 108.673 35.4755 109.112 36.856C109.834 39.2935 107.889 40.1498 107.889 40.1498C107.889 40.1498 107.6 37.8036 106.734 36.7818C105.868 35.7599 105.47 32.1464 105.47 32.1464L110.082 29.8174Z" fill="black"/>
<path opacity="0.2" d="M183.21 61.5623C183.21 61.5623 175.354 58.063 157.097 67.659L169.051 69.6627L182.812 64.9361L183.21 61.5623Z" fill="black"/>
<path d="M149.373 69.4172C148.051 69.8397 147.03 68.8464 146.487 67.5962C145.945 66.346 143.601 66.7057 142.504 67.1395C140.588 67.9216 140.859 69.3145 137.956 70.028C132.963 71.2611 129.846 72.5569 128.351 73.9498C127.491 74.7547 127.722 76.0163 128.743 76.0505C131.329 76.1304 135.861 75.8051 138.637 75.5938L149.8 74.2809L150.112 69.1775L149.373 69.4172Z" fill="#FFC2BC"/>
<path d="M149.223 68.8864C149.223 68.8864 157.091 68.3897 163.608 65.5925C170.124 62.7954 176.635 62.6812 180.439 61.9334C184.243 61.1856 192.053 60.9915 191.62 64.468C191.187 67.9444 188.157 73.8128 177.94 73.8128C167.723 73.8128 149.223 74.789 149.223 74.789V68.8864Z" fill="#2F2D2D"/>
<path d="M61.093 48.3872L57.8894 50.5336C57.7065 50.5858 57.5384 50.6796 57.3988 50.8076L54.2356 53.6619C54.0736 53.8142 53.9571 54.0077 53.8989 54.2211C53.8407 54.4346 53.8431 54.6598 53.9057 54.872C53.9682 55.0842 54.0887 55.2753 54.2538 55.4243C54.4189 55.5734 54.6223 55.6746 54.8417 55.7169L55.2515 55.7854C55.4439 55.8198 55.6418 55.808 55.8287 55.7512C55.8287 55.7512 60.4465 54.1871 62.0627 53.8445C63.1825 53.6048 65.5261 53.6847 66.5997 53.2737C67.2208 52.9001 67.8011 52.4639 68.3314 51.9722V48.764L61.093 48.3872Z" fill="#FFC2BC"/>
<path d="M83.3972 3.99786C83.3972 3.99786 78.6409 2.85616 77.1286 3.2843C75.6163 3.71244 72.5108 5.77891 72.1414 7.33163C71.9221 8.29066 72.9668 10.3743 73.8096 10.8938C74.9986 11.6187 78.0579 11.0992 79.4029 10.7225C80.5573 10.4085 83.4434 8.43908 83.4434 8.43908L84.5401 5.43642L83.3972 3.99786Z" fill="#FFC2BC"/>
<path d="M82.7388 3.61522L83.7778 7.91373C83.7778 7.91373 93.3192 7.10312 105.418 7.00036C112.148 6.94328 119.086 13.1484 119.086 13.1484C125.055 21.0433 131.855 22.8015 138.06 22.2421C145.893 21.5399 120.166 2.95874 111.086 0.726716C102.006 -1.50531 82.7388 3.61522 82.7388 3.61522Z" fill="#FFC2BC"/>
<path opacity="0.1" d="M140.784 21.6599C139.976 19.5421 135.075 15.3806 129.24 11.1848C129.361 11.299 132.53 14.1076 134.215 17.0646C135.607 19.5078 139.231 23.4296 140.796 21.6885L140.784 21.6599Z" fill="black"/>
<path d="M128.871 57.0753L129.956 54.7462C129.956 54.7462 136.496 56.4017 150.413 53.6388L158.107 51.6008L161.57 55.8308C161.57 55.8308 155.169 61.5051 144.219 63.035C133.269 64.5649 128.871 57.0753 128.871 57.0753Z" fill="#2F2D2D"/>
<path d="M115.854 13.9306C113.316 14.6183 110.631 14.5608 108.125 13.765C103.992 12.4292 106.607 19.2224 103.508 22.168C103.508 22.168 104.085 19.3479 103.375 18.1434C103.375 18.1434 103.484 21.032 101.066 22.0937C101.066 22.0937 95.4841 16.4709 102.798 9.35234C102.798 9.35234 110.267 2.26809 116.518 12.6747L115.854 13.9306Z" fill="black"/>
<path d="M114.919 14.1304C115.462 15.0511 115.616 16.1467 115.346 17.1788C114.971 18.5431 113.563 18.5089 112.645 17.527C111.814 16.6479 111.006 14.8725 111.871 13.7936C112.065 13.561 112.314 13.3799 112.596 13.2666C112.879 13.1533 113.185 13.1115 113.488 13.145C113.79 13.1784 114.08 13.2861 114.33 13.4582C114.58 13.6302 114.782 13.8613 114.919 14.1304Z" fill="#FFC2BC"/>
</svg>
