<svg width="237" height="207" viewBox="0 0 237 207" fill="none" xmlns="http://www.w3.org/2000/svg">
<path d="M118.39 206.812C183.775 206.812 236.78 203.751 236.78 199.976C236.78 196.201 183.775 193.14 118.39 193.14C53.005 193.14 0 196.201 0 199.976C0 203.751 53.005 206.812 118.39 206.812Z" fill="#F5F5F5"/>
<path d="M66.489 73.189C68.3261 73.3418 70.1188 73.8291 71.7769 74.6262L76.7899 76.7155C78.4569 77.3979 80.1177 78.0742 81.7724 78.7022C83.3681 79.3217 84.9992 79.848 86.6573 80.2783C87.042 80.3689 87.4205 80.4534 87.7808 80.5199L88.947 80.6889L90.211 80.8037L91.5177 80.8641C93.2884 80.9305 95.1141 80.9184 96.9398 80.8641C98.7656 80.8097 100.603 80.7373 102.435 80.6286C104.267 80.5199 106.136 80.4233 107.961 80.2783C108.414 80.2656 108.856 80.4153 109.206 80.7C109.556 80.9846 109.789 81.3848 109.864 81.8267C109.938 82.2685 109.848 82.7221 109.611 83.1035C109.373 83.4849 109.004 83.7684 108.572 83.9015C104.908 84.8194 101.245 85.5984 97.465 86.2505C95.5843 86.5766 93.6914 86.8544 91.7375 87.0899L90.2598 87.2348L88.7272 87.3254C88.1899 87.3254 87.6587 87.3254 87.1091 87.3254C86.5596 87.3254 85.9917 87.259 85.4544 87.2047C83.4432 86.9669 81.4474 86.6161 79.4766 86.1539C77.5654 85.7252 75.6969 85.2059 73.859 84.6443C72.0211 84.0827 70.1954 83.4365 68.4369 82.7904C66.5814 82.198 64.8703 81.2316 63.4116 79.9522C62.8179 79.4022 62.4086 78.6857 62.2385 77.899C62.0684 77.1123 62.1458 76.2929 62.4601 75.5509C62.7744 74.8088 63.3108 74.1797 63.9971 73.7478C64.6834 73.3159 65.4869 73.1019 66.2997 73.1346L66.489 73.189Z" fill="#FFC3BD"/>
<path d="M105.824 80.87L109.433 79.6623C110.182 79.4098 110.978 79.3232 111.765 79.4086L113.707 79.6139C113.936 79.6379 114.159 79.7068 114.361 79.8168C114.563 79.9267 114.741 80.0755 114.884 80.2543C115.028 80.4332 115.133 80.6385 115.196 80.8583C115.258 81.078 115.275 81.3079 115.246 81.5342L114.977 83.6296C114.924 84.0332 114.728 84.405 114.424 84.6792C114.12 84.9533 113.727 85.1121 113.316 85.1272L110.813 85.2118C110.813 85.2118 106.337 86.1236 105.464 83.8531L105.824 80.87Z" fill="#FFC3BD"/>
<path d="M49.2214 70.8821C53.6483 69.4509 58.9911 70.1031 58.9911 70.1031L68.6325 72.7118C69.6386 73.0076 70.5216 73.6161 71.1507 74.4471C71.7798 75.278 72.1215 76.2873 72.1252 77.3253C72.3328 89.149 69.9514 94.9944 68.4005 116.818C67.5578 116.734 42.633 114.632 42.633 114.632C44.9655 102.488 42.5231 93.4666 42.5841 80.719C42.6208 73.8229 45.8875 71.957 49.2214 70.8821Z" fill="#263238"/>
<path opacity="0.7" d="M52.4026 86.8139C55.0344 85.6822 55.8565 81.7821 54.2389 78.1028C52.6212 74.4235 49.1763 72.3582 46.5446 73.4899C43.9128 74.6216 43.0907 78.5217 44.7083 82.201C46.326 85.8803 49.7709 87.9456 52.4026 86.8139Z" fill="#FFC3BD"/>
<path d="M49.4654 73.2129C51.241 73.7632 52.8975 74.6355 54.3502 75.7854L58.8504 78.9315C60.3524 79.9762 61.8484 80.9967 63.3444 81.9508C64.7781 82.8953 66.2687 83.7524 67.8079 84.5173C69.3597 85.2019 70.9672 85.7554 72.6134 86.1719C74.3658 86.6489 76.1793 87.0716 77.9928 87.4822C79.8063 87.8929 81.6564 88.2673 83.4882 88.6236C85.32 88.9798 87.1518 89.3603 89.0142 89.6924C89.4779 89.7757 89.8929 90.0286 90.1765 90.4009C90.4601 90.7732 90.5915 91.2374 90.5445 91.7012C90.4976 92.165 90.2757 92.5942 89.923 92.9035C89.5704 93.2127 89.1129 93.3793 88.6417 93.3699C84.8071 93.3035 81.0092 93.1284 77.1746 92.8325C75.2512 92.6815 73.3339 92.5185 71.3799 92.2769C70.403 92.1501 69.4199 92.0173 68.4063 91.8361C67.9117 91.7636 67.3683 91.6248 66.8493 91.5221C66.3302 91.4194 65.7441 91.2383 65.2373 91.0752C63.2798 90.4239 61.365 89.6535 59.5037 88.7685C57.7024 87.9351 55.9622 87.0293 54.2647 86.0752C52.5672 85.1211 50.9186 84.1127 49.2944 83.0559C47.5886 82.0716 46.1065 80.7498 44.9408 79.1731C44.4823 78.5095 44.2398 77.7232 44.2457 76.9195C44.2517 76.1158 44.5058 75.3331 44.974 74.6763C45.4423 74.0194 46.1024 73.5197 46.8658 73.2441C47.6292 72.9686 48.4595 72.9303 49.2455 73.1344L49.4654 73.2129Z" fill="#FFC3BD"/>
<path d="M86.8224 89.5717L90.37 88.213C91.108 87.9283 91.8995 87.8047 92.6903 87.8507L94.6381 87.9654C94.8687 87.9791 95.0943 88.0383 95.3015 88.1394C95.5087 88.2405 95.6934 88.3816 95.8447 88.5543C95.996 88.727 96.1109 88.9279 96.1826 89.1451C96.2543 89.3623 96.2814 89.5916 96.2623 89.8193L96.0913 91.9207C96.0567 92.3257 95.8784 92.7055 95.5878 92.9928C95.2972 93.2802 94.9132 93.4566 94.5038 93.4908L92.0064 93.6961C92.0064 93.6961 87.5795 94.8072 86.6025 92.579L86.8224 89.5717Z" fill="#FFC3BD"/>
<path d="M53.6664 56.7154C50.1676 56.9509 51.4804 63.6599 54.9364 64.5657C58.3925 65.4715 58.4474 56.3652 53.6664 56.7154Z" fill="#263238"/>
<path d="M68.6625 49.4689C65.6095 46.7757 61.0361 53.2914 63.1061 56.8542C65.176 60.417 72.833 53.1525 68.6625 49.4689Z" fill="#263238"/>
<path d="M54.3563 58.3821C54.2402 61.8966 53.88 66.4799 52.4634 70.55C52.7931 72.9292 57.1528 74.1731 61.9033 75.8277C64.6144 74.306 65.2922 73.0801 64.2603 71.5101C60.2852 70.4352 61.653 66.6309 62.5444 63.8833L54.3563 58.3821Z" fill="#FFC3BD"/>
<path opacity="0.2" d="M62.2146 63.6478L62.5749 63.8833C62.1534 65.0184 61.8446 66.1914 61.6529 67.3857C59.821 67.2166 57.9892 66.498 57.0977 65.254C56.4646 64.4275 55.9925 63.4917 55.7056 62.4944L62.2146 63.6478Z" fill="black"/>
<path d="M53.5321 54.0283C53.7947 58.8592 53.7031 61.7215 56.1638 64.2034C59.8641 67.9353 65.9335 65.707 67.1547 60.8701C68.2355 56.5162 67.6188 49.3302 62.8316 47.4099C61.7713 46.9802 60.6177 46.8244 59.4796 46.9571C58.3416 47.0899 57.2564 47.5069 56.3262 48.1689C55.3961 48.8309 54.6515 49.7161 54.1627 50.7411C53.6739 51.7662 53.4569 52.8974 53.5321 54.0283Z" fill="#FFC3BD"/>
<path d="M52.445 58.1224C52.445 58.1224 57.629 60.1936 56.5055 57.4581C56.5055 57.4581 58.9479 54.1429 56.8108 51.9871C59.9371 52.754 63.2222 51.3168 63.2955 50.411C64.8891 52.4279 68.6749 52.2226 68.4856 49.6381C69.5725 48.7383 70.7876 45.9243 67.759 44.4871C65.6951 43.5089 63.2588 45.1393 63.2588 45.1393C63.2588 45.1393 60.4439 41.7879 56.7437 42.7238C53.0434 43.6598 52.9824 46.4135 52.9824 46.4135C52.9824 46.4135 48.7081 46.0451 47.5541 48.7987C46.4 51.5523 48.7753 53.5391 48.7753 53.5391C48.7753 53.5391 47.2244 58.3579 52.445 58.1224Z" fill="#263238"/>
<path d="M51.1753 58.7746C51.4608 59.3067 51.8501 59.7776 52.3206 60.1601C52.7912 60.5425 53.3338 60.829 53.9169 61.0029C55.4862 61.4618 56.3044 60.079 55.9014 58.5874C55.535 57.2589 54.2772 55.4231 52.6896 55.6164C52.3407 55.6609 52.0087 55.7914 51.724 55.9958C51.4394 56.2003 51.2112 56.4722 51.0605 56.7866C50.9097 57.1009 50.8413 57.4477 50.8613 57.7951C50.8814 58.1424 50.9894 58.4793 51.1753 58.7746Z" fill="#FFC3BD"/>
<path d="M61.5674 55.0788C61.5674 55.4713 61.775 55.7913 62.0376 55.7913C62.3001 55.7913 62.5138 55.4713 62.5138 55.0788C62.5138 54.6863 62.3062 54.3662 62.0498 54.3662C61.7933 54.3662 61.604 54.6863 61.5674 55.0788Z" fill="#263238"/>
<path d="M62.5444 60.6103C62.5444 61.0028 62.752 61.3228 63.0146 61.3228C63.2772 61.3228 63.4909 61.0028 63.4909 60.6103C63.4909 60.2177 63.2833 59.8977 63.0268 59.8977C62.7704 59.8977 62.5505 60.2177 62.5444 60.6103Z" fill="#263238"/>
<path d="M66.1958 55.411C66.1958 55.8035 66.4034 56.1235 66.6599 56.1235C66.9163 56.1235 67.1361 55.8035 67.1361 55.4049C67.1361 55.0064 66.9346 54.6924 66.6721 54.6924C66.4095 54.6924 66.1958 55.0124 66.1958 55.411Z" fill="#263238"/>
<path d="M64.7854 55.562C65.2532 56.7651 65.886 57.8989 66.6661 58.9316C66.3927 59.1246 66.0802 59.2564 65.7502 59.3179C65.4201 59.3794 65.0805 59.3692 64.7549 59.2879L64.7854 55.562Z" fill="#ED847E"/>
<path d="M60.267 53.5269C60.2294 53.5163 60.1955 53.4954 60.1693 53.4666C60.1476 53.4452 60.1303 53.4198 60.1185 53.3918C60.1067 53.3639 60.1006 53.3338 60.1006 53.3035C60.1006 53.2732 60.1067 53.2432 60.1185 53.2152C60.1303 53.1872 60.1476 53.1618 60.1693 53.1405C60.4333 52.8788 60.7566 52.6831 61.1123 52.5697C61.4681 52.4562 61.846 52.4283 62.2149 52.4883C62.2449 52.494 62.2734 52.5056 62.2987 52.5226C62.3241 52.5395 62.3457 52.5613 62.3622 52.5867C62.3788 52.6121 62.3899 52.6406 62.395 52.6703C62.4001 52.7001 62.3991 52.7306 62.3919 52.76C62.3861 52.7899 62.3743 52.8183 62.3573 52.8435C62.3403 52.8688 62.3184 52.8905 62.2928 52.9074C62.2673 52.9243 62.2386 52.9359 62.2084 52.9417C62.1783 52.9475 62.1472 52.9473 62.1172 52.9412C61.8242 52.9025 61.5261 52.9326 61.2471 53.0291C60.9681 53.1256 60.716 53.2858 60.5113 53.4967C60.4779 53.5246 60.437 53.5423 60.3937 53.5476C60.3503 53.553 60.3063 53.5458 60.267 53.5269Z" fill="#263238"/>
<path d="M67.8138 53.9435C67.7751 53.9473 67.7361 53.941 67.7007 53.9251C67.6653 53.9092 67.6348 53.8843 67.6123 53.8529C67.4405 53.6173 67.215 53.4251 66.954 53.2918C66.693 53.1586 66.4039 53.0881 66.1102 53.086C66.0801 53.0884 66.0497 53.0849 66.0209 53.0755C65.9922 53.0662 65.9656 53.0512 65.9428 53.0314C65.9201 53.0117 65.9015 52.9877 65.8883 52.9608C65.8751 52.9338 65.8675 52.9045 65.866 52.8746C65.8635 52.844 65.8673 52.8132 65.877 52.784C65.8868 52.7548 65.9024 52.7279 65.9229 52.7048C65.9434 52.6817 65.9684 52.6629 65.9964 52.6496C66.0244 52.6362 66.0548 52.6286 66.0858 52.627C66.4564 52.6208 66.8229 52.7039 67.1537 52.869C67.4846 53.0342 67.7698 53.2765 67.9848 53.5751C68.0037 53.5995 68.0175 53.6274 68.0253 53.6572C68.0331 53.687 68.0347 53.718 68.0302 53.7484C68.0256 53.7788 68.0149 53.808 67.9987 53.8342C67.9826 53.8605 67.9612 53.8833 67.9359 53.9012C67.9003 53.9268 67.8578 53.9414 67.8138 53.9435Z" fill="#263238"/>
<path d="M68.7056 114.807L42.6755 112.694C42.599 112.688 42.5235 112.712 42.4644 112.761C42.4053 112.809 42.3672 112.878 42.358 112.953L42.1809 114.638C42.1767 114.676 42.1802 114.715 42.1911 114.751C42.2021 114.788 42.2203 114.822 42.2447 114.852C42.2691 114.882 42.2993 114.907 42.3334 114.925C42.3675 114.943 42.4049 114.954 42.4435 114.958L68.3209 117.482C68.3949 117.489 68.4689 117.468 68.5279 117.423C68.5869 117.379 68.6264 117.313 68.6384 117.241L68.9926 115.151C68.9996 115.11 68.9974 115.067 68.9863 115.026C68.9753 114.985 68.9554 114.947 68.9282 114.915C68.9011 114.882 68.8671 114.856 68.8287 114.837C68.7903 114.818 68.7483 114.808 68.7056 114.807Z" fill="#FF4747"/>
<path d="M85.9122 143.418C69.9571 139.97 59.1128 135.381 59.1128 135.381L67.5941 118.074C67.5941 118.074 103.229 129.65 99.5531 140.725C92.5067 161.981 86.535 194.91 86.535 194.91H80.832C83.0973 170.242 78.5727 153.937 85.9122 143.418Z" fill="#FFC3BD"/>
<path d="M86.5472 194.318L80.4412 194.402C80.3452 194.402 80.2525 194.437 80.1813 194.501C80.1101 194.564 80.0656 194.652 80.0565 194.747L79.5863 199.107C79.5778 199.217 79.5926 199.327 79.6297 199.432C79.6668 199.536 79.7254 199.631 79.8017 199.712C79.8781 199.792 79.9706 199.857 80.0733 199.9C80.176 199.943 80.2867 199.965 80.3984 199.964C82.3401 199.904 85.8938 199.747 88.3363 199.71C91.1939 199.662 90.9191 199.783 94.2713 199.71C96.2985 199.68 96.6222 197.639 95.7551 197.47C91.7923 196.691 91.3954 196.649 87.8172 194.662C87.432 194.439 86.9938 194.32 86.5472 194.318Z" fill="#263238"/>
<path d="M87.4452 194.753C87.4244 194.747 87.4058 194.735 87.3917 194.719C87.3776 194.703 87.3686 194.683 87.3658 194.662C87.3626 194.638 87.3668 194.614 87.3776 194.593C87.3885 194.571 87.4056 194.553 87.4268 194.541C87.6466 194.427 89.6189 193.4 90.2234 193.72C90.2812 193.748 90.3303 193.791 90.3658 193.844C90.4012 193.897 90.4216 193.959 90.4249 194.022C90.4389 194.127 90.4267 194.233 90.3895 194.332C90.3522 194.431 90.291 194.52 90.2112 194.59C89.68 195.073 88.2572 194.904 87.4574 194.759L87.4452 194.753ZM90.0707 193.907C89.6983 193.781 88.6236 194.209 87.8481 194.59C88.9411 194.753 89.7532 194.692 90.0585 194.421C90.1094 194.373 90.1481 194.315 90.1715 194.25C90.1948 194.184 90.2022 194.115 90.1929 194.046C90.1928 194.021 90.1852 193.996 90.1712 193.974C90.1571 193.953 90.1371 193.936 90.1135 193.926C90.1081 193.92 90.1015 193.915 90.0941 193.912C90.0868 193.909 90.0788 193.907 90.0707 193.907Z" fill="#FF4747"/>
<path d="M87.445 194.753C87.4275 194.742 87.4136 194.727 87.4049 194.709C87.3962 194.69 87.3932 194.67 87.3961 194.65C87.3961 194.59 87.5121 193.273 88.1288 192.754C88.2163 192.677 88.3189 192.618 88.4302 192.582C88.5416 192.545 88.6593 192.532 88.7761 192.543C89.0997 192.543 89.1974 192.73 89.2157 192.863C89.3195 193.412 88.1533 194.487 87.561 194.765C87.5426 194.775 87.5218 194.779 87.5011 194.776C87.4804 194.774 87.4609 194.766 87.445 194.753ZM88.8494 192.784H88.7272C88.6411 192.775 88.5541 192.785 88.472 192.812C88.3899 192.839 88.3146 192.883 88.251 192.941C87.8973 193.374 87.6844 193.902 87.6404 194.457C88.251 194.088 89.0325 193.249 88.9776 192.911C88.9532 192.869 88.947 192.814 88.8494 192.784Z" fill="#FF4747"/>
<path d="M68.5773 116.462C68.5773 116.462 79.037 120.967 84.8866 124.064C85.0893 124.167 85.2433 124.344 85.3153 124.557C85.3872 124.771 85.3714 125.004 85.2713 125.206C82.6433 130.66 81.0379 136.54 80.533 142.561C80.5207 142.687 80.4819 142.81 80.4191 142.921C80.3563 143.033 80.2707 143.13 80.1679 143.206C80.0651 143.283 79.9473 143.338 79.822 143.367C79.6967 143.396 79.5666 143.399 79.44 143.376C73.6209 142.404 45.6614 136.582 48.5556 114.922C54.7777 115.212 68.5773 116.462 68.5773 116.462Z" fill="#FF4747"/>
<path d="M57.562 115.532C57.562 115.532 49.0136 114.324 42.8037 114.028C33.8462 141.721 55.4188 142.802 60.4319 143.316C60.6969 143.346 60.9654 143.311 61.2135 143.214C61.4616 143.117 61.6818 142.961 61.8546 142.76C65.4083 138.454 68.1805 132.53 67.0753 125.163C67.0388 124.943 66.953 124.734 66.8241 124.551C66.6952 124.368 66.5265 124.216 66.3303 124.107C61.0364 120.942 57.562 115.532 57.562 115.532Z" fill="#FF4747"/>
<path d="M61.6041 124.469C56.4873 125.218 53.1534 139.366 56.2247 141.347C59.1067 142.555 62.2269 143.388 64.1625 143.418C56.8353 153.932 61.3477 170.248 59.0762 194.91H64.7793C64.7793 194.91 70.751 161.981 77.7973 140.725C79.733 134.843 70.6044 128.823 61.6041 124.469Z" fill="#FFC3BD"/>
<path d="M64.7733 194.318L58.6672 194.402C58.5716 194.403 58.4797 194.439 58.4088 194.502C58.3379 194.566 58.293 194.653 58.2825 194.747L57.8124 199.107C57.8039 199.217 57.8187 199.327 57.8558 199.432C57.8929 199.536 57.9514 199.631 58.0278 199.712C58.1042 199.792 58.1966 199.857 58.2993 199.9C58.4021 199.943 58.5128 199.965 58.6245 199.964C60.5662 199.904 64.1199 199.747 66.5623 199.71C69.42 199.662 69.1452 199.783 72.4974 199.71C74.5246 199.68 74.8482 197.639 73.9812 197.47C70.0184 196.691 69.6215 196.649 66.0433 194.662C65.6584 194.438 65.22 194.319 64.7733 194.318Z" fill="#263238"/>
<path d="M65.6707 194.753C65.65 194.747 65.6314 194.735 65.6173 194.719C65.6032 194.703 65.5942 194.683 65.5914 194.662C65.5882 194.638 65.5923 194.614 65.6032 194.593C65.6141 194.571 65.6312 194.553 65.6524 194.541C65.8722 194.427 67.8445 193.4 68.4551 193.72C68.5113 193.749 68.5589 193.793 68.5932 193.846C68.6274 193.899 68.6472 193.959 68.6505 194.022C68.6658 194.126 68.6548 194.233 68.6186 194.332C68.5824 194.431 68.522 194.519 68.4429 194.59C67.9055 195.073 66.4828 194.904 65.6891 194.759L65.6707 194.753ZM68.2963 193.907C67.9239 193.781 66.8553 194.209 66.0737 194.59C67.1667 194.753 67.9849 194.692 68.2841 194.421C68.335 194.373 68.3737 194.315 68.3971 194.25C68.4204 194.184 68.4278 194.115 68.4185 194.046C68.4184 194.021 68.4108 193.996 68.3968 193.974C68.3827 193.953 68.3626 193.936 68.3391 193.926C68.3345 193.918 68.3282 193.912 68.3208 193.907H68.2963Z" fill="#FF4747"/>
<path d="M65.6706 194.753C65.6531 194.742 65.6392 194.727 65.6305 194.709C65.6218 194.69 65.6187 194.67 65.6217 194.65C65.6217 194.59 65.7377 193.273 66.3544 192.754C66.4419 192.677 66.5445 192.618 66.6558 192.582C66.7672 192.545 66.8849 192.532 67.0017 192.543C67.3253 192.543 67.423 192.73 67.4474 192.863C67.5451 193.412 66.3789 194.487 65.7866 194.765C65.7682 194.775 65.7474 194.779 65.7267 194.776C65.706 194.774 65.6864 194.766 65.6706 194.753ZM67.0749 192.784H66.9528C66.8667 192.775 66.7797 192.785 66.6976 192.812C66.6155 192.839 66.5401 192.883 66.4765 192.941C66.1252 193.375 65.9126 193.903 65.8659 194.457C66.4765 194.088 67.2642 193.249 67.2032 192.911C67.1787 192.869 67.1726 192.814 67.0994 192.784H67.0749Z" fill="#FF4747"/>
<path d="M163.66 15.5259C163.337 12.7361 162.952 7.31336 165.303 6.19621C171.647 5.35684 178.467 11.7276 179.286 13.2977C180.104 14.8677 179.762 21.8061 176.807 23.1044C173.851 24.4027 163.66 15.5259 163.66 15.5259Z" fill="#263238"/>
<path d="M162.964 36.5162C163.257 37.5515 163.395 38.6237 163.373 39.6985C163.348 40.7285 163.235 41.7545 163.038 42.7661C162.683 44.7891 162.262 46.806 161.743 48.8048C161.222 50.8496 160.59 52.8654 159.85 54.8434C159.076 56.9878 158.11 59.0592 156.962 61.033L156.449 61.8422L155.839 62.6635C155.46 63.1224 155.088 63.5632 154.709 63.9859L153.586 65.1937L152.474 66.3772C150.972 67.8386 149.452 69.2033 147.919 70.5439C144.829 73.207 141.703 75.713 138.467 78.1586C138.246 78.3601 137.987 78.5165 137.705 78.619C137.423 78.7215 137.123 78.768 136.823 78.7559C136.523 78.7439 136.228 78.6735 135.955 78.5487C135.683 78.4239 135.437 78.2473 135.234 78.0288C135.03 77.8103 134.872 77.5543 134.768 77.2754C134.665 76.9965 134.618 76.7001 134.63 76.4032C134.642 76.1063 134.713 75.8147 134.839 75.545C134.966 75.2753 135.144 75.0328 135.365 74.8314C137.978 71.9026 140.586 68.9135 143.059 65.9002C144.28 64.4026 145.501 62.8809 146.625 61.3652L147.437 60.2299L148.182 59.1067L148.792 58.0318L149 57.6031L149.207 57.114C149.797 55.533 150.246 53.9045 150.551 52.2468C150.899 50.4835 151.161 48.6236 151.461 46.812C151.76 45.0005 151.98 43.0862 152.212 41.2021C152.336 39.2802 152.869 37.4058 153.775 35.7009L153.915 35.4533C154.4 34.6266 155.119 33.9587 155.984 33.5327C156.849 33.1068 157.822 32.9414 158.781 33.0572C159.74 33.1729 160.644 33.5647 161.38 34.184C162.116 34.8032 162.652 35.6225 162.922 36.5403L162.964 36.5162Z" fill="#FF8B7B"/>
<path d="M136.873 74.1672L133.087 75.5924C132.3 75.8901 131.585 76.3514 130.993 76.945L129.534 78.4124C129.36 78.5846 129.222 78.7898 129.13 79.0157C129.038 79.2416 128.993 79.4835 128.997 79.727C129.002 79.9706 129.056 80.2107 129.157 80.433C129.257 80.6554 129.402 80.8554 129.583 81.0211L131.213 82.561C131.533 82.8751 131.96 83.0611 132.411 83.0834C132.861 83.1057 133.305 82.9627 133.655 82.6817L135.774 81.0815C135.774 81.0815 140.079 78.8412 139.248 76.3895L136.873 74.1672Z" fill="#FF8B7B"/>
<path d="M185.312 32.5609L170.816 30.0972L158.488 32.096C157.237 32.3105 156.095 32.9374 155.249 33.8747C154.403 34.8121 153.903 36.0048 153.829 37.259C152.889 50.7614 155.313 57.2771 155.698 78.6177C156.602 78.6177 183.26 79.0645 183.26 79.0645C182.607 67.4824 188.64 52.9655 189.916 38.4788C190.039 37.1011 189.634 35.728 188.781 34.6318C187.928 33.5356 186.69 32.7964 185.312 32.5609Z" fill="#FF4747"/>
<path d="M177.197 18.2012C176.923 21.9331 176.788 26.8304 177.808 31.2929C177.197 33.7809 172.703 36.4077 167.489 37.6335C163.41 35.6166 163.935 32.555 165.205 30.991C169.541 30.2966 168.521 26.1178 167.886 23.1408L177.197 18.2012Z" fill="#FF8B7B"/>
<path d="M166.078 45.1274H166.017C165.984 45.121 165.953 45.1073 165.925 45.0875C165.898 45.0677 165.875 45.0421 165.859 45.0127C160.583 36.0091 164.479 31.1238 164.637 30.9185C164.658 30.8939 164.683 30.8735 164.711 30.8586C164.74 30.8436 164.771 30.8343 164.803 30.8312C164.835 30.8281 164.867 30.8313 164.898 30.8406C164.929 30.8499 164.958 30.8651 164.982 30.8853C165.007 30.9055 165.028 30.9304 165.043 30.9584C165.058 30.9865 165.068 31.0173 165.071 31.049C165.074 31.0807 165.071 31.1127 165.061 31.1431C165.052 31.1736 165.036 31.2019 165.016 31.2265C164.863 31.4197 161.23 35.9728 166.14 44.5115C173.705 39.1552 177.405 33.2554 177.71 31.2627C177.72 31.1995 177.754 31.1425 177.805 31.104C177.857 31.0655 177.921 31.0488 177.985 31.0574C178.05 31.0678 178.107 31.1027 178.146 31.1545C178.185 31.2064 178.202 31.2712 178.193 31.3352C177.875 33.4185 174.035 39.5839 166.201 45.067C166.165 45.0964 166.123 45.1171 166.078 45.1274Z" fill="#263238"/>
<path d="M165.614 43.5934H166.89V48.4907H164.375V44.8192C164.372 44.6576 164.403 44.4971 164.464 44.3473C164.525 44.1974 164.617 44.0613 164.732 43.947C164.848 43.8327 164.985 43.7425 165.137 43.6817C165.288 43.621 165.451 43.591 165.614 43.5934Z" fill="#263238"/>
<path d="M167.238 46.0392C166.914 46.0392 166.604 45.912 166.375 45.6855C166.146 45.459 166.017 45.1518 166.017 44.8315V43.6238H167.238C167.562 43.6238 167.873 43.751 168.102 43.9775C168.331 44.204 168.46 44.5112 168.46 44.8315C168.46 45.1518 168.331 45.459 168.102 45.6855C167.873 45.912 167.562 46.0392 167.238 46.0392Z" fill="#263238"/>
<path opacity="0.2" d="M168.307 22.8992L167.898 23.1105C168.217 24.3589 168.411 25.6351 168.478 26.9209C170.438 26.9209 172.471 26.3835 173.546 25.1636C174.306 24.3567 174.91 23.4195 175.329 22.3979L168.307 22.8992Z" fill="black"/>
<path opacity="0.2" d="M187.059 37.4824C185.959 37.9474 184.091 40.9245 184.268 44.0947C184.391 47.3378 185.491 50.4707 187.425 53.0923C188.304 49.1793 189.116 45.1938 189.623 41.1841L187.059 37.4824Z" fill="black"/>
<path d="M178.559 13.6782C177.735 18.7808 177.509 21.8062 174.627 24.1613C170.291 27.706 164.112 24.6746 163.385 19.4209C162.726 14.6927 164.191 7.15041 169.491 5.64679C170.66 5.31647 171.895 5.28454 173.08 5.554C174.264 5.82345 175.361 6.38549 176.266 7.18761C177.172 7.98974 177.857 9.00577 178.258 10.1408C178.659 11.2759 178.763 12.4929 178.559 13.6782Z" fill="#FF8B7B"/>
<path d="M177.967 17.7119C175.83 15.9547 174.028 12.0296 175.524 8.84115C171.61 9.62014 165.101 10.0127 163.227 6.35927C161.92 3.817 162.732 1.03923 165.706 0.622559C167.251 3.03802 170.511 2.4885 173.277 2.05372C176.043 1.61894 183.175 0.62256 182.479 5.93657C185.813 6.30492 187.547 13.6056 177.967 17.7119Z" fill="#263238"/>
<path d="M180.519 18.9678C180.158 19.5013 179.692 19.9582 179.15 20.3118C178.608 20.6654 178.001 20.9085 177.362 21.027C175.653 21.335 174.92 19.777 175.531 18.2613C176.068 16.8966 177.607 15.091 179.267 15.4715C180.928 15.8519 181.405 17.6393 180.519 18.9678Z" fill="#FF8B7B"/>
<path d="M171.47 130.327C171.268 104.125 176.739 78.9981 176.739 78.9981L156.248 78.6177C156.248 78.6177 157.286 116.577 159.429 132.301C162.299 153.436 162.042 194.584 162.042 194.584H168.118C168.118 194.584 175.127 154.499 171.47 130.327Z" fill="#FF8B7B"/>
<path d="M162.024 193.956L168.557 194.04C168.658 194.041 168.756 194.078 168.831 194.145C168.906 194.212 168.955 194.303 168.966 194.403L169.467 199.052C169.476 199.17 169.459 199.287 169.42 199.398C169.38 199.509 169.317 199.61 169.236 199.696C169.154 199.782 169.056 199.85 168.946 199.896C168.837 199.942 168.719 199.965 168.6 199.964C166.53 199.898 162.763 199.735 160.162 199.693C157.109 199.644 157.414 199.771 153.842 199.693C151.68 199.662 151.332 197.488 152.26 197.307C156.48 196.48 156.907 196.438 160.711 194.324C161.107 194.086 161.561 193.958 162.024 193.956Z" fill="#263238"/>
<path d="M161.071 194.397C161.094 194.391 161.114 194.378 161.129 194.361C161.144 194.344 161.154 194.323 161.157 194.3C161.16 194.275 161.155 194.249 161.143 194.226C161.131 194.204 161.113 194.185 161.09 194.173C160.858 194.046 158.757 192.965 158.11 193.297C158.05 193.33 157.998 193.377 157.961 193.433C157.924 193.49 157.901 193.556 157.896 193.624C157.882 193.735 157.895 193.848 157.934 193.953C157.974 194.058 158.038 194.152 158.122 194.227C158.69 194.747 160.204 194.566 161.053 194.409L161.071 194.397ZM158.275 193.491C158.672 193.364 159.814 193.817 160.644 194.221C159.478 194.397 158.611 194.33 158.293 194.04C158.236 193.992 158.192 193.93 158.167 193.86C158.141 193.79 158.134 193.715 158.147 193.642C158.147 193.615 158.155 193.59 158.169 193.567C158.183 193.545 158.202 193.527 158.226 193.515L158.275 193.491Z" fill="#FF4747"/>
<path d="M161.071 194.397H161.102C161.121 194.384 161.136 194.367 161.146 194.347C161.155 194.327 161.159 194.304 161.157 194.282C161.157 194.227 161.034 192.82 160.375 192.265C160.281 192.184 160.172 192.122 160.053 192.084C159.934 192.045 159.809 192.031 159.685 192.041C159.343 192.072 159.239 192.241 159.215 192.38C159.105 192.983 160.351 194.113 160.979 194.409C160.995 194.413 161.011 194.414 161.027 194.412C161.042 194.41 161.057 194.405 161.071 194.397ZM159.575 192.301H159.703C159.795 192.292 159.887 192.302 159.974 192.33C160.061 192.358 160.142 192.404 160.21 192.464C160.596 192.923 160.83 193.488 160.882 194.082C160.235 193.684 159.398 192.79 159.459 192.434C159.465 192.41 159.471 192.349 159.575 192.319V192.301Z" fill="#FF4747"/>
<path opacity="0.2" d="M171.049 100.955C169.522 102.845 169.479 107.766 172.074 113.032C172.245 110.671 172.447 108.364 172.685 106.148L171.049 100.955Z" fill="black"/>
<path d="M170.695 14.2821C170.652 14.7048 170.396 15.0188 170.084 14.9886C169.773 14.9584 169.62 14.5961 169.663 14.1794C169.706 13.7628 169.962 13.4427 170.237 13.4729C170.512 13.5031 170.731 13.8413 170.695 14.2821Z" fill="#263238"/>
<path d="M164.851 13.7445C164.808 14.1612 164.552 14.4752 164.271 14.445C163.99 14.4148 163.807 14.0525 163.849 13.6358C163.892 13.2192 164.149 12.9052 164.423 12.9354C164.698 12.9656 164.887 13.3279 164.851 13.7445Z" fill="#263238"/>
<path d="M167.239 14.1431C166.609 15.3663 165.81 16.4965 164.863 17.5006C165.129 17.7392 165.444 17.917 165.787 18.0214C166.13 18.1258 166.492 18.1541 166.848 18.1044L167.239 14.1431Z" fill="#FF5652"/>
<path d="M168.545 19.3968C169.021 19.3921 169.49 19.2905 169.924 19.0983C170.358 18.9061 170.747 18.6274 171.067 18.2796C171.09 18.257 171.102 18.2267 171.102 18.1951C171.102 18.1635 171.09 18.1331 171.067 18.1105C171.043 18.088 171.012 18.0754 170.979 18.0754C170.946 18.0754 170.914 18.088 170.89 18.1105C170.528 18.4894 170.08 18.7782 169.583 18.9535C169.087 19.1287 168.555 19.1854 168.032 19.119C168.016 19.1173 168 19.1188 167.985 19.1234C167.969 19.1279 167.955 19.1355 167.942 19.1456C167.93 19.1557 167.92 19.1682 167.912 19.1823C167.904 19.1963 167.9 19.2118 167.898 19.2277C167.896 19.2435 167.898 19.2596 167.903 19.2749C167.907 19.2902 167.915 19.3044 167.925 19.3168C167.935 19.3291 167.948 19.3394 167.962 19.3469C167.976 19.3544 167.992 19.359 168.008 19.3605C168.186 19.3863 168.366 19.3984 168.545 19.3968Z" fill="#263238"/>
<path d="M171.812 11.6069C171.855 11.607 171.898 11.5944 171.934 11.5706C171.989 11.5358 172.029 11.4809 172.044 11.4176C172.058 11.3544 172.048 11.2879 172.013 11.2325C171.814 10.8949 171.536 10.6092 171.202 10.3991C170.869 10.1891 170.49 10.0607 170.096 10.0247C170.06 10.0192 170.024 10.0213 169.989 10.0311C169.954 10.0408 169.922 10.0579 169.894 10.0811C169.867 10.1044 169.845 10.1332 169.83 10.1657C169.814 10.1982 169.807 10.2335 169.807 10.2693C169.807 10.3051 169.814 10.3404 169.83 10.3729C169.845 10.4054 169.867 10.4343 169.894 10.4575C169.922 10.4808 169.954 10.4978 169.989 10.5076C170.024 10.5173 170.06 10.5194 170.096 10.5139C170.409 10.5498 170.71 10.6582 170.973 10.8302C171.236 11.0023 171.454 11.2332 171.61 11.5042C171.634 11.5355 171.664 11.561 171.699 11.5788C171.734 11.5966 171.772 11.6062 171.812 11.6069Z" fill="#263238"/>
<path d="M163.617 12.1805C163.658 12.1835 163.699 12.1762 163.737 12.1593C163.774 12.1424 163.807 12.1165 163.831 12.0839C164.018 11.8362 164.261 11.6358 164.541 11.4993C164.822 11.3628 165.131 11.2941 165.443 11.2989C165.476 11.3031 165.509 11.3005 165.541 11.2914C165.572 11.2822 165.602 11.2666 165.627 11.2456C165.652 11.2246 165.673 11.1986 165.688 11.1693C165.702 11.14 165.71 11.1081 165.712 11.0755C165.715 11.0432 165.712 11.0107 165.702 10.9797C165.693 10.9488 165.677 10.92 165.656 10.8953C165.635 10.8705 165.609 10.8501 165.58 10.8354C165.55 10.8207 165.519 10.812 165.486 10.8098C165.091 10.7953 164.699 10.8757 164.343 11.0439C163.987 11.2122 163.677 11.4634 163.44 11.7759C163.42 11.8016 163.404 11.8311 163.395 11.8627C163.386 11.8943 163.384 11.9273 163.388 11.9599C163.392 11.9925 163.402 12.024 163.418 12.0525C163.435 12.0811 163.457 12.1061 163.483 12.1262C163.522 12.1554 163.569 12.1741 163.617 12.1805Z" fill="#263238"/>
<path d="M190.496 129.668C186.833 106.25 186.057 84.2939 182.558 79.0644L165.168 78.7686C165.168 78.7686 175.445 115.785 179.408 131.383C183.529 147.603 193.647 194.523 193.647 194.523L199.191 194.644C199.191 194.644 198.489 148.008 190.496 129.668Z" fill="#FF8B7B"/>
<path d="M193.116 193.956L199.479 194.04C199.58 194.041 199.677 194.078 199.752 194.145C199.828 194.212 199.876 194.303 199.888 194.403L200.388 199.053C200.397 199.17 200.381 199.288 200.341 199.398C200.301 199.509 200.238 199.611 200.157 199.696C200.075 199.782 199.977 199.85 199.867 199.896C199.758 199.942 199.64 199.965 199.521 199.964C197.451 199.898 196.181 199.735 193.574 199.693C190.521 199.644 191.938 199.771 188.366 199.693C186.21 199.662 185.722 197.73 186.631 197.476C189.513 196.679 190.478 195.55 191.797 194.324C192.172 194.037 192.645 193.905 193.116 193.956Z" fill="#263238"/>
<path d="M193.494 194.348C193.518 194.349 193.541 194.343 193.562 194.331C193.582 194.319 193.599 194.302 193.61 194.282C193.625 194.261 193.633 194.237 193.633 194.212C193.633 194.188 193.625 194.163 193.61 194.143C193.433 193.944 191.84 192.204 191.113 192.331C191.045 192.339 190.981 192.365 190.927 192.405C190.872 192.445 190.829 192.499 190.802 192.561C190.751 192.661 190.724 192.772 190.724 192.884C190.724 192.996 190.751 193.107 190.802 193.207C191.156 193.883 192.634 194.227 193.494 194.372V194.348ZM191.18 192.537C191.602 192.537 192.517 193.358 193.153 194.022C191.998 193.787 191.205 193.418 191.003 193.056C190.968 192.991 190.95 192.918 190.95 192.845C190.95 192.771 190.968 192.698 191.003 192.633C191.013 192.608 191.029 192.585 191.051 192.568C191.072 192.551 191.098 192.54 191.125 192.537H191.18Z" fill="#FF4747"/>
<path d="M193.494 194.348H193.531C193.551 194.343 193.57 194.332 193.585 194.317C193.6 194.302 193.611 194.284 193.616 194.264C193.616 194.203 194.013 192.845 193.586 192.102C193.527 191.993 193.445 191.897 193.346 191.821C193.248 191.745 193.134 191.691 193.012 191.661C192.682 191.571 192.523 191.691 192.456 191.818C192.151 192.331 192.92 193.829 193.409 194.318C193.432 194.339 193.463 194.35 193.494 194.348ZM192.823 191.866H192.951C193.039 191.889 193.122 191.93 193.193 191.986C193.265 192.043 193.323 192.113 193.366 192.193C193.569 192.754 193.593 193.363 193.433 193.938C192.969 193.334 192.487 192.217 192.67 191.909C192.707 191.915 192.737 191.866 192.847 191.866H192.823Z" fill="#FF4747"/>
<path d="M164.186 78.2734C164.186 78.2734 168.643 99.6261 169.119 106.848C175.443 106.557 181.727 105.688 187.889 104.252C187.889 104.252 189.868 89.306 183.242 78.7686C176.63 78.4003 164.186 78.2734 164.186 78.2734Z" fill="#263238"/>
<path d="M184.989 105.127C184.945 105.127 184.903 105.117 184.863 105.1C184.823 105.083 184.787 105.058 184.757 105.028C184.727 104.997 184.703 104.96 184.688 104.92C184.672 104.881 184.664 104.838 184.665 104.795C184.873 93.4184 180.33 79.5839 180.281 79.4329C180.274 79.3593 180.292 79.2856 180.333 79.2237C180.374 79.1618 180.435 79.1155 180.506 79.0924C180.577 79.0692 180.653 79.0706 180.724 79.0962C180.794 79.1219 180.853 79.1703 180.891 79.2336C180.934 79.3725 185.514 93.3097 185.3 104.795C185.302 104.837 185.295 104.879 185.28 104.919C185.265 104.958 185.243 104.994 185.214 105.025C185.185 105.056 185.15 105.081 185.111 105.098C185.073 105.116 185.031 105.126 184.989 105.127Z" fill="white"/>
<path d="M182.906 105.49C182.82 105.486 182.738 105.45 182.679 105.388C182.62 105.326 182.587 105.243 182.589 105.157C182.796 93.7806 178.131 79.5898 178.089 79.4448C178.062 79.3632 178.068 79.2742 178.107 79.1973C178.146 79.1204 178.214 79.0618 178.296 79.0342C178.38 79.0093 178.47 79.0174 178.547 79.0568C178.625 79.0963 178.684 79.1639 178.712 79.2456C178.76 79.3845 183.456 93.684 183.242 105.169C183.242 105.213 183.233 105.255 183.216 105.295C183.199 105.334 183.175 105.37 183.143 105.4C183.112 105.43 183.075 105.453 183.034 105.469C182.993 105.484 182.95 105.491 182.906 105.49Z" fill="white"/>
<path d="M155.637 76.3774L183.426 76.9813C183.466 76.9813 183.506 76.9893 183.544 77.0049C183.581 77.0204 183.615 77.0432 183.644 77.0719C183.672 77.1006 183.695 77.1346 183.71 77.1719C183.725 77.2092 183.732 77.2491 183.731 77.2893V79.1009C183.732 79.1418 183.724 79.1825 183.709 79.2206C183.694 79.2587 183.671 79.2933 183.642 79.3226C183.613 79.3518 183.578 79.375 183.54 79.3909C183.502 79.4067 183.461 79.4149 183.42 79.4149L155.771 79.2337C155.692 79.2339 155.615 79.2039 155.557 79.15C155.5 79.0961 155.465 79.0224 155.46 78.9439L155.32 76.6915C155.318 76.6498 155.325 76.6082 155.34 76.5693C155.356 76.5304 155.379 76.4951 155.409 76.4656C155.439 76.4361 155.474 76.4131 155.514 76.3979C155.553 76.3827 155.595 76.3757 155.637 76.3774Z" fill="#263238"/>
<path d="M155.57 78.2734C155.57 78.2734 156.241 98.0862 156.241 104.741C165.321 106.468 176.294 105.399 176.294 105.399C176.294 105.399 183.194 89.306 176.959 78.7686C170.334 78.4003 155.57 78.2734 155.57 78.2734Z" fill="#263238"/>
<path d="M179.738 60.4573L170.771 73.9305C170.579 74.2202 170.66 74.6097 170.953 74.8003L188.856 86.4527C189.149 86.6434 189.542 86.5631 189.735 86.2733L198.701 72.8001C198.894 72.5104 198.813 72.121 198.52 71.9303L180.617 60.278C180.324 60.0873 179.93 60.1676 179.738 60.4573Z" fill="#FF4747"/>
<path d="M179.946 60.1467L170.979 73.6199C170.787 73.9097 170.868 74.2991 171.161 74.4898L189.064 86.1421C189.357 86.3328 189.751 86.2525 189.943 85.9628L198.909 72.4896C199.102 72.1999 199.021 71.8104 198.728 71.6197L180.825 59.9674C180.532 59.7767 180.138 59.857 179.946 60.1467Z" fill="#FF4747"/>
<path opacity="0.7" d="M179.946 60.1467L170.979 73.6199C170.787 73.9097 170.868 74.2991 171.161 74.4898L189.064 86.1421C189.357 86.3328 189.751 86.2525 189.943 85.9628L198.909 72.4896C199.102 72.1999 199.021 71.8104 198.728 71.6197L180.825 59.9674C180.532 59.7767 180.138 59.857 179.946 60.1467Z" fill="white"/>
<path opacity="0.2" d="M197.817 72.0356L189.244 85.2663L171.903 73.9801L180.635 60.8521L197.817 72.0356Z" fill="black"/>
<path d="M197.903 71.5222L189.068 84.8072C183.122 81.399 177.373 77.6654 171.849 73.6236C174.792 69.1953 177.739 64.767 180.69 60.3386C186.213 64.3803 191.96 68.114 197.903 71.5222Z" fill="white"/>
<path opacity="0.4" d="M175.36 69.2035L175.201 69.4572C175.159 69.5227 175.104 69.5789 175.039 69.6222C174.975 69.6655 174.901 69.6949 174.824 69.7086C174.747 69.7222 174.668 69.7198 174.592 69.7014C174.516 69.6831 174.445 69.6493 174.383 69.6021L173.937 69.282C173.925 69.2697 173.919 69.2535 173.919 69.2367C173.919 69.2199 173.925 69.2037 173.937 69.1914L174.401 68.497C174.407 68.4906 174.414 68.4854 174.422 68.4819C174.43 68.4784 174.438 68.4766 174.447 68.4766C174.455 68.4766 174.464 68.4784 174.472 68.4819C174.48 68.4854 174.487 68.4906 174.493 68.497L175.366 69.1009C175.373 69.1075 175.379 69.1157 175.383 69.1248C175.386 69.134 175.388 69.1438 175.387 69.1536C175.387 69.1634 175.384 69.173 175.379 69.1817C175.374 69.1903 175.368 69.1977 175.36 69.2035Z" fill="black"/>
<path d="M176.092 64.1249L173.344 68.3036C173.303 68.3631 173.275 68.4305 173.262 68.5015C173.249 68.5724 173.251 68.6453 173.268 68.7154C173.285 68.7855 173.318 68.8512 173.362 68.9082C173.407 68.9652 173.463 69.0123 173.528 69.0463L174.517 69.5959C174.652 69.6711 174.812 69.6924 174.963 69.6554C175.114 69.6184 175.245 69.5258 175.329 69.3966L178.113 65.2178C178.153 65.1572 178.18 65.089 178.193 65.0175C178.205 64.946 178.202 64.8728 178.184 64.8025C178.166 64.7322 178.134 64.6662 178.089 64.6088C178.045 64.5515 177.988 64.5039 177.924 64.4691L176.941 63.9256C176.872 63.8827 176.795 63.8539 176.715 63.8407C176.635 63.8275 176.553 63.8303 176.474 63.8488C176.395 63.8674 176.321 63.9014 176.255 63.9488C176.189 63.9962 176.134 64.056 176.092 64.1249Z" fill="#263238"/>
<path d="M186.686 74.4148L183.212 76.474C182.484 76.8987 181.859 77.4758 181.38 78.1648L180.202 79.8617C180.061 80.0616 179.962 80.2875 179.912 80.526C179.861 80.7645 179.86 81.0107 179.907 81.2497C179.955 81.4888 180.052 81.7158 180.19 81.9172C180.329 82.1187 180.507 82.2904 180.715 82.422L182.614 83.6298C182.979 83.8712 183.42 83.9747 183.856 83.9215C184.292 83.8683 184.694 83.6619 184.989 83.3399L186.821 81.3955C186.821 81.3955 190.661 78.4426 189.403 76.172L186.686 74.4148Z" fill="#FF8B7B"/>
<path d="M188.286 34.1067C189.2 34.6422 190.023 35.3144 190.729 36.0995C191.396 36.8494 191.993 37.6579 192.512 38.5149C193.586 40.1937 194.612 41.9147 195.565 43.7142C196.526 45.5457 197.374 47.4332 198.105 49.3664C198.92 51.4671 199.51 53.647 199.863 55.87C199.906 56.1719 199.943 56.4738 199.967 56.818L200.004 57.3011C200.004 57.4702 200.004 57.6876 200.004 57.905C200.006 58.2763 199.986 58.6473 199.943 59.0161C199.943 59.3845 199.851 59.6985 199.796 60.0246C199.566 61.1918 199.222 62.3344 198.77 63.4364C197.977 65.3719 197.026 67.2401 195.925 69.0222C193.841 72.3898 191.504 75.5973 188.933 78.6176C188.569 79.0457 188.057 79.3249 187.497 79.4012C186.937 79.4774 186.368 79.3452 185.9 79.0302C185.433 78.7152 185.1 78.2398 184.967 77.6962C184.833 77.1525 184.909 76.5792 185.178 76.0874V76.033C186.051 74.4569 186.906 72.7601 187.7 71.1055C188.494 69.4509 189.239 67.7661 189.886 66.0934C190.526 64.4993 191.039 62.8577 191.419 61.184C191.575 60.4878 191.656 59.7774 191.663 59.0644C191.673 58.9298 191.673 58.7945 191.663 58.6598C191.657 58.5569 191.636 58.4552 191.602 58.3579L191.504 58.0077C191.467 57.8688 191.419 57.7178 191.364 57.5548C190.848 56.0812 190.179 54.6646 189.367 53.3277C188.5 51.8664 187.535 50.3929 186.552 48.9255C185.569 47.4582 184.519 45.9847 183.469 44.5173C182.918 43.7979 182.422 43.0389 181.985 42.2468C181.529 41.4387 181.205 40.5644 181.026 39.6562L180.935 39.0524C180.791 38.14 180.912 37.2062 181.284 36.3591C181.655 35.512 182.262 34.7864 183.033 34.2662C183.804 33.7461 184.709 33.4528 185.642 33.4203C186.575 33.3878 187.498 33.6174 188.305 34.0826L188.286 34.1067Z" fill="#FF8B7B"/>
</svg>
