<svg width="281" height="179" viewBox="0 0 281 179" fill="none" xmlns="http://www.w3.org/2000/svg">
<path d="M104.67 176.983L102.559 177.102L98.437 121.173L102.736 120.936L104.67 176.983Z" fill="#FF4747" stroke="#263238" stroke-linecap="round" stroke-linejoin="round"/>
<path d="M55.0337 119.924C55.0337 119.924 56.0431 114.918 58.323 114.667C60.6029 114.416 100.59 114.667 100.59 114.667C100.59 114.667 104.889 114.164 105.143 118.918L55.0337 119.924Z" fill="#263238" stroke="#263238" stroke-linecap="round" stroke-linejoin="round"/>
<path d="M105.397 117.417H51.7441V123.672H105.397V117.417Z" fill="#FF4747" stroke="#263238" stroke-linecap="round" stroke-linejoin="round"/>
<path d="M48.7088 57.0971C48.7088 57.0971 51.2358 56.0988 51.9981 60.3501C52.7605 64.6013 60.0943 109.389 59.8402 111.658C59.5861 113.927 55.5415 115.665 55.5415 115.665L47.6924 57.0971H48.7088Z" fill="#263238" stroke="#263238" stroke-linecap="round" stroke-linejoin="round"/>
<path d="M44.4033 56.0989C44.4033 56.0989 51.9984 104.154 51.4619 122.171C50.9255 140.188 45.7656 176.991 45.7656 176.991H47.5373C47.5373 176.991 55.6265 139.951 57.1441 123.679L48.6738 57.0972C48.6738 57.0972 45.6668 54.3468 44.4033 56.0989Z" fill="#FF4747" stroke="#263238" stroke-linecap="round" stroke-linejoin="round"/>
<path d="M176.929 27.5199C175.345 23.4513 174.418 19.1615 174.183 14.808C173.894 7.95996 177.416 1.54471 186.063 1.39812C194.709 1.25152 202.043 3.26196 202.551 6.89889C203.06 10.5358 199.333 11.7854 199.333 11.7854C199.333 11.7854 201.168 18.3612 200.702 19.4641C200.236 20.5671 199.029 21.4327 199.29 22.78C199.552 24.1272 201.549 26.1656 200.526 27.0382C199.502 27.9108 198.5 28.6088 198.5 28.6088C198.5 28.6088 195.373 34.8426 193.954 35.8827C192.535 36.9228 190.277 36.3853 190.277 36.3853L188.597 35.6873C188.597 35.6873 185.413 37.3626 184.474 39.764C183.536 42.1653 182.032 47.1845 182.032 47.1845C182.032 47.1845 177.74 40.0642 174.726 39.2823C172.606 38.7769 170.449 38.4384 168.275 38.2701C168.275 38.2701 176.308 30.8915 176.929 27.5199Z" fill="white"/>
<mask id="mask0_133_433" style="mask-type:luminance" maskUnits="userSpaceOnUse" x="168" y="1" width="35" height="47">
<path d="M176.929 27.5199C175.345 23.4513 174.418 19.1615 174.183 14.808C173.894 7.95996 177.416 1.54471 186.063 1.39812C194.709 1.25152 202.043 3.26196 202.551 6.89889C203.06 10.5358 199.333 11.7854 199.333 11.7854C199.333 11.7854 201.168 18.3612 200.702 19.4641C200.236 20.5671 199.029 21.4327 199.29 22.78C199.552 24.1272 201.549 26.1656 200.526 27.0382C199.502 27.9108 198.5 28.6088 198.5 28.6088C198.5 28.6088 195.373 34.8426 193.954 35.8827C192.535 36.9228 190.277 36.3853 190.277 36.3853L188.597 35.6873C188.597 35.6873 185.413 37.3626 184.474 39.764C183.536 42.1653 182.032 47.1845 182.032 47.1845C182.032 47.1845 177.74 40.0642 174.726 39.2823C172.606 38.7769 170.449 38.4384 168.275 38.2701C168.275 38.2701 176.308 30.8915 176.929 27.5199Z" fill="white"/>
</mask>
<g mask="url(#mask0_133_433)">
<path d="M188.625 35.722L190.305 36.42C191.066 36.5809 191.852 36.5998 192.62 36.4759C190.573 35.2193 184.997 31.8267 186.225 29.3974C187.524 26.8355 189.677 24.0642 189.465 21.7187C189.253 19.3732 192.705 16.169 193.347 12.3297C193.82 9.53739 189.5 4.1483 187.107 1.41187H186.063C177.416 1.5794 173.894 7.97371 174.183 14.8218C174.418 19.1753 175.345 23.465 176.929 27.5336C176.308 30.9053 168.303 38.3188 168.303 38.3188C170.477 38.487 172.635 38.8255 174.755 39.331C177.769 40.1128 182.06 47.2331 182.06 47.2331C182.06 47.2331 183.564 42.214 184.503 39.8126C185.442 37.4113 188.625 35.722 188.625 35.722Z" fill="#FF4747"/>
<path opacity="0.5" d="M188.625 35.722L190.305 36.42C191.066 36.5809 191.852 36.5998 192.62 36.4759C190.573 35.2193 184.997 31.8267 186.225 29.3974C187.524 26.8355 189.677 24.0642 189.465 21.7187C189.253 19.3732 192.705 16.169 193.347 12.3297C193.82 9.53739 189.5 4.1483 187.107 1.41187H186.063C177.416 1.5794 173.894 7.97371 174.183 14.8218C174.418 19.1753 175.345 23.465 176.929 27.5336C176.308 30.9053 168.303 38.3188 168.303 38.3188C170.477 38.487 172.635 38.8255 174.755 39.331C177.769 40.1128 182.06 47.2331 182.06 47.2331C182.06 47.2331 183.564 42.214 184.503 39.8126C185.442 37.4113 188.625 35.722 188.625 35.722Z" fill="white"/>
</g>
<path d="M176.929 27.5199C175.345 23.4513 174.418 19.1615 174.183 14.808C173.894 7.95996 177.416 1.54471 186.063 1.39812C194.709 1.25152 202.043 3.26196 202.551 6.89889C203.06 10.5358 199.333 11.7854 199.333 11.7854C199.333 11.7854 201.168 18.3612 200.702 19.4641C200.236 20.5671 199.029 21.4327 199.29 22.78C199.552 24.1272 201.549 26.1656 200.526 27.0382C199.502 27.9108 198.5 28.6088 198.5 28.6088C198.5 28.6088 195.373 34.8426 193.954 35.8827C192.535 36.9228 190.277 36.3853 190.277 36.3853L188.597 35.6873C188.597 35.6873 185.413 37.3626 184.474 39.764C183.536 42.1653 182.032 47.1845 182.032 47.1845C182.032 47.1845 177.74 40.0642 174.726 39.2823C172.606 38.7769 170.449 38.4384 168.275 38.2701C168.275 38.2701 176.308 30.8915 176.929 27.5199Z" stroke="#263238" stroke-linecap="round" stroke-linejoin="round"/>
<path d="M199.382 12.0016C199.347 11.876 199.333 11.7992 199.333 11.7992C199.333 11.7992 203.06 10.5427 202.551 6.9127C202.043 3.28274 194.702 1.25137 186.062 1.41193C177.423 1.57248 173.893 7.97377 174.183 14.8218C174.416 19.1233 175.326 23.3625 176.879 27.3871C177.98 27.0031 180.027 26.2911 180.867 26.0747C181.473 25.9625 182.029 25.6702 182.463 25.237C182.463 25.237 178.362 20.7833 178.933 18.3541C179.505 15.9248 183.232 14.4728 184.284 15.8759C185.335 17.279 184.46 21.5791 184.46 21.5791C184.46 21.5791 185.208 21.8235 185.667 20.7135C186.126 19.6036 185.83 18.4518 187.785 17.635C189.74 16.8183 191.724 16.2389 191.963 15.4571C192.203 14.6752 189.931 11.7154 190.594 10.431C191.152 9.37689 197.307 11.3105 199.382 12.0016Z" fill="#263238" stroke="#263238" stroke-linecap="round" stroke-linejoin="round"/>
<path d="M198.641 19.5688C198.641 19.5688 197.173 17.4048 195.479 18.4309" stroke="#263238" stroke-linecap="round" stroke-linejoin="round"/>
<path d="M197.484 22.5775C197.434 23.2756 197.095 23.7782 196.721 23.7572C196.347 23.7363 196.093 23.1639 196.142 22.4867C196.192 21.8096 196.524 21.2861 196.898 21.307C197.272 21.3279 197.526 21.9004 197.484 22.5775Z" fill="#263238"/>
<path d="M195.69 31.1987L194.3 30.5984" stroke="#263238" stroke-linecap="round" stroke-linejoin="round"/>
<path d="M184.503 39.7988L185.484 33.572" stroke="#263238" stroke-linecap="round" stroke-linejoin="round"/>
<path d="M183.211 26.5706C183.137 27.6992 183.256 28.832 183.564 29.9213C184.058 31.3174 187.256 33.6978 187.256 33.6978" stroke="#263238" stroke-linecap="round" stroke-linejoin="round"/>
<path d="M137.683 135.49C137.683 135.49 129.918 143.385 127.448 143.867C124.977 144.348 122.246 141.284 119.789 138.01C117.333 134.736 109.201 116.007 107.253 112.935C105.305 109.864 102.983 106.073 102.983 106.073C102.983 106.073 95.2183 109.564 94.8089 111.511C94.5813 112.641 94.1714 113.728 93.5948 114.729C93.5948 114.729 91.7031 115.658 89.7126 113.019C87.7221 110.38 88.3009 104.217 90.4184 103.309C92.536 102.402 98.2958 94.0666 99.5452 92.838C100.795 91.6094 101.875 89.7316 104.324 92.1888C106.773 94.646 109.971 101.403 112.279 104.963C114.587 108.524 118.794 113.543 122.069 117.982C124.688 121.529 129.834 125.829 129.834 125.829L137.683 135.49Z" fill="white"/>
<mask id="mask1_133_433" style="mask-type:luminance" maskUnits="userSpaceOnUse" x="88" y="90" width="50" height="54">
<path d="M137.683 135.49C137.683 135.49 129.918 143.385 127.448 143.867C124.977 144.348 122.246 141.284 119.789 138.01C117.333 134.736 109.201 116.007 107.253 112.935C105.305 109.864 102.983 106.073 102.983 106.073C102.983 106.073 95.2183 109.564 94.8089 111.511C94.5813 112.641 94.1714 113.728 93.5948 114.729C93.5948 114.729 91.7031 115.658 89.7126 113.019C87.7221 110.38 88.3009 104.217 90.4184 103.309C92.536 102.402 98.2958 94.0666 99.5452 92.838C100.795 91.6094 101.875 89.7316 104.324 92.1888C106.773 94.646 109.971 101.403 112.279 104.963C114.587 108.524 118.794 113.543 122.069 117.982C124.688 121.529 129.834 125.829 129.834 125.829L137.683 135.49Z" fill="white"/>
</mask>
<g mask="url(#mask1_133_433)">
<path d="M129.841 125.857C129.841 125.857 124.716 121.556 122.076 118.01C118.822 113.578 114.658 108.551 112.328 104.991C110.917 102.82 109.166 99.4626 107.479 96.6145C101.126 90.7856 101.395 96.9286 99.5241 101.864C98.9805 103.26 99.4394 105.152 100.505 107.302C101.917 106.604 103.004 106.087 103.004 106.087C103.004 106.087 105.333 109.871 107.274 112.949C108.157 114.345 110.331 118.995 112.66 123.951C113.26 124.733 113.839 125.508 114.389 126.268C120.742 135.029 123.248 143.476 126.389 142.533C129.53 141.591 133.031 132.837 133.031 132.837L133.257 130.045L129.841 125.857Z" fill="#FF4747"/>
<path opacity="0.5" d="M129.841 125.857C129.841 125.857 124.716 121.556 122.076 118.01C118.822 113.578 114.658 108.551 112.328 104.991C110.917 102.82 109.166 99.4626 107.479 96.6145C101.126 90.7856 101.395 96.9286 99.5241 101.864C98.9805 103.26 99.4394 105.152 100.505 107.302C101.917 106.604 103.004 106.087 103.004 106.087C103.004 106.087 105.333 109.871 107.274 112.949C108.157 114.345 110.331 118.995 112.66 123.951C113.26 124.733 113.839 125.508 114.389 126.268C120.742 135.029 123.248 143.476 126.389 142.533C129.53 141.591 133.031 132.837 133.031 132.837L133.257 130.045L129.841 125.857Z" fill="white"/>
</g>
<path d="M137.683 135.49C137.683 135.49 129.918 143.385 127.448 143.867C124.977 144.348 122.246 141.284 119.789 138.01C117.333 134.736 109.201 116.007 107.253 112.935C105.305 109.864 102.983 106.073 102.983 106.073C102.983 106.073 95.2183 109.564 94.8089 111.511C94.5813 112.641 94.1714 113.728 93.5948 114.729C93.5948 114.729 91.7031 115.658 89.7126 113.019C87.7221 110.38 88.3009 104.217 90.4184 103.309C92.536 102.402 98.2958 94.0666 99.5452 92.838C100.795 91.6094 101.875 89.7316 104.324 92.1888C106.773 94.646 109.971 101.403 112.279 104.963C114.587 108.524 118.794 113.543 122.069 117.982C124.688 121.529 129.834 125.829 129.834 125.829L137.683 135.49Z" stroke="#263238" stroke-linecap="round" stroke-linejoin="round"/>
<path d="M174.204 103.511C179.02 106.081 183.61 109.044 187.926 112.37C193.806 117.117 195.634 119.602 195.387 121.626C195.14 123.651 180.656 149.116 179.66 152.551C178.665 155.985 175.425 164.6 175.425 164.6C175.425 164.6 176.922 165.996 181.072 169.151C185.222 172.306 191.448 173.898 191.512 174.554C191.575 175.21 190.333 176.229 187.22 176.536C184.107 176.844 179.54 176.194 176.999 175.559C174.458 174.924 170.724 175.741 167.385 176.076C164.047 176.411 163.856 172.425 163.644 170.219C163.433 168.013 169.51 156.453 170.646 152.118C171.783 147.783 174.084 141.766 174.105 137.542C174.126 133.319 176.886 121.696 176.886 121.696L163.574 119.023L174.204 103.511Z" fill="white"/>
<mask id="mask2_133_433" style="mask-type:luminance" maskUnits="userSpaceOnUse" x="163" y="103" width="33" height="74">
<path d="M174.204 103.511C179.02 106.081 183.61 109.044 187.926 112.37C193.806 117.117 195.634 119.602 195.387 121.626C195.14 123.651 180.656 149.116 179.66 152.551C178.665 155.985 175.425 164.6 175.425 164.6C175.425 164.6 176.922 165.996 181.072 169.151C185.222 172.306 191.448 173.898 191.512 174.554C191.575 175.21 190.333 176.229 187.22 176.536C184.107 176.844 179.54 176.194 176.999 175.559C174.458 174.924 170.724 175.741 167.385 176.076C164.047 176.411 163.856 172.425 163.644 170.219C163.433 168.013 169.51 156.453 170.646 152.118C171.783 147.783 174.084 141.766 174.105 137.542C174.126 133.319 176.886 121.696 176.886 121.696L163.574 119.023L174.204 103.511Z" fill="white"/>
</mask>
<g mask="url(#mask2_133_433)">
<path d="M184.912 126.268C184.912 126.268 189.345 124.391 189.345 121.577C189.345 118.764 176.371 115.944 176.371 115.944C176.371 115.944 173.682 113.403 169.722 110.038L163.553 119.022L176.865 121.696C176.865 121.696 174.098 133.312 174.084 137.542C174.07 141.773 171.755 147.776 170.625 152.118C169.496 156.46 163.397 168.02 163.623 170.219C163.849 172.418 164.026 176.404 167.364 176.076C168.649 175.943 169.99 175.748 171.296 175.587C172.503 170.91 173.915 159.713 174.79 155.678C175.743 151.294 182.067 140.321 184.284 135.029C186.5 129.738 184.912 126.268 184.912 126.268Z" fill="#FF4747"/>
<path opacity="0.5" d="M184.912 126.268C184.912 126.268 189.345 124.391 189.345 121.577C189.345 118.764 176.371 115.944 176.371 115.944C176.371 115.944 173.682 113.403 169.722 110.038L163.553 119.022L176.865 121.696C176.865 121.696 174.098 133.312 174.084 137.542C174.07 141.773 171.755 147.776 170.625 152.118C169.496 156.46 163.397 168.02 163.623 170.219C163.849 172.418 164.026 176.404 167.364 176.076C168.649 175.943 169.99 175.748 171.296 175.587C172.503 170.91 173.915 159.713 174.79 155.678C175.743 151.294 182.067 140.321 184.284 135.029C186.5 129.738 184.912 126.268 184.912 126.268Z" fill="white"/>
</g>
<path d="M174.204 103.511C179.02 106.081 183.61 109.044 187.926 112.37C193.806 117.117 195.634 119.602 195.387 121.626C195.14 123.651 180.656 149.116 179.66 152.551C178.665 155.985 175.425 164.6 175.425 164.6C175.425 164.6 176.922 165.996 181.072 169.151C185.222 172.306 191.448 173.898 191.512 174.554C191.575 175.21 190.333 176.229 187.22 176.536C184.107 176.844 179.54 176.194 176.999 175.559C174.458 174.924 170.724 175.741 167.385 176.076C164.047 176.411 163.856 172.425 163.644 170.219C163.433 168.013 169.51 156.453 170.646 152.118C171.783 147.783 174.084 141.766 174.105 137.542C174.126 133.319 176.886 121.696 176.886 121.696L163.574 119.023L174.204 103.511Z" stroke="#263238" stroke-linecap="round" stroke-linejoin="round"/>
<path d="M170.322 38.8845C168.88 39.6222 167.542 40.5421 166.341 41.6209C159.988 47.2543 160.567 52.79 161.936 55.1704C161.936 55.1704 160.115 61.8719 160.461 65.1179C160.807 68.3639 160.016 74.1928 159.684 78.9117C159.353 83.6307 156.275 89.1105 157.292 93.7387C158.308 98.3669 156.988 114.395 156.988 114.395C156.988 114.395 155.195 118.059 154.87 120.126C154.81 120.549 154.81 120.979 154.87 121.403L151.934 121.201L152.082 119.107C152.106 118.781 151.997 118.459 151.781 118.212C151.564 117.965 151.258 117.814 150.928 117.791C150.599 117.768 150.273 117.875 150.024 118.089C149.774 118.303 149.621 118.606 149.598 118.932L149.118 125.731C149.107 125.893 149.128 126.054 149.18 126.208C149.232 126.361 149.314 126.503 149.422 126.625C149.529 126.746 149.66 126.846 149.806 126.918C149.953 126.99 150.112 127.033 150.275 127.044C150.438 127.055 150.602 127.034 150.757 126.982C150.912 126.931 151.055 126.849 151.178 126.743C151.302 126.637 151.403 126.507 151.475 126.363C151.548 126.218 151.591 126.06 151.602 125.899L151.75 123.805L155.809 124.084L155.887 124.209L154.122 124.133C154.136 124.632 154.254 125.123 154.469 125.574C154.684 126.026 154.991 126.429 155.372 126.757C156.642 127.791 160.51 127.302 160.51 127.302C160.51 127.302 162.818 127.302 163.072 126.339C163.182 125.765 163.236 125.184 163.235 124.6L165.056 124.726L164.908 126.82C164.884 127.146 164.993 127.468 165.209 127.715C165.426 127.961 165.732 128.113 166.062 128.136C166.391 128.159 166.717 128.052 166.966 127.838C167.216 127.624 167.369 127.321 167.392 126.995L167.872 120.196C167.896 119.87 167.787 119.548 167.571 119.301C167.354 119.054 167.048 118.903 166.718 118.88C166.389 118.857 166.063 118.964 165.814 119.178C165.564 119.392 165.411 119.695 165.388 120.021L165.239 122.115L163.284 121.983C163.284 121.096 163.284 120.244 163.362 119.567C163.358 117.463 163.186 115.362 162.847 113.285C162.847 113.285 168.402 91.6445 168.719 87.135C168.928 84.5446 168.928 81.9419 168.719 79.3515C168.719 79.3515 173.42 72.4686 174.451 68.7478C175.148 65.9115 175.608 63.0235 175.827 60.1127C175.827 60.1127 181.1 56.1128 181.538 49.886C181.651 48.3293 181.75 47.0519 181.778 45.9559C181.82 44.605 181.502 43.2668 180.858 42.075C180.213 40.8832 179.264 39.8794 178.105 39.1638C176.946 38.4482 175.617 38.0458 174.251 37.9968C172.885 37.9478 171.53 38.2538 170.322 38.8845Z" fill="#263238" stroke="#263238" stroke-linecap="round" stroke-linejoin="round"/>
<path d="M138.749 94.9882C137.339 97.0831 136.336 99.4196 135.791 101.878C135.085 105.599 134.493 107.553 134.493 107.553C134.493 107.553 133.949 112.175 132.163 115.155C130.377 118.136 126.354 127.616 126.354 127.616C128.021 131.086 130.707 133.979 134.062 135.916C137.684 138.057 141.701 139.464 145.878 140.056L155.894 115.672L157.842 115.511L174.444 125.64C176.589 122.714 178.979 119.97 181.588 117.438C183.69 115.524 185.686 113.499 187.566 111.372C187.566 111.372 176.858 100.524 170.449 96.3285C165.113 92.8381 162.529 91.4001 162.529 91.4001C162.529 91.4001 145.843 86.6044 138.749 94.9882Z" fill="#263238" stroke="#263238" stroke-linecap="round" stroke-linejoin="round"/>
<path d="M146.725 93.0962C146.725 93.0962 141.494 110.031 140.464 111.944C139.603 113.55 131.909 127.553 129.41 132.097C130.769 133.577 132.336 134.856 134.062 135.895C134.676 136.265 135.283 136.593 135.897 136.9L147.191 111.965L152.075 96.8239L146.725 93.0962Z" fill="white" stroke="#263238" stroke-linecap="round" stroke-linejoin="round"/>
<path d="M182.78 47.8405C182.78 47.8405 181.213 37.4882 175.016 35.5405C168.819 33.5929 159.664 41.1251 156.198 46.7655C152.732 52.4059 148.116 74.2834 146.838 78.744C145.56 83.2047 137.436 95.1696 137.436 95.1696C137.436 95.1696 140.125 100.482 149.605 102.08C159.085 103.679 161.647 102.723 161.647 102.723C161.647 102.723 166.962 87.1557 171.614 81.0267C176.265 74.8977 182.202 64.1125 183.246 57.5507C184.291 50.9888 182.78 47.8405 182.78 47.8405Z" fill="#FF4747" stroke="#263238" stroke-linecap="round" stroke-linejoin="round"/>
<path d="M162.854 122.105L148.708 121.13L148.521 123.776L162.667 124.752L162.854 122.105Z" fill="white" stroke="#263238" stroke-linecap="round" stroke-linejoin="round"/>
<path d="M163.348 128.119C163.511 128.131 163.675 128.111 163.83 128.061C163.985 128.01 164.128 127.929 164.252 127.824C164.375 127.718 164.476 127.589 164.549 127.444C164.621 127.3 164.664 127.142 164.675 126.981L165.155 120.182C165.178 119.857 165.07 119.536 164.854 119.29C164.639 119.044 164.333 118.893 164.004 118.869C163.676 118.846 163.352 118.953 163.103 119.167C162.854 119.38 162.701 119.682 162.677 120.007L162.197 126.806C162.174 127.131 162.282 127.452 162.498 127.698C162.714 127.944 163.019 128.095 163.348 128.119Z" fill="white" stroke="#263238" stroke-linecap="round" stroke-linejoin="round"/>
<path d="M147.565 127.029C147.728 127.041 147.892 127.02 148.047 126.969C148.202 126.917 148.346 126.836 148.469 126.73C148.592 126.623 148.693 126.494 148.766 126.349C148.838 126.204 148.881 126.046 148.892 125.885L149.372 119.092C149.393 118.767 149.284 118.446 149.067 118.2C148.85 117.954 148.543 117.803 148.214 117.78C147.886 117.757 147.562 117.864 147.313 118.077C147.064 118.291 146.911 118.593 146.887 118.918L146.407 125.717C146.386 126.043 146.496 126.363 146.713 126.609C146.93 126.855 147.236 127.006 147.565 127.029Z" fill="white" stroke="#263238" stroke-linecap="round" stroke-linejoin="round"/>
<path d="M179.047 45.9139C179.076 44.5733 178.752 43.2482 178.107 42.0688C177.462 40.8894 176.518 39.8964 175.367 39.1872C174.216 38.4781 172.899 38.0772 171.544 38.0241C170.189 37.971 168.844 38.2675 167.64 38.8843C166.198 39.6204 164.859 40.5404 163.659 41.6208C157.306 47.2542 157.885 52.7899 159.247 55.1703C159.247 55.1703 157.433 61.8717 157.779 65.1178C158.125 68.3638 157.334 74.1927 156.995 78.9116C156.657 83.6306 153.593 89.1104 154.61 93.7386C155.626 98.3668 154.306 114.394 154.306 114.394C154.306 114.394 152.506 118.059 152.189 120.126C152.065 121.571 152.413 123.017 153.184 124.251L151.426 124.174C151.44 124.673 151.558 125.164 151.773 125.616C151.988 126.068 152.295 126.471 152.676 126.799C153.946 127.832 157.814 127.344 157.814 127.344C157.814 127.344 160.115 127.344 160.377 126.38C160.638 125.417 160.518 121.647 160.666 119.574C160.662 117.47 160.49 115.369 160.151 113.292C160.151 113.292 165.706 91.6514 166.023 87.1418C166.23 84.5514 166.23 81.9489 166.023 79.3584C166.023 79.3584 170.732 72.4754 171.762 68.7547C172.459 65.9184 172.919 63.0303 173.139 60.1196C173.139 60.1196 178.411 56.1197 178.849 49.8929C178.912 48.2873 179.018 47.0099 179.047 45.9139Z" fill="white"/>
<mask id="mask3_133_433" style="mask-type:luminance" maskUnits="userSpaceOnUse" x="151" y="38" width="29" height="90">
<path d="M179.047 45.9139C179.076 44.5733 178.752 43.2482 178.107 42.0688C177.462 40.8894 176.518 39.8964 175.367 39.1872C174.216 38.4781 172.899 38.0772 171.544 38.0241C170.189 37.971 168.844 38.2675 167.64 38.8843C166.198 39.6204 164.859 40.5404 163.659 41.6208C157.306 47.2542 157.885 52.7899 159.247 55.1703C159.247 55.1703 157.433 61.8717 157.779 65.1178C158.125 68.3638 157.334 74.1927 156.995 78.9116C156.657 83.6306 153.593 89.1104 154.61 93.7386C155.626 98.3668 154.306 114.394 154.306 114.394C154.306 114.394 152.506 118.059 152.189 120.126C152.065 121.571 152.413 123.017 153.184 124.251L151.426 124.174C151.44 124.673 151.558 125.164 151.773 125.616C151.988 126.068 152.295 126.471 152.676 126.799C153.946 127.832 157.814 127.344 157.814 127.344C157.814 127.344 160.115 127.344 160.377 126.38C160.638 125.417 160.518 121.647 160.666 119.574C160.662 117.47 160.49 115.369 160.151 113.292C160.151 113.292 165.706 91.6514 166.023 87.1418C166.23 84.5514 166.23 81.9489 166.023 79.3584C166.023 79.3584 170.732 72.4754 171.762 68.7547C172.459 65.9184 172.919 63.0303 173.139 60.1196C173.139 60.1196 178.411 56.1197 178.849 49.8929C178.912 48.2873 179.018 47.0099 179.047 45.9139Z" fill="white"/>
</mask>
<g mask="url(#mask3_133_433)">
<path d="M169.405 38.1863C168.794 38.3303 168.201 38.5435 167.64 38.8215C166.198 39.5576 164.859 40.4776 163.659 41.558C157.306 47.1914 157.885 52.7271 159.247 55.1075C159.247 55.1075 157.433 61.8089 157.779 65.0549C158.125 68.301 157.334 74.1299 156.995 78.8488C156.657 83.5677 153.593 89.0476 154.61 93.6758C155.626 98.304 154.306 114.332 154.306 114.332C154.306 114.332 152.506 117.997 152.189 120.063C152.065 121.508 152.413 122.954 153.184 124.188L151.426 124.112C151.44 124.611 151.558 125.102 151.773 125.553C151.988 126.005 152.295 126.408 152.676 126.736C153.946 127.769 157.814 127.281 157.814 127.281C157.814 127.281 160.115 127.281 160.377 126.317C160.445 125.998 160.485 125.673 160.497 125.347C159.508 124.747 158.471 124.223 157.828 123.839C155.457 122.443 157.355 117.752 157.588 113.536C157.821 109.32 158.061 98.7857 159.706 96.2168C161.351 93.6479 161.598 99.7071 161.598 94.1226C161.598 88.538 160.892 84.9918 160.892 82.1786C160.892 79.3654 162.304 77.2921 164.675 72.5871C167.047 67.8821 164.202 64.1545 164.915 62.2836C165.628 60.4128 171.07 56.1965 172.489 49.6416C172.925 47.7994 172.956 45.8864 172.583 44.0311C172.209 42.1757 171.438 40.4208 170.322 38.8843L169.405 38.1863Z" fill="#FF4747"/>
<path opacity="0.5" d="M169.405 38.1863C168.794 38.3303 168.201 38.5435 167.64 38.8215C166.198 39.5576 164.859 40.4776 163.659 41.558C157.306 47.1914 157.885 52.7271 159.247 55.1075C159.247 55.1075 157.433 61.8089 157.779 65.0549C158.125 68.301 157.334 74.1299 156.995 78.8488C156.657 83.5677 153.593 89.0476 154.61 93.6758C155.626 98.304 154.306 114.332 154.306 114.332C154.306 114.332 152.506 117.997 152.189 120.063C152.065 121.508 152.413 122.954 153.184 124.188L151.426 124.112C151.44 124.611 151.558 125.102 151.773 125.553C151.988 126.005 152.295 126.408 152.676 126.736C153.946 127.769 157.814 127.281 157.814 127.281C157.814 127.281 160.115 127.281 160.377 126.317C160.445 125.998 160.485 125.673 160.497 125.347C159.508 124.747 158.471 124.223 157.828 123.839C155.457 122.443 157.355 117.752 157.588 113.536C157.821 109.32 158.061 98.7857 159.706 96.2168C161.351 93.6479 161.598 99.7071 161.598 94.1226C161.598 88.538 160.892 84.9918 160.892 82.1786C160.892 79.3654 162.304 77.2921 164.675 72.5871C167.047 67.8821 164.202 64.1545 164.915 62.2836C165.628 60.4128 171.07 56.1965 172.489 49.6416C172.925 47.7994 172.956 45.8864 172.583 44.0311C172.209 42.1757 171.438 40.4208 170.322 38.8843L169.405 38.1863Z" fill="white"/>
</g>
<path d="M179.047 45.9139C179.076 44.5733 178.752 43.2482 178.107 42.0688C177.462 40.8894 176.518 39.8964 175.367 39.1872C174.216 38.4781 172.899 38.0772 171.544 38.0241C170.189 37.971 168.844 38.2675 167.64 38.8843C166.198 39.6204 164.859 40.5404 163.659 41.6208C157.306 47.2542 157.885 52.7899 159.247 55.1703C159.247 55.1703 157.433 61.8717 157.779 65.1178C158.125 68.3638 157.334 74.1927 156.995 78.9116C156.657 83.6306 153.593 89.1104 154.61 93.7386C155.626 98.3668 154.306 114.394 154.306 114.394C154.306 114.394 152.506 118.059 152.189 120.126C152.065 121.571 152.413 123.017 153.184 124.251L151.426 124.174C151.44 124.673 151.558 125.164 151.773 125.616C151.988 126.068 152.295 126.471 152.676 126.799C153.946 127.832 157.814 127.344 157.814 127.344C157.814 127.344 160.115 127.344 160.377 126.38C160.638 125.417 160.518 121.647 160.666 119.574C160.662 117.47 160.49 115.369 160.151 113.292C160.151 113.292 165.706 91.6514 166.023 87.1418C166.23 84.5514 166.23 81.9489 166.023 79.3584C166.023 79.3584 170.732 72.4754 171.762 68.7547C172.459 65.9184 172.919 63.0303 173.139 60.1196C173.139 60.1196 178.411 56.1197 178.849 49.8929C178.912 48.2873 179.018 47.0099 179.047 45.9139Z" stroke="#263238" stroke-linecap="round" stroke-linejoin="round"/>
<path d="M173.096 60.0706L167.865 62.0112" stroke="#263238" stroke-linecap="round" stroke-linejoin="round"/>
<path d="M159.247 55.1352L163.094 46.863" stroke="#263238" stroke-linecap="round" stroke-linejoin="round"/>
<path d="M109.83 100.789C107.995 97.5152 106.018 93.8852 104.352 92.2168C101.903 89.7596 100.823 91.6584 99.5737 92.866C98.3243 94.0737 92.5645 102.409 90.4469 103.323C88.3293 104.238 87.7294 110.395 89.7411 113.033C91.7528 115.672 93.6233 114.744 93.6233 114.744C94.1999 113.742 94.6098 112.656 94.8374 111.525C95.2538 109.564 103.011 106.087 103.011 106.087C103.809 104.488 104.712 102.942 105.715 101.459C106.555 100.196 108.376 100.377 109.83 100.789Z" fill="#FF4747" stroke="#263238" stroke-linecap="round" stroke-linejoin="round"/>
<path d="M104.352 92.2168C101.903 89.7596 100.823 91.6584 99.5737 92.866C98.3243 94.0737 92.5645 102.409 90.4469 103.323C88.3293 104.238 87.7294 110.395 89.7411 113.033C90.191 113.679 90.7914 114.208 91.4916 114.576C89.8611 112.482 89.8964 109.759 90.2916 107.03C90.7222 104.028 92.8963 103.379 97.0185 99.0858C99.3485 96.6613 101.901 94.4553 104.642 92.4961C104.564 92.3983 104.437 92.3076 104.352 92.2168Z" fill="#263238" stroke="#263238" stroke-linecap="round" stroke-linejoin="round"/>
<path d="M181.051 169.151C176.908 166.003 175.404 164.6 175.404 164.6C175.404 164.6 175.122 166.184 171.804 166.736C169.503 167.12 166.906 165.954 165.155 165.298C164.061 167.392 163.511 169.165 163.616 170.219C163.842 172.425 164.019 176.404 167.357 176.076C170.696 175.748 174.416 174.924 176.971 175.559C179.526 176.195 184.079 176.851 187.192 176.537C190.305 176.222 191.554 175.217 191.484 174.554C191.413 173.891 185.195 172.292 181.051 169.151Z" fill="#FF4747" stroke="#263238" stroke-linecap="round" stroke-linejoin="round"/>
<path d="M191.491 174.554C191.491 174.47 191.364 174.359 191.152 174.24C185.759 176.585 180.797 173.933 176.943 173.2C172.545 172.369 170.908 174.177 166.546 173.989C165.753 173.965 164.963 173.869 164.188 173.702C164.647 175.099 165.522 176.257 167.364 176.076C170.703 175.741 174.423 174.924 176.978 175.559C179.533 176.194 184.086 176.851 187.199 176.537C190.312 176.222 191.561 175.217 191.491 174.554Z" fill="#263238" stroke="#263238" stroke-linecap="round" stroke-linejoin="round"/>
<path d="M176.865 121.696L182.399 123.672" stroke="#263238" stroke-linecap="round" stroke-linejoin="round"/>
<path d="M1 177.018H279.37" stroke="#263238" stroke-width="2" stroke-linecap="round" stroke-linejoin="round"/>
</svg>
