<svg width="281" height="178" viewBox="0 0 281 178" fill="none" xmlns="http://www.w3.org/2000/svg">
<path d="M104.67 176.361L102.559 176.48L98.437 120.551L102.736 120.313L104.67 176.361Z" fill="#FF4747" stroke="#263238" stroke-linecap="round" stroke-linejoin="round"/>
<path d="M55.0337 119.301C55.0337 119.301 56.0431 114.296 58.323 114.045C60.6029 113.793 100.59 114.045 100.59 114.045C100.59 114.045 104.889 113.542 105.143 118.296L55.0337 119.301Z" fill="#263238" stroke="#263238" stroke-linecap="round" stroke-linejoin="round"/>
<path d="M105.397 116.795H51.7441V123.05H105.397V116.795Z" fill="#FF4747" stroke="#263238" stroke-linecap="round" stroke-linejoin="round"/>
<path d="M48.7088 56.4747C48.7088 56.4747 51.2358 55.4765 51.9981 59.7277C52.7605 63.979 60.0943 108.767 59.8402 111.036C59.5861 113.305 55.5415 115.043 55.5415 115.043L47.6924 56.4747H48.7088Z" fill="#263238" stroke="#263238" stroke-linecap="round" stroke-linejoin="round"/>
<path d="M44.4033 55.4766C44.4033 55.4766 51.9984 103.532 51.4619 121.549C50.9255 139.566 45.7656 176.368 45.7656 176.368H47.5373C47.5373 176.368 55.6265 139.329 57.1441 123.057L48.6738 56.4749C48.6738 56.4749 45.6668 53.7245 44.4033 55.4766Z" fill="#FF4747" stroke="#263238" stroke-linecap="round" stroke-linejoin="round"/>
<path d="M176.929 26.8975C175.345 22.8289 174.418 18.5392 174.183 14.1857C173.894 7.33765 177.416 0.922398 186.063 0.775804C194.709 0.629209 202.043 2.63964 202.551 6.27658C203.06 9.91352 199.333 11.1631 199.333 11.1631C199.333 11.1631 201.168 17.7389 200.702 18.8418C200.236 19.9448 199.029 20.8104 199.29 22.1576C199.552 23.5049 201.549 25.5433 200.526 26.4159C199.502 27.2885 198.5 27.9865 198.5 27.9865C198.5 27.9865 195.373 34.2203 193.954 35.2604C192.535 36.3005 190.277 35.763 190.277 35.763L188.597 35.0649C188.597 35.0649 185.413 36.7403 184.474 39.1417C183.536 41.543 182.032 46.5621 182.032 46.5621C182.032 46.5621 177.74 39.4418 174.726 38.66C172.606 38.1545 170.449 37.8161 168.275 37.6478C168.275 37.6478 176.308 30.2692 176.929 26.8975Z" fill="white"/>
<mask id="mask0_133_222" style="mask-type:luminance" maskUnits="userSpaceOnUse" x="168" y="0" width="35" height="47">
<path d="M176.929 26.8975C175.345 22.8289 174.418 18.5392 174.183 14.1857C173.894 7.33765 177.416 0.922398 186.063 0.775804C194.709 0.629209 202.043 2.63964 202.551 6.27658C203.06 9.91352 199.333 11.1631 199.333 11.1631C199.333 11.1631 201.168 17.7389 200.702 18.8418C200.236 19.9448 199.029 20.8104 199.29 22.1576C199.552 23.5049 201.549 25.5433 200.526 26.4159C199.502 27.2885 198.5 27.9865 198.5 27.9865C198.5 27.9865 195.373 34.2203 193.954 35.2604C192.535 36.3005 190.277 35.763 190.277 35.763L188.597 35.0649C188.597 35.0649 185.413 36.7403 184.474 39.1417C183.536 41.543 182.032 46.5621 182.032 46.5621C182.032 46.5621 177.74 39.4418 174.726 38.66C172.606 38.1545 170.449 37.8161 168.275 37.6478C168.275 37.6478 176.308 30.2692 176.929 26.8975Z" fill="white"/>
</mask>
<g mask="url(#mask0_133_222)">
<path d="M188.625 35.0996L190.305 35.7977C191.066 35.9585 191.852 35.9775 192.62 35.8536C190.573 34.597 184.997 31.2044 186.225 28.7751C187.524 26.2132 189.677 23.4419 189.465 21.0964C189.253 18.7509 192.705 15.5467 193.347 11.7073C193.82 8.91507 189.5 3.52598 187.107 0.789551H186.063C177.416 0.957087 173.894 7.35139 174.183 14.1994C174.418 18.5529 175.345 22.8427 176.929 26.9113C176.308 30.283 168.303 37.6965 168.303 37.6965C170.477 37.8647 172.635 38.2032 174.755 38.7087C177.769 39.4905 182.06 46.6108 182.06 46.6108C182.06 46.6108 183.564 41.5917 184.503 39.1903C185.442 36.789 188.625 35.0996 188.625 35.0996Z" fill="#FF4747"/>
<path opacity="0.5" d="M188.625 35.0996L190.305 35.7977C191.066 35.9585 191.852 35.9775 192.62 35.8536C190.573 34.597 184.997 31.2044 186.225 28.7751C187.524 26.2132 189.677 23.4419 189.465 21.0964C189.253 18.7509 192.705 15.5467 193.347 11.7073C193.82 8.91507 189.5 3.52598 187.107 0.789551H186.063C177.416 0.957087 173.894 7.35139 174.183 14.1994C174.418 18.5529 175.345 22.8427 176.929 26.9113C176.308 30.283 168.303 37.6965 168.303 37.6965C170.477 37.8647 172.635 38.2032 174.755 38.7087C177.769 39.4905 182.06 46.6108 182.06 46.6108C182.06 46.6108 183.564 41.5917 184.503 39.1903C185.442 36.789 188.625 35.0996 188.625 35.0996Z" fill="white"/>
</g>
<path d="M176.929 26.8975C175.345 22.8289 174.418 18.5392 174.183 14.1857C173.894 7.33765 177.416 0.922398 186.063 0.775804C194.709 0.629209 202.043 2.63964 202.551 6.27658C203.06 9.91352 199.333 11.1631 199.333 11.1631C199.333 11.1631 201.168 17.7389 200.702 18.8418C200.236 19.9448 199.029 20.8104 199.29 22.1576C199.552 23.5049 201.549 25.5433 200.526 26.4159C199.502 27.2885 198.5 27.9865 198.5 27.9865C198.5 27.9865 195.373 34.2203 193.954 35.2604C192.535 36.3005 190.277 35.763 190.277 35.763L188.597 35.0649C188.597 35.0649 185.413 36.7403 184.474 39.1417C183.536 41.543 182.032 46.5621 182.032 46.5621C182.032 46.5621 177.74 39.4418 174.726 38.66C172.606 38.1545 170.449 37.8161 168.275 37.6478C168.275 37.6478 176.308 30.2692 176.929 26.8975Z" stroke="#263238" stroke-linecap="round" stroke-linejoin="round"/>
<path d="M199.382 11.3793C199.347 11.2537 199.333 11.1769 199.333 11.1769C199.333 11.1769 203.06 9.92035 202.551 6.29039C202.043 2.66043 194.702 0.629056 186.062 0.789611C177.423 0.950167 173.893 7.35145 174.183 14.1995C174.416 18.501 175.326 22.7402 176.879 26.7648C177.98 26.3808 180.027 25.6688 180.867 25.4524C181.473 25.3401 182.029 25.0479 182.463 24.6147C182.463 24.6147 178.362 20.161 178.933 17.7317C179.505 15.3025 183.232 13.8505 184.284 15.2536C185.335 16.6567 184.46 20.9568 184.46 20.9568C184.46 20.9568 185.208 21.2011 185.667 20.0912C186.126 18.9813 185.83 17.8295 187.785 17.0127C189.74 16.196 191.724 15.6166 191.963 14.8348C192.203 14.0529 189.931 11.0931 190.594 9.80866C191.152 8.75458 197.307 10.6882 199.382 11.3793Z" fill="#263238" stroke="#263238" stroke-linecap="round" stroke-linejoin="round"/>
<path d="M198.641 18.9465C198.641 18.9465 197.173 16.7825 195.479 17.8086" stroke="#263238" stroke-linecap="round" stroke-linejoin="round"/>
<path d="M197.484 21.9552C197.434 22.6532 197.095 23.1558 196.721 23.1349C196.347 23.114 196.093 22.5415 196.142 21.8644C196.192 21.1873 196.524 20.6637 196.898 20.6847C197.272 20.7056 197.526 21.278 197.484 21.9552Z" fill="#263238"/>
<path d="M195.69 30.5764L194.3 29.9761" stroke="#263238" stroke-linecap="round" stroke-linejoin="round"/>
<path d="M184.503 39.1765L185.484 32.9497" stroke="#263238" stroke-linecap="round" stroke-linejoin="round"/>
<path d="M183.211 25.9482C183.137 27.0768 183.256 28.2097 183.564 29.299C184.058 30.6951 187.256 33.0755 187.256 33.0755" stroke="#263238" stroke-linecap="round" stroke-linejoin="round"/>
<path d="M137.683 134.868C137.683 134.868 129.918 142.763 127.448 143.245C124.977 143.726 122.246 140.662 119.789 137.388C117.333 134.114 109.201 115.385 107.253 112.313C105.305 109.242 102.983 105.451 102.983 105.451C102.983 105.451 95.2183 108.941 94.8089 110.889C94.5813 112.019 94.1714 113.106 93.5948 114.107C93.5948 114.107 91.7031 115.036 89.7126 112.397C87.7221 109.758 88.3009 103.594 90.4184 102.687C92.536 101.779 98.2958 93.4443 99.5452 92.2157C100.795 90.9871 101.875 89.1092 104.324 91.5664C106.773 94.0236 109.971 100.781 112.279 104.341C114.587 107.901 118.794 112.92 122.069 117.36C124.688 120.906 129.834 125.206 129.834 125.206L137.683 134.868Z" fill="white"/>
<mask id="mask1_133_222" style="mask-type:luminance" maskUnits="userSpaceOnUse" x="88" y="90" width="50" height="54">
<path d="M137.683 134.868C137.683 134.868 129.918 142.763 127.448 143.245C124.977 143.726 122.246 140.662 119.789 137.388C117.333 134.114 109.201 115.385 107.253 112.313C105.305 109.242 102.983 105.451 102.983 105.451C102.983 105.451 95.2183 108.941 94.8089 110.889C94.5813 112.019 94.1714 113.106 93.5948 114.107C93.5948 114.107 91.7031 115.036 89.7126 112.397C87.7221 109.758 88.3009 103.594 90.4184 102.687C92.536 101.779 98.2958 93.4443 99.5452 92.2157C100.795 90.9871 101.875 89.1092 104.324 91.5664C106.773 94.0236 109.971 100.781 112.279 104.341C114.587 107.901 118.794 112.92 122.069 117.36C124.688 120.906 129.834 125.206 129.834 125.206L137.683 134.868Z" fill="white"/>
</mask>
<g mask="url(#mask1_133_222)">
<path d="M129.841 125.234C129.841 125.234 124.716 120.934 122.076 117.388C118.822 112.955 114.658 107.929 112.328 104.369C110.917 102.198 109.166 98.8403 107.479 95.9922C101.126 90.1633 101.395 96.3063 99.5241 101.242C98.9805 102.638 99.4394 104.53 100.505 106.68C101.917 105.982 103.004 105.465 103.004 105.465C103.004 105.465 105.333 109.249 107.274 112.327C108.157 113.723 110.331 118.372 112.66 123.329C113.26 124.11 113.839 124.885 114.389 125.646C120.742 134.407 123.248 142.854 126.389 141.911C129.53 140.969 133.031 132.215 133.031 132.215L133.257 129.423L129.841 125.234Z" fill="#FF4747"/>
<path opacity="0.5" d="M129.841 125.234C129.841 125.234 124.716 120.934 122.076 117.388C118.822 112.955 114.658 107.929 112.328 104.369C110.917 102.198 109.166 98.8403 107.479 95.9922C101.126 90.1633 101.395 96.3063 99.5241 101.242C98.9805 102.638 99.4394 104.53 100.505 106.68C101.917 105.982 103.004 105.465 103.004 105.465C103.004 105.465 105.333 109.249 107.274 112.327C108.157 113.723 110.331 118.372 112.66 123.329C113.26 124.11 113.839 124.885 114.389 125.646C120.742 134.407 123.248 142.854 126.389 141.911C129.53 140.969 133.031 132.215 133.031 132.215L133.257 129.423L129.841 125.234Z" fill="white"/>
</g>
<path d="M137.683 134.868C137.683 134.868 129.918 142.763 127.448 143.245C124.977 143.726 122.246 140.662 119.789 137.388C117.333 134.114 109.201 115.385 107.253 112.313C105.305 109.242 102.983 105.451 102.983 105.451C102.983 105.451 95.2183 108.941 94.8089 110.889C94.5813 112.019 94.1714 113.106 93.5948 114.107C93.5948 114.107 91.7031 115.036 89.7126 112.397C87.7221 109.758 88.3009 103.594 90.4184 102.687C92.536 101.779 98.2958 93.4443 99.5452 92.2157C100.795 90.9871 101.875 89.1092 104.324 91.5664C106.773 94.0236 109.971 100.781 112.279 104.341C114.587 107.901 118.794 112.92 122.069 117.36C124.688 120.906 129.834 125.206 129.834 125.206L137.683 134.868Z" stroke="#263238" stroke-linecap="round" stroke-linejoin="round"/>
<path d="M174.204 102.889C179.02 105.458 183.61 108.422 187.926 111.748C193.806 116.495 195.634 118.98 195.387 121.004C195.14 123.028 180.656 148.494 179.66 151.929C178.665 155.363 175.425 163.977 175.425 163.977C175.425 163.977 176.922 165.373 181.072 168.529C185.222 171.684 191.448 173.275 191.512 173.932C191.575 174.588 190.333 175.607 187.22 175.914C184.107 176.221 179.54 175.572 176.999 174.937C174.458 174.302 170.724 175.118 167.385 175.453C164.047 175.789 163.856 171.803 163.644 169.597C163.433 167.391 169.51 155.831 170.646 151.496C171.783 147.161 174.084 141.143 174.105 136.92C174.126 132.697 176.886 121.074 176.886 121.074L163.574 118.4L174.204 102.889Z" fill="white"/>
<mask id="mask2_133_222" style="mask-type:luminance" maskUnits="userSpaceOnUse" x="163" y="102" width="33" height="74">
<path d="M174.204 102.889C179.02 105.458 183.61 108.422 187.926 111.748C193.806 116.495 195.634 118.98 195.387 121.004C195.14 123.028 180.656 148.494 179.66 151.929C178.665 155.363 175.425 163.977 175.425 163.977C175.425 163.977 176.922 165.373 181.072 168.529C185.222 171.684 191.448 173.275 191.512 173.932C191.575 174.588 190.333 175.607 187.22 175.914C184.107 176.221 179.54 175.572 176.999 174.937C174.458 174.302 170.724 175.118 167.385 175.453C164.047 175.789 163.856 171.803 163.644 169.597C163.433 167.391 169.51 155.831 170.646 151.496C171.783 147.161 174.084 141.143 174.105 136.92C174.126 132.697 176.886 121.074 176.886 121.074L163.574 118.4L174.204 102.889Z" fill="white"/>
</mask>
<g mask="url(#mask2_133_222)">
<path d="M184.912 125.646C184.912 125.646 189.345 123.768 189.345 120.955C189.345 118.142 176.371 115.322 176.371 115.322C176.371 115.322 173.682 112.781 169.722 109.416L163.553 118.4L176.865 121.074C176.865 121.074 174.098 132.69 174.084 136.92C174.07 141.15 171.755 147.154 170.625 151.496C169.496 155.838 163.397 167.398 163.623 169.597C163.849 171.795 164.026 175.781 167.364 175.453C168.649 175.321 169.99 175.125 171.296 174.965C172.503 170.288 173.915 159.091 174.79 155.056C175.743 150.672 182.067 139.698 184.284 134.407C186.5 129.116 184.912 125.646 184.912 125.646Z" fill="#FF4747"/>
<path opacity="0.5" d="M184.912 125.646C184.912 125.646 189.345 123.768 189.345 120.955C189.345 118.142 176.371 115.322 176.371 115.322C176.371 115.322 173.682 112.781 169.722 109.416L163.553 118.4L176.865 121.074C176.865 121.074 174.098 132.69 174.084 136.92C174.07 141.15 171.755 147.154 170.625 151.496C169.496 155.838 163.397 167.398 163.623 169.597C163.849 171.795 164.026 175.781 167.364 175.453C168.649 175.321 169.99 175.125 171.296 174.965C172.503 170.288 173.915 159.091 174.79 155.056C175.743 150.672 182.067 139.698 184.284 134.407C186.5 129.116 184.912 125.646 184.912 125.646Z" fill="white"/>
</g>
<path d="M174.204 102.889C179.02 105.458 183.61 108.422 187.926 111.748C193.806 116.495 195.634 118.98 195.387 121.004C195.14 123.028 180.656 148.494 179.66 151.929C178.665 155.363 175.425 163.977 175.425 163.977C175.425 163.977 176.922 165.373 181.072 168.529C185.222 171.684 191.448 173.275 191.512 173.932C191.575 174.588 190.333 175.607 187.22 175.914C184.107 176.221 179.54 175.572 176.999 174.937C174.458 174.302 170.724 175.118 167.385 175.453C164.047 175.789 163.856 171.803 163.644 169.597C163.433 167.391 169.51 155.831 170.646 151.496C171.783 147.161 174.084 141.143 174.105 136.92C174.126 132.697 176.886 121.074 176.886 121.074L163.574 118.4L174.204 102.889Z" stroke="#263238" stroke-linecap="round" stroke-linejoin="round"/>
<path d="M170.322 38.2621C168.88 38.9999 167.542 39.9197 166.341 40.9986C159.988 46.632 160.567 52.1677 161.936 54.5481C161.936 54.5481 160.115 61.2495 160.461 64.4956C160.807 67.7416 160.016 73.5705 159.684 78.2894C159.353 83.0084 156.275 88.4882 157.292 93.1164C158.308 97.7446 156.988 113.772 156.988 113.772C156.988 113.772 155.195 117.437 154.87 119.503C154.81 119.927 154.81 120.357 154.87 120.781L151.934 120.578L152.082 118.484C152.106 118.158 151.997 117.837 151.781 117.59C151.564 117.343 151.258 117.192 150.928 117.168C150.599 117.145 150.273 117.252 150.024 117.467C149.774 117.681 149.621 117.984 149.598 118.31L149.118 125.109C149.107 125.27 149.128 125.432 149.18 125.585C149.232 125.739 149.314 125.88 149.422 126.002C149.529 126.124 149.66 126.224 149.806 126.296C149.953 126.368 150.112 126.41 150.275 126.421C150.438 126.432 150.602 126.411 150.757 126.36C150.912 126.308 151.055 126.227 151.178 126.121C151.302 126.014 151.403 125.885 151.475 125.74C151.548 125.595 151.591 125.438 151.602 125.276L151.75 123.182L155.809 123.461L155.887 123.587L154.122 123.51C154.136 124.009 154.254 124.5 154.469 124.952C154.684 125.404 154.991 125.807 155.372 126.135C156.642 127.168 160.51 126.68 160.51 126.68C160.51 126.68 162.818 126.68 163.072 125.716C163.182 125.143 163.236 124.561 163.235 123.978L165.056 124.104L164.908 126.198C164.884 126.524 164.993 126.845 165.209 127.092C165.426 127.339 165.732 127.491 166.062 127.514C166.391 127.537 166.717 127.43 166.966 127.216C167.216 127.002 167.369 126.698 167.392 126.372L167.872 119.573C167.896 119.247 167.787 118.926 167.571 118.679C167.354 118.432 167.048 118.281 166.718 118.257C166.389 118.234 166.063 118.341 165.814 118.556C165.564 118.77 165.411 119.073 165.388 119.399L165.239 121.493L163.284 121.36C163.284 120.474 163.284 119.622 163.362 118.945C163.358 116.841 163.186 114.74 162.847 112.662C162.847 112.662 168.402 91.0222 168.719 86.5127C168.928 83.9223 168.928 81.3196 168.719 78.7292C168.719 78.7292 173.42 71.8462 174.451 68.1255C175.148 65.2892 175.608 62.4012 175.827 59.4904C175.827 59.4904 181.1 55.4905 181.538 49.2637C181.651 47.707 181.75 46.4296 181.778 45.3336C181.82 43.9827 181.502 42.6445 180.858 41.4527C180.213 40.2609 179.264 39.2571 178.105 38.5415C176.946 37.8259 175.617 37.4235 174.251 37.3745C172.885 37.3255 171.53 37.6315 170.322 38.2621Z" fill="#263238" stroke="#263238" stroke-linecap="round" stroke-linejoin="round"/>
<path d="M138.749 94.3659C137.339 96.4607 136.336 98.7973 135.791 101.256C135.085 104.977 134.493 106.931 134.493 106.931C134.493 106.931 133.949 111.552 132.163 114.533C130.377 117.514 126.354 126.994 126.354 126.994C128.021 130.464 130.707 133.357 134.062 135.294C137.684 137.435 141.701 138.842 145.878 139.433L155.894 115.05L157.842 114.889L174.444 125.018C176.589 122.091 178.979 119.348 181.588 116.816C183.69 114.902 185.686 112.877 187.566 110.75C187.566 110.75 176.858 99.9016 170.449 95.7062C165.113 92.2158 162.529 90.7778 162.529 90.7778C162.529 90.7778 145.843 85.9821 138.749 94.3659Z" fill="#263238" stroke="#263238" stroke-linecap="round" stroke-linejoin="round"/>
<path d="M146.725 92.4739C146.725 92.4739 141.494 109.409 140.464 111.322C139.603 112.927 131.909 126.931 129.41 131.475C130.769 132.954 132.336 134.233 134.062 135.272C134.676 135.642 135.283 135.971 135.897 136.278L147.191 111.343L152.075 96.2016L146.725 92.4739Z" fill="white" stroke="#263238" stroke-linecap="round" stroke-linejoin="round"/>
<path d="M182.78 47.2182C182.78 47.2182 181.213 36.8658 175.016 34.9182C168.819 32.9706 159.664 40.5028 156.198 46.1432C152.732 51.7836 148.116 73.6611 146.838 78.1217C145.56 82.5824 137.436 94.5473 137.436 94.5473C137.436 94.5473 140.125 99.8596 149.605 101.458C159.085 103.057 161.647 102.1 161.647 102.1C161.647 102.1 166.962 86.5334 171.614 80.4044C176.265 74.2753 182.202 63.4902 183.246 56.9283C184.291 50.3665 182.78 47.2182 182.78 47.2182Z" fill="#FF4747" stroke="#263238" stroke-linecap="round" stroke-linejoin="round"/>
<path d="M162.854 121.483L148.708 120.507L148.521 123.154L162.667 124.129L162.854 121.483Z" fill="white" stroke="#263238" stroke-linecap="round" stroke-linejoin="round"/>
<path d="M163.348 127.496C163.511 127.509 163.675 127.489 163.83 127.438C163.985 127.388 164.128 127.307 164.252 127.201C164.375 127.096 164.476 126.967 164.549 126.822C164.621 126.677 164.664 126.52 164.675 126.359L165.155 119.559C165.178 119.234 165.07 118.914 164.854 118.668C164.639 118.422 164.333 118.27 164.004 118.247C163.676 118.224 163.352 118.331 163.103 118.544C162.854 118.758 162.701 119.06 162.677 119.385L162.197 126.184C162.174 126.509 162.282 126.83 162.498 127.076C162.714 127.322 163.019 127.473 163.348 127.496Z" fill="white" stroke="#263238" stroke-linecap="round" stroke-linejoin="round"/>
<path d="M147.565 126.407C147.728 126.418 147.892 126.398 148.047 126.346C148.202 126.295 148.346 126.214 148.469 126.107C148.592 126.001 148.693 125.872 148.766 125.726C148.838 125.581 148.881 125.424 148.892 125.262L149.372 118.47C149.393 118.144 149.284 117.824 149.067 117.578C148.85 117.332 148.543 117.181 148.214 117.158C147.886 117.135 147.562 117.241 147.313 117.455C147.064 117.668 146.911 117.971 146.887 118.295L146.407 125.095C146.386 125.42 146.496 125.741 146.713 125.987C146.93 126.233 147.236 126.384 147.565 126.407Z" fill="white" stroke="#263238" stroke-linecap="round" stroke-linejoin="round"/>
<path d="M179.047 45.2916C179.076 43.951 178.752 42.6259 178.107 41.4465C177.462 40.2671 176.518 39.274 175.367 38.5649C174.216 37.8557 172.899 37.4549 171.544 37.4018C170.189 37.3487 168.844 37.6452 167.64 38.262C166.198 38.9981 164.859 39.9181 163.659 40.9985C157.306 46.6319 157.885 52.1676 159.247 54.548C159.247 54.548 157.433 61.2494 157.779 64.4954C158.125 67.7415 157.334 73.5704 156.995 78.2893C156.657 83.0082 153.593 88.4881 154.61 93.1163C155.626 97.7445 154.306 113.772 154.306 113.772C154.306 113.772 152.506 117.437 152.189 119.503C152.065 120.948 152.413 122.395 153.184 123.629L151.426 123.552C151.44 124.051 151.558 124.542 151.773 124.994C151.988 125.446 152.295 125.848 152.676 126.177C153.946 127.21 157.814 126.721 157.814 126.721C157.814 126.721 160.115 126.721 160.377 125.758C160.638 124.795 160.518 121.025 160.666 118.952C160.662 116.847 160.49 114.747 160.151 112.669C160.151 112.669 165.706 91.0291 166.023 86.5195C166.23 83.9291 166.23 81.3265 166.023 78.7361C166.023 78.7361 170.732 71.8531 171.762 68.1324C172.459 65.2961 172.919 62.408 173.139 59.4973C173.139 59.4973 178.411 55.4974 178.849 49.2706C178.912 47.665 179.018 46.3876 179.047 45.2916Z" fill="white"/>
<mask id="mask3_133_222" style="mask-type:luminance" maskUnits="userSpaceOnUse" x="151" y="37" width="29" height="90">
<path d="M179.047 45.2916C179.076 43.951 178.752 42.6259 178.107 41.4465C177.462 40.2671 176.518 39.274 175.367 38.5649C174.216 37.8557 172.899 37.4549 171.544 37.4018C170.189 37.3487 168.844 37.6452 167.64 38.262C166.198 38.9981 164.859 39.9181 163.659 40.9985C157.306 46.6319 157.885 52.1676 159.247 54.548C159.247 54.548 157.433 61.2494 157.779 64.4954C158.125 67.7415 157.334 73.5704 156.995 78.2893C156.657 83.0082 153.593 88.4881 154.61 93.1163C155.626 97.7445 154.306 113.772 154.306 113.772C154.306 113.772 152.506 117.437 152.189 119.503C152.065 120.948 152.413 122.395 153.184 123.629L151.426 123.552C151.44 124.051 151.558 124.542 151.773 124.994C151.988 125.446 152.295 125.848 152.676 126.177C153.946 127.21 157.814 126.721 157.814 126.721C157.814 126.721 160.115 126.721 160.377 125.758C160.638 124.795 160.518 121.025 160.666 118.952C160.662 116.847 160.49 114.747 160.151 112.669C160.151 112.669 165.706 91.0291 166.023 86.5195C166.23 83.9291 166.23 81.3265 166.023 78.7361C166.023 78.7361 170.732 71.8531 171.762 68.1324C172.459 65.2961 172.919 62.408 173.139 59.4973C173.139 59.4973 178.411 55.4974 178.849 49.2706C178.912 47.665 179.018 46.3876 179.047 45.2916Z" fill="white"/>
</mask>
<g mask="url(#mask3_133_222)">
<path d="M169.405 37.564C168.794 37.708 168.201 37.9212 167.64 38.1992C166.198 38.9353 164.859 39.8552 163.659 40.9356C157.306 46.5691 157.885 52.1047 159.247 54.4852C159.247 54.4852 157.433 61.1866 157.779 64.4326C158.125 67.6787 157.334 73.5075 156.995 78.2265C156.657 82.9454 153.593 88.4253 154.61 93.0535C155.626 97.6817 154.306 113.709 154.306 113.709C154.306 113.709 152.506 117.374 152.189 119.44C152.065 120.886 152.413 122.332 153.184 123.566L151.426 123.489C151.44 123.988 151.558 124.479 151.773 124.931C151.988 125.383 152.295 125.786 152.676 126.114C153.946 127.147 157.814 126.659 157.814 126.659C157.814 126.659 160.115 126.659 160.377 125.695C160.445 125.376 160.485 125.051 160.497 124.725C159.508 124.125 158.471 123.601 157.828 123.217C155.457 121.821 157.355 117.13 157.588 112.914C157.821 108.697 158.061 98.1633 159.706 95.5944C161.351 93.0256 161.598 99.0848 161.598 93.5002C161.598 87.9157 160.892 84.3695 160.892 81.5563C160.892 78.743 162.304 76.6698 164.675 71.9648C167.047 67.2598 164.202 63.5321 164.915 61.6613C165.628 59.7905 171.07 55.5741 172.489 49.0193C172.925 47.1771 172.956 45.2641 172.583 43.4087C172.209 41.5534 171.438 39.7985 170.322 38.262L169.405 37.564Z" fill="#FF4747"/>
<path opacity="0.5" d="M169.405 37.564C168.794 37.708 168.201 37.9212 167.64 38.1992C166.198 38.9353 164.859 39.8552 163.659 40.9356C157.306 46.5691 157.885 52.1047 159.247 54.4852C159.247 54.4852 157.433 61.1866 157.779 64.4326C158.125 67.6787 157.334 73.5075 156.995 78.2265C156.657 82.9454 153.593 88.4253 154.61 93.0535C155.626 97.6817 154.306 113.709 154.306 113.709C154.306 113.709 152.506 117.374 152.189 119.44C152.065 120.886 152.413 122.332 153.184 123.566L151.426 123.489C151.44 123.988 151.558 124.479 151.773 124.931C151.988 125.383 152.295 125.786 152.676 126.114C153.946 127.147 157.814 126.659 157.814 126.659C157.814 126.659 160.115 126.659 160.377 125.695C160.445 125.376 160.485 125.051 160.497 124.725C159.508 124.125 158.471 123.601 157.828 123.217C155.457 121.821 157.355 117.13 157.588 112.914C157.821 108.697 158.061 98.1633 159.706 95.5944C161.351 93.0256 161.598 99.0848 161.598 93.5002C161.598 87.9157 160.892 84.3695 160.892 81.5563C160.892 78.743 162.304 76.6698 164.675 71.9648C167.047 67.2598 164.202 63.5321 164.915 61.6613C165.628 59.7905 171.07 55.5741 172.489 49.0193C172.925 47.1771 172.956 45.2641 172.583 43.4087C172.209 41.5534 171.438 39.7985 170.322 38.262L169.405 37.564Z" fill="white"/>
</g>
<path d="M179.047 45.2916C179.076 43.951 178.752 42.6259 178.107 41.4465C177.462 40.2671 176.518 39.274 175.367 38.5649C174.216 37.8557 172.899 37.4549 171.544 37.4018C170.189 37.3487 168.844 37.6452 167.64 38.262C166.198 38.9981 164.859 39.9181 163.659 40.9985C157.306 46.6319 157.885 52.1676 159.247 54.548C159.247 54.548 157.433 61.2494 157.779 64.4954C158.125 67.7415 157.334 73.5704 156.995 78.2893C156.657 83.0082 153.593 88.4881 154.61 93.1163C155.626 97.7445 154.306 113.772 154.306 113.772C154.306 113.772 152.506 117.437 152.189 119.503C152.065 120.948 152.413 122.395 153.184 123.629L151.426 123.552C151.44 124.051 151.558 124.542 151.773 124.994C151.988 125.446 152.295 125.848 152.676 126.177C153.946 127.21 157.814 126.721 157.814 126.721C157.814 126.721 160.115 126.721 160.377 125.758C160.638 124.795 160.518 121.025 160.666 118.952C160.662 116.847 160.49 114.747 160.151 112.669C160.151 112.669 165.706 91.0291 166.023 86.5195C166.23 83.9291 166.23 81.3265 166.023 78.7361C166.023 78.7361 170.732 71.8531 171.762 68.1324C172.459 65.2961 172.919 62.408 173.139 59.4973C173.139 59.4973 178.411 55.4974 178.849 49.2706C178.912 47.665 179.018 46.3876 179.047 45.2916Z" stroke="#263238" stroke-linecap="round" stroke-linejoin="round"/>
<path d="M173.096 59.4482L167.865 61.3889" stroke="#263238" stroke-linecap="round" stroke-linejoin="round"/>
<path d="M159.247 54.5128L163.094 46.2407" stroke="#263238" stroke-linecap="round" stroke-linejoin="round"/>
<path d="M109.83 100.167C107.995 96.8929 106.018 93.2629 104.352 91.5945C101.903 89.1373 100.823 91.0361 99.5737 92.2437C98.3243 93.4514 92.5645 101.786 90.4469 102.701C88.3293 103.615 87.7294 109.772 89.7411 112.411C91.7528 115.05 93.6233 114.121 93.6233 114.121C94.1999 113.12 94.6098 112.033 94.8374 110.903C95.2538 108.942 103.011 105.465 103.011 105.465C103.809 103.865 104.712 102.319 105.715 100.837C106.555 99.5735 108.376 99.755 109.83 100.167Z" fill="#FF4747" stroke="#263238" stroke-linecap="round" stroke-linejoin="round"/>
<path d="M104.352 91.5945C101.903 89.1373 100.823 91.0361 99.5737 92.2437C98.3243 93.4514 92.5645 101.786 90.4469 102.701C88.3293 103.615 87.7294 109.772 89.7411 112.411C90.191 113.057 90.7914 113.586 91.4916 113.954C89.8611 111.859 89.8964 109.137 90.2916 106.408C90.7222 103.406 92.8963 102.757 97.0185 98.4635C99.3485 96.039 101.901 93.833 104.642 91.8738C104.564 91.776 104.437 91.6853 104.352 91.5945Z" fill="#263238" stroke="#263238" stroke-linecap="round" stroke-linejoin="round"/>
<path d="M181.051 168.528C176.908 165.38 175.404 163.977 175.404 163.977C175.404 163.977 175.122 165.562 171.804 166.113C169.503 166.497 166.906 165.331 165.155 164.675C164.061 166.769 163.511 168.542 163.616 169.597C163.842 171.802 164.019 175.781 167.357 175.453C170.696 175.125 174.416 174.302 176.971 174.937C179.526 175.572 184.079 176.228 187.192 175.914C190.305 175.6 191.554 174.595 191.484 173.932C191.413 173.268 185.195 171.67 181.051 168.528Z" fill="#FF4747" stroke="#263238" stroke-linecap="round" stroke-linejoin="round"/>
<path d="M191.491 173.932C191.491 173.848 191.364 173.736 191.152 173.618C185.759 175.963 180.797 173.31 176.943 172.577C172.545 171.747 170.908 173.555 166.546 173.366C165.753 173.342 164.963 173.246 164.188 173.08C164.647 174.476 165.522 175.635 167.364 175.453C170.703 175.118 174.423 174.302 176.978 174.937C179.533 175.572 184.086 176.228 187.199 175.914C190.312 175.6 191.561 174.595 191.491 173.932Z" fill="#263238" stroke="#263238" stroke-linecap="round" stroke-linejoin="round"/>
<path d="M176.865 121.074L182.399 123.05" stroke="#263238" stroke-linecap="round" stroke-linejoin="round"/>
<path d="M1 176.396H279.37" stroke="#263238" stroke-width="2" stroke-linecap="round" stroke-linejoin="round"/>
</svg>
