<svg width="249" height="81" viewBox="0 0 249 81" fill="none" xmlns="http://www.w3.org/2000/svg">
<path d="M111.918 79.9446C173.728 79.9446 223.835 76.3256 223.835 71.8613C223.835 67.3971 173.728 63.7781 111.918 63.7781C50.1072 63.7781 0 67.3971 0 71.8613C0 76.3256 50.1072 79.9446 111.918 79.9446Z" fill="#F5F5F5"/>
<path d="M218.546 75.5585C235.081 73.0211 246.406 57.7074 243.84 41.3544C241.275 25.0015 225.79 13.8018 209.255 16.3392C192.719 18.8766 181.394 34.1903 183.96 50.5432C186.526 66.8962 202.01 78.0959 218.546 75.5585Z" fill="#FF182C"/>
<path opacity="0.7" d="M218.546 75.5585C235.081 73.0211 246.406 57.7074 243.84 41.3544C241.275 25.0015 225.79 13.8018 209.255 16.3392C192.719 18.8766 181.394 34.1903 183.96 50.5432C186.526 66.8962 202.01 78.0959 218.546 75.5585Z" fill="#98242E"/>
<path opacity="0.2" d="M211.575 25.4998C213.763 29.7298 210.224 31.3567 205.947 33.5202C201.67 35.6837 198.258 37.5561 196.071 33.3204C195.52 32.3108 195.179 31.2026 195.068 30.0608C194.957 28.919 195.077 27.7668 195.423 26.6718C195.768 25.5767 196.331 24.561 197.079 23.6842C197.827 22.8074 198.744 22.0873 199.777 21.5661C200.811 21.0449 201.939 20.7332 203.095 20.6493C204.252 20.5654 205.414 20.7109 206.513 21.0774C207.612 21.4438 208.626 22.0238 209.495 22.7832C210.365 23.5427 211.072 24.4663 211.575 25.4998Z" fill="white"/>
<path opacity="0.1" d="M243.011 37.5447C243.868 45.0008 241.866 52.5038 237.4 58.5706C232.934 64.6374 226.329 68.8266 218.891 70.31C211.453 71.7934 203.722 70.4632 197.228 66.5822C190.734 62.7012 185.948 56.552 183.816 49.3499C184.291 53.4753 185.627 57.4581 187.74 61.046C189.853 64.6338 192.696 67.7483 196.091 70.192C199.485 72.6357 203.355 74.3552 207.457 75.2416C211.558 76.128 215.801 76.1619 219.917 75.3411C224.032 74.5204 227.93 72.8629 231.364 70.4737C234.798 68.0846 237.692 65.0159 239.863 61.4623C242.034 57.9087 243.435 53.9477 243.977 49.8304C244.519 45.7132 244.19 41.5295 243.011 37.5447Z" fill="black"/>
<g opacity="0.3">
<path d="M241.919 57.3703C242.029 57.0963 242.138 56.7995 242.242 56.5426C240.262 58.2551 228.297 58.1752 212.175 55.2296C196.053 52.284 184.849 48.1339 183.614 45.8391C183.614 46.136 183.614 46.4385 183.614 46.7296C186.696 49.8179 199.591 53.5171 212.065 55.7948C224.539 58.0725 237.93 59.1685 241.919 57.3703Z" fill="white"/>
<path d="M238.288 63.7352C238.461 63.5012 238.629 63.2614 238.796 63.0274C235.448 64.1691 224.845 63.8665 211.032 61.3433C197.219 58.8202 187.204 55.3894 184.491 53.106C184.56 53.3857 184.63 53.6768 184.711 53.9451C188.693 56.7252 199.984 59.8762 210.934 61.8742C221.884 63.8722 233.561 64.9226 238.288 63.7352Z" fill="white"/>
<path d="M240.274 60.704C240.424 60.4357 240.58 60.1731 240.73 59.8991C238.392 61.4347 226.906 61.2977 211.563 58.5005C196.22 55.7034 185.444 51.7702 183.816 49.5039C183.856 49.8179 183.902 50.1204 183.954 50.4287C187.325 53.3914 199.591 56.8793 211.459 59.0485C223.327 61.2178 236.083 62.2853 240.274 60.704Z" fill="white"/>
</g>
<path d="M102.543 9.31877C102.543 9.31877 98.041 12.1102 97.4349 18.5894C96.8288 25.0685 101.937 28.5679 101.043 32.8607C100.148 37.1535 104.408 40.3788 103.807 43.3187C103.807 43.3187 107.369 43.0846 108.587 40.2989C109.805 37.5131 106.307 34.4077 106.307 34.4077C107.161 34.8823 107.907 35.5264 108.498 36.2994C109.089 37.0725 109.512 37.9579 109.741 38.9003C109.741 38.9003 111.381 34.2992 113.487 35.2183C113.487 35.2183 113.228 33.1461 112.333 32.1243C113.266 32.6558 113.951 33.5294 114.238 34.5561C114.238 34.5561 116.304 30.3489 119.935 31.6048C119.935 31.6048 122.913 23.9611 120.206 17.088C117.499 10.215 109.822 2.00617 102.543 9.31877Z" fill="black"/>
<path d="M53.7971 56.163C53.6869 55.9553 53.5189 55.7832 53.3128 55.667C53.1068 55.5508 52.8714 55.4955 52.6346 55.5075C52.3977 55.5195 52.1693 55.5984 51.9764 55.7348C51.7834 55.8712 51.6341 56.0594 51.5459 56.2772C50.836 57.9612 50.9687 61.1123 52.0019 65.9817C52.608 68.8017 51.6268 71.302 51.7191 73.2315C51.8115 75.1609 53.9414 74.2133 56.1579 73.6996C58.3745 73.1858 63.6618 73.6482 63.6618 73.6482L62.6575 68.4706C62.6575 68.4706 59.3096 69.0414 57.8261 65.348C56.7698 62.7392 55.0497 58.5149 53.7971 56.163Z" fill="#FFC2BC"/>
<path d="M130.031 57.0022C130.031 57.0022 148.306 59.1657 159.157 57.2819L161.755 58.9945C161.755 58.9945 150.886 70.2631 144.138 70.2631C137.39 70.2631 127.797 58.3266 127.797 58.3266L130.031 57.0022Z" fill="#FF182C"/>
<path d="M144.173 70.263C146.713 72.7919 149.628 72.1468 158.909 71.7701C167.354 71.4275 190.391 73.8251 191.73 64.1378C193.254 53.1146 161.588 52.2013 151.29 59.0344C145.708 62.7392 139.74 65.856 144.173 70.263Z" fill="#2F2D2D"/>
<path d="M61.4162 73.768L60.4927 67.8711C60.4927 67.8711 78.629 64.4973 95.3107 61.5403C111.992 58.5833 121.286 52.2012 144.109 59.3426C148.421 60.6955 146.481 67.3801 145.408 68.9614C144.415 70.4285 139.341 72.1639 126.937 71.0051C126.058 70.927 125.174 70.9404 124.299 71.045C115.579 72.0266 106.791 72.2672 98.0294 71.7643C98.0294 71.7643 90.1965 74.4815 61.4162 73.768Z" fill="#2F2D2D"/>
<path d="M112.633 32.4614C112.633 32.4614 108.252 31.1542 100.91 36.1263C93.5675 41.0984 86.941 41.0242 76.9493 45.1857C66.9575 49.3472 65.9243 49.3186 65.9243 49.3186L67.656 53.1947C67.656 53.1947 90.0003 49.1074 97.1232 46.6756C104.246 44.2438 108.137 38.3697 120.697 42.3257L112.633 32.4614Z" fill="#FFC2BC"/>
<path d="M128.871 57.6757C128.871 57.6757 132.132 60.4729 144.121 60.4843C156.11 60.4957 159.608 57.4132 159.608 57.4132C157.911 54.4927 156.463 51.4376 155.279 48.2795C153.784 44.158 154.043 45.4881 151.203 39.8538C145.691 28.922 143.786 22.7282 138.626 19.3031C137.064 18.2442 135.277 17.5536 133.402 17.2844C131.528 17.0152 129.616 17.1747 127.814 17.7504C123.243 19.2632 116.801 23.0593 110.082 32.3813C110.082 32.3813 115.646 37.6674 118.665 42.297C121.684 46.9266 128.553 47.8171 129.344 50.9283C130.579 55.7463 128.871 57.6757 128.871 57.6757Z" fill="#FFC2BC"/>
<path d="M143.971 57.613C155.96 57.613 159.977 54.4733 159.977 54.4733L153.553 44.2779C150.13 37.6846 149.887 37.6047 148.594 33.5802C147.567 30.3777 146.216 27.0268 143.832 24.3381C140.404 24.7777 129.708 26.3989 124.628 19.2004C124.003 19.5583 123.398 19.9489 122.816 20.3707C123.497 22.1689 123.855 24.8119 128.547 28.688C131.82 31.3938 130.856 34.9673 126.637 37.4677C123.283 39.4542 120.045 38.1641 114.625 31.3767L112.449 28.9392C111.831 29.7098 111.71 30.1779 111.058 31.0456L116.697 39.7625C117.416 40.5578 118.074 41.405 118.665 42.2971C121.684 46.9324 128.553 47.8172 129.344 50.9283C129.921 53.2688 129.817 54.2564 129.529 54.6503C129.484 54.7108 129.454 54.7803 129.439 54.8538C129.425 54.9273 129.427 55.0031 129.446 55.0756C129.465 55.1482 129.499 55.2157 129.548 55.2735C129.596 55.3312 129.656 55.3776 129.725 55.4095C131.439 56.2144 135.532 57.6016 143.971 57.613Z" fill="#FF182C"/>
<path opacity="0.6" d="M143.971 57.613C155.96 57.613 159.977 54.4733 159.977 54.4733L153.553 44.2779C150.13 37.6846 149.887 37.6047 148.594 33.5802C147.567 30.3777 146.216 27.0268 143.832 24.3381C140.404 24.7777 129.708 26.3989 124.628 19.2004C124.003 19.5583 123.398 19.9489 122.816 20.3707C123.497 22.1689 123.855 24.8119 128.547 28.688C131.82 31.3938 130.856 34.9673 126.637 37.4677C123.283 39.4542 120.045 38.1641 114.625 31.3767L112.449 28.9392C111.831 29.7098 111.71 30.1779 111.058 31.0456L116.697 39.7625C117.416 40.5578 118.074 41.405 118.665 42.2971C121.684 46.9324 128.553 47.8172 129.344 50.9283C129.921 53.2688 129.817 54.2564 129.529 54.6503C129.484 54.7108 129.454 54.7803 129.439 54.8538C129.425 54.9273 129.427 55.0031 129.446 55.0756C129.465 55.1482 129.499 55.2157 129.548 55.2735C129.596 55.3312 129.656 55.3776 129.725 55.4095C131.439 56.2144 135.532 57.6016 143.971 57.613Z" fill="#2F2D2D"/>
<path d="M120.195 19.9424C120.195 19.9424 121.649 21.4894 123.364 20.2792C123.364 20.2792 125.257 29.1331 119.987 30.7886C114.717 32.444 116.287 27.1808 116.287 27.1808L115.017 26.3416L120.195 19.9424Z" fill="#FFC2BC"/>
<path opacity="0.2" d="M115.387 28.9163C115.387 28.9163 117.695 30.3206 120.004 27.9858C122.313 25.651 120.039 19.6514 120.039 19.6514H117.205L115.387 23.1564L113.724 26.062L114.169 28.5909L115.387 28.9163Z" fill="black"/>
<path d="M113.546 11.2829C117.892 15.2446 119.82 16.8258 120.287 20.9873C120.992 27.2667 115.127 31.6851 109.672 29.0934C104.76 26.7586 98.4743 20.6791 100.298 14.7822C100.7 13.4851 101.428 12.3103 102.415 11.3685C103.402 10.4267 104.615 9.74889 105.941 9.39885C107.266 9.04882 108.659 9.0381 109.99 9.36771C111.32 9.69731 112.544 10.3564 113.546 11.2829Z" fill="#FFC2BC"/>
<path d="M112.316 25.9879C112.685 26.2904 112.83 26.7243 112.628 26.9697C112.426 27.2152 111.97 27.1581 111.594 26.8613C111.219 26.5644 111.081 26.1249 111.283 25.8851C111.485 25.6454 111.941 25.691 112.316 25.9879Z" fill="black"/>
<path d="M108.928 19.7484C109.303 20.0509 109.441 20.4905 109.245 20.7302C109.049 20.97 108.581 20.9243 108.212 20.6218C107.842 20.3192 107.698 19.8854 107.894 19.6456C108.091 19.4059 108.547 19.4515 108.928 19.7484Z" fill="black"/>
<path d="M105.228 23.5274C105.603 23.8243 105.741 24.2638 105.545 24.5036C105.349 24.7433 104.887 24.6977 104.512 24.4008C104.137 24.104 103.998 23.6587 104.194 23.419C104.391 23.1792 104.887 23.2077 105.228 23.5274Z" fill="black"/>
<path d="M104.194 23.436L103.207 24.1153C103.207 24.1153 104.31 24.2238 104.194 23.436Z" fill="black"/>
<path d="M107.138 22.9739C107.575 24.053 107.861 25.1862 107.987 26.3419C108.285 26.3031 108.57 26.2002 108.824 26.0404C109.077 25.8807 109.292 25.6679 109.453 25.4171L107.138 22.9739Z" fill="#EC837E"/>
<path d="M109.17 17.4479C109.14 17.4986 109.096 17.5386 109.042 17.5622C108.988 17.5859 108.927 17.5918 108.87 17.5792C107.594 17.3052 106.347 18.4184 106.336 18.4298C106.282 18.4821 106.209 18.5114 106.134 18.5114C106.058 18.5114 105.986 18.4821 105.932 18.4298C105.879 18.3774 105.85 18.3066 105.85 18.2328C105.85 18.1591 105.879 18.0883 105.932 18.0359C105.995 17.9788 107.415 16.7115 108.968 17.0483C109.041 17.0647 109.104 17.1084 109.145 17.1701C109.186 17.2319 109.201 17.3069 109.187 17.3794C109.185 17.403 109.179 17.4261 109.17 17.4479Z" fill="black"/>
<path d="M102.255 23.2079C102.23 23.2491 102.194 23.2833 102.152 23.3073C102.109 23.3313 102.061 23.3442 102.013 23.3449C101.976 23.3456 101.939 23.3391 101.905 23.3257C101.87 23.3123 101.839 23.2922 101.813 23.2667C101.787 23.2412 101.766 23.2107 101.751 23.1771C101.737 23.1434 101.73 23.1074 101.73 23.0709C101.717 22.6298 101.811 22.1921 102.005 21.7947C102.199 21.3973 102.487 21.0519 102.844 20.7875C102.874 20.767 102.908 20.7527 102.944 20.7454C102.98 20.7381 103.017 20.7379 103.053 20.7448C103.089 20.7517 103.123 20.7655 103.153 20.7856C103.184 20.8057 103.21 20.8316 103.23 20.8617C103.273 20.923 103.288 20.9984 103.274 21.0711C103.26 21.1439 103.217 21.2082 103.155 21.2499C102.875 21.4645 102.651 21.7422 102.501 22.06C102.352 22.3778 102.281 22.7263 102.295 23.0766C102.292 23.1229 102.279 23.1678 102.255 23.2079Z" fill="black"/>
<path d="M107.998 19.5544L107.011 20.2338C107.011 20.2338 108.085 20.3536 107.998 19.5544Z" fill="black"/>
<path d="M119.318 16.4659C119.318 16.4659 120.126 19.8225 122.088 22.0717C123.336 23.6129 124.212 25.4147 124.651 27.3406C124.963 26.0471 124.982 24.7012 124.707 23.3995C124.432 22.0978 123.868 20.8724 123.058 19.8111C120.276 15.9293 119.271 15.0845 119.271 15.0845L119.318 16.4659Z" fill="black"/>
<path d="M110.082 30.4177C110.082 30.4177 112.351 30.4976 112.657 34.191C112.963 37.8844 113.932 37.1024 113.234 39.8482L110.625 40.9899C110.868 39.8169 110.663 38.5962 110.048 37.5648C109.037 35.9664 109.112 33.2149 109.112 33.2149C108.673 34.5954 108.673 36.0758 109.112 37.4563C109.834 39.8938 107.889 40.7501 107.889 40.7501C107.889 40.7501 107.6 38.4039 106.734 37.3821C105.868 36.3603 105.47 32.7468 105.47 32.7468L110.082 30.4177Z" fill="black"/>
<path opacity="0.2" d="M183.21 62.1627C183.21 62.1627 175.354 58.6634 157.097 68.2594L169.051 70.2631L182.812 65.5364L183.21 62.1627Z" fill="black"/>
<path d="M149.373 70.0176C148.051 70.44 147.03 69.4467 146.487 68.1966C145.945 66.9464 143.601 67.306 142.504 67.7399C140.588 68.5219 140.859 69.9148 137.956 70.6284C132.963 71.8614 129.846 73.1573 128.351 74.5501C127.491 75.355 127.722 76.6166 128.743 76.6509C131.329 76.7308 135.861 76.4054 138.637 76.1942L149.8 74.8812L150.112 69.7778L149.373 70.0176Z" fill="#FFC2BC"/>
<path d="M149.223 69.4867C149.223 69.4867 157.091 68.9901 163.608 66.1929C170.124 63.3957 176.635 63.2816 180.439 62.5337C184.243 61.7859 192.053 61.5918 191.62 65.0683C191.187 68.5448 188.157 74.4132 177.94 74.4132C167.723 74.4132 149.223 75.3893 149.223 75.3893V69.4867Z" fill="#2F2D2D"/>
<path d="M61.093 48.9875L57.8894 51.134C57.7065 51.1861 57.5384 51.2799 57.3988 51.408L54.2356 54.2622C54.0736 54.4145 53.9571 54.608 53.8989 54.8215C53.8407 55.0349 53.8431 55.2601 53.9057 55.4723C53.9682 55.6845 54.0887 55.8757 54.2538 56.0247C54.4189 56.1737 54.6223 56.2749 54.8417 56.3173L55.2515 56.3858C55.4439 56.4201 55.6418 56.4084 55.8287 56.3515C55.8287 56.3515 60.4465 54.7874 62.0627 54.4449C63.1825 54.2051 65.5261 54.285 66.5997 53.874C67.2208 53.5004 67.8011 53.0643 68.3314 52.5725V49.3643L61.093 48.9875Z" fill="#FFC2BC"/>
<path d="M83.3972 4.5982C83.3972 4.5982 78.6409 3.4565 77.1286 3.88464C75.6163 4.31278 72.5108 6.37926 72.1414 7.93197C71.9221 8.891 72.9668 10.9746 73.8096 11.4941C74.9986 12.2191 78.0579 11.6996 79.4029 11.3228C80.5573 11.0089 83.4434 9.03942 83.4434 9.03942L84.5401 6.03676L83.3972 4.5982Z" fill="#FFC2BC"/>
<path d="M82.7388 4.21556L83.7778 8.51407C83.7778 8.51407 93.3192 7.70346 105.418 7.60071C112.148 7.54362 119.086 13.7488 119.086 13.7488C125.055 21.6436 131.855 23.4019 138.06 22.8424C145.893 22.1403 120.166 3.55909 111.086 1.32706C102.006 -0.90497 82.7388 4.21556 82.7388 4.21556Z" fill="#FFC2BC"/>
<path opacity="0.1" d="M140.784 22.2603C139.976 20.1424 135.075 15.9809 129.24 11.7852C129.361 11.8993 132.53 14.7079 134.215 17.6649C135.607 20.1082 139.231 24.0299 140.796 22.2888L140.784 22.2603Z" fill="black"/>
<path d="M128.871 57.6756L129.956 55.3465C129.956 55.3465 136.496 57.002 150.413 54.2391L158.107 52.2012L161.57 56.4312C161.57 56.4312 155.169 62.1054 144.219 63.6353C133.269 65.1652 128.871 57.6756 128.871 57.6756Z" fill="#2F2D2D"/>
<path d="M115.854 14.5309C113.316 15.2186 110.631 15.1611 108.125 14.3654C103.992 13.0296 106.607 19.8227 103.508 22.7683C103.508 22.7683 104.085 19.9483 103.375 18.7438C103.375 18.7438 103.484 21.6323 101.066 22.6941C101.066 22.6941 95.4841 17.0712 102.798 9.95269C102.798 9.95269 110.267 2.86843 116.518 13.275L115.854 14.5309Z" fill="black"/>
<path d="M114.919 14.7308C115.462 15.6514 115.616 16.747 115.346 17.7791C114.971 19.1434 113.563 19.1092 112.645 18.1273C111.814 17.2482 111.006 15.4729 111.871 14.394C112.065 14.1614 112.314 13.9802 112.596 13.8669C112.879 13.7537 113.185 13.7119 113.488 13.7453C113.79 13.7788 114.08 13.8864 114.33 14.0585C114.58 14.2306 114.782 14.4617 114.919 14.7308Z" fill="#FFC2BC"/>
</svg>
