<svg width="273" height="105" viewBox="0 0 273 105" fill="none" xmlns="http://www.w3.org/2000/svg">
<path d="M0 95.0509C0 95.3251 0.198126 95.5454 0.444914 95.5454H272.555C272.802 95.5454 273 95.3251 273 95.0509C273 94.7766 272.802 94.5564 272.555 94.5564H0.444914C0.198126 94.5564 0 94.7766 0 95.0509Z" fill="#484565"/>
<path d="M106.29 95.1331C102.739 95.8448 99.4965 94.5401 99.0511 92.223C98.6013 89.9017 101.116 87.4449 104.666 86.7332C106.08 86.4282 107.549 86.4791 108.941 86.873L164.555 78.041L166.658 89.0884L110.196 93.354C109.052 94.2605 107.712 94.8705 106.29 95.1331Z" fill="#FAAFB2"/>
<path d="M195.634 71.7802V79.3202C194.816 84.6491 191.942 86.0978 186.63 87.3093C178.527 89.1561 167.737 91.5241 167.579 91.0539C167.326 90.2999 161.218 77.4691 162.619 70.9246L195.638 71.7802H195.634Z" fill="#F13B46"/>
<path d="M195.265 88.2241L191.008 75.4146H209.648V87.038L195.265 88.2241Z" fill="#FAAFB2"/>
<path d="M217.393 89.7659C224.52 89.7659 230.298 84.0517 230.298 77.003C230.298 69.9542 224.52 64.24 217.393 64.24C210.265 64.24 204.487 69.9542 204.487 77.003C204.487 84.0517 210.265 89.7659 217.393 89.7659Z" fill="#FAAFB2"/>
<path d="M218.673 80.5062C218.737 78.367 220.922 76.9649 222.918 76.1347C224.91 75.3044 227.201 74.4488 228.024 72.4706C228.696 70.8482 224.151 67.9932 225.359 66.7097C226.619 65.3796 233.108 66.6758 234.273 68.0906C235.438 69.5054 235.665 71.4412 235.75 73.2627C235.956 77.7105 235.596 82.1836 234.675 86.5424C234.106 89.2365 233.253 92.0153 231.279 93.9596C228.777 96.4207 225.004 97.0519 221.479 97.2298C217.872 97.4119 214.094 97.2044 210.938 95.4719C207.781 93.7393 205.451 90.1049 206.256 86.6229C208.171 86.2713 210.132 86.6314 212.077 86.7627C214.022 86.894 216.116 86.7542 217.662 85.5851C219.209 84.416 219.821 81.9083 218.45 80.5443" fill="#36344E"/>
<path d="M214.201 96.2089C215.148 97.4839 215.936 99.0131 215.743 100.585C215.534 102.283 214.12 103.715 212.445 104.151C210.771 104.588 208.929 104.1 207.562 103.05C206.196 101.999 205.288 100.441 204.838 98.7886C204.577 97.8312 204.47 96.785 204.864 95.8742C205.447 94.5314 207.181 93.8071 208.56 94.3366" fill="#36344E"/>
<path d="M67.8135 85.2547H56.4287L55.5635 55.1497H66.233L67.8135 85.2547Z" fill="#FAAFB2"/>
<path d="M45.3392 94.9253C44.1399 94.9253 43.0777 94.8956 42.2724 94.8236C39.2485 94.5483 36.3616 92.3413 34.9095 91.0494C34.2585 90.469 34.0486 89.5456 34.387 88.7492C34.6311 88.1774 35.1151 87.7496 35.7191 87.5801L43.7116 85.3224L56.6513 76.6895L56.7969 76.9436C56.8526 77.041 58.1204 79.303 58.5487 80.8322C58.7115 81.4126 58.6687 81.8997 58.4202 82.2725C58.2489 82.5308 58.0133 82.6833 57.8206 82.7681C58.0562 83.0095 58.7886 83.5009 61.0502 83.8609C64.3482 84.3777 65.0464 80.9974 65.0721 80.8534L65.0935 80.739L65.192 80.6755C66.764 79.6758 67.7277 79.2226 68.0618 79.3157C68.2717 79.3793 68.6186 79.481 69.5567 88.6942C69.6509 88.9822 70.3105 91.1044 69.8608 93.1292C69.3725 95.3362 59.6324 94.5779 57.6835 94.4C57.6278 94.4085 50.3335 94.921 45.3349 94.921L45.3392 94.9253Z" fill="#36344E"/>
<path d="M160.614 45.8307L146.844 64.9433L144.377 68.366L136.684 64.8798C114.886 67.7348 107.836 49.6642 107.836 49.6642L89.5254 32.3349L78.9672 22.3465C81.2116 36.2955 66.2331 55.154 66.2331 55.154H55.5679C55.5679 55.154 56.2061 4.27586 67.1069 0.785428C68.6746 0.281349 71.7285 0.85744 75.8062 2.21295C100.071 10.2655 160.614 45.8307 160.614 45.8307Z" fill="#36344E"/>
<path d="M78.483 85.2547H67.0938L66.2329 55.1497L78.483 57.6828V85.2547Z" fill="#FAAFB2"/>
<path d="M56.0043 94.9253C54.805 94.9253 53.7427 94.8956 52.9375 94.8236C49.9135 94.5483 47.0266 92.3413 45.5746 91.0494C44.9235 90.469 44.7136 89.5456 45.052 88.7492C45.2962 88.1774 45.7802 87.7496 46.3841 87.5801L54.3766 85.3224L67.3163 76.6895L67.4619 76.9436C67.5176 77.041 68.7854 79.303 69.2138 80.8322C69.3765 81.4126 69.3337 81.8997 69.0853 82.2725C68.9139 82.5308 68.6784 82.6833 68.4856 82.7681C68.7212 83.0095 69.4536 83.5009 71.7152 83.8609C75.0133 84.3777 75.7114 80.9974 75.7371 80.8534L75.7586 80.739L75.8571 80.6755C77.429 79.6758 78.3928 79.2226 78.7269 79.3157C78.9367 79.3793 79.2837 79.481 80.2217 88.6942C80.3159 88.9822 80.9756 91.1044 80.5258 93.1292C80.0375 95.3362 70.2974 94.5779 68.3486 94.4C68.2929 94.4085 60.9985 94.921 56 94.921L56.0043 94.9253Z" fill="#36344E"/>
<path d="M160.614 45.8307L146.843 64.9434C125.444 67.4511 118.506 49.6642 118.506 49.6642L89.6322 22.3423C90.0606 25.0067 89.9621 28.4717 89.5209 32.3307C87.662 48.6688 78.483 57.6829 78.483 57.6829L66.2329 55.1456C66.2329 55.1456 66.794 12.68 75.8059 2.20874C100.071 10.2613 160.614 45.8265 160.614 45.8265V45.8307Z" fill="#36344E"/>
<path d="M202.316 75.4146L197.557 88.1988C192.884 91.5875 186.716 92.1763 181.465 89.7491C173.455 86.0469 162.734 80.2097 161.741 75.1012L144.376 68.366L149.195 37.6086L184.438 54.9549C189.715 57.5516 194.473 61.1013 198.35 65.4982C200.62 68.0695 202.581 70.9076 203.065 73.4025L202.316 75.4189V75.4146Z" fill="#F13B46"/>
<path d="M107.463 94.7984C103.87 95.2263 100.743 93.6717 100.482 91.325C100.221 88.9782 102.923 86.7247 106.521 86.2969C107.956 86.1062 109.412 86.2672 110.77 86.7755L166.919 82.3574L168.123 93.5319L111.498 93.3328C110.286 94.1461 108.903 94.6502 107.463 94.7984Z" fill="#FAAFB2"/>
<path d="M199.138 81.4298L197.686 88.83C195.857 93.9089 192.756 94.79 187.308 94.9764C178.998 95.2644 167.947 95.5525 167.883 95.0611C167.78 94.2732 164.255 80.5233 166.889 74.3684L199.138 81.4298Z" fill="#F13B46"/>
</svg>
