<svg width="249" height="80" viewBox="0 0 249 80" fill="none" xmlns="http://www.w3.org/2000/svg">
<path d="M111.918 79.5671C173.728 79.5671 223.835 75.9481 223.835 71.4839C223.835 67.0196 173.728 63.4006 111.918 63.4006C50.1072 63.4006 0 67.0196 0 71.4839C0 75.9481 50.1072 79.5671 111.918 79.5671Z" fill="#F5F5F5"/>
<path d="M218.546 75.181C235.081 72.6436 246.406 57.3299 243.84 40.977C241.275 24.624 225.79 13.4243 209.255 15.9618C192.719 18.4992 181.394 33.8128 183.96 50.1658C186.526 66.5187 202.01 77.7185 218.546 75.181Z" fill="#FF182C"/>
<path opacity="0.7" d="M218.546 75.181C235.081 72.6436 246.406 57.3299 243.84 40.977C241.275 24.624 225.79 13.4243 209.255 15.9618C192.719 18.4992 181.394 33.8128 183.96 50.1658C186.526 66.5187 202.01 77.7185 218.546 75.181Z" fill="#98242E"/>
<path opacity="0.2" d="M211.575 25.1223C213.763 29.3523 210.224 30.9792 205.947 33.1428C201.67 35.3063 198.258 37.1787 196.071 32.943C195.52 31.9333 195.179 30.8251 195.068 29.6834C194.957 28.5416 195.077 27.3893 195.423 26.2943C195.768 25.1993 196.331 24.1835 197.079 23.3068C197.827 22.43 198.744 21.7098 199.777 21.1887C200.811 20.6675 201.939 20.3558 203.095 20.2719C204.252 20.1879 205.414 20.3335 206.513 20.6999C207.612 21.0664 208.626 21.6464 209.495 22.4058C210.365 23.1653 211.072 24.0888 211.575 25.1223Z" fill="white"/>
<path opacity="0.1" d="M243.011 37.1672C243.868 44.6234 241.866 52.1264 237.4 58.1932C232.934 64.26 226.329 68.4491 218.891 69.9325C211.453 71.416 203.722 70.0857 197.228 66.2048C190.734 62.3238 185.948 56.1745 183.816 48.9724C184.291 53.0978 185.627 57.0807 187.74 60.6685C189.853 64.2563 192.696 67.3709 196.091 69.8145C199.485 72.2582 203.355 73.9778 207.457 74.8642C211.558 75.7506 215.801 75.7845 219.917 74.9637C224.032 74.1429 227.93 72.4855 231.364 70.0963C234.798 67.7072 237.692 64.6385 239.863 61.0849C242.034 57.5313 243.435 53.5703 243.977 49.453C244.519 45.3357 244.19 41.1521 243.011 37.1672Z" fill="black"/>
<g opacity="0.3">
<path d="M241.919 56.9929C242.029 56.7189 242.138 56.422 242.242 56.1651C240.262 57.8777 228.297 57.7978 212.175 54.8522C196.053 51.9066 184.849 47.7565 183.614 45.4617C183.614 45.7585 183.614 46.0611 183.614 46.3522C186.696 49.4405 199.591 53.1396 212.065 55.4173C224.539 57.695 237.93 58.791 241.919 56.9929Z" fill="white"/>
<path d="M238.288 63.3578C238.461 63.1237 238.629 62.884 238.796 62.6499C235.448 63.7916 224.845 63.4891 211.032 60.9659C197.219 58.4427 187.204 55.0119 184.491 52.7285C184.56 53.0082 184.63 53.2994 184.711 53.5677C188.693 56.3477 199.984 59.4988 210.934 61.4968C221.884 63.4948 233.561 64.5451 238.288 63.3578Z" fill="white"/>
<path d="M240.274 60.3266C240.424 60.0583 240.58 59.7957 240.73 59.5217C238.392 61.0572 226.906 60.9203 211.563 58.1231C196.22 55.3259 185.444 51.3927 183.816 49.1265C183.856 49.4404 183.902 49.743 183.954 50.0512C187.325 53.014 199.591 56.5019 211.459 58.6711C223.327 60.8403 236.083 61.9078 240.274 60.3266Z" fill="white"/>
</g>
<path d="M102.543 8.94133C102.543 8.94133 98.041 11.7328 97.4349 18.2119C96.8288 24.6911 101.937 28.1904 101.043 32.4832C100.148 36.776 104.408 40.0013 103.807 42.9412C103.807 42.9412 107.369 42.7072 108.587 39.9214C109.805 37.1357 106.307 34.0302 106.307 34.0302C107.161 34.5049 107.907 35.1489 108.498 35.922C109.089 36.6951 109.512 37.5805 109.741 38.5228C109.741 38.5228 111.381 33.9218 113.487 34.8408C113.487 34.8408 113.228 32.7686 112.333 31.7468C113.266 32.2784 113.951 33.152 114.238 34.1786C114.238 34.1786 116.304 29.9715 119.935 31.2273C119.935 31.2273 122.913 23.5837 120.206 16.7106C117.499 9.83756 109.822 1.62873 102.543 8.94133Z" fill="black"/>
<path d="M53.7971 55.7856C53.6869 55.5779 53.5189 55.4057 53.3128 55.2896C53.1068 55.1734 52.8714 55.118 52.6346 55.13C52.3977 55.142 52.1693 55.2209 51.9764 55.3573C51.7834 55.4938 51.6341 55.682 51.5459 55.8997C50.836 57.5838 50.9687 60.7348 52.0019 65.6042C52.608 68.4242 51.6268 70.9245 51.7191 72.854C51.8115 74.7835 53.9414 73.8359 56.1579 73.3221C58.3745 72.8084 63.6618 73.2707 63.6618 73.2707L62.6575 68.0931C62.6575 68.0931 59.3096 68.664 57.8261 64.9706C56.7698 62.3618 55.0497 58.1375 53.7971 55.7856Z" fill="#FFC2BC"/>
<path d="M130.031 56.6248C130.031 56.6248 148.306 58.7883 159.157 56.9045L161.755 58.617C161.755 58.617 150.886 69.8856 144.138 69.8856C137.39 69.8856 127.797 57.9491 127.797 57.9491L130.031 56.6248Z" fill="#FF182C"/>
<path d="M144.173 69.8856C146.713 72.4144 149.628 71.7694 158.909 71.3926C167.354 71.0501 190.391 73.4477 191.73 63.7603C193.254 52.7372 161.588 51.8238 151.29 58.6569C145.708 62.3618 139.74 65.4786 144.173 69.8856Z" fill="#2F2D2D"/>
<path d="M61.4162 73.3905L60.4927 67.4936C60.4927 67.4936 78.629 64.1199 95.3107 61.1629C111.992 58.2059 121.286 51.8238 144.109 58.9651C148.421 60.318 146.481 67.0027 145.408 68.584C144.415 70.051 139.341 71.7864 126.937 70.6276C126.058 70.5496 125.174 70.563 124.299 70.6676C115.579 71.6492 106.791 71.8898 98.0294 71.3868C98.0294 71.3868 90.1965 74.1041 61.4162 73.3905Z" fill="#2F2D2D"/>
<path d="M112.633 32.084C112.633 32.084 108.252 30.7767 100.91 35.7488C93.5675 40.7209 86.941 40.6467 76.9493 44.8082C66.9575 48.9697 65.9243 48.9412 65.9243 48.9412L67.656 52.8173C67.656 52.8173 90.0003 48.73 97.1232 46.2981C104.246 43.8663 108.137 37.9923 120.697 41.9483L112.633 32.084Z" fill="#FFC2BC"/>
<path d="M128.871 57.2983C128.871 57.2983 132.132 60.0955 144.121 60.1069C156.11 60.1183 159.608 57.0357 159.608 57.0357C157.911 54.1152 156.463 51.0602 155.279 47.9021C153.784 43.7806 154.043 45.1106 151.203 39.4763C145.691 28.5445 143.786 22.3508 138.626 18.9257C137.064 17.8667 135.277 17.1761 133.402 16.907C131.528 16.6378 129.616 16.7972 127.814 17.373C123.243 18.8857 116.801 22.6819 110.082 32.0039C110.082 32.0039 115.646 37.29 118.665 41.9196C121.684 46.5492 128.553 47.4397 129.344 50.5508C130.579 55.3688 128.871 57.2983 128.871 57.2983Z" fill="#FFC2BC"/>
<path d="M143.971 57.2356C155.96 57.2356 159.977 54.0959 159.977 54.0959L153.553 43.9005C150.13 37.3072 149.887 37.2272 148.594 33.2027C147.567 30.0003 146.216 26.6494 143.832 23.9607C140.404 24.4002 129.708 26.0214 124.628 18.823C124.003 19.1809 123.398 19.5715 122.816 19.9932C123.497 21.7914 123.855 24.4345 128.547 28.3105C131.82 31.0164 130.856 34.5899 126.637 37.0902C123.283 39.0768 120.045 37.7867 114.625 30.9992L112.449 28.5617C111.831 29.3324 111.71 29.8005 111.058 30.6682L116.697 39.385C117.416 40.1804 118.074 41.0276 118.665 41.9196C121.684 46.5549 128.553 47.4398 129.344 50.5509C129.921 52.8914 129.817 53.8789 129.529 54.2728C129.484 54.3333 129.454 54.4028 129.439 54.4764C129.425 54.5499 129.427 54.6256 129.446 54.6982C129.465 54.7707 129.499 54.8383 129.548 54.896C129.596 54.9537 129.656 55.0002 129.725 55.0321C131.439 55.837 135.532 57.2241 143.971 57.2356Z" fill="#FF182C"/>
<path opacity="0.6" d="M143.971 57.2356C155.96 57.2356 159.977 54.0959 159.977 54.0959L153.553 43.9005C150.13 37.3072 149.887 37.2272 148.594 33.2027C147.567 30.0003 146.216 26.6494 143.832 23.9607C140.404 24.4002 129.708 26.0214 124.628 18.823C124.003 19.1809 123.398 19.5715 122.816 19.9932C123.497 21.7914 123.855 24.4345 128.547 28.3105C131.82 31.0164 130.856 34.5899 126.637 37.0902C123.283 39.0768 120.045 37.7867 114.625 30.9992L112.449 28.5617C111.831 29.3324 111.71 29.8005 111.058 30.6682L116.697 39.385C117.416 40.1804 118.074 41.0276 118.665 41.9196C121.684 46.5549 128.553 47.4398 129.344 50.5509C129.921 52.8914 129.817 53.8789 129.529 54.2728C129.484 54.3333 129.454 54.4028 129.439 54.4764C129.425 54.5499 129.427 54.6256 129.446 54.6982C129.465 54.7707 129.499 54.8383 129.548 54.896C129.596 54.9537 129.656 55.0002 129.725 55.0321C131.439 55.837 135.532 57.2241 143.971 57.2356Z" fill="#2F2D2D"/>
<path d="M120.195 19.5649C120.195 19.5649 121.649 21.1119 123.364 19.9017C123.364 19.9017 125.257 28.7556 119.987 30.4111C114.717 32.0666 116.287 26.8033 116.287 26.8033L115.017 25.9642L120.195 19.5649Z" fill="#FFC2BC"/>
<path opacity="0.2" d="M115.387 28.5388C115.387 28.5388 117.695 29.9431 120.004 27.6084C122.313 25.2736 120.039 19.2739 120.039 19.2739H117.205L115.387 22.779L113.724 25.6846L114.169 28.2135L115.387 28.5388Z" fill="black"/>
<path d="M113.546 10.9054C117.892 14.8671 119.82 16.4484 120.287 20.6099C120.992 26.8893 115.127 31.3076 109.672 28.716C104.76 26.3812 98.4743 20.3016 100.298 14.4047C100.7 13.1076 101.428 11.9329 102.415 10.9911C103.402 10.0493 104.615 9.37145 105.941 9.02141C107.266 8.67138 108.659 8.66066 109.99 8.99026C111.32 9.31987 112.544 9.97893 113.546 10.9054Z" fill="#FFC2BC"/>
<path d="M112.316 25.6104C112.685 25.913 112.83 26.3468 112.628 26.5923C112.426 26.8378 111.97 26.7807 111.594 26.4838C111.219 26.187 111.081 25.7474 111.283 25.5077C111.485 25.2679 111.941 25.3136 112.316 25.6104Z" fill="black"/>
<path d="M108.928 19.3709C109.303 19.6735 109.441 20.113 109.245 20.3528C109.049 20.5926 108.581 20.5469 108.212 20.2443C107.842 19.9418 107.698 19.5079 107.894 19.2682C108.091 19.0284 108.547 19.0741 108.928 19.3709Z" fill="black"/>
<path d="M105.228 23.15C105.603 23.4468 105.741 23.8864 105.545 24.1261C105.349 24.3659 104.887 24.3202 104.512 24.0234C104.137 23.7265 103.998 23.2813 104.194 23.0415C104.391 22.8018 104.887 22.8303 105.228 23.15Z" fill="black"/>
<path d="M104.194 23.0586L103.207 23.7379C103.207 23.7379 104.31 23.8464 104.194 23.0586Z" fill="black"/>
<path d="M107.138 22.5964C107.575 23.6755 107.861 24.8087 107.987 25.9645C108.285 25.9257 108.57 25.8228 108.824 25.663C109.077 25.5032 109.292 25.2905 109.453 25.0397L107.138 22.5964Z" fill="#EC837E"/>
<path d="M109.17 17.0705C109.14 17.1211 109.096 17.1612 109.042 17.1848C108.988 17.2084 108.927 17.2144 108.87 17.2018C107.594 16.9278 106.347 18.0409 106.336 18.0523C106.282 18.1046 106.209 18.1339 106.134 18.1339C106.058 18.1339 105.986 18.1046 105.932 18.0523C105.879 17.9999 105.85 17.9292 105.85 17.8554C105.85 17.7816 105.879 17.7108 105.932 17.6584C105.995 17.6014 107.415 16.3341 108.968 16.6709C109.041 16.6873 109.104 16.731 109.145 16.7927C109.186 16.8544 109.201 16.9294 109.187 17.002C109.185 17.0256 109.179 17.0487 109.17 17.0705Z" fill="black"/>
<path d="M102.255 22.8304C102.23 22.8717 102.194 22.9059 102.152 22.9299C102.109 22.9538 102.061 22.9668 102.013 22.9674C101.976 22.9682 101.939 22.9617 101.905 22.9482C101.87 22.9348 101.839 22.9148 101.813 22.8892C101.787 22.8637 101.766 22.8332 101.751 22.7996C101.737 22.766 101.73 22.7299 101.73 22.6934C101.717 22.2524 101.811 21.8147 102.005 21.4173C102.199 21.0199 102.487 20.6744 102.844 20.41C102.874 20.3896 102.908 20.3753 102.944 20.368C102.98 20.3606 103.017 20.3604 103.053 20.3673C103.089 20.3742 103.123 20.3881 103.153 20.4082C103.184 20.4282 103.21 20.4541 103.23 20.4843C103.273 20.5456 103.288 20.6209 103.274 20.6937C103.26 20.7665 103.217 20.8307 103.155 20.8724C102.875 21.087 102.651 21.3648 102.501 21.6826C102.352 22.0003 102.281 22.3489 102.295 22.6991C102.292 22.7454 102.279 22.7904 102.255 22.8304Z" fill="black"/>
<path d="M107.998 19.177L107.011 19.8563C107.011 19.8563 108.085 19.9762 107.998 19.177Z" fill="black"/>
<path d="M119.318 16.0885C119.318 16.0885 120.126 19.4451 122.088 21.6943C123.336 23.2354 124.212 25.0373 124.651 26.9632C124.963 25.6696 124.982 24.3238 124.707 23.0221C124.432 21.7203 123.868 20.4949 123.058 19.4337C120.276 15.5519 119.271 14.707 119.271 14.707L119.318 16.0885Z" fill="black"/>
<path d="M110.082 30.0403C110.082 30.0403 112.351 30.1202 112.657 33.8136C112.963 37.507 113.932 36.7249 113.234 39.4707L110.625 40.6124C110.868 39.4394 110.663 38.2188 110.048 37.1873C109.037 35.5889 109.112 32.8375 109.112 32.8375C108.673 34.2179 108.673 35.6984 109.112 37.0789C109.834 39.5164 107.889 40.3727 107.889 40.3727C107.889 40.3727 107.6 38.0265 106.734 37.0047C105.868 35.9828 105.47 32.3693 105.47 32.3693L110.082 30.0403Z" fill="black"/>
<path opacity="0.2" d="M183.21 61.7852C183.21 61.7852 175.354 58.2859 157.097 67.8819L169.051 69.8856L182.812 65.159L183.21 61.7852Z" fill="black"/>
<path d="M149.373 69.6401C148.051 70.0626 147.03 69.0693 146.487 67.8191C145.945 66.5689 143.601 66.9286 142.504 67.3624C140.588 68.1445 140.859 69.5374 137.956 70.2509C132.963 71.484 129.846 72.7798 128.351 74.1727C127.491 74.9776 127.722 76.2392 128.743 76.2734C131.329 76.3533 135.861 76.028 138.637 75.8167L149.8 74.5038L150.112 69.4004L149.373 69.6401Z" fill="#FFC2BC"/>
<path d="M149.223 69.1093C149.223 69.1093 157.091 68.6126 163.608 65.8154C170.124 63.0183 176.635 62.9041 180.439 62.1563C184.243 61.4085 192.053 61.2144 191.62 64.6909C191.187 68.1673 188.157 74.0357 177.94 74.0357C167.723 74.0357 149.223 75.0119 149.223 75.0119V69.1093Z" fill="#2F2D2D"/>
<path d="M61.093 48.6101L57.8894 50.7565C57.7065 50.8087 57.5384 50.9025 57.3988 51.0305L54.2356 53.8848C54.0736 54.0371 53.9571 54.2306 53.8989 54.444C53.8407 54.6575 53.8431 54.8827 53.9057 55.0949C53.9682 55.3071 54.0887 55.4982 54.2538 55.6472C54.4189 55.7963 54.6223 55.8975 54.8417 55.9398L55.2515 56.0083C55.4439 56.0427 55.6418 56.0309 55.8287 55.9741C55.8287 55.9741 60.4465 54.41 62.0627 54.0674C63.1825 53.8277 65.5261 53.9076 66.5997 53.4966C67.2208 53.123 67.8011 52.6868 68.3314 52.1951V48.9869L61.093 48.6101Z" fill="#FFC2BC"/>
<path d="M83.3972 4.22076C83.3972 4.22076 78.6409 3.07906 77.1286 3.5072C75.6163 3.93534 72.5108 6.00181 72.1414 7.55453C71.9221 8.51356 72.9668 10.5972 73.8096 11.1167C74.9986 11.8416 78.0579 11.3221 79.4029 10.9454C80.5573 10.6314 83.4434 8.66198 83.4434 8.66198L84.5401 5.65932L83.3972 4.22076Z" fill="#FFC2BC"/>
<path d="M82.7388 3.83812L83.7778 8.13663C83.7778 8.13663 93.3192 7.32602 105.418 7.22326C112.148 7.16618 119.086 13.3713 119.086 13.3713C125.055 21.2662 131.855 23.0244 138.06 22.465C145.893 21.7628 120.166 3.18164 111.086 0.949617C102.006 -1.28241 82.7388 3.83812 82.7388 3.83812Z" fill="#FFC2BC"/>
<path opacity="0.1" d="M140.784 21.8828C139.976 19.765 135.075 15.6035 129.24 11.4077C129.361 11.5219 132.53 14.3305 134.215 17.2875C135.607 19.7307 139.231 23.6525 140.796 21.9114L140.784 21.8828Z" fill="black"/>
<path d="M128.871 57.2982L129.956 54.9691C129.956 54.9691 136.496 56.6246 150.413 53.8617L158.107 51.8237L161.57 56.0537C161.57 56.0537 155.169 61.728 144.219 63.2579C133.269 64.7878 128.871 57.2982 128.871 57.2982Z" fill="#2F2D2D"/>
<path d="M115.854 14.1535C113.316 14.8412 110.631 14.7837 108.125 13.9879C103.992 12.6521 106.607 19.4453 103.508 22.3909C103.508 22.3909 104.085 19.5708 103.375 18.3663C103.375 18.3663 103.484 21.2549 101.066 22.3166C101.066 22.3166 95.4841 16.6938 102.798 9.57524C102.798 9.57524 110.267 2.49099 116.518 12.8976L115.854 14.1535Z" fill="black"/>
<path d="M114.919 14.3533C115.462 15.274 115.616 16.3696 115.346 17.4017C114.971 18.766 113.563 18.7318 112.645 17.7499C111.814 16.8708 111.006 15.0954 111.871 14.0165C112.065 13.7839 112.314 13.6028 112.596 13.4895C112.879 13.3762 113.185 13.3344 113.488 13.3679C113.79 13.4013 114.08 13.509 114.33 13.6811C114.58 13.8531 114.782 14.0842 114.919 14.3533Z" fill="#FFC2BC"/>
</svg>
