<svg width="273" height="104" viewBox="0 0 273 104" fill="none" xmlns="http://www.w3.org/2000/svg">
<path d="M0 94.6512C0 94.9255 0.198126 95.1457 0.444914 95.1457H272.555C272.802 95.1457 273 94.9255 273 94.6512C273 94.377 272.802 94.1567 272.555 94.1567H0.444914C0.198126 94.1567 0 94.377 0 94.6512Z" fill="#484565"/>
<path d="M106.29 94.7335C102.739 95.4451 99.4965 94.1404 99.0511 91.8234C98.6013 89.5021 101.116 87.0452 104.666 86.3336C106.08 86.0286 107.549 86.0794 108.941 86.4733L164.555 77.6414L166.658 88.6888L110.196 92.9544C109.052 93.8609 107.712 94.4708 106.29 94.7335Z" fill="#FAAFB2"/>
<path d="M195.634 71.3806V78.9206C194.816 84.2494 191.942 85.6981 186.63 86.9096C178.527 88.7565 167.737 91.1244 167.579 90.6542C167.326 89.9002 161.218 77.0695 162.619 70.5249L195.638 71.3806H195.634Z" fill="#F13B46"/>
<path d="M195.265 87.8244L191.008 75.0149H209.648V86.6384L195.265 87.8244Z" fill="#FAAFB2"/>
<path d="M217.393 89.3662C224.52 89.3662 230.298 83.6521 230.298 76.6033C230.298 69.5545 224.52 63.8403 217.393 63.8403C210.265 63.8403 204.487 69.5545 204.487 76.6033C204.487 83.6521 210.265 89.3662 217.393 89.3662Z" fill="#FAAFB2"/>
<path d="M218.673 80.1065C218.737 77.9674 220.922 76.5653 222.918 75.735C224.91 74.9048 227.201 74.0491 228.024 72.0709C228.696 70.4485 224.151 67.5935 225.359 66.31C226.619 64.9799 233.108 66.2761 234.273 67.6909C235.438 69.1057 235.665 71.0416 235.75 72.863C235.956 77.3108 235.596 81.784 234.675 86.1428C234.106 88.8369 233.253 91.6157 231.279 93.56C228.777 96.0211 225.004 96.6522 221.479 96.8301C217.872 97.0123 214.094 96.8047 210.938 95.0722C207.781 93.3397 205.451 89.7052 206.256 86.2233C208.171 85.8717 210.132 86.2317 212.077 86.3631C214.022 86.4944 216.116 86.3546 217.662 85.1855C219.209 84.0163 219.821 81.5086 218.45 80.1447" fill="#36344E"/>
<path d="M214.201 95.8092C215.148 97.0842 215.936 98.6134 215.743 100.185C215.534 101.884 214.12 103.315 212.445 103.752C210.771 104.188 208.929 103.701 207.562 102.65C206.196 101.6 205.288 100.041 204.838 98.3889C204.577 97.4316 204.47 96.3853 204.864 95.4746C205.447 94.1318 207.181 93.4074 208.56 93.9369" fill="#36344E"/>
<path d="M67.8135 84.855H56.4287L55.5635 54.75H66.233L67.8135 84.855Z" fill="#FAAFB2"/>
<path d="M45.3392 94.5256C44.1399 94.5256 43.0777 94.496 42.2724 94.424C39.2485 94.1486 36.3616 91.9417 34.9095 90.6497C34.2585 90.0694 34.0486 89.1459 34.387 88.3496C34.6311 87.7777 35.1151 87.3499 35.7191 87.1805L43.7116 84.9227L56.6513 76.2898L56.7969 76.544C56.8526 76.6414 58.1204 78.9034 58.5487 80.4326C58.7115 81.0129 58.6687 81.5 58.4202 81.8728C58.2489 82.1312 58.0133 82.2837 57.8206 82.3684C58.0562 82.6099 58.7886 83.1012 61.0502 83.4613C64.3482 83.9781 65.0464 80.5978 65.0721 80.4537L65.0935 80.3394L65.192 80.2758C66.764 79.2762 67.7277 78.8229 68.0618 78.9161C68.2717 78.9796 68.6186 79.0813 69.5567 88.2945C69.6509 88.5826 70.3105 90.7048 69.8608 92.7296C69.3725 94.9365 59.6324 94.1783 57.6835 94.0004C57.6278 94.0088 50.3335 94.5214 45.3349 94.5214L45.3392 94.5256Z" fill="#36344E"/>
<path d="M160.614 45.431L146.844 64.5437L144.377 67.9663L136.684 64.4801C114.886 67.3352 107.836 49.2646 107.836 49.2646L89.5254 31.9352L78.9672 21.9468C81.2116 35.8959 66.2331 54.7544 66.2331 54.7544H55.5679C55.5679 54.7544 56.2061 3.8762 67.1069 0.38577C68.6746 -0.11831 71.7285 0.457781 75.8062 1.81329C100.071 9.86586 160.614 45.431 160.614 45.431Z" fill="#36344E"/>
<path d="M78.483 84.855H67.0938L66.2329 54.75L78.483 57.2831V84.855Z" fill="#FAAFB2"/>
<path d="M56.0043 94.5256C54.805 94.5256 53.7427 94.496 52.9375 94.424C49.9135 94.1486 47.0266 91.9417 45.5746 90.6497C44.9235 90.0694 44.7136 89.1459 45.052 88.3496C45.2962 87.7777 45.7802 87.3499 46.3841 87.1805L54.3766 84.9227L67.3163 76.2898L67.4619 76.544C67.5176 76.6414 68.7854 78.9034 69.2138 80.4326C69.3765 81.0129 69.3337 81.5 69.0853 81.8728C68.9139 82.1312 68.6784 82.2837 68.4856 82.3684C68.7212 82.6099 69.4536 83.1012 71.7152 83.4613C75.0133 83.9781 75.7114 80.5978 75.7371 80.4537L75.7586 80.3394L75.8571 80.2758C77.429 79.2762 78.3928 78.8229 78.7269 78.9161C78.9367 78.9796 79.2837 79.0813 80.2217 88.2945C80.3159 88.5826 80.9756 90.7048 80.5258 92.7296C80.0375 94.9365 70.2974 94.1783 68.3486 94.0004C68.2929 94.0088 60.9985 94.5214 56 94.5214L56.0043 94.5256Z" fill="#36344E"/>
<path d="M160.614 45.431L146.843 64.5437C125.444 67.0514 118.506 49.2646 118.506 49.2646L89.6322 21.9426C90.0606 24.607 89.9621 28.0721 89.5209 31.931C87.662 48.2691 78.483 57.2833 78.483 57.2833L66.2329 54.7459C66.2329 54.7459 66.794 12.2804 75.8059 1.80908C100.071 9.86165 160.614 45.4268 160.614 45.4268V45.431Z" fill="#36344E"/>
<path d="M202.316 75.015L197.557 87.7991C192.884 91.1879 186.716 91.7767 181.465 89.3495C173.455 85.6472 162.734 79.8101 161.741 74.7015L144.376 67.9663L149.195 37.209L184.438 54.5553C189.715 57.1519 194.473 60.7016 198.35 65.0986C200.62 67.6698 202.581 70.5079 203.065 73.0029L202.316 75.0192V75.015Z" fill="#F13B46"/>
<path d="M107.463 94.3988C103.87 94.8266 100.743 93.272 100.482 90.9253C100.221 88.5786 102.923 86.325 106.521 85.8972C107.956 85.7066 109.412 85.8676 110.77 86.3759L166.919 81.9578L168.123 93.1322L111.498 92.9331C110.286 93.7464 108.903 94.2505 107.463 94.3988Z" fill="#FAAFB2"/>
<path d="M199.138 81.0301L197.686 88.4303C195.857 93.5093 192.756 94.3903 187.308 94.5767C178.998 94.8648 167.947 95.1528 167.883 94.6614C167.78 93.8735 164.255 80.1236 166.889 73.9688L199.138 81.0301Z" fill="#F13B46"/>
</svg>
