<svg width="237" height="207" viewBox="0 0 237 207" fill="none" xmlns="http://www.w3.org/2000/svg">
<path d="M118.39 206.189C183.775 206.189 236.78 203.129 236.78 199.354C236.78 195.578 183.775 192.518 118.39 192.518C53.005 192.518 0 195.578 0 199.354C0 203.129 53.005 206.189 118.39 206.189Z" fill="#F5F5F5"/>
<path d="M66.489 72.5664C68.3261 72.7193 70.1188 73.2065 71.7769 74.0036L76.7899 76.093C78.4569 76.7753 80.1177 77.4517 81.7724 78.0797C83.3681 78.6992 84.9992 79.2254 86.6573 79.6558C87.042 79.7463 87.4205 79.8309 87.7808 79.8973L88.947 80.0664L90.211 80.1811L91.5177 80.2415C93.2884 80.3079 95.1141 80.2959 96.9398 80.2415C98.7656 80.1872 100.603 80.1147 102.435 80.006C104.267 79.8973 106.136 79.8007 107.961 79.6558C108.414 79.643 108.856 79.7928 109.206 80.0774C109.556 80.362 109.789 80.7623 109.864 81.2041C109.938 81.6459 109.848 82.0995 109.611 82.4809C109.373 82.8623 109.004 83.1458 108.572 83.279C104.908 84.1968 101.245 84.9758 97.465 85.628C95.5843 85.9541 93.6914 86.2319 91.7375 86.4674L90.2598 86.6123L88.7272 86.7029C88.1899 86.7029 87.6587 86.7029 87.1091 86.7029C86.5596 86.7029 85.9917 86.6364 85.4544 86.5821C83.4432 86.3444 81.4474 85.9936 79.4766 85.5314C77.5654 85.1026 75.6969 84.5833 73.859 84.0217C72.0211 83.4601 70.1954 82.814 68.4369 82.1678C66.5814 81.5754 64.8703 80.6091 63.4116 79.3297C62.8179 78.7796 62.4086 78.0632 62.2385 77.2764C62.0684 76.4897 62.1458 75.6703 62.4601 74.9283C62.7744 74.1863 63.3108 73.5571 63.9971 73.1252C64.6834 72.6933 65.4869 72.4793 66.2997 72.5121L66.489 72.5664Z" fill="#FFC3BD"/>
<path d="M105.824 80.2474L109.433 79.0397C110.182 78.7872 110.978 78.7006 111.765 78.7861L113.707 78.9914C113.936 79.0153 114.159 79.0843 114.361 79.1942C114.563 79.3042 114.741 79.4529 114.884 79.6318C115.028 79.8106 115.133 80.0159 115.196 80.2357C115.258 80.4555 115.275 80.6853 115.246 80.9117L114.977 83.0071C114.924 83.4106 114.728 83.7824 114.424 84.0566C114.12 84.3308 113.727 84.4895 113.316 84.5047L110.813 84.5892C110.813 84.5892 106.337 85.501 105.464 83.2305L105.824 80.2474Z" fill="#FFC3BD"/>
<path d="M49.2214 70.2595C53.6483 68.8284 58.9911 69.4806 58.9911 69.4806L68.6325 72.0892C69.6386 72.3851 70.5216 72.9935 71.1507 73.8245C71.7798 74.6555 72.1215 75.6647 72.1252 76.7028C72.3328 88.5264 69.9514 94.3718 68.4005 116.195C67.5578 116.111 42.633 114.01 42.633 114.01C44.9655 101.866 42.5231 92.8441 42.5841 80.0965C42.6208 73.2004 45.8875 71.3344 49.2214 70.2595Z" fill="#263238"/>
<path opacity="0.7" d="M52.4026 86.1913C55.0344 85.0596 55.8565 81.1595 54.2389 77.4802C52.6212 73.8009 49.1763 71.7357 46.5446 72.8674C43.9128 73.9991 43.0907 77.8992 44.7083 81.5785C46.326 85.2578 49.7709 87.323 52.4026 86.1913Z" fill="#FFC3BD"/>
<path d="M49.4654 72.5904C51.241 73.1406 52.8975 74.013 54.3502 75.1628L58.8504 78.309C60.3524 79.3537 61.8484 80.3742 63.3444 81.3283C64.7781 82.2728 66.2687 83.1298 67.8079 83.8947C69.3597 84.5794 70.9672 85.1329 72.6134 85.5493C74.3658 86.0264 76.1793 86.4491 77.9928 86.8597C79.8063 87.2703 81.6564 87.6447 83.4882 88.001C85.32 88.3573 87.1518 88.7377 89.0142 89.0698C89.4779 89.1531 89.8929 89.4061 90.1765 89.7783C90.4601 90.1506 90.5915 90.6149 90.5445 91.0786C90.4976 91.5424 90.2757 91.9717 89.923 92.2809C89.5704 92.5902 89.1129 92.7567 88.6417 92.7474C84.8071 92.6809 81.0092 92.5058 77.1746 92.2099C75.2512 92.059 73.3339 91.8959 71.3799 91.6544C70.403 91.5276 69.4199 91.3947 68.4063 91.2136C67.9117 91.1411 67.3683 91.0022 66.8493 90.8995C66.3302 90.7969 65.7441 90.6157 65.2373 90.4527C63.2798 89.8014 61.365 89.031 59.5037 88.1459C57.7024 87.3126 55.9622 86.4068 54.2647 85.4527C52.5672 84.4986 50.9186 83.4901 49.2944 82.4334C47.5886 81.449 46.1065 80.1272 44.9408 78.5505C44.4823 77.8869 44.2398 77.1006 44.2457 76.297C44.2517 75.4933 44.5058 74.7106 44.974 74.0537C45.4423 73.3968 46.1024 72.8971 46.8658 72.6216C47.6292 72.346 48.4595 72.3077 49.2455 72.5119L49.4654 72.5904Z" fill="#FFC3BD"/>
<path d="M86.8224 88.9492L90.37 87.5905C91.108 87.3057 91.8995 87.1821 92.6903 87.2281L94.6381 87.3429C94.8687 87.3566 95.0943 87.4157 95.3015 87.5168C95.5087 87.618 95.6934 87.759 95.8447 87.9317C95.996 88.1044 96.1109 88.3053 96.1826 88.5226C96.2543 88.7398 96.2814 88.969 96.2623 89.1967L96.0913 91.2982C96.0567 91.7031 95.8784 92.0829 95.5878 92.3703C95.2972 92.6576 94.9132 92.834 94.5038 92.8682L92.0064 93.0736C92.0064 93.0736 87.5795 94.1847 86.6025 91.9564L86.8224 88.9492Z" fill="#FFC3BD"/>
<path d="M53.6664 56.0929C50.1676 56.3284 51.4804 63.0373 54.9364 63.9431C58.3925 64.8489 58.4474 55.7426 53.6664 56.0929Z" fill="#263238"/>
<path d="M68.6625 48.8464C65.6095 46.1531 61.0361 52.6688 63.1061 56.2316C65.176 59.7944 72.833 52.5299 68.6625 48.8464Z" fill="#263238"/>
<path d="M54.3563 57.7595C54.2402 61.274 53.88 65.8573 52.4634 69.9274C52.7931 72.3066 57.1528 73.5506 61.9033 75.2052C64.6144 73.6834 65.2922 72.4576 64.2603 70.8875C60.2852 69.8127 61.653 66.0083 62.5444 63.2607L54.3563 57.7595Z" fill="#FFC3BD"/>
<path opacity="0.2" d="M62.2146 63.0252L62.5749 63.2607C62.1534 64.3958 61.8446 65.5688 61.6529 66.7631C59.821 66.594 57.9892 65.8754 57.0977 64.6315C56.4646 63.805 55.9925 62.8692 55.7056 61.8718L62.2146 63.0252Z" fill="black"/>
<path d="M53.5321 53.4057C53.7947 58.2366 53.7031 61.0989 56.1638 63.5808C59.8641 67.3127 65.9335 65.0844 67.1547 60.2475C68.2355 55.8936 67.6188 48.7076 62.8316 46.7874C61.7713 46.3576 60.6177 46.2018 59.4796 46.3346C58.3416 46.4674 57.2564 46.8844 56.3262 47.5463C55.3961 48.2083 54.6515 49.0935 54.1627 50.1186C53.6739 51.1436 53.4569 52.2748 53.5321 53.4057Z" fill="#FFC3BD"/>
<path d="M52.445 57.4998C52.445 57.4998 57.629 59.5711 56.5055 56.8356C56.5055 56.8356 58.9479 53.5204 56.8108 51.3646C59.9371 52.1315 63.2222 50.6943 63.2955 49.7885C64.8891 51.8054 68.6749 51.6001 68.4856 49.0155C69.5725 48.1158 70.7876 45.3018 67.759 43.8646C65.6951 42.8863 63.2588 44.5167 63.2588 44.5167C63.2588 44.5167 60.4439 41.1653 56.7437 42.1013C53.0434 43.0373 52.9824 45.7909 52.9824 45.7909C52.9824 45.7909 48.7081 45.4225 47.5541 48.1762C46.4 50.9298 48.7753 52.9165 48.7753 52.9165C48.7753 52.9165 47.2244 57.7353 52.445 57.4998Z" fill="#263238"/>
<path d="M51.1753 58.152C51.4608 58.6842 51.8501 59.1551 52.3206 59.5375C52.7912 59.92 53.3338 60.2064 53.9169 60.3803C55.4862 60.8392 56.3044 59.4564 55.9014 57.9648C55.535 56.6363 54.2772 54.8006 52.6896 54.9938C52.3407 55.0383 52.0087 55.1688 51.724 55.3733C51.4394 55.5777 51.2112 55.8496 51.0605 56.164C50.9097 56.4784 50.8413 56.8252 50.8613 57.1725C50.8814 57.5199 50.9894 57.8567 51.1753 58.152Z" fill="#FFC3BD"/>
<path d="M61.5674 54.4562C61.5674 54.8487 61.775 55.1688 62.0376 55.1688C62.3001 55.1688 62.5138 54.8487 62.5138 54.4562C62.5138 54.0637 62.3062 53.7437 62.0498 53.7437C61.7933 53.7437 61.604 54.0637 61.5674 54.4562Z" fill="#263238"/>
<path d="M62.5444 59.9877C62.5444 60.3802 62.752 60.7003 63.0146 60.7003C63.2772 60.7003 63.4909 60.3802 63.4909 59.9877C63.4909 59.5952 63.2833 59.2751 63.0268 59.2751C62.7704 59.2751 62.5505 59.5952 62.5444 59.9877Z" fill="#263238"/>
<path d="M66.1958 54.7884C66.1958 55.1809 66.4034 55.501 66.6599 55.501C66.9163 55.501 67.1361 55.1809 67.1361 54.7824C67.1361 54.3838 66.9346 54.0698 66.6721 54.0698C66.4095 54.0698 66.1958 54.3899 66.1958 54.7884Z" fill="#263238"/>
<path d="M64.7854 54.9395C65.2532 56.1426 65.886 57.2764 66.6661 58.309C66.3927 58.502 66.0802 58.6338 65.7502 58.6954C65.4201 58.7569 65.0805 58.7466 64.7549 58.6653L64.7854 54.9395Z" fill="#ED847E"/>
<path d="M60.267 52.9044C60.2294 52.8938 60.1955 52.8728 60.1693 52.844C60.1476 52.8227 60.1303 52.7973 60.1185 52.7693C60.1067 52.7413 60.1006 52.7113 60.1006 52.681C60.1006 52.6506 60.1067 52.6206 60.1185 52.5926C60.1303 52.5646 60.1476 52.5392 60.1693 52.5179C60.4333 52.2562 60.7566 52.0605 61.1123 51.9471C61.4681 51.8337 61.846 51.8058 62.2149 51.8657C62.2449 51.8714 62.2734 51.8831 62.2987 51.9C62.3241 51.9169 62.3457 51.9387 62.3622 51.9641C62.3788 51.9895 62.3899 52.018 62.395 52.0478C62.4001 52.0776 62.3991 52.1081 62.3919 52.1375C62.3861 52.1673 62.3743 52.1957 62.3573 52.221C62.3403 52.2463 62.3184 52.268 62.2928 52.2848C62.2673 52.3017 62.2386 52.3134 62.2084 52.3192C62.1783 52.325 62.1472 52.3248 62.1172 52.3186C61.8242 52.2799 61.5261 52.31 61.2471 52.4066C60.9681 52.5031 60.716 52.6633 60.5113 52.8742C60.4779 52.902 60.437 52.9197 60.3937 52.9251C60.3503 52.9304 60.3063 52.9232 60.267 52.9044Z" fill="#263238"/>
<path d="M67.8138 53.3209C67.7751 53.3248 67.7361 53.3184 67.7007 53.3025C67.6653 53.2866 67.6348 53.2617 67.6123 53.2303C67.4405 52.9947 67.215 52.8025 66.954 52.6693C66.693 52.536 66.4039 52.4655 66.1102 52.4634C66.0801 52.4659 66.0497 52.4623 66.0209 52.453C65.9922 52.4436 65.9656 52.4286 65.9428 52.4089C65.9201 52.3892 65.9015 52.3651 65.8883 52.3382C65.8751 52.3113 65.8675 52.282 65.866 52.2521C65.8635 52.2214 65.8673 52.1906 65.877 52.1614C65.8868 52.1323 65.9024 52.1054 65.9229 52.0823C65.9434 52.0592 65.9684 52.0404 65.9964 52.027C66.0244 52.0137 66.0548 52.006 66.0858 52.0045C66.4564 51.9983 66.8229 52.0813 67.1537 52.2465C67.4846 52.4117 67.7698 52.654 67.9848 52.9525C68.0037 52.9769 68.0175 53.0049 68.0253 53.0346C68.0331 53.0644 68.0347 53.0954 68.0302 53.1258C68.0256 53.1562 68.0149 53.1854 67.9987 53.2117C67.9826 53.2379 67.9612 53.2607 67.9359 53.2786C67.9003 53.3042 67.8578 53.3189 67.8138 53.3209Z" fill="#263238"/>
<path d="M68.7056 114.185L42.6755 112.071C42.599 112.066 42.5235 112.09 42.4644 112.138C42.4053 112.186 42.3672 112.255 42.358 112.331L42.1809 114.015C42.1767 114.054 42.1802 114.092 42.1911 114.129C42.2021 114.166 42.2203 114.2 42.2447 114.23C42.2691 114.259 42.2993 114.284 42.3334 114.302C42.3675 114.32 42.4049 114.332 42.4435 114.335L68.3209 116.86C68.3949 116.867 68.4689 116.846 68.5279 116.801C68.5869 116.756 68.6264 116.691 68.6384 116.618L68.9926 114.529C68.9996 114.487 68.9974 114.444 68.9863 114.404C68.9753 114.363 68.9554 114.325 68.9282 114.292C68.9011 114.259 68.8671 114.233 68.8287 114.214C68.7903 114.196 68.7483 114.186 68.7056 114.185Z" fill="#FF4747"/>
<path d="M85.9122 142.796C69.9571 139.348 59.1128 134.758 59.1128 134.758L67.5941 117.451C67.5941 117.451 103.229 129.028 99.5531 140.102C92.5067 161.358 86.535 194.287 86.535 194.287H80.832C83.0973 169.619 78.5727 153.315 85.9122 142.796Z" fill="#FFC3BD"/>
<path d="M86.5472 193.695L80.4412 193.78C80.3452 193.779 80.2525 193.814 80.1813 193.878C80.1101 193.942 80.0656 194.03 80.0565 194.124L79.5863 198.484C79.5778 198.594 79.5926 198.705 79.6297 198.809C79.6668 198.913 79.7254 199.009 79.8017 199.089C79.8781 199.17 79.9706 199.234 80.0733 199.277C80.176 199.321 80.2867 199.343 80.3984 199.341C82.3401 199.281 85.8938 199.124 88.3363 199.088C91.1939 199.04 90.9191 199.16 94.2713 199.088C96.2985 199.058 96.6222 197.017 95.7551 196.847C91.7923 196.069 91.3954 196.026 87.8172 194.04C87.432 193.816 86.9938 193.697 86.5472 193.695Z" fill="#263238"/>
<path d="M87.4452 194.13C87.4244 194.125 87.4058 194.113 87.3917 194.097C87.3776 194.081 87.3686 194.061 87.3658 194.04C87.3626 194.016 87.3668 193.992 87.3776 193.97C87.3885 193.949 87.4056 193.931 87.4268 193.919C87.6466 193.804 89.6189 192.778 90.2234 193.098C90.2812 193.126 90.3303 193.168 90.3658 193.221C90.4012 193.275 90.4216 193.336 90.4249 193.4C90.4389 193.504 90.4267 193.611 90.3895 193.71C90.3522 193.809 90.291 193.897 90.2112 193.967C89.68 194.45 88.2572 194.281 87.4574 194.136L87.4452 194.13ZM90.0707 193.285C89.6983 193.158 88.6236 193.587 87.8481 193.967C88.9411 194.13 89.7532 194.07 90.0585 193.798C90.1094 193.751 90.1481 193.692 90.1715 193.627C90.1948 193.562 90.2022 193.492 90.1929 193.424C90.1928 193.398 90.1852 193.373 90.1712 193.352C90.1571 193.33 90.1371 193.313 90.1135 193.303C90.1081 193.297 90.1015 193.292 90.0941 193.289C90.0868 193.286 90.0788 193.285 90.0707 193.285Z" fill="#FF4747"/>
<path d="M87.445 194.13C87.4275 194.12 87.4136 194.104 87.4049 194.086C87.3962 194.068 87.3932 194.047 87.3961 194.028C87.3961 193.967 87.5121 192.651 88.1288 192.131C88.2163 192.054 88.3189 191.995 88.4302 191.959C88.5416 191.923 88.6593 191.909 88.7761 191.92C89.0997 191.92 89.1974 192.107 89.2157 192.24C89.3195 192.79 88.1533 193.864 87.561 194.142C87.5426 194.152 87.5218 194.156 87.5011 194.154C87.4804 194.152 87.4609 194.143 87.445 194.13ZM88.8494 192.162H88.7272C88.6411 192.153 88.5541 192.162 88.472 192.189C88.3899 192.216 88.3146 192.261 88.251 192.319C87.8973 192.751 87.6844 193.28 87.6404 193.834C88.251 193.466 89.0325 192.627 88.9776 192.288C88.9532 192.246 88.947 192.192 88.8494 192.162Z" fill="#FF4747"/>
<path d="M68.5773 115.839C68.5773 115.839 79.037 120.344 84.8866 123.442C85.0893 123.544 85.2433 123.721 85.3153 123.935C85.3872 124.148 85.3714 124.381 85.2713 124.583C82.6433 130.037 81.0379 135.917 80.533 141.938C80.5207 142.065 80.4819 142.188 80.4191 142.299C80.3563 142.41 80.2707 142.507 80.1679 142.584C80.0651 142.66 79.9473 142.715 79.822 142.744C79.6967 142.773 79.5666 142.777 79.44 142.753C73.6209 141.781 45.6614 135.96 48.5556 114.299C54.7777 114.589 68.5773 115.839 68.5773 115.839Z" fill="#FF4747"/>
<path d="M57.562 114.909C57.562 114.909 49.0136 113.701 42.8037 113.406C33.8462 141.099 55.4188 142.18 60.4319 142.693C60.6969 142.723 60.9654 142.688 61.2135 142.591C61.4616 142.494 61.6818 142.338 61.8546 142.137C65.4083 137.832 68.1805 131.908 67.0753 124.541C67.0388 124.321 66.953 124.112 66.8241 123.929C66.6952 123.746 66.5265 123.594 66.3303 123.484C61.0364 120.32 57.562 114.909 57.562 114.909Z" fill="#FF4747"/>
<path d="M61.6041 123.846C56.4873 124.595 53.1534 138.744 56.2247 140.724C59.1067 141.932 62.2269 142.765 64.1625 142.796C56.8353 153.309 61.3477 169.625 59.0762 194.287H64.7793C64.7793 194.287 70.751 161.358 77.7973 140.102C79.733 134.221 70.6044 128.2 61.6041 123.846Z" fill="#FFC3BD"/>
<path d="M64.7733 193.695L58.6672 193.78C58.5716 193.781 58.4797 193.816 58.4088 193.88C58.3379 193.943 58.293 194.03 58.2825 194.124L57.8124 198.484C57.8039 198.594 57.8187 198.705 57.8558 198.809C57.8929 198.913 57.9514 199.009 58.0278 199.089C58.1042 199.17 58.1966 199.234 58.2993 199.277C58.4021 199.321 58.5128 199.343 58.6245 199.341C60.5662 199.281 64.1199 199.124 66.5623 199.088C69.42 199.04 69.1452 199.16 72.4974 199.088C74.5246 199.058 74.8482 197.017 73.9812 196.847C70.0184 196.069 69.6215 196.026 66.0433 194.04C65.6584 193.815 65.22 193.696 64.7733 193.695Z" fill="#263238"/>
<path d="M65.6707 194.13C65.65 194.125 65.6314 194.113 65.6173 194.097C65.6032 194.081 65.5942 194.061 65.5914 194.04C65.5882 194.016 65.5923 193.992 65.6032 193.97C65.6141 193.949 65.6312 193.931 65.6524 193.919C65.8722 193.804 67.8445 192.778 68.4551 193.098C68.5113 193.127 68.5589 193.17 68.5932 193.223C68.6274 193.276 68.6472 193.337 68.6505 193.4C68.6658 193.504 68.6548 193.61 68.6186 193.709C68.5824 193.808 68.522 193.897 68.4429 193.967C67.9055 194.45 66.4828 194.281 65.6891 194.136L65.6707 194.13ZM68.2963 193.285C67.9239 193.158 66.8553 193.587 66.0737 193.967C67.1667 194.13 67.9849 194.07 68.2841 193.798C68.335 193.751 68.3737 193.692 68.3971 193.627C68.4204 193.562 68.4278 193.492 68.4185 193.424C68.4184 193.398 68.4108 193.373 68.3968 193.352C68.3827 193.33 68.3626 193.313 68.3391 193.303C68.3345 193.296 68.3282 193.289 68.3208 193.285H68.2963Z" fill="#FF4747"/>
<path d="M65.6706 194.13C65.6531 194.12 65.6392 194.104 65.6305 194.086C65.6218 194.068 65.6187 194.047 65.6217 194.028C65.6217 193.967 65.7377 192.651 66.3544 192.131C66.4419 192.054 66.5445 191.995 66.6558 191.959C66.7672 191.923 66.8849 191.909 67.0017 191.92C67.3253 191.92 67.423 192.107 67.4474 192.24C67.5451 192.79 66.3789 193.864 65.7866 194.142C65.7682 194.152 65.7474 194.156 65.7267 194.154C65.706 194.152 65.6864 194.143 65.6706 194.13ZM67.0749 192.162H66.9528C66.8667 192.153 66.7797 192.162 66.6976 192.189C66.6155 192.216 66.5401 192.261 66.4765 192.319C66.1252 192.753 65.9126 193.28 65.8659 193.834C66.4765 193.466 67.2642 192.627 67.2032 192.288C67.1787 192.246 67.1726 192.192 67.0994 192.162H67.0749Z" fill="#FF4747"/>
<path d="M163.66 14.9034C163.337 12.1135 162.952 6.6908 165.303 5.57365C171.647 4.73428 178.467 11.105 179.286 12.6751C180.104 14.2451 179.762 21.1835 176.807 22.4819C173.851 23.7802 163.66 14.9034 163.66 14.9034Z" fill="#263238"/>
<path d="M162.964 35.8936C163.257 36.929 163.395 38.0011 163.373 39.076C163.348 40.1059 163.235 41.132 163.038 42.1436C162.683 44.1665 162.262 46.1834 161.743 48.1822C161.222 50.2271 160.59 52.2428 159.85 54.2209C159.076 56.3652 158.11 58.4367 156.962 60.4105L156.449 61.2197L155.839 62.0409C155.46 62.4999 155.088 62.9407 154.709 63.3634L153.586 64.5711L152.474 65.7547C150.972 67.216 149.452 68.5808 147.919 69.9214C144.829 72.5844 141.703 75.0904 138.467 77.5361C138.246 77.7375 137.987 77.8939 137.705 77.9964C137.423 78.0989 137.123 78.1454 136.823 78.1334C136.523 78.1213 136.228 78.0509 135.955 77.9261C135.683 77.8014 135.437 77.6247 135.234 77.4063C135.03 77.1878 134.872 76.9318 134.768 76.6529C134.665 76.3739 134.618 76.0775 134.63 75.7806C134.642 75.4837 134.713 75.1921 134.839 74.9224C134.966 74.6527 135.144 74.4102 135.365 74.2088C137.978 71.2801 140.586 68.2909 143.059 65.2776C144.28 63.7801 145.501 62.2583 146.625 60.7426L147.437 59.6074L148.182 58.4842L148.792 57.4093L149 56.9805L149.207 56.4914C149.797 54.9104 150.246 53.282 150.551 51.6243C150.899 49.861 151.161 48.0011 151.461 46.1895C151.76 44.3779 151.98 42.4636 152.212 40.5796C152.336 38.6576 152.869 36.7832 153.775 35.0784L153.915 34.8308C154.4 34.004 155.119 33.3362 155.984 32.9102C156.849 32.4842 157.822 32.3189 158.781 32.4346C159.74 32.5504 160.644 32.9422 161.38 33.5614C162.116 34.1806 162.652 35 162.922 35.9177L162.964 35.8936Z" fill="#FF8B7B"/>
<path d="M136.873 73.5447L133.087 74.9698C132.3 75.2676 131.585 75.7288 130.993 76.3225L129.534 77.7898C129.36 77.9621 129.222 78.1673 129.13 78.3931C129.038 78.619 128.993 78.8609 128.997 79.1045C129.002 79.348 129.056 79.5881 129.157 79.8105C129.257 80.0328 129.402 80.2328 129.583 80.3985L131.213 81.9384C131.533 82.2525 131.96 82.4386 132.411 82.4609C132.861 82.4832 133.305 82.3401 133.655 82.0592L135.774 80.4589C135.774 80.4589 140.079 78.2186 139.248 75.7669L136.873 73.5447Z" fill="#FF8B7B"/>
<path d="M185.312 31.9384L170.816 29.4746L158.488 31.4734C157.237 31.6879 156.095 32.3148 155.249 33.2522C154.403 34.1895 153.903 35.3822 153.829 36.6364C152.889 50.1389 155.313 56.6546 155.698 77.9951C156.602 77.9951 183.26 78.442 183.26 78.442C182.607 66.8599 188.64 52.343 189.916 37.8563C190.039 36.4785 189.634 35.1054 188.781 34.0092C187.928 32.913 186.69 32.1739 185.312 31.9384Z" fill="#FF4747"/>
<path d="M177.197 17.5786C176.923 21.3105 176.788 26.2078 177.808 30.6704C177.197 33.1583 172.703 35.7851 167.489 37.011C163.41 34.9941 163.935 31.9325 165.205 30.3685C169.541 29.674 168.521 25.4953 167.886 22.5182L177.197 17.5786Z" fill="#FF8B7B"/>
<path d="M166.078 44.5049H166.017C165.984 44.4984 165.953 44.4848 165.925 44.4649C165.898 44.4451 165.875 44.4196 165.859 44.3901C160.583 35.3865 164.479 30.5012 164.637 30.2959C164.658 30.2713 164.683 30.251 164.711 30.236C164.74 30.221 164.771 30.2117 164.803 30.2087C164.835 30.2056 164.867 30.2088 164.898 30.218C164.929 30.2273 164.958 30.2425 164.982 30.2627C165.007 30.2829 165.028 30.3078 165.043 30.3359C165.058 30.364 165.068 30.3947 165.071 30.4264C165.074 30.4581 165.071 30.4901 165.061 30.5205C165.052 30.551 165.036 30.5793 165.016 30.6039C164.863 30.7971 161.23 35.3503 166.14 43.8889C173.705 38.5326 177.405 32.6329 177.71 30.6401C177.72 30.577 177.754 30.5199 177.805 30.4814C177.857 30.443 177.921 30.4262 177.985 30.4348C178.05 30.4452 178.107 30.4801 178.146 30.532C178.185 30.5839 178.202 30.6487 178.193 30.7126C177.875 32.7959 174.035 38.9614 166.201 44.4445C166.165 44.4738 166.123 44.4945 166.078 44.5049Z" fill="#263238"/>
<path d="M165.614 42.9708H166.89V47.8682H164.375V44.1967C164.372 44.035 164.403 43.8745 164.464 43.7247C164.525 43.5749 164.617 43.4388 164.732 43.3244C164.848 43.2101 164.985 43.1199 165.137 43.0592C165.288 42.9984 165.451 42.9684 165.614 42.9708Z" fill="#263238"/>
<path d="M167.238 45.4167C166.914 45.4167 166.604 45.2894 166.375 45.0629C166.146 44.8364 166.017 44.5293 166.017 44.2089V43.0012H167.238C167.562 43.0012 167.873 43.1285 168.102 43.355C168.331 43.5814 168.46 43.8886 168.46 44.2089C168.46 44.5293 168.331 44.8364 168.102 45.0629C167.873 45.2894 167.562 45.4167 167.238 45.4167Z" fill="#263238"/>
<path opacity="0.2" d="M168.307 22.2766L167.898 22.488C168.217 23.7363 168.411 25.0125 168.478 26.2983C170.438 26.2983 172.471 25.7609 173.546 24.5411C174.306 23.7342 174.91 22.7969 175.329 21.7754L168.307 22.2766Z" fill="black"/>
<path opacity="0.2" d="M187.059 36.8599C185.959 37.3248 184.091 40.3019 184.268 43.4722C184.391 46.7153 185.491 49.8481 187.425 52.4698C188.304 48.5567 189.116 44.5712 189.623 40.5616L187.059 36.8599Z" fill="black"/>
<path d="M178.559 13.0556C177.735 18.1583 177.509 21.1836 174.627 23.5387C170.291 27.0834 164.112 24.052 163.385 18.7984C162.726 14.0701 164.191 6.52785 169.491 5.02423C170.66 4.69391 171.895 4.66199 173.08 4.93144C174.264 5.20089 175.361 5.76293 176.266 6.56505C177.172 7.36718 177.857 8.38321 178.258 9.51826C178.659 10.6533 178.763 11.8703 178.559 13.0556Z" fill="#FF8B7B"/>
<path d="M177.967 17.0894C175.83 15.3321 174.028 11.407 175.524 8.2186C171.61 8.99758 165.101 9.39009 163.227 5.73671C161.92 3.19444 162.732 0.416666 165.706 0C167.251 2.41546 170.511 1.86594 173.277 1.43116C176.043 0.996378 183.175 1.72767e-06 182.479 5.31401C185.813 5.68237 187.547 12.9831 177.967 17.0894Z" fill="#263238"/>
<path d="M180.519 18.3453C180.158 18.8788 179.692 19.3357 179.15 19.6892C178.608 20.0428 178.001 20.2859 177.362 20.4045C175.653 20.7124 174.92 19.1545 175.531 17.6388C176.068 16.274 177.607 14.4685 179.267 14.8489C180.928 15.2293 181.405 17.0168 180.519 18.3453Z" fill="#FF8B7B"/>
<path d="M171.47 129.704C171.268 103.502 176.739 78.3755 176.739 78.3755L156.248 77.9951C156.248 77.9951 157.286 115.954 159.429 131.679C162.299 152.814 162.042 193.961 162.042 193.961H168.118C168.118 193.961 175.127 153.877 171.47 129.704Z" fill="#FF8B7B"/>
<path d="M162.024 193.333L168.557 193.418C168.658 193.419 168.756 193.456 168.831 193.523C168.906 193.589 168.955 193.681 168.966 193.78L169.467 198.43C169.476 198.547 169.459 198.665 169.42 198.776C169.38 198.887 169.317 198.988 169.236 199.074C169.154 199.159 169.056 199.227 168.946 199.273C168.837 199.32 168.719 199.343 168.6 199.342C166.53 199.275 162.763 199.112 160.162 199.07C157.109 199.022 157.414 199.148 153.842 199.07C151.68 199.04 151.332 196.866 152.26 196.685C156.48 195.857 156.907 195.815 160.711 193.702C161.107 193.463 161.561 193.336 162.024 193.333Z" fill="#263238"/>
<path d="M161.071 193.774C161.094 193.768 161.114 193.756 161.129 193.739C161.144 193.721 161.154 193.7 161.157 193.677C161.16 193.652 161.155 193.626 161.143 193.604C161.131 193.581 161.113 193.563 161.09 193.551C160.858 193.424 158.757 192.343 158.11 192.675C158.05 192.707 157.998 192.754 157.961 192.811C157.924 192.868 157.901 192.933 157.896 193.001C157.882 193.112 157.895 193.225 157.934 193.33C157.974 193.436 158.038 193.53 158.122 193.605C158.69 194.124 160.204 193.943 161.053 193.786L161.071 193.774ZM158.275 192.868C158.672 192.741 159.814 193.194 160.644 193.599C159.478 193.774 158.611 193.708 158.293 193.418C158.236 193.37 158.192 193.307 158.167 193.238C158.141 193.168 158.134 193.092 158.147 193.019C158.147 192.993 158.155 192.967 158.169 192.945C158.183 192.923 158.202 192.904 158.226 192.892L158.275 192.868Z" fill="#FF4747"/>
<path d="M161.071 193.774H161.102C161.121 193.762 161.136 193.745 161.146 193.724C161.155 193.704 161.159 193.681 161.157 193.659C161.157 193.605 161.034 192.198 160.375 191.642C160.281 191.561 160.172 191.499 160.053 191.461C159.934 191.423 159.809 191.408 159.685 191.419C159.343 191.449 159.239 191.618 159.215 191.757C159.105 192.361 160.351 193.49 160.979 193.786C160.995 193.79 161.011 193.791 161.027 193.789C161.042 193.787 161.057 193.782 161.071 193.774ZM159.575 191.679H159.703C159.795 191.669 159.887 191.679 159.974 191.707C160.061 191.735 160.142 191.781 160.21 191.842C160.596 192.301 160.83 192.865 160.882 193.46C160.235 193.061 159.398 192.168 159.459 191.811C159.465 191.787 159.471 191.727 159.575 191.697V191.679Z" fill="#FF4747"/>
<path opacity="0.2" d="M171.049 100.332C169.522 102.222 169.479 107.144 172.074 112.409C172.245 110.048 172.447 107.741 172.685 105.525L171.049 100.332Z" fill="black"/>
<path d="M170.695 13.6595C170.652 14.0822 170.396 14.3963 170.084 14.3661C169.773 14.3359 169.62 13.9735 169.663 13.5569C169.706 13.1402 169.962 12.8202 170.237 12.8504C170.512 12.8806 170.731 13.2187 170.695 13.6595Z" fill="#263238"/>
<path d="M164.851 13.122C164.808 13.5386 164.552 13.8527 164.271 13.8225C163.99 13.7923 163.807 13.4299 163.849 13.0133C163.892 12.5966 164.149 12.2826 164.423 12.3128C164.698 12.343 164.887 12.7053 164.851 13.122Z" fill="#263238"/>
<path d="M167.239 13.5205C166.609 14.7438 165.81 15.8739 164.863 16.878C165.129 17.1166 165.444 17.2945 165.787 17.3989C166.13 17.5032 166.492 17.5316 166.848 17.4819L167.239 13.5205Z" fill="#FF5652"/>
<path d="M168.545 18.7742C169.021 18.7696 169.49 18.6679 169.924 18.4757C170.358 18.2835 170.747 18.0048 171.067 17.657C171.09 17.6345 171.102 17.6041 171.102 17.5725C171.102 17.5409 171.09 17.5105 171.067 17.488C171.043 17.4654 171.012 17.4529 170.979 17.4529C170.946 17.4529 170.914 17.4654 170.89 17.488C170.528 17.8668 170.08 18.1557 169.583 18.3309C169.087 18.5062 168.555 18.5629 168.032 18.4964C168.016 18.4947 168 18.4962 167.985 18.5008C167.969 18.5054 167.955 18.5129 167.942 18.5231C167.93 18.5332 167.92 18.5456 167.912 18.5597C167.904 18.5738 167.9 18.5892 167.898 18.6051C167.896 18.621 167.898 18.637 167.903 18.6523C167.907 18.6676 167.915 18.6819 167.925 18.6942C167.935 18.7066 167.948 18.7168 167.962 18.7243C167.976 18.7318 167.992 18.7365 168.008 18.738C168.186 18.7638 168.366 18.7759 168.545 18.7742Z" fill="#263238"/>
<path d="M171.812 10.9843C171.855 10.9844 171.898 10.9718 171.934 10.9481C171.989 10.9133 172.029 10.8583 172.044 10.7951C172.058 10.7318 172.048 10.6653 172.013 10.6099C171.814 10.2723 171.536 9.9866 171.202 9.77655C170.869 9.5665 170.49 9.43816 170.096 9.40219C170.06 9.39662 170.024 9.39877 169.989 9.4085C169.954 9.41823 169.922 9.43531 169.894 9.45855C169.867 9.48179 169.845 9.51065 169.83 9.54314C169.814 9.57563 169.807 9.61098 169.807 9.64675C169.807 9.68253 169.814 9.71788 169.83 9.75037C169.845 9.78286 169.867 9.81172 169.894 9.83496C169.922 9.8582 169.954 9.87528 169.989 9.88501C170.024 9.89474 170.06 9.89689 170.096 9.89132C170.409 9.92724 170.71 10.0356 170.973 10.2077C171.236 10.3797 171.454 10.6106 171.61 10.8817C171.634 10.9129 171.664 10.9384 171.699 10.9562C171.734 10.974 171.772 10.9836 171.812 10.9843Z" fill="#263238"/>
<path d="M163.617 11.558C163.658 11.5609 163.699 11.5536 163.737 11.5367C163.774 11.5199 163.807 11.4939 163.831 11.4613C164.018 11.2136 164.261 11.0132 164.541 10.8767C164.822 10.7403 165.131 10.6716 165.443 10.6763C165.476 10.6805 165.509 10.678 165.541 10.6688C165.572 10.6596 165.602 10.6441 165.627 10.623C165.652 10.602 165.673 10.5761 165.688 10.5468C165.702 10.5175 165.71 10.4855 165.712 10.4529C165.715 10.4207 165.712 10.3881 165.702 10.3572C165.693 10.3262 165.677 10.2975 165.656 10.2727C165.635 10.2479 165.609 10.2276 165.58 10.2129C165.55 10.1982 165.519 10.1895 165.486 10.1872C165.091 10.1728 164.699 10.2531 164.343 10.4214C163.987 10.5897 163.677 10.8408 163.44 11.1534C163.42 11.1791 163.404 11.2085 163.395 11.2401C163.386 11.2717 163.384 11.3048 163.388 11.3373C163.392 11.3699 163.402 11.4014 163.418 11.43C163.435 11.4585 163.457 11.4836 163.483 11.5036C163.522 11.5328 163.569 11.5515 163.617 11.558Z" fill="#263238"/>
<path d="M190.496 129.046C186.833 105.628 186.057 83.6713 182.558 78.4419L165.168 78.146C165.168 78.146 175.445 115.163 179.408 130.761C183.529 146.98 193.647 193.901 193.647 193.901L199.191 194.022C199.191 194.022 198.489 147.385 190.496 129.046Z" fill="#FF8B7B"/>
<path d="M193.116 193.333L199.479 193.418C199.58 193.419 199.677 193.456 199.752 193.523C199.828 193.589 199.876 193.681 199.888 193.78L200.388 198.43C200.397 198.547 200.381 198.665 200.341 198.776C200.301 198.887 200.238 198.988 200.157 199.074C200.075 199.159 199.977 199.227 199.867 199.274C199.758 199.32 199.64 199.343 199.521 199.342C197.451 199.275 196.181 199.112 193.574 199.07C190.521 199.022 191.938 199.149 188.366 199.07C186.21 199.04 185.722 197.108 186.631 196.854C189.513 196.057 190.478 194.928 191.797 193.702C192.172 193.415 192.645 193.283 193.116 193.333Z" fill="#263238"/>
<path d="M193.494 193.726C193.518 193.726 193.541 193.72 193.562 193.709C193.582 193.697 193.599 193.68 193.61 193.659C193.625 193.639 193.633 193.615 193.633 193.59C193.633 193.565 193.625 193.541 193.61 193.52C193.433 193.321 191.84 191.582 191.113 191.709C191.045 191.717 190.981 191.742 190.927 191.783C190.872 191.823 190.829 191.876 190.802 191.938C190.751 192.038 190.724 192.149 190.724 192.261C190.724 192.373 190.751 192.484 190.802 192.584C191.156 193.261 192.634 193.605 193.494 193.75V193.726ZM191.18 191.914C191.602 191.914 192.517 192.735 193.153 193.4C191.998 193.164 191.205 192.796 191.003 192.433C190.968 192.368 190.95 192.296 190.95 192.222C190.95 192.148 190.968 192.076 191.003 192.011C191.013 191.985 191.029 191.963 191.051 191.946C191.072 191.929 191.098 191.918 191.125 191.914H191.18Z" fill="#FF4747"/>
<path d="M193.494 193.726H193.531C193.551 193.72 193.57 193.71 193.585 193.695C193.6 193.68 193.611 193.661 193.616 193.641C193.616 193.581 194.013 192.222 193.586 191.479C193.527 191.37 193.445 191.275 193.346 191.199C193.248 191.123 193.134 191.068 193.012 191.039C192.682 190.948 192.523 191.069 192.456 191.196C192.151 191.709 192.92 193.206 193.409 193.696C193.432 193.716 193.463 193.727 193.494 193.726ZM192.823 191.244H192.951C193.039 191.267 193.122 191.308 193.193 191.364C193.265 191.42 193.323 191.49 193.366 191.57C193.569 192.131 193.593 192.74 193.433 193.315C192.969 192.711 192.487 191.594 192.67 191.286C192.707 191.292 192.737 191.244 192.847 191.244H192.823Z" fill="#FF4747"/>
<path d="M164.186 77.6509C164.186 77.6509 168.643 99.0035 169.119 106.226C175.443 105.935 181.727 105.066 187.889 103.629C187.889 103.629 189.868 88.6835 183.242 78.1461C176.63 77.7777 164.186 77.6509 164.186 77.6509Z" fill="#263238"/>
<path d="M184.989 104.505C184.945 104.504 184.903 104.495 184.863 104.478C184.823 104.461 184.787 104.436 184.757 104.405C184.727 104.374 184.703 104.338 184.688 104.298C184.672 104.258 184.664 104.215 184.665 104.173C184.873 92.7958 180.33 78.9613 180.281 78.8103C180.274 78.7368 180.292 78.663 180.333 78.6011C180.374 78.5393 180.435 78.493 180.506 78.4698C180.577 78.4466 180.653 78.448 180.724 78.4737C180.794 78.4993 180.853 78.5478 180.891 78.6111C180.934 78.7499 185.514 92.6871 185.3 104.173C185.302 104.215 185.295 104.257 185.28 104.296C185.265 104.336 185.243 104.372 185.214 104.403C185.185 104.433 185.15 104.458 185.111 104.476C185.073 104.493 185.031 104.503 184.989 104.505Z" fill="white"/>
<path d="M182.906 104.867C182.82 104.864 182.738 104.827 182.679 104.765C182.62 104.703 182.587 104.62 182.589 104.535C182.796 93.158 178.131 78.9672 178.089 78.8223C178.062 78.7406 178.068 78.6516 178.107 78.5747C178.146 78.4978 178.214 78.4392 178.296 78.4117C178.38 78.3867 178.47 78.3948 178.547 78.4343C178.625 78.4737 178.684 78.5414 178.712 78.623C178.76 78.7619 183.456 93.0614 183.242 104.547C183.242 104.59 183.233 104.633 183.216 104.672C183.199 104.712 183.175 104.748 183.143 104.778C183.112 104.807 183.075 104.831 183.034 104.846C182.993 104.861 182.95 104.869 182.906 104.867Z" fill="white"/>
<path d="M155.637 75.7549L183.426 76.3588C183.466 76.3587 183.506 76.3668 183.544 76.3823C183.581 76.3979 183.615 76.4206 183.644 76.4493C183.672 76.478 183.695 76.512 183.71 76.5493C183.725 76.5867 183.732 76.6266 183.731 76.6667V78.4783C183.732 78.5193 183.724 78.56 183.709 78.598C183.694 78.6361 183.671 78.6708 183.642 78.7C183.613 78.7292 183.578 78.7525 183.54 78.7683C183.502 78.7842 183.461 78.7923 183.42 78.7923L155.771 78.6112C155.692 78.6113 155.615 78.5814 155.557 78.5275C155.5 78.4736 155.465 78.3998 155.46 78.3213L155.32 76.0689C155.318 76.0272 155.325 75.9856 155.34 75.9467C155.356 75.9079 155.379 75.8726 155.409 75.8431C155.439 75.8136 155.474 75.7905 155.514 75.7753C155.553 75.7601 155.595 75.7532 155.637 75.7549Z" fill="#263238"/>
<path d="M155.57 77.6509C155.57 77.6509 156.241 97.4637 156.241 104.118C165.321 105.845 176.294 104.776 176.294 104.776C176.294 104.776 183.194 88.6835 176.959 78.1461C170.334 77.7777 155.57 77.6509 155.57 77.6509Z" fill="#263238"/>
<path d="M179.738 59.8347L170.771 73.3079C170.579 73.5977 170.66 73.9871 170.953 74.1778L188.856 85.8301C189.149 86.0208 189.542 85.9405 189.735 85.6508L198.701 72.1776C198.894 71.8879 198.813 71.4984 198.52 71.3077L180.617 59.6554C180.324 59.4647 179.93 59.545 179.738 59.8347Z" fill="#FF4747"/>
<path d="M179.946 59.5242L170.979 72.9974C170.787 73.2871 170.868 73.6765 171.161 73.8672L189.064 85.5196C189.357 85.7103 189.751 85.6299 189.943 85.3402L198.909 71.867C199.102 71.5773 199.021 71.1879 198.728 70.9972L180.825 59.3448C180.532 59.1542 180.138 59.2345 179.946 59.5242Z" fill="#FF4747"/>
<path opacity="0.7" d="M179.946 59.5242L170.979 72.9974C170.787 73.2871 170.868 73.6765 171.161 73.8672L189.064 85.5196C189.357 85.7103 189.751 85.6299 189.943 85.3402L198.909 71.867C199.102 71.5773 199.021 71.1879 198.728 70.9972L180.825 59.3448C180.532 59.1542 180.138 59.2345 179.946 59.5242Z" fill="white"/>
<path opacity="0.2" d="M197.817 71.4131L189.244 84.6437L171.903 73.3575L180.635 60.2295L197.817 71.4131Z" fill="black"/>
<path d="M197.903 70.8996L189.068 84.1847C183.122 80.7765 177.373 77.0428 171.849 73.0011C174.792 68.5727 177.739 64.1444 180.69 59.7161C186.213 63.7578 191.96 67.4914 197.903 70.8996Z" fill="white"/>
<path opacity="0.4" d="M175.36 68.581L175.201 68.8346C175.159 68.9001 175.104 68.9564 175.039 68.9996C174.975 69.0429 174.901 69.0723 174.824 69.086C174.747 69.0996 174.668 69.0972 174.592 69.0789C174.516 69.0605 174.445 69.0267 174.383 68.9795L173.937 68.6595C173.925 68.6472 173.919 68.631 173.919 68.6142C173.919 68.5974 173.925 68.5812 173.937 68.5689L174.401 67.8744C174.407 67.868 174.414 67.8629 174.422 67.8593C174.43 67.8558 174.438 67.854 174.447 67.854C174.455 67.854 174.464 67.8558 174.472 67.8593C174.48 67.8629 174.487 67.868 174.493 67.8744L175.366 68.4783C175.373 68.485 175.379 68.4932 175.383 68.5023C175.386 68.5114 175.388 68.5212 175.387 68.5311C175.387 68.5409 175.384 68.5505 175.379 68.5591C175.374 68.5677 175.368 68.5752 175.36 68.581Z" fill="black"/>
<path d="M176.092 63.5023L173.344 67.681C173.303 67.7405 173.275 67.808 173.262 67.8789C173.249 67.9499 173.251 68.0228 173.268 68.0929C173.285 68.1629 173.318 68.2286 173.362 68.2857C173.407 68.3427 173.463 68.3897 173.528 68.4238L174.517 68.9733C174.652 69.0486 174.812 69.0699 174.963 69.0329C175.114 68.9958 175.245 68.9033 175.329 68.774L178.113 64.5953C178.153 64.5346 178.18 64.4664 178.193 64.395C178.205 64.3235 178.202 64.2503 178.184 64.1799C178.166 64.1096 178.134 64.0437 178.089 63.9863C178.045 63.9289 177.988 63.8813 177.924 63.8465L176.941 63.303C176.872 63.2602 176.795 63.2313 176.715 63.2181C176.635 63.205 176.553 63.2077 176.474 63.2263C176.395 63.2448 176.321 63.2788 176.255 63.3262C176.189 63.3736 176.134 63.4335 176.092 63.5023Z" fill="#263238"/>
<path d="M186.686 73.7922L183.212 75.8514C182.484 76.2762 181.859 76.8533 181.38 77.5422L180.202 79.2391C180.061 79.439 179.962 79.665 179.912 79.9035C179.861 80.142 179.86 80.3881 179.907 80.6272C179.955 80.8662 180.052 81.0933 180.19 81.2947C180.329 81.4961 180.507 81.6678 180.715 81.7995L182.614 83.0072C182.979 83.2486 183.42 83.3521 183.856 83.2989C184.292 83.2457 184.694 83.0393 184.989 82.7174L186.821 80.7729C186.821 80.7729 190.661 77.82 189.403 75.5495L186.686 73.7922Z" fill="#FF8B7B"/>
<path d="M188.286 33.4842C189.2 34.0196 190.023 34.6919 190.729 35.4769C191.396 36.2268 191.993 37.0353 192.512 37.8924C193.586 39.5711 194.612 41.2921 195.565 43.0916C196.526 44.9232 197.374 46.8107 198.105 48.7438C198.92 50.8445 199.51 53.0244 199.863 55.2474C199.906 55.5494 199.943 55.8513 199.967 56.1955L200.004 56.6786C200.004 56.8477 200.004 57.0651 200.004 57.2824C200.006 57.6537 199.986 58.0248 199.943 58.3936C199.943 58.7619 199.851 59.0759 199.796 59.402C199.566 60.5693 199.222 61.7118 198.77 62.8138C197.977 64.7494 197.026 66.6175 195.925 68.3996C193.841 71.7672 191.504 74.9748 188.933 77.995C188.569 78.4231 188.057 78.7024 187.497 78.7786C186.937 78.8548 186.368 78.7227 185.9 78.4077C185.433 78.0927 185.1 77.6173 184.967 77.0736C184.833 76.5299 184.909 75.9566 185.178 75.4648V75.4105C186.051 73.8344 186.906 72.1375 187.7 70.4829C188.494 68.8283 189.239 67.1436 189.886 65.4708C190.526 63.8767 191.039 62.2352 191.419 60.5614C191.575 59.8653 191.656 59.1549 191.663 58.4419C191.673 58.3072 191.673 58.172 191.663 58.0373C191.657 57.9343 191.636 57.8327 191.602 57.7353L191.504 57.3851C191.467 57.2462 191.419 57.0952 191.364 56.9322C190.848 55.4586 190.179 54.042 189.367 52.7052C188.5 51.2438 187.535 49.7704 186.552 48.303C185.569 46.8356 184.519 45.3622 183.469 43.8948C182.918 43.1753 182.422 42.4164 181.985 41.6242C181.529 40.8161 181.205 39.9418 181.026 39.0337L180.935 38.4298C180.791 37.5175 180.912 36.5836 181.284 35.7366C181.655 34.8895 182.262 34.1638 183.033 33.6437C183.804 33.1235 184.709 32.8302 185.642 32.7977C186.575 32.7652 187.498 32.9948 188.305 33.46L188.286 33.4842Z" fill="#FF8B7B"/>
</svg>
