<svg width="281" height="178" viewBox="0 0 281 178" fill="none" xmlns="http://www.w3.org/2000/svg">
<path d="M104.67 176.761L102.559 176.88L98.437 120.95L102.736 120.713L104.67 176.761Z" fill="#FF4747" stroke="#263238" stroke-linecap="round" stroke-linejoin="round"/>
<path d="M55.0337 119.701C55.0337 119.701 56.0431 114.696 58.323 114.444C60.6029 114.193 100.59 114.444 100.59 114.444C100.59 114.444 104.889 113.942 105.143 118.696L55.0337 119.701Z" fill="#263238" stroke="#263238" stroke-linecap="round" stroke-linejoin="round"/>
<path d="M105.397 117.195H51.7441V123.45H105.397V117.195Z" fill="#FF4747" stroke="#263238" stroke-linecap="round" stroke-linejoin="round"/>
<path d="M48.7088 56.8744C48.7088 56.8744 51.2358 55.8762 51.9981 60.1274C52.7605 64.3786 60.0943 109.167 59.8402 111.435C59.5861 113.704 55.5415 115.442 55.5415 115.442L47.6924 56.8744H48.7088Z" fill="#263238" stroke="#263238" stroke-linecap="round" stroke-linejoin="round"/>
<path d="M44.4033 55.8763C44.4033 55.8763 51.9984 103.931 51.4619 121.949C50.9255 139.966 45.7656 176.768 45.7656 176.768H47.5373C47.5373 176.768 55.6265 139.728 57.1441 123.456L48.6738 56.8745C48.6738 56.8745 45.6668 54.1241 44.4033 55.8763Z" fill="#FF4747" stroke="#263238" stroke-linecap="round" stroke-linejoin="round"/>
<path d="M176.929 27.2972C175.345 23.2286 174.418 18.9388 174.183 14.5854C173.894 7.7373 177.416 1.32206 186.063 1.17546C194.709 1.02887 202.043 3.0393 202.551 6.67624C203.06 10.3132 199.333 11.5627 199.333 11.5627C199.333 11.5627 201.168 18.1385 200.702 19.2415C200.236 20.3444 199.029 21.21 199.29 22.5573C199.552 23.9046 201.549 25.9429 200.526 26.8155C199.502 27.6881 198.5 28.3862 198.5 28.3862C198.5 28.3862 195.373 34.6199 193.954 35.6601C192.535 36.7002 190.277 36.1627 190.277 36.1627L188.597 35.4646C188.597 35.4646 185.413 37.14 184.474 39.5413C183.536 41.9427 182.032 46.9618 182.032 46.9618C182.032 46.9618 177.74 39.8415 174.726 39.0597C172.606 38.5542 170.449 38.2157 168.275 38.0475C168.275 38.0475 176.308 30.6689 176.929 27.2972Z" fill="white"/>
<mask id="mask0_133_644" style="mask-type:luminance" maskUnits="userSpaceOnUse" x="168" y="1" width="35" height="46">
<path d="M176.929 27.2972C175.345 23.2286 174.418 18.9388 174.183 14.5854C173.894 7.7373 177.416 1.32206 186.063 1.17546C194.709 1.02887 202.043 3.0393 202.551 6.67624C203.06 10.3132 199.333 11.5627 199.333 11.5627C199.333 11.5627 201.168 18.1385 200.702 19.2415C200.236 20.3444 199.029 21.21 199.29 22.5573C199.552 23.9046 201.549 25.9429 200.526 26.8155C199.502 27.6881 198.5 28.3862 198.5 28.3862C198.5 28.3862 195.373 34.6199 193.954 35.6601C192.535 36.7002 190.277 36.1627 190.277 36.1627L188.597 35.4646C188.597 35.4646 185.413 37.14 184.474 39.5413C183.536 41.9427 182.032 46.9618 182.032 46.9618C182.032 46.9618 177.74 39.8415 174.726 39.0597C172.606 38.5542 170.449 38.2157 168.275 38.0475C168.275 38.0475 176.308 30.6689 176.929 27.2972Z" fill="white"/>
</mask>
<g mask="url(#mask0_133_644)">
<path d="M188.625 35.4993L190.305 36.1974C191.066 36.3582 191.852 36.3771 192.62 36.2532C190.573 34.9967 184.997 31.6041 186.225 29.1748C187.524 26.6129 189.677 23.8415 189.465 21.496C189.253 19.1505 192.705 15.9464 193.347 12.107C193.82 9.31473 189.5 3.92564 187.107 1.18921H186.063C177.416 1.35675 173.894 7.75105 174.183 14.5991C174.418 18.9526 175.345 23.2423 176.929 27.3109C176.308 30.6826 168.303 38.0961 168.303 38.0961C170.477 38.2644 172.635 38.6028 174.755 39.1083C177.769 39.8901 182.06 47.0105 182.06 47.0105C182.06 47.0105 183.564 41.9913 184.503 39.59C185.442 37.1886 188.625 35.4993 188.625 35.4993Z" fill="#FF4747"/>
<path opacity="0.5" d="M188.625 35.4993L190.305 36.1974C191.066 36.3582 191.852 36.3771 192.62 36.2532C190.573 34.9967 184.997 31.6041 186.225 29.1748C187.524 26.6129 189.677 23.8415 189.465 21.496C189.253 19.1505 192.705 15.9464 193.347 12.107C193.82 9.31473 189.5 3.92564 187.107 1.18921H186.063C177.416 1.35675 173.894 7.75105 174.183 14.5991C174.418 18.9526 175.345 23.2423 176.929 27.3109C176.308 30.6826 168.303 38.0961 168.303 38.0961C170.477 38.2644 172.635 38.6028 174.755 39.1083C177.769 39.8901 182.06 47.0105 182.06 47.0105C182.06 47.0105 183.564 41.9913 184.503 39.59C185.442 37.1886 188.625 35.4993 188.625 35.4993Z" fill="white"/>
</g>
<path d="M176.929 27.2972C175.345 23.2286 174.418 18.9388 174.183 14.5854C173.894 7.7373 177.416 1.32206 186.063 1.17546C194.709 1.02887 202.043 3.0393 202.551 6.67624C203.06 10.3132 199.333 11.5627 199.333 11.5627C199.333 11.5627 201.168 18.1385 200.702 19.2415C200.236 20.3444 199.029 21.21 199.29 22.5573C199.552 23.9046 201.549 25.9429 200.526 26.8155C199.502 27.6881 198.5 28.3862 198.5 28.3862C198.5 28.3862 195.373 34.6199 193.954 35.6601C192.535 36.7002 190.277 36.1627 190.277 36.1627L188.597 35.4646C188.597 35.4646 185.413 37.14 184.474 39.5413C183.536 41.9427 182.032 46.9618 182.032 46.9618C182.032 46.9618 177.74 39.8415 174.726 39.0597C172.606 38.5542 170.449 38.2157 168.275 38.0475C168.275 38.0475 176.308 30.6689 176.929 27.2972Z" stroke="#263238" stroke-linecap="round" stroke-linejoin="round"/>
<path d="M199.382 11.779C199.347 11.6533 199.333 11.5765 199.333 11.5765C199.333 11.5765 203.06 10.32 202.551 6.69005C202.043 3.06009 194.702 1.02871 186.062 1.18927C177.423 1.34983 173.893 7.75111 174.183 14.5992C174.416 18.9006 175.326 23.1399 176.879 27.1644C177.98 26.7805 180.027 26.0684 180.867 25.852C181.473 25.7398 182.029 25.4476 182.463 25.0144C182.463 25.0144 178.362 20.5607 178.933 18.1314C179.505 15.7021 183.232 14.2501 184.284 15.6532C185.335 17.0564 184.46 21.3565 184.46 21.3565C184.46 21.3565 185.208 21.6008 185.667 20.4909C186.126 19.3809 185.83 18.2291 187.785 17.4124C189.74 16.5956 191.724 16.0163 191.963 15.2344C192.203 14.4526 189.931 11.4928 190.594 10.2083C191.152 9.15424 197.307 11.0879 199.382 11.779Z" fill="#263238" stroke="#263238" stroke-linecap="round" stroke-linejoin="round"/>
<path d="M198.641 19.3461C198.641 19.3461 197.173 17.1821 195.479 18.2083" stroke="#263238" stroke-linecap="round" stroke-linejoin="round"/>
<path d="M197.484 22.3548C197.434 23.0529 197.095 23.5555 196.721 23.5346C196.347 23.5136 196.093 22.9412 196.142 22.2641C196.192 21.5869 196.524 21.0634 196.898 21.0843C197.272 21.1053 197.526 21.6777 197.484 22.3548Z" fill="#263238"/>
<path d="M195.69 30.9761L194.3 30.3757" stroke="#263238" stroke-linecap="round" stroke-linejoin="round"/>
<path d="M184.503 39.5761L185.484 33.3494" stroke="#263238" stroke-linecap="round" stroke-linejoin="round"/>
<path d="M183.211 26.3479C183.137 27.4765 183.256 28.6094 183.564 29.6986C184.058 31.0948 187.256 33.4752 187.256 33.4752" stroke="#263238" stroke-linecap="round" stroke-linejoin="round"/>
<path d="M137.683 135.267C137.683 135.267 129.918 143.163 127.448 143.644C124.977 144.126 122.246 141.061 119.789 137.787C117.333 134.513 109.201 115.784 107.253 112.713C105.305 109.641 102.983 105.851 102.983 105.851C102.983 105.851 95.2183 109.341 94.8089 111.289C94.5813 112.419 94.1714 113.505 93.5948 114.507C93.5948 114.507 91.7031 115.435 89.7126 112.796C87.7221 110.158 88.3009 103.994 90.4184 103.086C92.536 102.179 98.2958 93.8439 99.5452 92.6153C100.795 91.3867 101.875 89.5089 104.324 91.9661C106.773 94.4233 109.971 101.181 112.279 104.741C114.587 108.301 118.794 113.32 122.069 117.76C124.688 121.306 129.834 125.606 129.834 125.606L137.683 135.267Z" fill="white"/>
<mask id="mask1_133_644" style="mask-type:luminance" maskUnits="userSpaceOnUse" x="88" y="90" width="50" height="54">
<path d="M137.683 135.267C137.683 135.267 129.918 143.163 127.448 143.644C124.977 144.126 122.246 141.061 119.789 137.787C117.333 134.513 109.201 115.784 107.253 112.713C105.305 109.641 102.983 105.851 102.983 105.851C102.983 105.851 95.2183 109.341 94.8089 111.289C94.5813 112.419 94.1714 113.505 93.5948 114.507C93.5948 114.507 91.7031 115.435 89.7126 112.796C87.7221 110.158 88.3009 103.994 90.4184 103.086C92.536 102.179 98.2958 93.8439 99.5452 92.6153C100.795 91.3867 101.875 89.5089 104.324 91.9661C106.773 94.4233 109.971 101.181 112.279 104.741C114.587 108.301 118.794 113.32 122.069 117.76C124.688 121.306 129.834 125.606 129.834 125.606L137.683 135.267Z" fill="white"/>
</mask>
<g mask="url(#mask1_133_644)">
<path d="M129.841 125.634C129.841 125.634 124.716 121.334 122.076 117.788C118.822 113.355 114.658 108.329 112.328 104.769C110.917 102.598 109.166 99.24 107.479 96.3918C101.126 90.563 101.395 96.706 99.5241 101.641C98.9805 103.037 99.4394 104.929 100.505 107.079C101.917 106.381 103.004 105.865 103.004 105.865C103.004 105.865 105.333 109.648 107.274 112.727C108.157 114.123 110.331 118.772 112.66 123.728C113.26 124.51 113.839 125.285 114.389 126.046C120.742 134.807 123.248 143.253 126.389 142.311C129.53 141.368 133.031 132.615 133.031 132.615L133.257 129.822L129.841 125.634Z" fill="#FF4747"/>
<path opacity="0.5" d="M129.841 125.634C129.841 125.634 124.716 121.334 122.076 117.788C118.822 113.355 114.658 108.329 112.328 104.769C110.917 102.598 109.166 99.24 107.479 96.3918C101.126 90.563 101.395 96.706 99.5241 101.641C98.9805 103.037 99.4394 104.929 100.505 107.079C101.917 106.381 103.004 105.865 103.004 105.865C103.004 105.865 105.333 109.648 107.274 112.727C108.157 114.123 110.331 118.772 112.66 123.728C113.26 124.51 113.839 125.285 114.389 126.046C120.742 134.807 123.248 143.253 126.389 142.311C129.53 141.368 133.031 132.615 133.031 132.615L133.257 129.822L129.841 125.634Z" fill="white"/>
</g>
<path d="M137.683 135.267C137.683 135.267 129.918 143.163 127.448 143.644C124.977 144.126 122.246 141.061 119.789 137.787C117.333 134.513 109.201 115.784 107.253 112.713C105.305 109.641 102.983 105.851 102.983 105.851C102.983 105.851 95.2183 109.341 94.8089 111.289C94.5813 112.419 94.1714 113.505 93.5948 114.507C93.5948 114.507 91.7031 115.435 89.7126 112.796C87.7221 110.158 88.3009 103.994 90.4184 103.086C92.536 102.179 98.2958 93.8439 99.5452 92.6153C100.795 91.3867 101.875 89.5089 104.324 91.9661C106.773 94.4233 109.971 101.181 112.279 104.741C114.587 108.301 118.794 113.32 122.069 117.76C124.688 121.306 129.834 125.606 129.834 125.606L137.683 135.267Z" stroke="#263238" stroke-linecap="round" stroke-linejoin="round"/>
<path d="M174.204 103.289C179.02 105.858 183.61 108.821 187.926 112.147C193.806 116.894 195.634 119.379 195.387 121.404C195.14 123.428 180.656 148.894 179.66 152.328C178.665 155.763 175.425 164.377 175.425 164.377C175.425 164.377 176.922 165.773 181.072 168.928C185.222 172.084 191.448 173.675 191.512 174.331C191.575 174.988 190.333 176.007 187.22 176.314C184.107 176.621 179.54 175.972 176.999 175.337C174.458 174.701 170.724 175.518 167.385 175.853C164.047 176.188 163.856 172.202 163.644 169.996C163.433 167.79 169.51 156.23 170.646 151.895C171.783 147.56 174.084 141.543 174.105 137.32C174.126 133.096 176.886 121.474 176.886 121.474L163.574 118.8L174.204 103.289Z" fill="white"/>
<mask id="mask2_133_644" style="mask-type:luminance" maskUnits="userSpaceOnUse" x="163" y="103" width="33" height="74">
<path d="M174.204 103.289C179.02 105.858 183.61 108.821 187.926 112.147C193.806 116.894 195.634 119.379 195.387 121.404C195.14 123.428 180.656 148.894 179.66 152.328C178.665 155.763 175.425 164.377 175.425 164.377C175.425 164.377 176.922 165.773 181.072 168.928C185.222 172.084 191.448 173.675 191.512 174.331C191.575 174.988 190.333 176.007 187.22 176.314C184.107 176.621 179.54 175.972 176.999 175.337C174.458 174.701 170.724 175.518 167.385 175.853C164.047 176.188 163.856 172.202 163.644 169.996C163.433 167.79 169.51 156.23 170.646 151.895C171.783 147.56 174.084 141.543 174.105 137.32C174.126 133.096 176.886 121.474 176.886 121.474L163.574 118.8L174.204 103.289Z" fill="white"/>
</mask>
<g mask="url(#mask2_133_644)">
<path d="M184.912 126.046C184.912 126.046 189.345 124.168 189.345 121.355C189.345 118.542 176.371 115.721 176.371 115.721C176.371 115.721 173.682 113.18 169.722 109.816L163.553 118.8L176.865 121.473C176.865 121.473 174.098 133.089 174.084 137.32C174.07 141.55 171.755 147.553 170.625 151.895C169.496 156.237 163.397 167.797 163.623 169.996C163.849 172.195 164.026 176.181 167.364 175.853C168.649 175.72 169.99 175.525 171.296 175.364C172.503 170.687 173.915 159.49 174.79 155.455C175.743 151.072 182.067 140.098 184.284 134.807C186.5 129.515 184.912 126.046 184.912 126.046Z" fill="#FF4747"/>
<path opacity="0.5" d="M184.912 126.046C184.912 126.046 189.345 124.168 189.345 121.355C189.345 118.542 176.371 115.721 176.371 115.721C176.371 115.721 173.682 113.18 169.722 109.816L163.553 118.8L176.865 121.473C176.865 121.473 174.098 133.089 174.084 137.32C174.07 141.55 171.755 147.553 170.625 151.895C169.496 156.237 163.397 167.797 163.623 169.996C163.849 172.195 164.026 176.181 167.364 175.853C168.649 175.72 169.99 175.525 171.296 175.364C172.503 170.687 173.915 159.49 174.79 155.455C175.743 151.072 182.067 140.098 184.284 134.807C186.5 129.515 184.912 126.046 184.912 126.046Z" fill="white"/>
</g>
<path d="M174.204 103.289C179.02 105.858 183.61 108.821 187.926 112.147C193.806 116.894 195.634 119.379 195.387 121.404C195.14 123.428 180.656 148.894 179.66 152.328C178.665 155.763 175.425 164.377 175.425 164.377C175.425 164.377 176.922 165.773 181.072 168.928C185.222 172.084 191.448 173.675 191.512 174.331C191.575 174.988 190.333 176.007 187.22 176.314C184.107 176.621 179.54 175.972 176.999 175.337C174.458 174.701 170.724 175.518 167.385 175.853C164.047 176.188 163.856 172.202 163.644 169.996C163.433 167.79 169.51 156.23 170.646 151.895C171.783 147.56 174.084 141.543 174.105 137.32C174.126 133.096 176.886 121.474 176.886 121.474L163.574 118.8L174.204 103.289Z" stroke="#263238" stroke-linecap="round" stroke-linejoin="round"/>
<path d="M170.322 38.6618C168.88 39.3996 167.542 40.3194 166.341 41.3982C159.988 47.0316 160.567 52.5673 161.936 54.9477C161.936 54.9477 160.115 61.6492 160.461 64.8952C160.807 68.1412 160.016 73.9701 159.684 78.6891C159.353 83.408 156.275 88.8879 157.292 93.5161C158.308 98.1443 156.988 114.172 156.988 114.172C156.988 114.172 155.195 117.837 154.87 119.903C154.81 120.327 154.81 120.757 154.87 121.181L151.934 120.978L152.082 118.884C152.106 118.558 151.997 118.236 151.781 117.99C151.564 117.743 151.258 117.591 150.928 117.568C150.599 117.545 150.273 117.652 150.024 117.866C149.774 118.08 149.621 118.384 149.598 118.709L149.118 125.509C149.107 125.67 149.128 125.832 149.18 125.985C149.232 126.138 149.314 126.28 149.422 126.402C149.529 126.524 149.66 126.623 149.806 126.695C149.953 126.767 150.112 126.81 150.275 126.821C150.438 126.832 150.602 126.811 150.757 126.759C150.912 126.708 151.055 126.627 151.178 126.52C151.302 126.414 151.403 126.285 151.475 126.14C151.548 125.995 151.591 125.837 151.602 125.676L151.75 123.582L155.809 123.861L155.887 123.987L154.122 123.91C154.136 124.409 154.254 124.9 154.469 125.352C154.684 125.803 154.991 126.206 155.372 126.535C156.642 127.568 160.51 127.079 160.51 127.079C160.51 127.079 162.818 127.079 163.072 126.116C163.182 125.543 163.236 124.961 163.235 124.378L165.056 124.503L164.908 126.598C164.884 126.923 164.993 127.245 165.209 127.492C165.426 127.739 165.732 127.89 166.062 127.913C166.391 127.937 166.717 127.829 166.966 127.615C167.216 127.401 167.369 127.098 167.392 126.772L167.872 119.973C167.896 119.647 167.787 119.325 167.571 119.079C167.354 118.832 167.048 118.68 166.718 118.657C166.389 118.634 166.063 118.741 165.814 118.955C165.564 119.169 165.411 119.473 165.388 119.798L165.239 121.893L163.284 121.76C163.284 120.873 163.284 120.022 163.362 119.345C163.358 117.24 163.186 115.139 162.847 113.062C162.847 113.062 168.402 91.4219 168.719 86.9123C168.928 84.3219 168.928 81.7193 168.719 79.1289C168.719 79.1289 173.42 72.2459 174.451 68.5252C175.148 65.6889 175.608 62.8008 175.827 59.8901C175.827 59.8901 181.1 55.8901 181.538 49.6634C181.651 48.1067 181.75 46.8292 181.778 45.7332C181.82 44.3823 181.502 43.0442 180.858 41.8524C180.213 40.6606 179.264 39.6568 178.105 38.9412C176.946 38.2255 175.617 37.8231 174.251 37.7741C172.885 37.7251 171.53 38.0312 170.322 38.6618Z" fill="#263238" stroke="#263238" stroke-linecap="round" stroke-linejoin="round"/>
<path d="M138.749 94.7655C137.339 96.8604 136.336 99.197 135.791 101.655C135.085 105.376 134.493 107.331 134.493 107.331C134.493 107.331 133.949 111.952 132.163 114.933C130.377 117.914 126.354 127.393 126.354 127.393C128.021 130.864 130.707 133.756 134.062 135.693C137.684 137.834 141.701 139.241 145.878 139.833L155.894 115.449L157.842 115.289L174.444 125.418C176.589 122.491 178.979 119.747 181.588 117.215C183.69 115.302 185.686 113.277 187.566 111.149C187.566 111.149 176.858 100.301 170.449 96.1058C165.113 92.6155 162.529 91.1775 162.529 91.1775C162.529 91.1775 145.843 86.3817 138.749 94.7655Z" fill="#263238" stroke="#263238" stroke-linecap="round" stroke-linejoin="round"/>
<path d="M146.725 92.8735C146.725 92.8735 141.494 109.809 140.464 111.721C139.603 113.327 131.909 127.33 129.41 131.875C130.769 133.354 132.336 134.633 134.062 135.672C134.676 136.042 135.283 136.37 135.897 136.677L147.191 111.742L152.075 96.6012L146.725 92.8735Z" fill="white" stroke="#263238" stroke-linecap="round" stroke-linejoin="round"/>
<path d="M182.78 47.6179C182.78 47.6179 181.213 37.2655 175.016 35.3179C168.819 33.3703 159.664 40.9024 156.198 46.5428C152.732 52.1832 148.116 74.0607 146.838 78.5214C145.56 82.982 137.436 94.9469 137.436 94.9469C137.436 94.9469 140.125 100.259 149.605 101.858C159.085 103.456 161.647 102.5 161.647 102.5C161.647 102.5 166.962 86.9331 171.614 80.804C176.265 74.675 182.202 63.8898 183.246 57.328C184.291 50.7661 182.78 47.6179 182.78 47.6179Z" fill="#FF4747" stroke="#263238" stroke-linecap="round" stroke-linejoin="round"/>
<path d="M162.854 121.883L148.708 120.907L148.521 123.553L162.667 124.529L162.854 121.883Z" fill="white" stroke="#263238" stroke-linecap="round" stroke-linejoin="round"/>
<path d="M163.348 127.896C163.511 127.908 163.675 127.889 163.83 127.838C163.985 127.787 164.128 127.707 164.252 127.601C164.375 127.495 164.476 127.366 164.549 127.222C164.621 127.077 164.664 126.919 164.675 126.758L165.155 119.959C165.178 119.634 165.07 119.313 164.854 119.067C164.639 118.821 164.333 118.67 164.004 118.647C163.676 118.624 163.352 118.731 163.103 118.944C162.854 119.157 162.701 119.46 162.677 119.784L162.197 126.584C162.174 126.909 162.282 127.229 162.498 127.475C162.714 127.722 163.019 127.873 163.348 127.896Z" fill="white" stroke="#263238" stroke-linecap="round" stroke-linejoin="round"/>
<path d="M147.565 126.807C147.728 126.818 147.892 126.797 148.047 126.746C148.202 126.695 148.346 126.613 148.469 126.507C148.592 126.401 148.693 126.271 148.766 126.126C148.838 125.981 148.881 125.823 148.892 125.662L149.372 118.87C149.393 118.544 149.284 118.223 149.067 117.977C148.85 117.732 148.543 117.581 148.214 117.557C147.886 117.534 147.562 117.641 147.313 117.855C147.064 118.068 146.911 118.37 146.887 118.695L146.407 125.494C146.386 125.82 146.496 126.141 146.713 126.387C146.93 126.632 147.236 126.783 147.565 126.807Z" fill="white" stroke="#263238" stroke-linecap="round" stroke-linejoin="round"/>
<path d="M179.047 45.6912C179.076 44.3507 178.752 43.0255 178.107 41.8462C177.462 40.6668 176.518 39.6737 175.367 38.9646C174.216 38.2554 172.899 37.8546 171.544 37.8015C170.189 37.7484 168.844 38.0448 167.64 38.6617C166.198 39.3977 164.859 40.3177 163.659 41.3981C157.306 47.0315 157.885 52.5672 159.247 54.9476C159.247 54.9476 157.433 61.6491 157.779 64.8951C158.125 68.1411 157.334 73.97 156.995 78.689C156.657 83.4079 153.593 88.8877 154.61 93.5159C155.626 98.1441 154.306 114.172 154.306 114.172C154.306 114.172 152.506 117.837 152.189 119.903C152.065 121.348 152.413 122.794 153.184 124.029L151.426 123.952C151.44 124.451 151.558 124.942 151.773 125.393C151.988 125.845 152.295 126.248 152.676 126.576C153.946 127.61 157.814 127.121 157.814 127.121C157.814 127.121 160.115 127.121 160.377 126.158C160.638 125.194 160.518 121.425 160.666 119.351C160.662 117.247 160.49 115.146 160.151 113.069C160.151 113.069 165.706 91.4287 166.023 86.9192C166.23 84.3287 166.23 81.7262 166.023 79.1357C166.023 79.1357 170.732 72.2528 171.762 68.5321C172.459 65.6958 172.919 62.8077 173.139 59.8969C173.139 59.8969 178.411 55.897 178.849 49.6702C178.912 48.0647 179.018 46.7872 179.047 45.6912Z" fill="white"/>
<mask id="mask3_133_644" style="mask-type:luminance" maskUnits="userSpaceOnUse" x="151" y="37" width="29" height="91">
<path d="M179.047 45.6912C179.076 44.3507 178.752 43.0255 178.107 41.8462C177.462 40.6668 176.518 39.6737 175.367 38.9646C174.216 38.2554 172.899 37.8546 171.544 37.8015C170.189 37.7484 168.844 38.0448 167.64 38.6617C166.198 39.3977 164.859 40.3177 163.659 41.3981C157.306 47.0315 157.885 52.5672 159.247 54.9476C159.247 54.9476 157.433 61.6491 157.779 64.8951C158.125 68.1411 157.334 73.97 156.995 78.689C156.657 83.4079 153.593 88.8877 154.61 93.5159C155.626 98.1441 154.306 114.172 154.306 114.172C154.306 114.172 152.506 117.837 152.189 119.903C152.065 121.348 152.413 122.794 153.184 124.029L151.426 123.952C151.44 124.451 151.558 124.942 151.773 125.393C151.988 125.845 152.295 126.248 152.676 126.576C153.946 127.61 157.814 127.121 157.814 127.121C157.814 127.121 160.115 127.121 160.377 126.158C160.638 125.194 160.518 121.425 160.666 119.351C160.662 117.247 160.49 115.146 160.151 113.069C160.151 113.069 165.706 91.4287 166.023 86.9192C166.23 84.3287 166.23 81.7262 166.023 79.1357C166.023 79.1357 170.732 72.2528 171.762 68.5321C172.459 65.6958 172.919 62.8077 173.139 59.8969C173.139 59.8969 178.411 55.897 178.849 49.6702C178.912 48.0647 179.018 46.7872 179.047 45.6912Z" fill="white"/>
</mask>
<g mask="url(#mask3_133_644)">
<path d="M169.405 37.9636C168.794 38.1077 168.201 38.3208 167.64 38.5989C166.198 39.3349 164.859 40.2549 163.659 41.3353C157.306 46.9687 157.885 52.5044 159.247 54.8848C159.247 54.8848 157.433 61.5863 157.779 64.8323C158.125 68.0783 157.334 73.9072 156.995 78.6261C156.657 83.3451 153.593 88.8249 154.61 93.4531C155.626 98.0813 154.306 114.109 154.306 114.109C154.306 114.109 152.506 117.774 152.189 119.84C152.065 121.285 152.413 122.732 153.184 123.966L151.426 123.889C151.44 124.388 151.558 124.879 151.773 125.331C151.988 125.782 152.295 126.185 152.676 126.514C153.946 127.547 157.814 127.058 157.814 127.058C157.814 127.058 160.115 127.058 160.377 126.095C160.445 125.775 160.485 125.451 160.497 125.125C159.508 124.524 158.471 124.001 157.828 123.617C155.457 122.221 157.355 117.53 157.588 113.313C157.821 109.097 158.061 98.563 159.706 95.9941C161.351 93.4252 161.598 99.4845 161.598 93.8999C161.598 88.3153 160.892 84.7691 160.892 81.9559C160.892 79.1427 162.304 77.0694 164.675 72.3645C167.047 67.6595 164.202 63.9318 164.915 62.061C165.628 60.1901 171.07 55.9738 172.489 49.4189C172.925 47.5768 172.956 45.6638 172.583 43.8084C172.209 41.953 171.438 40.1982 170.322 38.6617L169.405 37.9636Z" fill="#FF4747"/>
<path opacity="0.5" d="M169.405 37.9636C168.794 38.1077 168.201 38.3208 167.64 38.5989C166.198 39.3349 164.859 40.2549 163.659 41.3353C157.306 46.9687 157.885 52.5044 159.247 54.8848C159.247 54.8848 157.433 61.5863 157.779 64.8323C158.125 68.0783 157.334 73.9072 156.995 78.6261C156.657 83.3451 153.593 88.8249 154.61 93.4531C155.626 98.0813 154.306 114.109 154.306 114.109C154.306 114.109 152.506 117.774 152.189 119.84C152.065 121.285 152.413 122.732 153.184 123.966L151.426 123.889C151.44 124.388 151.558 124.879 151.773 125.331C151.988 125.782 152.295 126.185 152.676 126.514C153.946 127.547 157.814 127.058 157.814 127.058C157.814 127.058 160.115 127.058 160.377 126.095C160.445 125.775 160.485 125.451 160.497 125.125C159.508 124.524 158.471 124.001 157.828 123.617C155.457 122.221 157.355 117.53 157.588 113.313C157.821 109.097 158.061 98.563 159.706 95.9941C161.351 93.4252 161.598 99.4845 161.598 93.8999C161.598 88.3153 160.892 84.7691 160.892 81.9559C160.892 79.1427 162.304 77.0694 164.675 72.3645C167.047 67.6595 164.202 63.9318 164.915 62.061C165.628 60.1901 171.07 55.9738 172.489 49.4189C172.925 47.5768 172.956 45.6638 172.583 43.8084C172.209 41.953 171.438 40.1982 170.322 38.6617L169.405 37.9636Z" fill="white"/>
</g>
<path d="M179.047 45.6912C179.076 44.3507 178.752 43.0255 178.107 41.8462C177.462 40.6668 176.518 39.6737 175.367 38.9646C174.216 38.2554 172.899 37.8546 171.544 37.8015C170.189 37.7484 168.844 38.0448 167.64 38.6617C166.198 39.3977 164.859 40.3177 163.659 41.3981C157.306 47.0315 157.885 52.5672 159.247 54.9476C159.247 54.9476 157.433 61.6491 157.779 64.8951C158.125 68.1411 157.334 73.97 156.995 78.689C156.657 83.4079 153.593 88.8877 154.61 93.5159C155.626 98.1441 154.306 114.172 154.306 114.172C154.306 114.172 152.506 117.837 152.189 119.903C152.065 121.348 152.413 122.794 153.184 124.029L151.426 123.952C151.44 124.451 151.558 124.942 151.773 125.393C151.988 125.845 152.295 126.248 152.676 126.576C153.946 127.61 157.814 127.121 157.814 127.121C157.814 127.121 160.115 127.121 160.377 126.158C160.638 125.194 160.518 121.425 160.666 119.351C160.662 117.247 160.49 115.146 160.151 113.069C160.151 113.069 165.706 91.4287 166.023 86.9192C166.23 84.3287 166.23 81.7262 166.023 79.1357C166.023 79.1357 170.732 72.2528 171.762 68.5321C172.459 65.6958 172.919 62.8077 173.139 59.8969C173.139 59.8969 178.411 55.897 178.849 49.6702C178.912 48.0647 179.018 46.7872 179.047 45.6912Z" stroke="#263238" stroke-linecap="round" stroke-linejoin="round"/>
<path d="M173.096 59.8479L167.865 61.7885" stroke="#263238" stroke-linecap="round" stroke-linejoin="round"/>
<path d="M159.247 54.9125L163.094 46.6404" stroke="#263238" stroke-linecap="round" stroke-linejoin="round"/>
<path d="M109.83 100.566C107.995 97.2925 106.018 93.6626 104.352 91.9942C101.903 89.537 100.823 91.4357 99.5737 92.6434C98.3243 93.851 92.5645 102.186 90.4469 103.1C88.3293 104.015 87.7294 110.172 89.7411 112.811C91.7528 115.449 93.6233 114.521 93.6233 114.521C94.1999 113.52 94.6098 112.433 94.8374 111.303C95.2538 109.341 103.011 105.865 103.011 105.865C103.809 104.265 104.712 102.719 105.715 101.237C106.555 99.9731 108.376 100.155 109.83 100.566Z" fill="#FF4747" stroke="#263238" stroke-linecap="round" stroke-linejoin="round"/>
<path d="M104.352 91.9942C101.903 89.537 100.823 91.4357 99.5737 92.6434C98.3243 93.851 92.5645 102.186 90.4469 103.1C88.3293 104.015 87.7294 110.172 89.7411 112.811C90.191 113.456 90.7914 113.985 91.4916 114.353C89.8611 112.259 89.8964 109.537 90.2916 106.807C90.7222 103.806 92.8963 103.156 97.0185 98.8632C99.3485 96.4387 101.901 94.2327 104.642 92.2734C104.564 92.1757 104.437 92.0849 104.352 91.9942Z" fill="#263238" stroke="#263238" stroke-linecap="round" stroke-linejoin="round"/>
<path d="M181.051 168.928C176.908 165.78 175.404 164.377 175.404 164.377C175.404 164.377 175.122 165.962 171.804 166.513C169.503 166.897 166.906 165.731 165.155 165.075C164.061 167.169 163.511 168.942 163.616 169.996C163.842 172.202 164.019 176.181 167.357 175.853C170.696 175.525 174.416 174.701 176.971 175.337C179.526 175.972 184.079 176.628 187.192 176.314C190.305 176 191.554 174.995 191.484 174.331C191.413 173.668 185.195 172.07 181.051 168.928Z" fill="#FF4747" stroke="#263238" stroke-linecap="round" stroke-linejoin="round"/>
<path d="M191.491 174.331C191.491 174.248 191.364 174.136 191.152 174.017C185.759 176.363 180.797 173.71 176.943 172.977C172.545 172.146 170.908 173.954 166.546 173.766C165.753 173.742 164.963 173.646 164.188 173.48C164.647 174.876 165.522 176.035 167.364 175.853C170.703 175.518 174.423 174.701 176.978 175.337C179.533 175.972 184.086 176.628 187.199 176.314C190.312 176 191.561 174.995 191.491 174.331Z" fill="#263238" stroke="#263238" stroke-linecap="round" stroke-linejoin="round"/>
<path d="M176.865 121.474L182.399 123.449" stroke="#263238" stroke-linecap="round" stroke-linejoin="round"/>
<path d="M1 176.796H279.37" stroke="#263238" stroke-width="2" stroke-linecap="round" stroke-linejoin="round"/>
</svg>
