<svg width="237" height="207" viewBox="0 0 237 207" fill="none" xmlns="http://www.w3.org/2000/svg">
<path d="M118.39 206.589C183.775 206.589 236.78 203.528 236.78 199.753C236.78 195.978 183.775 192.917 118.39 192.917C53.005 192.917 0 195.978 0 199.753C0 203.528 53.005 206.589 118.39 206.589Z" fill="#F5F5F5"/>
<path d="M66.489 72.9658C68.3261 73.1187 70.1188 73.6059 71.7769 74.403L76.7899 76.4924C78.4569 77.1747 80.1177 77.8511 81.7724 78.4791C83.3681 79.0986 84.9992 79.6248 86.6573 80.0552C87.042 80.1458 87.4205 80.2303 87.7808 80.2967L88.947 80.4658L90.211 80.5805L91.5177 80.6409C93.2884 80.7074 95.1141 80.6953 96.9398 80.6409C98.7656 80.5866 100.603 80.5141 102.435 80.4054C104.267 80.2967 106.136 80.2001 107.961 80.0552C108.414 80.0424 108.856 80.1922 109.206 80.4768C109.556 80.7615 109.789 81.1617 109.864 81.6035C109.938 82.0453 109.848 82.4989 109.611 82.8803C109.373 83.2617 109.004 83.5452 108.572 83.6784C104.908 84.5962 101.245 85.3752 97.465 86.0274C95.5843 86.3535 93.6914 86.6313 91.7375 86.8668L90.2598 87.0117L88.7272 87.1023C88.1899 87.1023 87.6587 87.1023 87.1091 87.1023C86.5596 87.1023 85.9917 87.0359 85.4544 86.9815C83.4432 86.7438 81.4474 86.393 79.4766 85.9308C77.5654 85.502 75.6969 84.9827 73.859 84.4211C72.0211 83.8595 70.1954 83.2134 68.4369 82.5673C66.5814 81.9749 64.8703 81.0085 63.4116 79.7291C62.8179 79.179 62.4086 78.4626 62.2385 77.6758C62.0684 76.8891 62.1458 76.0698 62.4601 75.3277C62.7744 74.5857 63.3108 73.9565 63.9971 73.5246C64.6834 73.0927 65.4869 72.8788 66.2997 72.9115L66.489 72.9658Z" fill="#FFC3BD"/>
<path d="M105.824 80.6468L109.433 79.4391C110.182 79.1866 110.978 79.1 111.765 79.1855L113.707 79.3908C113.936 79.4147 114.159 79.4837 114.361 79.5936C114.563 79.7036 114.741 79.8524 114.884 80.0312C115.028 80.21 115.133 80.4153 115.196 80.6351C115.258 80.8549 115.275 81.0847 115.246 81.3111L114.977 83.4065C114.924 83.81 114.728 84.1819 114.424 84.456C114.12 84.7302 113.727 84.8889 113.316 84.9041L110.813 84.9886C110.813 84.9886 106.337 85.9005 105.464 83.6299L105.824 80.6468Z" fill="#FFC3BD"/>
<path d="M49.2214 70.659C53.6483 69.2278 58.9911 69.88 58.9911 69.88L68.6325 72.4887C69.6386 72.7845 70.5216 73.393 71.1507 74.2239C71.7798 75.0549 72.1215 76.0641 72.1252 77.1022C72.3328 88.9259 69.9514 94.7713 68.4005 116.595C67.5578 116.51 42.633 114.409 42.633 114.409C44.9655 102.265 42.5231 93.2435 42.5841 80.4959C42.6208 73.5998 45.8875 71.7338 49.2214 70.659Z" fill="#263238"/>
<path opacity="0.7" d="M52.4026 86.5907C55.0344 85.459 55.8565 81.5589 54.2389 77.8796C52.6212 74.2003 49.1763 72.1351 46.5446 73.2668C43.9128 74.3985 43.0907 78.2986 44.7083 81.9779C46.326 85.6572 49.7709 87.7224 52.4026 86.5907Z" fill="#FFC3BD"/>
<path d="M49.4654 72.9898C51.241 73.54 52.8975 74.4124 54.3502 75.5623L58.8504 78.7084C60.3524 79.7531 61.8484 80.7736 63.3444 81.7277C64.7781 82.6722 66.2687 83.5292 67.8079 84.2941C69.3597 84.9788 70.9672 85.5323 72.6134 85.9487C74.3658 86.4258 76.1793 86.8485 77.9928 87.2591C79.8063 87.6697 81.6564 88.0441 83.4882 88.4004C85.32 88.7567 87.1518 89.1371 89.0142 89.4692C89.4779 89.5525 89.8929 89.8055 90.1765 90.1777C90.4601 90.55 90.5915 91.0143 90.5445 91.4781C90.4976 91.9418 90.2757 92.3711 89.923 92.6803C89.5704 92.9896 89.1129 93.1561 88.6417 93.1468C84.8071 93.0804 81.0092 92.9052 77.1746 92.6093C75.2512 92.4584 73.3339 92.2953 71.3799 92.0538C70.403 91.927 69.4199 91.7941 68.4063 91.613C67.9117 91.5405 67.3683 91.4016 66.8493 91.299C66.3302 91.1963 65.7441 91.0151 65.2373 90.8521C63.2798 90.2008 61.365 89.4304 59.5037 88.5453C57.7024 87.712 55.9622 86.8062 54.2647 85.8521C52.5672 84.898 50.9186 83.8895 49.2944 82.8328C47.5886 81.8484 46.1065 80.5266 44.9408 78.9499C44.4823 78.2864 44.2398 77.5001 44.2457 76.6964C44.2517 75.8927 44.5058 75.11 44.974 74.4531C45.4423 73.7962 46.1024 73.2966 46.8658 73.021C47.6292 72.7454 48.4595 72.7072 49.2455 72.9113L49.4654 72.9898Z" fill="#FFC3BD"/>
<path d="M86.8224 89.3486L90.37 87.9899C91.108 87.7051 91.8995 87.5815 92.6903 87.6276L94.6381 87.7423C94.8687 87.756 95.0943 87.8151 95.3015 87.9163C95.5087 88.0174 95.6934 88.1584 95.8447 88.3312C95.996 88.5039 96.1109 88.7047 96.1826 88.922C96.2543 89.1392 96.2814 89.3684 96.2623 89.5962L96.0913 91.6976C96.0567 92.1025 95.8784 92.4823 95.5878 92.7697C95.2972 93.057 94.9132 93.2334 94.5038 93.2676L92.0064 93.473C92.0064 93.473 87.5795 94.5841 86.6025 92.3558L86.8224 89.3486Z" fill="#FFC3BD"/>
<path d="M53.6664 56.4923C50.1676 56.7278 51.4804 63.4367 54.9364 64.3425C58.3925 65.2483 58.4474 56.142 53.6664 56.4923Z" fill="#263238"/>
<path d="M68.6625 49.2458C65.6095 46.5525 61.0361 53.0682 63.1061 56.631C65.176 60.1938 72.833 52.9293 68.6625 49.2458Z" fill="#263238"/>
<path d="M54.3563 58.1589C54.2402 61.6734 53.88 66.2568 52.4634 70.3268C52.7931 72.706 57.1528 73.95 61.9033 75.6046C64.6144 74.0828 65.2922 72.857 64.2603 71.287C60.2852 70.2121 61.653 66.4077 62.5444 63.6601L54.3563 58.1589Z" fill="#FFC3BD"/>
<path opacity="0.2" d="M62.2146 63.4246L62.5749 63.6601C62.1534 64.7953 61.8446 65.9683 61.6529 67.1625C59.821 66.9935 57.9892 66.2749 57.0977 65.0309C56.4646 64.2044 55.9925 63.2686 55.7056 62.2712L62.2146 63.4246Z" fill="black"/>
<path d="M53.5321 53.8051C53.7947 58.636 53.7031 61.4984 56.1638 63.9802C59.8641 67.7121 65.9335 65.4839 67.1547 60.6469C68.2355 56.293 67.6188 49.1071 62.8316 47.1868C61.7713 46.757 60.6177 46.6012 59.4796 46.734C58.3416 46.8668 57.2564 47.2838 56.3262 47.9458C55.3961 48.6077 54.6515 49.4929 54.1627 50.518C53.6739 51.543 53.4569 52.6742 53.5321 53.8051Z" fill="#FFC3BD"/>
<path d="M52.445 57.8992C52.445 57.8992 57.629 59.9705 56.5055 57.235C56.5055 57.235 58.9479 53.9198 56.8108 51.764C59.9371 52.5309 63.2222 51.0937 63.2955 50.1879C64.8891 52.2048 68.6749 51.9995 68.4856 49.4149C69.5725 48.5152 70.7876 45.7012 67.759 44.264C65.6951 43.2857 63.2588 44.9162 63.2588 44.9162C63.2588 44.9162 60.4439 41.5647 56.7437 42.5007C53.0434 43.4367 52.9824 46.1903 52.9824 46.1903C52.9824 46.1903 48.7081 45.8219 47.5541 48.5756C46.4 51.3292 48.7753 53.3159 48.7753 53.3159C48.7753 53.3159 47.2244 58.1347 52.445 57.8992Z" fill="#263238"/>
<path d="M51.1753 58.5515C51.4608 59.0836 51.8501 59.5545 52.3206 59.9369C52.7912 60.3194 53.3338 60.6058 53.9169 60.7797C55.4862 61.2387 56.3044 59.8558 55.9014 58.3643C55.535 57.0358 54.2772 55.2 52.6896 55.3932C52.3407 55.4378 52.0087 55.5682 51.724 55.7727C51.4394 55.9772 51.2112 56.2491 51.0605 56.5634C50.9097 56.8778 50.8413 57.2246 50.8613 57.5719C50.8814 57.9193 50.9894 58.2561 51.1753 58.5515Z" fill="#FFC3BD"/>
<path d="M61.5674 54.8556C61.5674 55.2481 61.775 55.5682 62.0376 55.5682C62.3001 55.5682 62.5138 55.2481 62.5138 54.8556C62.5138 54.4631 62.3062 54.1431 62.0498 54.1431C61.7933 54.1431 61.604 54.4631 61.5674 54.8556Z" fill="#263238"/>
<path d="M62.5444 60.3871C62.5444 60.7796 62.752 61.0997 63.0146 61.0997C63.2772 61.0997 63.4909 60.7796 63.4909 60.3871C63.4909 59.9946 63.2833 59.6746 63.0268 59.6746C62.7704 59.6746 62.5505 59.9946 62.5444 60.3871Z" fill="#263238"/>
<path d="M66.1958 55.1878C66.1958 55.5804 66.4034 55.9004 66.6599 55.9004C66.9163 55.9004 67.1361 55.5804 67.1361 55.1818C67.1361 54.7833 66.9346 54.4692 66.6721 54.4692C66.4095 54.4692 66.1958 54.7893 66.1958 55.1878Z" fill="#263238"/>
<path d="M64.7854 55.3389C65.2532 56.542 65.886 57.6758 66.6661 58.7084C66.3927 58.9014 66.0802 59.0332 65.7502 59.0948C65.4201 59.1563 65.0805 59.146 64.7549 59.0647L64.7854 55.3389Z" fill="#ED847E"/>
<path d="M60.267 53.3038C60.2294 53.2932 60.1955 53.2722 60.1693 53.2434C60.1476 53.2221 60.1303 53.1967 60.1185 53.1687C60.1067 53.1407 60.1006 53.1107 60.1006 53.0804C60.1006 53.05 60.1067 53.02 60.1185 52.992C60.1303 52.9641 60.1476 52.9387 60.1693 52.9173C60.4333 52.6556 60.7566 52.4599 61.1123 52.3465C61.4681 52.2331 61.846 52.2052 62.2149 52.2651C62.2449 52.2708 62.2734 52.2825 62.2987 52.2994C62.3241 52.3163 62.3457 52.3381 62.3622 52.3635C62.3788 52.3889 62.3899 52.4174 62.395 52.4472C62.4001 52.477 62.3991 52.5075 62.3919 52.5369C62.3861 52.5667 62.3743 52.5951 62.3573 52.6204C62.3403 52.6457 62.3184 52.6674 62.2928 52.6843C62.2673 52.7011 62.2386 52.7128 62.2084 52.7186C62.1783 52.7244 62.1472 52.7242 62.1172 52.718C61.8242 52.6793 61.5261 52.7094 61.2471 52.806C60.9681 52.9025 60.716 53.0627 60.5113 53.2736C60.4779 53.3014 60.437 53.3191 60.3937 53.3245C60.3503 53.3298 60.3063 53.3227 60.267 53.3038Z" fill="#263238"/>
<path d="M67.8138 53.7203C67.7751 53.7242 67.7361 53.7178 67.7007 53.7019C67.6653 53.686 67.6348 53.6611 67.6123 53.6297C67.4405 53.3941 67.215 53.2019 66.954 53.0687C66.693 52.9354 66.4039 52.8649 66.1102 52.8628C66.0801 52.8653 66.0497 52.8617 66.0209 52.8524C65.9922 52.843 65.9656 52.828 65.9428 52.8083C65.9201 52.7886 65.9015 52.7646 65.8883 52.7376C65.8751 52.7107 65.8675 52.6814 65.866 52.6515C65.8635 52.6208 65.8673 52.59 65.877 52.5609C65.8868 52.5317 65.9024 52.5048 65.9229 52.4817C65.9434 52.4586 65.9684 52.4398 65.9964 52.4264C66.0244 52.4131 66.0548 52.4054 66.0858 52.4039C66.4564 52.3977 66.8229 52.4807 67.1537 52.6459C67.4846 52.8111 67.7698 53.0534 67.9848 53.352C68.0037 53.3764 68.0175 53.4043 68.0253 53.434C68.0331 53.4638 68.0347 53.4948 68.0302 53.5252C68.0256 53.5557 68.0149 53.5849 67.9987 53.6111C67.9826 53.6374 67.9612 53.6601 67.9359 53.678C67.9003 53.7036 67.8578 53.7183 67.8138 53.7203Z" fill="#263238"/>
<path d="M68.7056 114.584L42.6755 112.47C42.599 112.465 42.5235 112.489 42.4644 112.538C42.4053 112.586 42.3672 112.655 42.358 112.73L42.1809 114.415C42.1767 114.453 42.1802 114.492 42.1911 114.528C42.2021 114.565 42.2203 114.599 42.2447 114.629C42.2691 114.659 42.2993 114.684 42.3334 114.702C42.3675 114.72 42.4049 114.731 42.4435 114.735L68.3209 117.259C68.3949 117.266 68.4689 117.245 68.5279 117.2C68.5869 117.155 68.6264 117.09 68.6384 117.018L68.9926 114.928C68.9996 114.886 68.9974 114.844 68.9863 114.803C68.9753 114.762 68.9554 114.724 68.9282 114.691C68.9011 114.659 68.8671 114.632 68.8287 114.614C68.7903 114.595 68.7483 114.585 68.7056 114.584Z" fill="#FF4747"/>
<path d="M85.9122 143.195C69.9571 139.747 59.1128 135.158 59.1128 135.158L67.5941 117.851C67.5941 117.851 103.229 129.427 99.5531 140.502C92.5067 161.758 86.535 194.687 86.535 194.687H80.832C83.0973 170.019 78.5727 153.714 85.9122 143.195Z" fill="#FFC3BD"/>
<path d="M86.5472 194.095L80.4412 194.179C80.3452 194.179 80.2525 194.214 80.1813 194.278C80.1101 194.341 80.0656 194.429 80.0565 194.523L79.5863 198.883C79.5778 198.994 79.5926 199.104 79.6297 199.208C79.6668 199.313 79.7254 199.408 79.8017 199.489C79.8781 199.569 79.9706 199.633 80.0733 199.677C80.176 199.72 80.2867 199.742 80.3984 199.741C82.3401 199.68 85.8938 199.523 88.3363 199.487C91.1939 199.439 90.9191 199.56 94.2713 199.487C96.2985 199.457 96.6222 197.416 95.7551 197.247C91.7923 196.468 91.3954 196.426 87.8172 194.439C87.432 194.216 86.9938 194.097 86.5472 194.095Z" fill="#263238"/>
<path d="M87.4452 194.53C87.4244 194.524 87.4058 194.512 87.3917 194.496C87.3776 194.48 87.3686 194.46 87.3658 194.439C87.3626 194.415 87.3668 194.391 87.3776 194.37C87.3885 194.348 87.4056 194.33 87.4268 194.318C87.6466 194.204 89.6189 193.177 90.2234 193.497C90.2812 193.525 90.3303 193.568 90.3658 193.621C90.4012 193.674 90.4216 193.735 90.4249 193.799C90.4389 193.904 90.4267 194.01 90.3895 194.109C90.3522 194.208 90.291 194.297 90.2112 194.367C89.68 194.85 88.2572 194.681 87.4574 194.536L87.4452 194.53ZM90.0707 193.684C89.6983 193.557 88.6236 193.986 87.8481 194.367C88.9411 194.53 89.7532 194.469 90.0585 194.198C90.1094 194.15 90.1481 194.092 90.1715 194.026C90.1948 193.961 90.2022 193.892 90.1929 193.823C90.1928 193.798 90.1852 193.773 90.1712 193.751C90.1571 193.73 90.1371 193.713 90.1135 193.702C90.1081 193.696 90.1015 193.692 90.0941 193.689C90.0868 193.686 90.0788 193.684 90.0707 193.684Z" fill="#FF4747"/>
<path d="M87.445 194.53C87.4275 194.519 87.4136 194.504 87.4049 194.486C87.3962 194.467 87.3932 194.447 87.3961 194.427C87.3961 194.367 87.5121 193.05 88.1288 192.531C88.2163 192.454 88.3189 192.395 88.4302 192.359C88.5416 192.322 88.6593 192.309 88.7761 192.319C89.0997 192.319 89.1974 192.507 89.2157 192.639C89.3195 193.189 88.1533 194.264 87.561 194.542C87.5426 194.551 87.5218 194.555 87.5011 194.553C87.4804 194.551 87.4609 194.543 87.445 194.53ZM88.8494 192.561H88.7272C88.6411 192.552 88.5541 192.562 88.472 192.589C88.3899 192.616 88.3146 192.66 88.251 192.718C87.8973 193.151 87.6844 193.679 87.6404 194.234C88.251 193.865 89.0325 193.026 88.9776 192.688C88.9532 192.646 88.947 192.591 88.8494 192.561Z" fill="#FF4747"/>
<path d="M68.5773 116.239C68.5773 116.239 79.037 120.743 84.8866 123.841C85.0893 123.943 85.2433 124.12 85.3153 124.334C85.3872 124.547 85.3714 124.78 85.2713 124.983C82.6433 130.436 81.0379 136.317 80.533 142.338C80.5207 142.464 80.4819 142.587 80.4191 142.698C80.3563 142.809 80.2707 142.906 80.1679 142.983C80.0651 143.06 79.9473 143.114 79.822 143.144C79.6967 143.173 79.5666 143.176 79.44 143.153C73.6209 142.181 45.6614 136.359 48.5556 114.699C54.7777 114.989 68.5773 116.239 68.5773 116.239Z" fill="#FF4747"/>
<path d="M57.562 115.309C57.562 115.309 49.0136 114.101 42.8037 113.805C33.8462 141.498 55.4188 142.579 60.4319 143.092C60.6969 143.122 60.9654 143.087 61.2135 142.991C61.4616 142.894 61.6818 142.738 61.8546 142.537C65.4083 138.231 68.1805 132.307 67.0753 124.94C67.0388 124.72 66.953 124.511 66.8241 124.328C66.6952 124.145 66.5265 123.993 66.3303 123.883C61.0364 120.719 57.562 115.309 57.562 115.309Z" fill="#FF4747"/>
<path d="M61.6041 124.246C56.4873 124.995 53.1534 139.143 56.2247 141.124C59.1067 142.332 62.2269 143.165 64.1625 143.195C56.8353 153.708 61.3477 170.025 59.0762 194.687H64.7793C64.7793 194.687 70.751 161.758 77.7973 140.502C79.733 134.62 70.6044 128.6 61.6041 124.246Z" fill="#FFC3BD"/>
<path d="M64.7733 194.095L58.6672 194.179C58.5716 194.18 58.4797 194.216 58.4088 194.279C58.3379 194.343 58.293 194.429 58.2825 194.523L57.8124 198.883C57.8039 198.994 57.8187 199.104 57.8558 199.208C57.8929 199.313 57.9514 199.408 58.0278 199.489C58.1042 199.569 58.1966 199.633 58.2993 199.677C58.4021 199.72 58.5128 199.742 58.6245 199.741C60.5662 199.68 64.1199 199.523 66.5623 199.487C69.42 199.439 69.1452 199.56 72.4974 199.487C74.5246 199.457 74.8482 197.416 73.9812 197.247C70.0184 196.468 69.6215 196.426 66.0433 194.439C65.6584 194.215 65.22 194.096 64.7733 194.095Z" fill="#263238"/>
<path d="M65.6707 194.53C65.65 194.524 65.6314 194.512 65.6173 194.496C65.6032 194.48 65.5942 194.46 65.5914 194.439C65.5882 194.415 65.5923 194.391 65.6032 194.37C65.6141 194.348 65.6312 194.33 65.6524 194.318C65.8722 194.204 67.8445 193.177 68.4551 193.497C68.5113 193.526 68.5589 193.57 68.5932 193.622C68.6274 193.675 68.6472 193.736 68.6505 193.799C68.6658 193.903 68.6548 194.01 68.6186 194.109C68.5824 194.208 68.522 194.296 68.4429 194.367C67.9055 194.85 66.4828 194.681 65.6891 194.536L65.6707 194.53ZM68.2963 193.684C67.9239 193.557 66.8553 193.986 66.0737 194.367C67.1667 194.53 67.9849 194.469 68.2841 194.198C68.335 194.15 68.3737 194.092 68.3971 194.026C68.4204 193.961 68.4278 193.892 68.4185 193.823C68.4184 193.798 68.4108 193.773 68.3968 193.751C68.3827 193.73 68.3626 193.713 68.3391 193.702C68.3345 193.695 68.3282 193.689 68.3208 193.684H68.2963Z" fill="#FF4747"/>
<path d="M65.6706 194.53C65.6531 194.519 65.6392 194.504 65.6305 194.486C65.6218 194.467 65.6187 194.447 65.6217 194.427C65.6217 194.367 65.7377 193.05 66.3544 192.531C66.4419 192.454 66.5445 192.395 66.6558 192.359C66.7672 192.322 66.8849 192.309 67.0017 192.319C67.3253 192.319 67.423 192.507 67.4474 192.639C67.5451 193.189 66.3789 194.264 65.7866 194.542C65.7682 194.551 65.7474 194.555 65.7267 194.553C65.706 194.551 65.6864 194.543 65.6706 194.53ZM67.0749 192.561H66.9528C66.8667 192.552 66.7797 192.562 66.6976 192.589C66.6155 192.616 66.5401 192.66 66.4765 192.718C66.1252 193.152 65.9126 193.68 65.8659 194.234C66.4765 193.865 67.2642 193.026 67.2032 192.688C67.1787 192.646 67.1726 192.591 67.0994 192.561H67.0749Z" fill="#FF4747"/>
<path d="M163.66 15.3028C163.337 12.5129 162.952 7.09021 165.303 5.97306C171.647 5.13369 178.467 11.5045 179.286 13.0745C180.104 14.6446 179.762 21.583 176.807 22.8813C173.851 24.1796 163.66 15.3028 163.66 15.3028Z" fill="#263238"/>
<path d="M162.964 36.293C163.257 37.3284 163.395 38.4005 163.373 39.4754C163.348 40.5053 163.235 41.5314 163.038 42.543C162.683 44.5659 162.262 46.5829 161.743 48.5816C161.222 50.6265 160.59 52.6423 159.85 54.6203C159.076 56.7646 158.11 58.8361 156.962 60.8099L156.449 61.6191L155.839 62.4403C155.46 62.8993 155.088 63.3401 154.709 63.7628L153.586 64.9705L152.474 66.1541C150.972 67.6155 149.452 68.9802 147.919 70.3208C144.829 72.9838 141.703 75.4898 138.467 77.9355C138.246 78.1369 137.987 78.2933 137.705 78.3958C137.423 78.4983 137.123 78.5449 136.823 78.5328C136.523 78.5207 136.228 78.4503 135.955 78.3256C135.683 78.2008 135.437 78.0241 135.234 77.8057C135.03 77.5872 134.872 77.3312 134.768 77.0523C134.665 76.7733 134.618 76.477 134.63 76.18C134.642 75.8831 134.713 75.5915 134.839 75.3218C134.966 75.0521 135.144 74.8096 135.365 74.6082C137.978 71.6795 140.586 68.6903 143.059 65.6771C144.28 64.1795 145.501 62.6577 146.625 61.142L147.437 60.0068L148.182 58.8836L148.792 57.8087L149 57.38L149.207 56.8908C149.797 55.3099 150.246 53.6814 150.551 52.0237C150.899 50.2604 151.161 48.4005 151.461 46.5889C151.76 44.7773 151.98 42.8631 152.212 40.979C152.336 39.0571 152.869 37.1826 153.775 35.4778L153.915 35.2302C154.4 34.4034 155.119 33.7356 155.984 33.3096C156.849 32.8836 157.822 32.7183 158.781 32.834C159.74 32.9498 160.644 33.3416 161.38 33.9608C162.116 34.58 162.652 35.3994 162.922 36.3172L162.964 36.293Z" fill="#FF8B7B"/>
<path d="M136.873 73.9441L133.087 75.3692C132.3 75.667 131.585 76.1282 130.993 76.7219L129.534 78.1893C129.36 78.3615 129.222 78.5667 129.13 78.7925C129.038 79.0184 128.993 79.2604 128.997 79.5039C129.002 79.7474 129.056 79.9875 129.157 80.2099C129.257 80.4322 129.402 80.6322 129.583 80.798L131.213 82.3378C131.533 82.6519 131.96 82.838 132.411 82.8603C132.861 82.8826 133.305 82.7395 133.655 82.4586L135.774 80.8583C135.774 80.8583 140.079 78.618 139.248 76.1663L136.873 73.9441Z" fill="#FF8B7B"/>
<path d="M185.312 32.3378L170.816 29.874L158.488 31.8728C157.237 32.0874 156.095 32.7142 155.249 33.6516C154.403 34.5889 153.903 35.7817 153.829 37.0359C152.889 50.5383 155.313 57.054 155.698 78.3945C156.602 78.3945 183.26 78.8414 183.26 78.8414C182.607 67.2593 188.64 52.7424 189.916 38.2557C190.039 36.8779 189.634 35.5048 188.781 34.4086C187.928 33.3124 186.69 32.5733 185.312 32.3378Z" fill="#FF4747"/>
<path d="M177.197 17.978C176.923 21.7099 176.788 26.6072 177.808 31.0698C177.197 33.5577 172.703 36.1845 167.489 37.4104C163.41 35.3935 163.935 32.3319 165.205 30.7679C169.541 30.0734 168.521 25.8947 167.886 22.9176L177.197 17.978Z" fill="#FF8B7B"/>
<path d="M166.078 44.9043H166.017C165.984 44.8978 165.953 44.8842 165.925 44.8644C165.898 44.8445 165.875 44.819 165.859 44.7895C160.583 35.7859 164.479 30.9007 164.637 30.6953C164.658 30.6708 164.683 30.6504 164.711 30.6354C164.74 30.6205 164.771 30.6112 164.803 30.6081C164.835 30.605 164.867 30.6082 164.898 30.6175C164.929 30.6267 164.958 30.6419 164.982 30.6621C165.007 30.6824 165.028 30.7072 165.043 30.7353C165.058 30.7634 165.068 30.7942 165.071 30.8258C165.074 30.8575 165.071 30.8895 165.061 30.92C165.052 30.9504 165.036 30.9787 165.016 31.0033C164.863 31.1965 161.23 35.7497 166.14 44.2883C173.705 38.932 177.405 33.0323 177.71 31.0395C177.72 30.9764 177.754 30.9193 177.805 30.8808C177.857 30.8424 177.921 30.8256 177.985 30.8342C178.05 30.8447 178.107 30.8795 178.146 30.9314C178.185 30.9833 178.202 31.0481 178.193 31.112C177.875 33.1953 174.035 39.3608 166.201 44.8439C166.165 44.8732 166.123 44.8939 166.078 44.9043Z" fill="#263238"/>
<path d="M165.614 43.3703H166.89V48.2676H164.375V44.5961C164.372 44.4344 164.403 44.2739 164.464 44.1241C164.525 43.9743 164.617 43.8382 164.732 43.7239C164.848 43.6095 164.985 43.5193 165.137 43.4586C165.288 43.3978 165.451 43.3678 165.614 43.3703Z" fill="#263238"/>
<path d="M167.238 45.8161C166.914 45.8161 166.604 45.6888 166.375 45.4623C166.146 45.2359 166.017 44.9287 166.017 44.6084V43.4006H167.238C167.562 43.4006 167.873 43.5279 168.102 43.7544C168.331 43.9809 168.46 44.2881 168.46 44.6084C168.46 44.9287 168.331 45.2359 168.102 45.4623C167.873 45.6888 167.562 45.8161 167.238 45.8161Z" fill="#263238"/>
<path opacity="0.2" d="M168.307 22.676L167.898 22.8874C168.217 24.1357 168.411 25.4119 168.478 26.6978C170.438 26.6978 172.471 26.1603 173.546 24.9405C174.306 24.1336 174.91 23.1963 175.329 22.1748L168.307 22.676Z" fill="black"/>
<path opacity="0.2" d="M187.059 37.2593C185.959 37.7243 184.091 40.7013 184.268 43.8716C184.391 47.1147 185.491 50.2475 187.425 52.8692C188.304 48.9561 189.116 44.9706 189.623 40.961L187.059 37.2593Z" fill="black"/>
<path d="M178.559 13.455C177.735 18.5577 177.509 21.5831 174.627 23.9381C170.291 27.4828 164.112 24.4514 163.385 19.1978C162.726 14.4695 164.191 6.92727 169.491 5.42364C170.66 5.09332 171.895 5.0614 173.08 5.33085C174.264 5.6003 175.361 6.16234 176.266 6.96447C177.172 7.76659 177.857 8.78263 178.258 9.91767C178.659 11.0527 178.763 12.2697 178.559 13.455Z" fill="#FF8B7B"/>
<path d="M177.967 17.4888C175.83 15.7315 174.028 11.8064 175.524 8.61801C171.61 9.39699 165.101 9.78951 163.227 6.13613C161.92 3.59386 162.732 0.816081 165.706 0.399414C167.251 2.81487 170.511 2.26536 173.277 1.83057C176.043 1.39579 183.175 0.399416 182.479 5.71342C185.813 6.08178 187.547 13.3825 177.967 17.4888Z" fill="#263238"/>
<path d="M180.519 18.7447C180.158 19.2782 179.692 19.7351 179.15 20.0886C178.608 20.4422 178.001 20.6854 177.362 20.8039C175.653 21.1118 174.92 19.5539 175.531 18.0382C176.068 16.6734 177.607 14.8679 179.267 15.2483C180.928 15.6288 181.405 17.4162 180.519 18.7447Z" fill="#FF8B7B"/>
<path d="M171.47 130.103C171.268 103.902 176.739 78.775 176.739 78.775L156.248 78.3945C156.248 78.3945 157.286 116.353 159.429 132.078C162.299 153.213 162.042 194.361 162.042 194.361H168.118C168.118 194.361 175.127 154.276 171.47 130.103Z" fill="#FF8B7B"/>
<path d="M162.024 193.733L168.557 193.817C168.658 193.818 168.756 193.855 168.831 193.922C168.906 193.989 168.955 194.08 168.966 194.18L169.467 198.829C169.476 198.947 169.459 199.064 169.42 199.175C169.38 199.286 169.317 199.387 169.236 199.473C169.154 199.559 169.056 199.627 168.946 199.673C168.837 199.719 168.719 199.742 168.6 199.741C166.53 199.675 162.763 199.512 160.162 199.469C157.109 199.421 157.414 199.548 153.842 199.469C151.68 199.439 151.332 197.265 152.26 197.084C156.48 196.257 156.907 196.215 160.711 194.101C161.107 193.862 161.561 193.735 162.024 193.733Z" fill="#263238"/>
<path d="M161.071 194.173C161.094 194.168 161.114 194.155 161.129 194.138C161.144 194.121 161.154 194.099 161.157 194.077C161.16 194.051 161.155 194.026 161.143 194.003C161.131 193.98 161.113 193.962 161.09 193.95C160.858 193.823 158.757 192.742 158.11 193.074C158.05 193.107 157.998 193.153 157.961 193.21C157.924 193.267 157.901 193.333 157.896 193.4C157.882 193.512 157.895 193.625 157.934 193.73C157.974 193.835 158.038 193.929 158.122 194.004C158.69 194.524 160.204 194.342 161.053 194.185L161.071 194.173ZM158.275 193.268C158.672 193.141 159.814 193.594 160.644 193.998C159.478 194.173 158.611 194.107 158.293 193.817C158.236 193.769 158.192 193.707 158.167 193.637C158.141 193.567 158.134 193.492 158.147 193.419C158.147 193.392 158.155 193.367 158.169 193.344C158.183 193.322 158.202 193.304 158.226 193.292L158.275 193.268Z" fill="#FF4747"/>
<path d="M161.071 194.173H161.102C161.121 194.161 161.136 194.144 161.146 194.124C161.155 194.103 161.159 194.081 161.157 194.059C161.157 194.004 161.034 192.597 160.375 192.042C160.281 191.961 160.172 191.899 160.053 191.861C159.934 191.822 159.809 191.808 159.685 191.818C159.343 191.848 159.239 192.018 159.215 192.156C159.105 192.76 160.351 193.89 160.979 194.185C160.995 194.19 161.011 194.191 161.027 194.189C161.042 194.187 161.057 194.181 161.071 194.173ZM159.575 192.078H159.703C159.795 192.069 159.887 192.079 159.974 192.107C160.061 192.135 160.142 192.18 160.21 192.241C160.596 192.7 160.83 193.265 160.882 193.859C160.235 193.461 159.398 192.567 159.459 192.211C159.465 192.187 159.471 192.126 159.575 192.096V192.078Z" fill="#FF4747"/>
<path opacity="0.2" d="M171.049 100.731C169.522 102.622 169.479 107.543 172.074 112.809C172.245 110.448 172.447 108.141 172.685 105.925L171.049 100.731Z" fill="black"/>
<path d="M170.695 14.059C170.652 14.4817 170.396 14.7957 170.084 14.7655C169.773 14.7353 169.62 14.373 169.663 13.9563C169.706 13.5396 169.962 13.2196 170.237 13.2498C170.512 13.28 170.731 13.6181 170.695 14.059Z" fill="#263238"/>
<path d="M164.851 13.5214C164.808 13.9381 164.552 14.2521 164.271 14.2219C163.99 14.1917 163.807 13.8294 163.849 13.4127C163.892 12.996 164.149 12.682 164.423 12.7122C164.698 12.7424 164.887 13.1047 164.851 13.5214Z" fill="#263238"/>
<path d="M167.239 13.9199C166.609 15.1432 165.81 16.2733 164.863 17.2774C165.129 17.5161 165.444 17.6939 165.787 17.7983C166.13 17.9026 166.492 17.931 166.848 17.8813L167.239 13.9199Z" fill="#FF5652"/>
<path d="M168.545 19.1736C169.021 19.169 169.49 19.0674 169.924 18.8751C170.358 18.6829 170.747 18.4042 171.067 18.0565C171.09 18.0339 171.102 18.0035 171.102 17.9719C171.102 17.9403 171.09 17.91 171.067 17.8874C171.043 17.8649 171.012 17.8523 170.979 17.8523C170.946 17.8523 170.914 17.8649 170.89 17.8874C170.528 18.2662 170.08 18.5551 169.583 18.7303C169.087 18.9056 168.555 18.9623 168.032 18.8958C168.016 18.8942 168 18.8957 167.985 18.9002C167.969 18.9048 167.955 18.9124 167.942 18.9225C167.93 18.9326 167.92 18.945 167.912 18.9591C167.904 18.9732 167.9 18.9886 167.898 19.0045C167.896 19.0204 167.898 19.0364 167.903 19.0517C167.907 19.067 167.915 19.0813 167.925 19.0936C167.935 19.106 167.948 19.1162 167.962 19.1237C167.976 19.1312 167.992 19.1359 168.008 19.1374C168.186 19.1632 168.366 19.1753 168.545 19.1736Z" fill="#263238"/>
<path d="M171.812 11.3837C171.855 11.3838 171.898 11.3712 171.934 11.3475C171.989 11.3127 172.029 11.2577 172.044 11.1945C172.058 11.1312 172.048 11.0647 172.013 11.0093C171.814 10.6717 171.536 10.386 171.202 10.176C170.869 9.96591 170.49 9.83757 170.096 9.8016C170.06 9.79603 170.024 9.79819 169.989 9.80792C169.954 9.81765 169.922 9.83472 169.894 9.85796C169.867 9.88121 169.845 9.91007 169.83 9.94256C169.814 9.97505 169.807 10.0104 169.807 10.0462C169.807 10.0819 169.814 10.1173 169.83 10.1498C169.845 10.1823 169.867 10.2111 169.894 10.2344C169.922 10.2576 169.954 10.2747 169.989 10.2844C170.024 10.2942 170.06 10.2963 170.096 10.2907C170.409 10.3267 170.71 10.435 170.973 10.6071C171.236 10.7791 171.454 11.01 171.61 11.2811C171.634 11.3123 171.664 11.3378 171.699 11.3556C171.734 11.3734 171.772 11.383 171.812 11.3837Z" fill="#263238"/>
<path d="M163.617 11.9574C163.658 11.9603 163.699 11.9531 163.737 11.9362C163.774 11.9193 163.807 11.8933 163.831 11.8608C164.018 11.613 164.261 11.4126 164.541 11.2762C164.822 11.1397 165.131 11.071 165.443 11.0757C165.476 11.08 165.509 11.0774 165.541 11.0682C165.572 11.0591 165.602 11.0435 165.627 11.0225C165.652 11.0014 165.673 10.9755 165.688 10.9462C165.702 10.9169 165.71 10.8849 165.712 10.8523C165.715 10.8201 165.712 10.7875 165.702 10.7566C165.693 10.7256 165.677 10.6969 165.656 10.6721C165.635 10.6473 165.609 10.627 165.58 10.6123C165.55 10.5976 165.519 10.5889 165.486 10.5866C165.091 10.5722 164.699 10.6525 164.343 10.8208C163.987 10.9891 163.677 11.2402 163.44 11.5528C163.42 11.5785 163.404 11.608 163.395 11.6395C163.386 11.6711 163.384 11.7042 163.388 11.7368C163.392 11.7694 163.402 11.8008 163.418 11.8294C163.435 11.8579 163.457 11.883 163.483 11.903C163.522 11.9322 163.569 11.951 163.617 11.9574Z" fill="#263238"/>
<path d="M190.496 129.445C186.833 106.027 186.057 84.0708 182.558 78.8413L165.168 78.5454C165.168 78.5454 175.445 115.562 179.408 131.16C183.529 147.38 193.647 194.3 193.647 194.3L199.191 194.421C199.191 194.421 198.489 147.785 190.496 129.445Z" fill="#FF8B7B"/>
<path d="M193.116 193.733L199.479 193.817C199.58 193.818 199.677 193.855 199.752 193.922C199.828 193.989 199.876 194.08 199.888 194.18L200.388 198.829C200.397 198.947 200.381 199.064 200.341 199.175C200.301 199.286 200.238 199.387 200.157 199.473C200.075 199.559 199.977 199.627 199.867 199.673C199.758 199.719 199.64 199.742 199.521 199.741C197.451 199.675 196.181 199.512 193.574 199.469C190.521 199.421 191.938 199.548 188.366 199.469C186.21 199.439 185.722 197.507 186.631 197.253C189.513 196.456 190.478 195.327 191.797 194.101C192.172 193.814 192.645 193.682 193.116 193.733Z" fill="#263238"/>
<path d="M193.494 194.125C193.518 194.126 193.541 194.12 193.562 194.108C193.582 194.096 193.599 194.079 193.61 194.059C193.625 194.038 193.633 194.014 193.633 193.989C193.633 193.964 193.625 193.94 193.61 193.92C193.433 193.72 191.84 191.981 191.113 192.108C191.045 192.116 190.981 192.142 190.927 192.182C190.872 192.222 190.829 192.276 190.802 192.338C190.751 192.438 190.724 192.549 190.724 192.661C190.724 192.773 190.751 192.884 190.802 192.984C191.156 193.66 192.634 194.004 193.494 194.149V194.125ZM191.18 192.313C191.602 192.313 192.517 193.135 193.153 193.799C191.998 193.563 191.205 193.195 191.003 192.833C190.968 192.768 190.95 192.695 190.95 192.621C190.95 192.548 190.968 192.475 191.003 192.41C191.013 192.385 191.029 192.362 191.051 192.345C191.072 192.328 191.098 192.317 191.125 192.313H191.18Z" fill="#FF4747"/>
<path d="M193.494 194.125H193.531C193.551 194.12 193.57 194.109 193.585 194.094C193.6 194.079 193.611 194.061 193.616 194.041C193.616 193.98 194.013 192.622 193.586 191.879C193.527 191.77 193.445 191.674 193.346 191.598C193.248 191.522 193.134 191.468 193.012 191.438C192.682 191.347 192.523 191.468 192.456 191.595C192.151 192.108 192.92 193.606 193.409 194.095C193.432 194.116 193.463 194.126 193.494 194.125ZM192.823 191.643H192.951C193.039 191.666 193.122 191.707 193.193 191.763C193.265 191.819 193.323 191.89 193.366 191.969C193.569 192.53 193.593 193.14 193.433 193.715C192.969 193.111 192.487 191.994 192.67 191.686C192.707 191.692 192.737 191.643 192.847 191.643H192.823Z" fill="#FF4747"/>
<path d="M164.186 78.0503C164.186 78.0503 168.643 99.4029 169.119 106.625C175.443 106.334 181.727 105.465 187.889 104.029C187.889 104.029 189.868 89.0829 183.242 78.5455C176.63 78.1771 164.186 78.0503 164.186 78.0503Z" fill="#263238"/>
<path d="M184.989 104.904C184.945 104.903 184.903 104.894 184.863 104.877C184.823 104.86 184.787 104.835 184.757 104.804C184.727 104.774 184.703 104.737 184.688 104.697C184.672 104.657 184.664 104.615 184.665 104.572C184.873 93.1952 180.33 79.3607 180.281 79.2098C180.274 79.1362 180.292 79.0624 180.333 79.0006C180.374 78.9387 180.435 78.8924 180.506 78.8692C180.577 78.8461 180.653 78.8474 180.724 78.8731C180.794 78.8987 180.853 78.9472 180.891 79.0105C180.934 79.1494 185.514 93.0866 185.3 104.572C185.302 104.614 185.295 104.656 185.28 104.695C185.265 104.735 185.243 104.771 185.214 104.802C185.185 104.833 185.15 104.858 185.111 104.875C185.073 104.893 185.031 104.903 184.989 104.904Z" fill="white"/>
<path d="M182.906 105.266C182.82 105.263 182.738 105.227 182.679 105.165C182.62 105.102 182.587 105.02 182.589 104.934C182.796 93.5574 178.131 79.3666 178.089 79.2217C178.062 79.14 178.068 79.051 178.107 78.9741C178.146 78.8972 178.214 78.8386 178.296 78.8111C178.38 78.7861 178.47 78.7943 178.547 78.8337C178.625 78.8731 178.684 78.9408 178.712 79.0224C178.76 79.1613 183.456 93.4608 183.242 104.946C183.242 104.989 183.233 105.032 183.216 105.072C183.199 105.111 183.175 105.147 183.143 105.177C183.112 105.207 183.075 105.23 183.034 105.246C182.993 105.261 182.95 105.268 182.906 105.266Z" fill="white"/>
<path d="M155.637 76.1543L183.426 76.7582C183.466 76.7582 183.506 76.7662 183.544 76.7817C183.581 76.7973 183.615 76.82 183.644 76.8487C183.672 76.8774 183.695 76.9114 183.71 76.9487C183.725 76.9861 183.732 77.026 183.731 77.0661V78.8777C183.732 78.9187 183.724 78.9594 183.709 78.9974C183.694 79.0355 183.671 79.0702 183.642 79.0994C183.613 79.1287 183.578 79.1519 183.54 79.1677C183.502 79.1836 183.461 79.1917 183.42 79.1917L155.771 79.0106C155.692 79.0107 155.615 78.9808 155.557 78.9269C155.5 78.873 155.465 78.7992 155.46 78.7207L155.32 76.4683C155.318 76.4266 155.325 76.385 155.34 76.3462C155.356 76.3073 155.379 76.272 155.409 76.2425C155.439 76.213 155.474 76.1899 155.514 76.1747C155.553 76.1596 155.595 76.1526 155.637 76.1543Z" fill="#263238"/>
<path d="M155.57 78.0503C155.57 78.0503 156.241 97.8631 156.241 104.518C165.321 106.245 176.294 105.176 176.294 105.176C176.294 105.176 183.194 89.0829 176.959 78.5455C170.334 78.1771 155.57 78.0503 155.57 78.0503Z" fill="#263238"/>
<path d="M179.738 60.2341L170.771 73.7073C170.579 73.9971 170.66 74.3865 170.953 74.5772L188.856 86.2295C189.149 86.4202 189.542 86.3399 189.735 86.0502L198.701 72.577C198.894 72.2873 198.813 71.8978 198.52 71.7072L180.617 60.0548C180.324 59.8641 179.93 59.9444 179.738 60.2341Z" fill="#FF4747"/>
<path d="M179.946 59.9236L170.979 73.3968C170.787 73.6865 170.868 74.076 171.161 74.2666L189.064 85.919C189.357 86.1097 189.751 86.0294 189.943 85.7396L198.909 72.2665C199.102 71.9767 199.021 71.5873 198.728 71.3966L180.825 59.7442C180.532 59.5536 180.138 59.6339 179.946 59.9236Z" fill="#FF4747"/>
<path opacity="0.7" d="M179.946 59.9236L170.979 73.3968C170.787 73.6865 170.868 74.076 171.161 74.2666L189.064 85.919C189.357 86.1097 189.751 86.0294 189.943 85.7396L198.909 72.2665C199.102 71.9767 199.021 71.5873 198.728 71.3966L180.825 59.7442C180.532 59.5536 180.138 59.6339 179.946 59.9236Z" fill="white"/>
<path opacity="0.2" d="M197.817 71.8125L189.244 85.0431L171.903 73.7569L180.635 60.6289L197.817 71.8125Z" fill="black"/>
<path d="M197.903 71.2991L189.068 84.5841C183.122 81.1759 177.373 77.4422 171.849 73.4005C174.792 68.9722 177.739 64.5438 180.69 60.1155C186.213 64.1572 191.96 67.8908 197.903 71.2991Z" fill="white"/>
<path opacity="0.4" d="M175.36 68.9804L175.201 69.234C175.159 69.2996 175.104 69.3558 175.039 69.3991C174.975 69.4424 174.901 69.4718 174.824 69.4854C174.747 69.4991 174.668 69.4966 174.592 69.4783C174.516 69.46 174.445 69.4261 174.383 69.3789L173.937 69.0589C173.925 69.0466 173.919 69.0304 173.919 69.0136C173.919 68.9968 173.925 68.9806 173.937 68.9683L174.401 68.2739C174.407 68.2674 174.414 68.2623 174.422 68.2588C174.43 68.2552 174.438 68.2534 174.447 68.2534C174.455 68.2534 174.464 68.2552 174.472 68.2588C174.48 68.2623 174.487 68.2674 174.493 68.2739L175.366 68.8777C175.373 68.8844 175.379 68.8926 175.383 68.9017C175.386 68.9108 175.388 68.9207 175.387 68.9305C175.387 68.9403 175.384 68.9499 175.379 68.9585C175.374 68.9671 175.368 68.9746 175.36 68.9804Z" fill="black"/>
<path d="M176.092 63.9017L173.344 68.0804C173.303 68.1399 173.275 68.2074 173.262 68.2783C173.249 68.3493 173.251 68.4222 173.268 68.4923C173.285 68.5624 173.318 68.6281 173.362 68.6851C173.407 68.7421 173.463 68.7892 173.528 68.8232L174.517 69.3727C174.652 69.448 174.812 69.4693 174.963 69.4323C175.114 69.3952 175.245 69.3027 175.329 69.1734L178.113 64.9947C178.153 64.9341 178.18 64.8659 178.193 64.7944C178.205 64.7229 178.202 64.6497 178.184 64.5793C178.166 64.509 178.134 64.4431 178.089 64.3857C178.045 64.3283 177.988 64.2807 177.924 64.2459L176.941 63.7024C176.872 63.6596 176.795 63.6307 176.715 63.6176C176.635 63.6044 176.553 63.6071 176.474 63.6257C176.395 63.6443 176.321 63.6782 176.255 63.7256C176.189 63.773 176.134 63.8329 176.092 63.9017Z" fill="#263238"/>
<path d="M186.686 74.1917L183.212 76.2508C182.484 76.6756 181.859 77.2527 181.38 77.9417L180.202 79.6385C180.061 79.8384 179.962 80.0644 179.912 80.3029C179.861 80.5414 179.86 80.7875 179.907 81.0266C179.955 81.2656 180.052 81.4927 180.19 81.6941C180.329 81.8955 180.507 82.0672 180.715 82.1989L182.614 83.4066C182.979 83.648 183.42 83.7515 183.856 83.6983C184.292 83.6451 184.694 83.4387 184.989 83.1168L186.821 81.1723C186.821 81.1723 190.661 78.2194 189.403 75.9489L186.686 74.1917Z" fill="#FF8B7B"/>
<path d="M188.286 33.8836C189.2 34.419 190.023 35.0913 190.729 35.8763C191.396 36.6262 191.993 37.4347 192.512 38.2918C193.586 39.9705 194.612 41.6915 195.565 43.491C196.526 45.3226 197.374 47.2101 198.105 49.1432C198.92 51.2439 199.51 53.4239 199.863 55.6468C199.906 55.9488 199.943 56.2507 199.967 56.5949L200.004 57.078C200.004 57.2471 200.004 57.4645 200.004 57.6819C200.006 58.0531 199.986 58.4242 199.943 58.793C199.943 59.1613 199.851 59.4753 199.796 59.8014C199.566 60.9687 199.222 62.1113 198.77 63.2133C197.977 65.1488 197.026 67.0169 195.925 68.799C193.841 72.1666 191.504 75.3742 188.933 78.3944C188.569 78.8225 188.057 79.1018 187.497 79.178C186.937 79.2543 186.368 79.1221 185.9 78.8071C185.433 78.4921 185.1 78.0167 184.967 77.473C184.833 76.9293 184.909 76.356 185.178 75.8642V75.8099C186.051 74.2338 186.906 72.5369 187.7 70.8823C188.494 69.2278 189.239 67.543 189.886 65.8703C190.526 64.2762 191.039 62.6346 191.419 60.9608C191.575 60.2647 191.656 59.5543 191.663 58.8413C191.673 58.7066 191.673 58.5714 191.663 58.4367C191.657 58.3337 191.636 58.2321 191.602 58.1348L191.504 57.7845C191.467 57.6456 191.419 57.4947 191.364 57.3316C190.848 55.858 190.179 54.4414 189.367 53.1046C188.5 51.6432 187.535 50.1698 186.552 48.7024C185.569 47.235 184.519 45.7616 183.469 44.2942C182.918 43.5747 182.422 42.8158 181.985 42.0237C181.529 41.2156 181.205 40.3412 181.026 39.4331L180.935 38.8292C180.791 37.9169 180.912 36.983 181.284 36.136C181.655 35.2889 182.262 34.5632 183.033 34.0431C183.804 33.523 184.709 33.2296 185.642 33.1971C186.575 33.1646 187.498 33.3942 188.305 33.8594L188.286 33.8836Z" fill="#FF8B7B"/>
</svg>
