<svg width="358" height="213" viewBox="0 0 358 213" fill="none" xmlns="http://www.w3.org/2000/svg">
<g clip-path="url(#clip0_99_1750)">
<path d="M349.321 45.7207L341.004 41.0035V35.5605L349.321 40.2778V45.7207Z" fill="#272523"/>
<path d="M353.661 43.1807L349.321 45.7208V40.2778L353.661 37.7378V43.1807Z" fill="#35322E"/>
<path d="M349.321 40.2777L341.004 35.5605L345.343 33.0205L353.661 37.7377L349.321 40.2777Z" fill="#4E4745"/>
<path d="M299.78 73.2982L292.547 69.3067V64.9524L299.78 69.3067V73.2982Z" fill="#B6B5B3"/>
<path d="M348.96 44.9949L299.78 73.2981V69.3067L348.96 41.0034V44.9949Z" fill="#D2D1CE"/>
<path d="M299.78 69.3068L292.547 64.9524L341.366 36.6492L348.96 41.0035L299.78 69.3068Z" fill="#E8E7E2"/>
<path d="M300.141 74.3867L291.824 69.3066V64.2266L300.141 68.9438V74.3867Z" fill="#272523"/>
<path d="M304.481 71.8467L300.141 74.3868V68.9438L304.481 66.4038V71.8467Z" fill="#35322E"/>
<path d="M300.141 68.9438L291.824 64.2266L296.164 61.6865L304.481 66.4037L300.141 68.9438Z" fill="#4E4745"/>
<path d="M47.3717 119.382L42.3091 122.285V113.939L47.3717 111.036V119.382Z" fill="#D2D1CE"/>
<path d="M260.364 63.1381C260.364 65.3153 258.917 66.041 257.109 64.9524C255.301 63.8639 253.855 61.3238 253.855 59.5095C253.855 57.3323 255.301 56.6066 257.109 57.6952C258.917 58.4209 260.364 60.961 260.364 63.1381Z" fill="#B6B5B3"/>
<path d="M254.939 57.3322L298.333 32.2947C299.057 31.9319 299.78 31.9319 300.503 32.6576C302.311 33.7462 303.758 36.2862 303.758 38.1005C303.758 39.1891 303.396 39.9148 302.673 40.2777L259.279 65.3152C260.002 64.9523 260.364 64.2266 260.364 63.138C260.364 60.9608 258.917 58.7837 257.109 57.6951C256.386 56.9694 255.663 56.9694 254.939 57.3322Z" fill="url(#paint0_linear_99_1750)"/>
<path d="M259.64 66.4038C259.64 70.0324 257.109 71.4839 253.855 69.6696C250.6 67.8552 248.069 63.5009 248.069 59.8723C248.069 56.2437 250.6 54.7922 253.855 56.6065C257.109 58.4208 259.64 62.7752 259.64 66.4038Z" fill="#B6B5B3"/>
<path d="M249.877 56.2437L253.855 54.0665C254.939 53.3408 256.386 53.7036 257.832 54.4293C261.087 56.2437 263.618 60.598 263.618 64.2266C263.618 66.0409 262.895 67.1295 262.172 67.8552L258.194 70.0324C259.279 69.3067 259.64 68.2181 259.64 66.4038C259.64 62.7752 257.109 58.4208 253.855 56.6065C252.408 55.5179 250.962 55.5179 249.877 56.2437Z" fill="url(#paint1_linear_99_1750)"/>
<path d="M57.497 180.705C57.497 182.882 56.0505 183.608 54.2425 182.52C52.4344 181.431 50.9879 178.891 50.9879 177.077C50.9879 174.899 52.4344 174.174 54.2425 175.262C56.0505 175.988 57.497 178.528 57.497 180.705Z" fill="#B6B5B3"/>
<path d="M52.0728 174.899L250.962 59.5093C251.685 59.1465 252.408 59.1465 253.131 59.8722C254.939 60.9608 256.386 63.5008 256.386 65.3151C256.386 66.4037 256.024 67.1294 255.301 67.4923L56.4122 182.882C57.1354 182.52 57.497 181.794 57.497 180.705C57.497 178.528 56.0505 176.351 54.2425 175.262C53.5192 174.537 52.796 174.537 52.0728 174.899Z" fill="url(#paint2_linear_99_1750)"/>
<path d="M56.7737 183.971C56.7737 187.6 54.2424 189.051 50.9879 187.237C47.7333 185.423 45.202 181.068 45.202 177.44C45.202 173.811 47.7333 172.36 50.9879 174.174C54.2424 175.988 56.7737 180.343 56.7737 183.971Z" fill="#B6B5B3"/>
<path d="M47.0101 173.811L50.9879 171.634C52.0728 170.908 53.5192 171.271 54.9657 171.997C58.2202 173.811 60.7515 178.165 60.7515 181.794C60.7515 183.608 60.0283 184.697 59.3051 185.423L55.3273 187.6C56.4122 186.874 56.7738 185.785 56.7738 183.971C56.7738 180.343 54.2425 175.988 50.9879 174.174C49.5414 173.085 48.095 173.085 47.0101 173.811Z" fill="url(#paint3_linear_99_1750)"/>
<path d="M10.1253 208.283C10.1253 210.46 8.67884 211.186 6.87076 210.097C5.06268 209.008 3.61621 206.468 3.61621 204.654C3.61621 202.84 5.06268 201.751 6.87076 202.84C8.67884 203.928 10.1253 206.106 10.1253 208.283Z" fill="#B6B5B3"/>
<path d="M4.70105 202.477L48.095 177.44C48.8182 177.077 49.5415 177.077 50.2647 177.802C52.0728 178.891 53.5192 181.431 53.5192 183.245C53.5192 184.334 53.1576 185.06 52.4344 185.422L9.04044 210.46C9.76368 210.097 10.1253 209.371 10.1253 208.283C10.1253 206.106 8.67883 203.928 6.87075 202.84C6.14751 202.114 5.06267 202.114 4.70105 202.477Z" fill="url(#paint4_linear_99_1750)"/>
<path d="M299.78 124.825C326.542 124.825 348.236 112.315 348.236 96.8842C348.236 81.4532 326.542 68.9438 299.78 68.9438C273.018 68.9438 251.323 81.4532 251.323 96.8842C251.323 112.315 273.018 124.825 299.78 124.825Z" fill="#FFB948"/>
<path opacity="0.2" d="M299.78 122.647C324.345 122.647 344.259 111.113 344.259 96.8843C344.259 82.6557 324.345 71.1211 299.78 71.1211C275.215 71.1211 255.301 82.6557 255.301 96.8843C255.301 111.113 275.215 122.647 299.78 122.647Z" fill="#EAA331"/>
<path d="M268.319 80.9184C285.677 70.7582 313.521 70.7582 330.879 80.9184C339.196 85.6356 343.174 91.8042 343.897 97.9729C344.259 91.0785 340.281 83.8213 330.879 78.7412C313.521 68.5811 285.677 68.5811 268.319 78.7412C259.279 84.1841 254.939 91.0785 255.301 97.9729C256.024 91.8042 260.364 85.6356 268.319 80.9184Z" fill="url(#paint5_linear_99_1750)"/>
<path d="M347.875 96.5212V106.319C347.875 113.576 343.174 120.833 333.772 126.276C314.968 137.162 284.23 137.162 265.426 126.276C256.024 120.833 251.323 113.939 251.323 106.681V96.8841C251.323 103.778 256.024 111.036 265.426 116.479C284.23 127.365 314.968 127.365 333.772 116.479C343.535 111.036 348.236 103.778 347.875 96.5212Z" fill="url(#paint6_linear_99_1750)"/>
<path d="M299.78 101.601C306.37 101.601 311.713 98.5148 311.713 94.7071C311.713 90.8995 306.37 87.8127 299.78 87.8127C293.189 87.8127 287.846 90.8995 287.846 94.7071C287.846 98.5148 293.189 101.601 299.78 101.601Z" fill="#FFB948"/>
<path d="M303.758 96.8842C301.588 97.9728 297.972 97.9728 295.802 96.8842C293.632 95.7956 293.632 93.6185 295.802 92.167C297.972 91.0784 301.588 91.0784 303.758 92.167C305.927 93.6185 305.927 95.4328 303.758 96.8842Z" fill="url(#paint7_linear_99_1750)"/>
<path d="M311.352 94.3442V96.8843C311.352 98.6986 310.267 100.513 307.735 101.601C303.034 104.142 295.802 104.142 291.101 101.601C288.931 100.15 287.846 98.6986 287.485 96.8843V94.3442C287.485 96.1585 288.57 97.61 291.101 99.0614C295.802 101.601 303.034 101.601 307.735 99.0614C310.267 97.9729 311.352 96.1585 311.352 94.3442Z" fill="url(#paint8_linear_99_1750)"/>
<path d="M301.226 112.487C327.988 112.487 349.683 99.9779 349.683 84.5468C349.683 69.1158 327.988 56.6064 301.226 56.6064C274.464 56.6064 252.77 69.1158 252.77 84.5468C252.77 99.9779 274.464 112.487 301.226 112.487Z" fill="#FFB948"/>
<path opacity="0.2" d="M332.325 102.69C314.968 112.85 287.123 112.85 269.766 102.69C252.408 92.5299 252.408 76.5639 269.766 66.4038C287.123 56.2437 314.968 56.2437 332.325 66.4038C349.683 76.5639 349.683 92.5299 332.325 102.69Z" fill="#EAA331"/>
<path d="M269.766 68.581C287.123 58.4208 314.968 58.4208 332.325 68.581C340.642 73.2982 344.62 79.4668 345.343 85.6355C345.705 78.7411 341.727 71.4839 332.325 66.4038C314.968 56.2437 287.123 56.2437 269.766 66.4038C260.725 71.8467 256.386 78.7411 256.747 85.6355C257.471 79.4668 261.81 73.2982 269.766 68.581Z" fill="url(#paint9_linear_99_1750)"/>
<path d="M349.321 84.1841V93.9814C349.321 101.239 344.62 108.496 335.218 113.939C316.414 124.825 285.677 124.825 266.873 113.939C257.471 108.496 252.77 101.601 252.77 94.3442V84.5469C252.77 91.4413 257.471 98.6986 266.873 104.141C285.677 115.027 316.414 115.027 335.218 104.141C344.982 98.6986 349.683 91.4413 349.321 84.1841Z" fill="url(#paint10_linear_99_1750)"/>
<path d="M309.543 87.0868C304.842 89.6269 297.61 89.6269 292.909 87.0868C288.208 84.5468 288.208 80.1924 292.909 77.2895C297.61 74.7495 304.842 74.7495 309.543 77.2895C313.883 80.1924 313.883 84.5468 309.543 87.0868Z" fill="#FFB948"/>
<path d="M305.204 84.5468C303.034 85.6354 299.418 85.6354 297.248 84.5468C295.079 83.4582 295.079 81.2811 297.248 79.8296C299.418 78.741 303.034 78.741 305.204 79.8296C307.374 81.2811 307.374 83.4582 305.204 84.5468Z" fill="#C28017"/>
<path d="M312.798 82.3696V84.9097C312.798 86.724 311.713 88.5383 309.182 89.6269C304.481 92.1669 297.249 92.1669 292.547 89.6269C290.378 88.1754 289.293 86.724 288.931 84.9097V82.3696C288.931 84.1839 290.016 85.6354 292.547 87.0868C297.249 89.6269 304.481 89.6269 309.182 87.0868C311.713 85.6354 312.798 84.1839 312.798 82.3696Z" fill="url(#paint11_linear_99_1750)"/>
<path d="M173.937 62.4123C196.905 62.4123 215.523 51.5276 215.523 38.1006C215.523 24.6736 196.905 13.7888 173.937 13.7888C150.97 13.7888 132.352 24.6736 132.352 38.1006C132.352 51.5276 150.97 62.4123 173.937 62.4123Z" fill="#4E4745"/>
<path d="M215.523 37.7378V46.4465C215.523 52.6151 211.545 59.1467 203.228 63.8639C186.956 73.2983 160.558 73.2983 144.285 63.8639C136.329 59.1467 132.351 52.978 131.99 47.1722V38.4635C131.99 44.6322 136.329 50.8008 144.285 55.1552C160.558 64.5896 186.956 64.5896 203.228 55.1552C211.545 50.438 215.523 43.9064 215.523 37.7378Z" fill="#272523"/>
<path d="M173.937 42.0921C179.529 42.0921 184.063 39.4927 184.063 36.2863C184.063 33.0798 179.529 30.4805 173.937 30.4805C168.345 30.4805 163.812 33.0798 163.812 36.2863C163.812 39.4927 168.345 42.0921 173.937 42.0921Z" fill="#FFB948"/>
<path d="M173.937 39.1891C176.534 39.1891 178.638 37.8894 178.638 36.2862C178.638 34.683 176.534 33.3833 173.937 33.3833C171.341 33.3833 169.236 34.683 169.236 36.2862C169.236 37.8894 171.341 39.1891 173.937 39.1891Z" fill="url(#paint12_linear_99_1750)"/>
<path d="M184.063 35.9233V38.1005C184.063 39.552 182.978 41.0034 181.17 42.4549C177.192 44.632 170.683 44.632 166.705 42.4549C164.897 41.3663 163.812 39.9148 163.812 38.4634V36.2862C163.812 37.7377 164.897 39.1891 166.705 40.2777C170.683 42.4549 177.192 42.4549 181.17 40.2777C182.978 39.1891 184.063 37.7376 184.063 35.9233Z" fill="url(#paint13_linear_99_1750)"/>
<path d="M170.321 55.8808C193.288 55.8808 211.907 44.9961 211.907 31.5691C211.907 18.1421 193.288 7.25732 170.321 7.25732C147.354 7.25732 128.735 18.1421 128.735 31.5691C128.735 44.9961 147.354 55.8808 170.321 55.8808Z" fill="#4E4745"/>
<path opacity="0.2" d="M170.321 53.7037C191.491 53.7037 208.652 43.7937 208.652 31.5692C208.652 19.3446 191.491 9.43457 170.321 9.43457C149.151 9.43457 131.99 19.3446 131.99 31.5692C131.99 43.7937 149.151 53.7037 170.321 53.7037Z" fill="#272523"/>
<path d="M143.2 18.1433C158.026 9.43457 182.255 9.43457 197.442 18.1433C204.313 22.1347 208.291 27.5777 208.653 32.6577C209.014 26.4891 205.398 20.6833 197.442 15.9661C182.616 7.2574 158.388 7.2574 143.2 15.9661C135.244 20.6833 131.628 26.4891 131.99 32.6577C132.713 27.5777 136.329 22.1347 143.2 18.1433Z" fill="#272523"/>
<path d="M211.907 31.5691V40.2778C211.907 46.4464 207.929 52.978 199.612 57.6952C183.339 67.1296 156.941 67.1296 140.669 57.6952C132.713 52.978 128.735 46.8093 128.374 41.0035V31.932C128.374 38.1006 132.713 44.2693 140.669 48.6236C156.941 58.058 183.339 58.058 199.612 48.6236C207.929 43.9064 212.269 37.7377 211.907 31.5691Z" fill="#272523"/>
<path d="M177.554 34.1091C173.576 36.2862 167.067 36.2862 163.089 34.1091C159.111 31.9319 159.111 27.9404 163.089 25.7633C167.067 23.5861 173.576 23.5861 177.554 25.7633C181.531 27.9404 181.531 31.569 177.554 34.1091Z" fill="#4E4745"/>
<path d="M173.576 31.9319C171.768 33.0205 168.513 33.0205 166.705 31.9319C164.897 30.8434 164.897 29.029 166.705 27.9405C168.513 26.8519 171.768 26.8519 173.576 27.9405C175.745 29.029 175.745 30.8434 173.576 31.9319Z" fill="#272523"/>
<path d="M180.446 29.7546V31.9318C180.446 33.3833 179.362 34.8347 177.553 36.2862C173.576 38.4633 167.067 38.4633 163.089 36.2862C161.281 35.1976 160.196 33.7461 160.196 32.2947V30.1175C160.196 31.569 161.281 33.0204 163.089 34.109C167.067 36.2862 173.576 36.2862 177.553 34.109C179.362 33.0204 180.446 31.2061 180.446 29.7546Z" fill="#272523"/>
<path d="M255.663 147.685C240.836 156.394 216.608 156.394 201.782 147.685C186.956 138.976 186.956 125.187 201.782 116.479C216.608 107.77 240.836 107.77 255.663 116.479C270.489 125.187 270.489 139.339 255.663 147.685Z" fill="#FFB948"/>
<path opacity="0.2" d="M253.493 146.596C239.751 154.579 217.693 154.579 203.952 146.596C190.21 138.613 190.21 125.913 203.952 117.93C217.693 109.947 239.751 109.947 253.493 117.93C267.234 125.913 267.234 138.613 253.493 146.596Z" fill="#EAA331"/>
<path d="M203.952 119.745C217.693 111.762 239.752 111.762 253.493 119.745C260.002 123.373 263.257 128.453 263.618 133.171C263.98 127.728 260.725 122.285 253.493 117.93C239.752 109.947 217.693 109.947 203.952 117.93C196.719 122.285 193.465 127.728 193.826 133.171C194.188 128.09 197.804 123.373 203.952 119.745Z" fill="url(#paint14_linear_99_1750)"/>
<path d="M266.873 132.082V140.065C266.873 145.871 263.257 151.676 255.663 156.031C240.836 164.739 216.608 164.739 201.782 156.031C194.549 151.676 190.572 146.233 190.572 140.79V132.808C190.572 138.25 194.549 144.056 201.782 148.048C216.608 156.756 240.836 156.756 255.663 148.048C263.257 143.331 266.873 137.888 266.873 132.082Z" fill="url(#paint15_linear_99_1750)"/>
<path d="M228.903 137.525C235.494 137.525 240.836 134.438 240.836 130.63C240.836 126.823 235.494 123.736 228.903 123.736C222.312 123.736 216.97 126.823 216.97 130.63C216.97 134.438 222.312 137.525 228.903 137.525Z" fill="#FFB948"/>
<path d="M232.881 132.808C230.711 133.896 227.095 133.896 224.925 132.808C222.756 131.719 222.756 129.542 224.925 128.09C227.095 127.002 230.711 127.002 232.881 128.09C235.051 129.542 235.051 131.719 232.881 132.808Z" fill="url(#paint16_linear_99_1750)"/>
<path d="M240.836 130.63V133.17C240.836 134.985 239.752 136.799 237.22 137.888C232.519 140.428 225.287 140.428 220.586 137.888C218.416 136.436 217.331 134.985 216.97 133.17V130.63C216.97 132.445 218.055 133.896 220.586 135.348C225.287 137.888 232.519 137.888 237.22 135.348C239.752 133.896 240.836 132.082 240.836 130.63Z" fill="url(#paint17_linear_99_1750)"/>
<path d="M248.792 138.25C233.966 146.959 209.737 146.959 194.911 138.25C180.085 129.542 180.085 115.753 194.911 107.044C209.737 98.3355 233.966 98.3355 248.792 107.044C263.618 115.39 263.618 129.542 248.792 138.25Z" fill="#FFB948"/>
<path opacity="0.2" d="M246.622 136.799C232.881 144.782 210.822 144.782 197.081 136.799C183.339 128.816 183.339 116.116 197.081 108.133C210.822 100.15 232.881 100.15 246.622 108.133C260.002 116.116 260.002 128.816 246.622 136.799Z" fill="#EAA331"/>
<path d="M197.081 109.947C210.822 101.964 232.881 101.964 246.622 109.947C253.131 113.576 256.386 118.656 256.747 123.373C257.109 117.93 253.855 112.487 246.622 108.133C232.881 100.15 210.822 100.15 197.081 108.133C189.848 112.487 186.594 117.93 186.956 123.373C187.317 118.656 190.572 113.576 197.081 109.947Z" fill="url(#paint18_linear_99_1750)"/>
<path d="M260.002 122.284V130.267C260.002 136.073 256.386 141.879 248.792 146.233C233.966 154.942 209.737 154.942 194.911 146.233C187.679 141.879 183.701 136.436 183.701 130.993V123.01C183.701 128.453 187.679 134.259 194.911 138.25C209.737 146.959 233.966 146.959 248.792 138.25C256.386 133.896 260.002 128.09 260.002 122.284Z" fill="url(#paint19_linear_99_1750)"/>
<path d="M222.032 127.727C228.623 127.727 233.966 124.641 233.966 120.833C233.966 117.025 228.623 113.938 222.032 113.938C215.442 113.938 210.099 117.025 210.099 120.833C210.099 124.641 215.442 127.727 222.032 127.727Z" fill="#FFB948"/>
<path d="M226.01 123.01C223.84 124.099 220.224 124.099 218.055 123.01C215.885 121.921 215.885 119.744 218.055 118.293C220.224 117.204 223.84 117.204 226.01 118.293C228.18 119.744 228.18 121.921 226.01 123.01Z" fill="#C28017"/>
<path d="M233.604 120.833V123.373C233.604 125.187 232.519 127.001 229.988 128.09C225.287 130.63 218.055 130.63 213.354 128.09C211.184 126.639 210.099 125.187 209.737 123.373V120.833C209.737 122.647 210.822 124.099 213.354 125.55C218.055 128.09 225.287 128.09 229.988 125.55C232.519 124.461 233.966 122.647 233.604 120.833Z" fill="url(#paint20_linear_99_1750)"/>
<path d="M349.321 156.393C337.388 163.288 318.222 163.288 306.651 156.393C294.717 149.499 294.717 138.613 306.651 131.719C318.584 124.825 337.75 124.825 349.321 131.719C361.255 138.25 361.255 149.499 349.321 156.393Z" fill="#4E4745"/>
<path opacity="0.2" d="M327.986 160.022C343.364 160.022 355.83 152.874 355.83 144.056C355.83 135.239 343.364 128.09 327.986 128.09C312.608 128.09 300.141 135.239 300.141 144.056C300.141 152.874 312.608 160.022 327.986 160.022Z" fill="#272523"/>
<path d="M308.459 133.896C319.307 127.727 337.026 127.727 347.513 133.896C352.576 136.799 355.107 140.79 355.469 144.419C355.83 140.065 353.299 135.71 347.513 132.445C336.665 126.276 318.945 126.276 308.459 132.445C302.673 135.71 300.141 140.065 300.503 144.419C300.503 140.79 303.396 136.799 308.459 133.896Z" fill="#272523"/>
<path d="M358 143.693V149.862C358 154.579 355.107 158.934 349.321 162.562C337.388 169.457 318.222 169.457 306.651 162.562C300.865 159.296 297.972 154.942 297.972 150.225V144.056C297.972 148.411 300.865 152.765 306.651 156.394C318.584 163.288 337.75 163.288 349.321 156.394C355.107 152.765 358.362 148.411 358 143.693Z" fill="#272523"/>
<path d="M336.303 147.322C331.602 149.862 324.37 149.862 319.669 147.322C314.968 144.782 314.968 140.428 319.669 137.525C324.37 134.985 331.602 134.985 336.303 137.525C341.004 140.428 341.004 144.782 336.303 147.322Z" fill="#4E4745"/>
<path d="M331.964 144.782C329.794 145.871 326.178 145.871 324.008 144.782C321.838 143.693 321.838 141.516 324.008 140.065C326.178 138.976 329.794 138.976 331.964 140.065C334.133 141.516 334.133 143.693 331.964 144.782Z" fill="#272523"/>
<path d="M339.919 142.605V144.419C339.919 146.233 338.834 148.048 336.303 149.136C331.602 151.676 324.37 151.676 319.669 149.136C317.499 147.685 316.414 146.233 316.053 144.419V142.605C316.053 144.419 317.137 145.87 319.669 147.322C324.37 149.862 331.602 149.862 336.303 147.322C338.834 146.233 339.919 144.419 339.919 142.605Z" fill="#272523"/>
<path d="M199.25 201.751C187.317 208.646 168.151 208.646 156.58 201.751C144.646 194.857 144.646 183.971 156.58 177.077C168.513 170.182 187.679 170.182 199.25 177.077C210.822 183.971 211.184 194.857 199.25 201.751Z" fill="#4E4745"/>
<path opacity="0.2" d="M177.915 205.017C193.293 205.017 205.76 197.869 205.76 189.051C205.76 180.233 193.293 173.085 177.915 173.085C162.537 173.085 150.071 180.233 150.071 189.051C150.071 197.869 162.537 205.017 177.915 205.017Z" fill="#272523"/>
<path d="M158.388 179.254C169.236 173.085 186.956 173.085 197.442 179.254C202.505 182.157 205.036 186.148 205.398 189.777C205.76 185.422 203.228 181.068 197.442 177.802C186.594 171.634 168.875 171.634 158.388 177.802C152.602 181.068 150.071 185.422 150.432 189.777C150.432 186.148 152.964 182.157 158.388 179.254Z" fill="#272523"/>
<path d="M207.929 189.051V195.22C207.929 199.937 205.036 204.291 199.25 207.92C187.317 214.814 168.151 214.814 156.58 207.92C150.794 204.654 147.901 200.3 147.901 195.583V189.414C147.901 193.768 150.794 198.123 156.58 201.751C168.513 208.646 187.679 208.646 199.25 201.751C205.036 198.123 208.291 193.405 207.929 189.051Z" fill="#272523"/>
<path d="M186.232 192.68C181.531 195.22 174.299 195.22 169.598 192.68C164.897 190.14 164.897 185.785 169.598 182.882C174.299 180.342 181.531 180.342 186.232 182.882C190.933 185.785 190.933 190.14 186.232 192.68Z" fill="#4E4745"/>
<path d="M177.915 191.228C180.911 191.228 183.339 189.766 183.339 187.962C183.339 186.159 180.911 184.697 177.915 184.697C174.919 184.697 172.491 186.159 172.491 187.962C172.491 189.766 174.919 191.228 177.915 191.228Z" fill="#272523"/>
<path d="M189.848 187.962V189.777C189.848 191.591 188.764 193.405 186.232 194.494C181.531 197.034 174.299 197.034 169.598 194.494C167.428 193.042 166.343 191.591 165.982 189.777V187.962C165.982 189.777 167.067 191.228 169.598 192.68C174.299 195.22 181.531 195.22 186.232 192.68C188.764 191.228 189.848 189.777 189.848 187.962Z" fill="#272523"/>
<path d="M144.646 176.351L132.352 169.457V161.474L144.646 168.731V176.351Z" fill="#272523"/>
<path d="M151.156 172.722L144.646 176.351V168.731L151.156 165.102V172.722Z" fill="#35322E"/>
<path d="M144.646 168.731L132.352 161.474L138.861 157.845L151.156 165.102L144.646 168.731Z" fill="#4E4745"/>
<path d="M84.2566 209.734L73.4081 203.566V197.76L84.2566 203.928V209.734Z" fill="#B6B5B3"/>
<path d="M143.923 175.262L84.2566 209.734V203.929L143.923 169.094V175.262Z" fill="#D2D1CE"/>
<path d="M84.2566 203.928L73.4081 197.76L133.436 162.925L143.923 169.094L84.2566 203.928Z" fill="#E8E7E2"/>
<path d="M84.6182 211.186L72.3232 204.291V196.308L84.6182 203.566V211.186Z" fill="#272523"/>
<path d="M91.1273 207.557L84.6182 211.186V203.566L91.1273 199.937V207.557Z" fill="#35322E"/>
<path d="M84.6182 203.566L72.3232 196.308L78.8323 192.68L91.1273 199.937L84.6182 203.566Z" fill="#4E4745"/>
<path d="M72.3233 134.622L60.0283 127.365V119.382L72.3233 126.639V134.622Z" fill="#272523"/>
<path d="M78.8323 130.63L72.3232 134.622V126.639L78.8323 123.01V130.63Z" fill="#35322E"/>
<path d="M72.3233 126.639L60.0283 119.382L66.5374 115.753L78.8324 123.01L72.3233 126.639Z" fill="#4E4745"/>
<path d="M11.5717 168.005L1.08484 161.836V155.668L11.5717 161.836V168.005Z" fill="#B6B5B3"/>
<path d="M71.5999 133.17L11.5717 168.005V161.836L71.5999 127.365V133.17Z" fill="#D2D1CE"/>
<path d="M11.5717 161.836L1.08484 155.668L61.1131 121.196L71.6 127.364L11.5717 161.836Z" fill="#E8E7E2"/>
<path d="M12.295 169.457L0 162.199V154.216L12.295 161.474V169.457Z" fill="#272523"/>
<path d="M18.804 165.465L12.2949 169.457V161.474L18.804 157.845V165.465Z" fill="#35322E"/>
<path d="M12.2949 161.474L0 154.216L6.50909 150.588L18.804 157.845L12.2949 161.474Z" fill="#4E4745"/>
<path d="M35.8 12.7001L38.3314 143.693L48.8182 137.887V10.8857L35.8 12.7001Z" fill="#D2D1CE"/>
<path d="M71.2384 16.6917L61.1132 22.4974L78.8324 91.8041L111.378 186.148L121.503 179.98L71.2384 16.6917Z" fill="#D2D1CE"/>
<path d="M124.034 162.562C123.673 162.199 123.311 161.474 122.95 161.111C122.588 160.748 122.226 160.385 121.865 160.385C121.503 160.385 121.503 160.022 121.141 160.022L114.632 158.208L104.507 164.376L111.016 166.191C111.378 166.191 111.378 166.191 111.739 166.554C112.101 166.916 112.463 166.916 112.824 167.279C113.186 167.642 113.547 168.368 113.909 168.731C113.909 169.094 114.271 169.456 114.271 169.819C114.632 170.908 114.271 171.634 113.547 171.997L123.673 165.828C124.396 165.465 124.396 164.739 124.396 163.651C124.396 163.288 124.396 162.925 124.034 162.562Z" fill="url(#paint21_linear_99_1750)"/>
<path d="M113.909 129.542C113.548 129.179 113.186 128.453 112.824 128.09C112.463 127.728 112.101 127.365 111.739 127.365C111.378 127.365 111.378 127.002 111.016 127.002L104.146 125.188L94.0203 131.356L100.891 133.17C101.253 133.17 101.253 133.17 101.614 133.533C101.976 133.896 102.337 133.896 102.699 134.259C103.061 134.622 103.422 135.348 103.784 135.711C103.784 136.073 104.146 136.436 104.146 136.799C104.507 137.888 104.146 138.613 103.422 138.976L113.548 132.808C114.271 132.445 114.271 131.719 114.271 130.63C114.271 130.268 113.909 129.905 113.909 129.542Z" fill="url(#paint22_linear_99_1750)"/>
<path d="M103.784 96.1585C103.422 95.7957 103.422 95.07 103.061 94.7071C102.699 94.3442 102.337 93.9814 101.976 93.9814C101.614 93.9814 101.614 93.6185 101.253 93.6185L94.3818 91.8042L84.2566 97.9729L91.1273 99.7872C91.4889 99.7872 91.4889 99.7872 91.8505 100.15C92.2121 100.513 92.5738 100.513 92.9354 100.876C93.297 101.239 93.6586 101.601 93.6586 102.327C93.6586 102.69 94.0202 103.053 94.0202 103.416C94.3818 104.504 94.0202 105.23 93.297 105.593L103.422 99.4243C104.145 99.0614 104.145 98.3357 104.145 97.2471C103.784 96.8843 103.784 96.5214 103.784 96.1585Z" fill="url(#paint23_linear_99_1750)"/>
<path d="M93.2969 63.138C92.9353 62.7752 92.9353 62.0494 92.5737 61.6866C92.2121 61.3237 91.8505 60.9609 91.4888 60.9609C91.1272 60.9609 91.1272 60.598 90.7656 60.598L83.8949 58.7837L73.7697 64.9523L80.6404 66.7667C81.002 66.7667 81.002 66.7667 81.3636 67.1295C81.7252 67.4924 82.0868 67.4924 82.4484 67.8552C82.8101 68.2181 83.1717 68.581 83.1717 69.3067C83.1717 69.6696 83.5333 70.0324 83.5333 70.3953C83.8949 71.4839 83.5333 72.2096 82.8101 72.5724L92.9353 66.4038C93.6585 66.0409 93.6585 65.3152 93.6585 64.2266C93.6585 63.8638 93.6585 63.5009 93.2969 63.138Z" fill="url(#paint24_linear_99_1750)"/>
<path d="M42.6707 0L32.1838 6.16865L61.1131 22.4974L71.2384 16.6917L42.6707 0Z" fill="#E8E7E2"/>
<path d="M83.1718 29.7547C82.8101 29.3919 82.8101 28.6661 82.4485 28.3033C82.0869 27.9404 81.7253 27.5776 81.3637 27.5776C81.0021 27.5776 81.0021 27.2147 80.6404 27.2147L74.1314 25.4004L64.0061 31.569L70.8768 33.3834C71.2384 33.3834 71.2384 33.3834 71.6 33.7462C71.9617 34.1091 72.3233 34.1091 72.6849 34.4719C73.0465 34.8348 73.4081 35.1977 73.4081 35.9234C73.4081 36.2862 73.7697 36.6491 73.7697 37.012C74.1314 38.1006 73.7697 38.8263 73.0465 39.1891L83.1718 33.0205C83.895 32.6576 83.895 31.9319 83.895 30.8433C83.5334 30.4805 83.5334 30.1176 83.1718 29.7547Z" fill="url(#paint25_linear_99_1750)"/>
<path opacity="0.5" d="M112.824 167.279L122.95 161.111C123.311 161.474 123.673 162.199 124.034 162.562L113.909 168.731C113.548 168.005 113.186 167.642 112.824 167.279ZM102.699 133.896C103.061 134.259 103.422 134.985 103.784 135.348L113.909 129.179C113.548 128.816 113.186 128.09 112.824 127.727L102.699 133.896ZM92.5738 100.876C92.9354 101.238 93.297 101.601 93.297 102.327L103.422 96.1584C103.061 95.7956 103.061 95.0698 102.699 94.707L92.5738 100.876ZM82.0869 67.4923C82.4485 67.8552 82.8102 68.218 82.8102 68.9438L92.9354 62.7751C92.5738 62.4122 92.5738 61.6865 92.2122 61.3237L82.0869 67.4923ZM71.9617 34.4719C72.3233 34.8347 72.6849 35.1976 72.6849 35.9233L83.1718 29.7547C82.8102 29.3918 82.8102 28.6661 82.4485 28.3032L71.9617 34.4719Z" fill="#E8E7E2"/>
<path d="M114.271 169.819C113.909 168.368 113.186 166.917 112.101 166.554C111.739 166.554 111.739 166.191 111.378 166.191L104.869 164.377L96.5515 137.162L102.699 138.976C103.784 139.339 104.869 138.25 104.507 136.799C104.145 135.348 103.422 133.896 102.337 133.533C101.976 133.533 101.976 133.17 101.614 133.17L94.7434 131.356L86.4263 104.141L92.5737 105.956C93.6586 106.319 94.7434 105.23 94.3818 103.779C94.0202 102.327 93.297 101.239 92.2121 100.513C91.8505 100.513 91.8505 100.15 91.4889 100.15L84.6182 98.3357L75.9394 70.7581L82.0869 72.5724C83.1717 72.9353 84.2566 71.8467 83.895 70.3953C83.5333 68.9438 82.8101 67.4924 81.7253 67.1295C81.3636 67.1295 81.3636 66.7667 81.002 66.7667L74.1313 64.9523L65.8141 37.7377L71.9616 39.552C73.0465 39.9149 74.1313 38.8263 73.7697 37.3748C73.4081 35.9234 72.6848 34.8348 71.6 34.1091C71.2384 34.1091 71.2384 33.7462 70.8768 33.7462L64.0061 31.9319L61.4748 23.2232L32.1838 6.1687V140.428L38.3313 144.056V17.0546L56.7737 27.5776L104.507 182.157L111.378 186.148L106.677 170.182L112.824 171.997C113.547 172.36 114.271 171.271 114.271 169.819Z" fill="#B6B5B3"/>
<path d="M95.1051 21.7719L100.891 18.5061L96.9132 24.3119L91.1273 27.5777L95.1051 21.7719Z" fill="#3C74BA"/>
<path d="M91.1273 11.6117L96.9132 8.34595L100.891 18.5061L95.1051 21.7718L91.1273 11.6117Z" fill="#3C74BA"/>
<path d="M83.1718 6.89442L88.9576 3.62866L96.9132 8.34587L91.1273 11.6116L83.1718 6.89442Z" fill="#3C74BA"/>
<path d="M91.1273 11.6117L95.1051 21.7719L91.1273 27.5777L83.1717 22.8605L79.194 12.7003L83.1717 6.89453L91.1273 11.6117Z" fill="#3C74BA"/>
<path d="M86.4263 13.7887C85.3414 13.063 84.2566 13.063 83.895 13.4258L55.3273 30.1175C54.604 30.4804 54.2424 31.2061 54.2424 32.6575C54.2424 35.1976 56.0505 38.1005 57.8586 39.1891C58.9434 39.9148 60.0283 39.9148 60.7515 39.1891C60.7515 39.1891 60.7515 39.189 60.3899 39.5519L88.9576 22.8603C90.0424 22.1345 90.404 21.4088 90.404 20.3202C90.404 17.7802 88.596 14.8773 86.4263 13.7887Z" fill="#3C74BA"/>
<path d="M60.7516 41.7294L66.5374 38.4636L62.5597 44.2694L56.7738 47.5352L60.7516 41.7294Z" fill="#3C74BA"/>
<path d="M56.7738 31.5692L62.5597 28.3035L66.5374 38.4636L60.7516 41.7294L56.7738 31.5692Z" fill="#3C74BA"/>
<path d="M48.8182 26.8519L54.6041 23.5862L62.5596 28.3034L56.7738 31.5691L48.8182 26.8519Z" fill="#3C74BA"/>
<path d="M56.7738 31.5693L60.7516 41.7294L56.7738 47.5352L48.8182 42.818L44.8405 32.6578L48.8182 26.8521L56.7738 31.5693Z" fill="#3C74BA"/>
<path d="M105.592 55.1552L111.378 51.8894L107.038 57.3323L101.614 60.961L105.592 55.1552Z" fill="#3C74BA"/>
<path d="M101.614 44.6322L107.4 41.3665L111.378 51.8895L105.592 55.1552L101.614 44.6322Z" fill="#3C74BA"/>
<path d="M93.297 40.2778L99.0829 36.6492L107.4 41.3664L101.614 44.6321L93.297 40.2778Z" fill="#3C74BA"/>
<path d="M101.614 44.6322L105.592 55.1552L101.614 60.961L93.297 56.2438L89.3192 45.7208L93.297 40.2778L101.614 44.6322Z" fill="#3C74BA"/>
<path d="M96.9132 46.8092C95.8284 46.0835 94.7435 46.0835 94.3819 46.4464L65.8142 63.138C65.091 63.5009 64.7294 64.2266 64.7294 65.678C64.7294 68.2181 66.5375 71.121 68.3455 72.2096C69.4304 72.9353 70.5152 72.9353 71.2385 72.2096C71.2385 72.2096 71.2385 72.2096 70.8768 72.5724L99.4445 55.8808C100.168 55.5179 100.529 54.7922 100.529 53.3407C100.529 51.1636 99.0829 47.8978 96.9132 46.8092Z" fill="#3C74BA"/>
<path d="M71.2384 75.1127L77.0243 71.8469L72.6849 77.2899L66.899 80.5556L71.2384 75.1127Z" fill="#3C74BA"/>
<path d="M67.2606 64.5897L72.6849 61.324L77.0243 71.847L71.2384 75.1127L67.2606 64.5897Z" fill="#3C74BA"/>
<path d="M58.9435 59.8724L64.7293 56.6067L72.6849 61.3239L67.2607 64.5896L58.9435 59.8724Z" fill="#3C74BA"/>
<path d="M67.2606 64.5898L71.2384 75.1128L66.899 80.5557L58.9435 76.2013L54.9657 65.6784L58.9435 59.8726L67.2606 64.5898Z" fill="#3C74BA"/>
<path d="M115.717 88.1754L121.141 84.9097L117.164 90.3526L111.378 93.9812L115.717 88.1754Z" fill="#3C74BA"/>
<path d="M111.739 78.0153L117.164 74.3867L121.141 84.9097L115.717 88.1755L111.739 78.0153Z" fill="#3C74BA"/>
<path d="M103.422 73.2981L109.208 69.6694L117.164 74.3866L111.739 78.0153L103.422 73.2981Z" fill="#3C74BA"/>
<path d="M111.739 78.0153L115.717 88.1754L111.378 93.9812L103.422 89.264L99.4445 78.741L103.422 73.2981L111.739 78.0153Z" fill="#3C74BA"/>
<path d="M107.038 79.8295C105.954 79.1038 104.869 79.1038 104.507 79.4666L75.9395 96.1583C75.2162 96.5211 74.8546 97.2469 74.8546 98.6983C74.8546 101.238 76.6627 104.141 78.4708 105.23C79.5556 105.956 80.6405 105.956 81.3637 105.23C81.3637 105.23 81.3637 105.23 81.0021 105.593L109.57 88.901C110.293 88.5382 110.655 87.8124 110.655 86.361C110.655 84.1838 109.208 81.2809 107.038 79.8295Z" fill="#3C74BA"/>
<path d="M81.3637 108.133L86.7879 104.867L82.8102 110.31L77.0243 113.939L81.3637 108.133Z" fill="#3C74BA"/>
<path d="M77.3859 97.61L82.8101 94.3442L86.7879 104.867L81.3636 108.133L77.3859 97.61Z" fill="#3C74BA"/>
<path d="M69.0687 93.2556L74.8546 89.627L82.8101 94.3442L77.3859 97.6099L69.0687 93.2556Z" fill="#3C74BA"/>
<path d="M77.3859 97.61L81.3637 108.133L77.0243 113.939L69.0687 109.222L65.0909 98.6985L69.0687 93.2556L77.3859 97.61Z" fill="#3C74BA"/>
<path d="M125.842 121.196L131.628 117.93L127.65 123.736L121.865 127.002L125.842 121.196Z" fill="#3C74BA"/>
<path d="M121.865 111.036L127.65 107.77L131.628 117.93L125.842 121.196L121.865 111.036Z" fill="#3C74BA"/>
<path d="M113.909 106.318L119.695 103.053L127.65 107.77L121.865 111.036L113.909 106.318Z" fill="#3C74BA"/>
<path d="M121.865 111.036L125.842 121.196L121.865 127.002L113.909 122.285L109.931 112.124L113.909 106.319L121.865 111.036Z" fill="#3C74BA"/>
<path d="M117.164 113.213C116.079 112.487 114.994 112.487 114.632 112.85L86.0646 129.542C85.3413 129.904 84.9797 130.63 84.9797 132.082C84.9797 134.622 86.7878 137.525 88.5959 138.613C89.6807 139.339 90.7656 139.339 91.4888 138.613C91.4888 138.613 91.4888 138.613 91.1272 138.976L119.695 122.284C120.418 121.921 120.78 121.196 120.78 119.744C121.141 117.204 119.333 114.301 117.164 113.213Z" fill="#3C74BA"/>
<path d="M91.4889 141.153L97.2747 137.888L93.297 143.693L87.5111 146.959L91.4889 141.153Z" fill="#3C74BA"/>
<path d="M87.5111 130.993L93.297 127.728L97.2747 137.888L91.4889 141.153L87.5111 130.993Z" fill="#3C74BA"/>
<path d="M79.5555 126.276L85.3414 123.01L93.297 127.727L87.5111 130.993L79.5555 126.276Z" fill="#3C74BA"/>
<path d="M87.5111 130.993L91.4889 141.153L87.5111 146.959L79.5555 142.242L75.5778 132.082L79.5555 126.276L87.5111 130.993Z" fill="#3C74BA"/>
<path d="M135.968 154.579L141.754 151.313L137.776 156.756L131.99 160.385L135.968 154.579Z" fill="#3C74BA"/>
<path d="M131.99 144.056L137.776 140.791L141.754 151.314L135.968 154.579L131.99 144.056Z" fill="#3C74BA"/>
<path d="M124.034 139.702L129.82 136.073L137.776 140.79L131.99 144.056L124.034 139.702Z" fill="#3C74BA"/>
<path d="M131.99 144.056L135.968 154.579L131.99 160.385L124.034 155.668L120.057 145.145L124.034 139.702L131.99 144.056Z" fill="#3C74BA"/>
<path d="M127.289 146.233C126.204 145.508 125.119 145.508 124.758 145.87L96.19 162.562C95.4667 162.925 95.1051 163.651 95.1051 165.102C95.1051 167.642 96.9132 170.545 98.7213 171.634C99.8061 172.359 100.891 172.359 101.614 171.634C101.614 171.634 101.614 171.634 101.253 171.996L129.82 155.305C130.543 154.942 130.905 154.216 130.905 152.765C131.267 150.588 129.459 147.685 127.289 146.233Z" fill="#3C74BA"/>
<path d="M101.614 174.537L107.4 171.271L103.422 176.714L97.6364 180.343L101.614 174.537Z" fill="#3C74BA"/>
<path d="M97.6364 164.014L103.422 160.748L107.4 171.271L101.614 174.537L97.6364 164.014Z" fill="#3C74BA"/>
<path d="M89.6808 159.297L95.105 156.031L103.422 160.748L97.6363 164.014L89.6808 159.297Z" fill="#3C74BA"/>
<path d="M97.6364 164.014L101.614 174.537L97.6364 180.343L89.3192 175.625L85.3414 165.102L89.6808 159.297L97.6364 164.014Z" fill="#3C74BA"/>
</g>
<defs>
<linearGradient id="paint0_linear_99_1750" x1="277.939" y1="44.123" x2="282.428" y2="51.8719" gradientUnits="userSpaceOnUse">
<stop stop-color="#E8E7E2"/>
<stop offset="1" stop-color="#D2D1CE"/>
</linearGradient>
<linearGradient id="paint1_linear_99_1750" x1="253.934" y1="53.905" x2="262.002" y2="67.8312" gradientUnits="userSpaceOnUse">
<stop stop-color="#E8E7E2"/>
<stop offset="1" stop-color="#D2D1CE"/>
</linearGradient>
<linearGradient id="paint2_linear_99_1750" x1="152.812" y1="116.614" x2="157.302" y2="124.363" gradientUnits="userSpaceOnUse">
<stop stop-color="#E8E7E2"/>
<stop offset="1" stop-color="#D2D1CE"/>
</linearGradient>
<linearGradient id="paint3_linear_99_1750" x1="51.0111" y1="171.467" x2="59.0786" y2="185.392" gradientUnits="userSpaceOnUse">
<stop stop-color="#E8E7E2"/>
<stop offset="1" stop-color="#D2D1CE"/>
</linearGradient>
<linearGradient id="paint4_linear_99_1750" x1="27.4785" y1="189.225" x2="31.9676" y2="196.974" gradientUnits="userSpaceOnUse">
<stop stop-color="#E8E7E2"/>
<stop offset="1" stop-color="#D2D1CE"/>
</linearGradient>
<linearGradient id="paint5_linear_99_1750" x1="255.44" y1="84.4664" x2="343.954" y2="84.4664" gradientUnits="userSpaceOnUse">
<stop stop-color="#C28017"/>
<stop offset="1" stop-color="#E8A230"/>
</linearGradient>
<linearGradient id="paint6_linear_99_1750" x1="251.397" y1="115.561" x2="347.999" y2="115.561" gradientUnits="userSpaceOnUse">
<stop stop-color="#C28017"/>
<stop offset="1" stop-color="#E8A230"/>
</linearGradient>
<linearGradient id="paint7_linear_99_1750" x1="294.119" y1="94.5826" x2="305.275" y2="94.5826" gradientUnits="userSpaceOnUse">
<stop stop-color="#C28017"/>
<stop offset="1" stop-color="#E8A230"/>
</linearGradient>
<linearGradient id="paint8_linear_99_1750" x1="287.935" y1="99.1703" x2="311.46" y2="99.1703" gradientUnits="userSpaceOnUse">
<stop stop-color="#C28017"/>
<stop offset="1" stop-color="#E8A230"/>
</linearGradient>
<linearGradient id="paint9_linear_99_1750" x1="256.854" y1="72.1998" x2="345.368" y2="72.1998" gradientUnits="userSpaceOnUse">
<stop stop-color="#C28017"/>
<stop offset="1" stop-color="#E8A230"/>
</linearGradient>
<linearGradient id="paint10_linear_99_1750" x1="252.811" y1="103.295" x2="349.413" y2="103.295" gradientUnits="userSpaceOnUse">
<stop stop-color="#C28017"/>
<stop offset="1" stop-color="#E8A230"/>
</linearGradient>
<linearGradient id="paint11_linear_99_1750" x1="289.349" y1="86.9036" x2="312.874" y2="86.9036" gradientUnits="userSpaceOnUse">
<stop stop-color="#C28017"/>
<stop offset="1" stop-color="#E8A230"/>
</linearGradient>
<linearGradient id="paint12_linear_99_1750" x1="169.1" y1="36.1204" x2="178.728" y2="36.1204" gradientUnits="userSpaceOnUse">
<stop stop-color="#C28017"/>
<stop offset="1" stop-color="#E8A230"/>
</linearGradient>
<linearGradient id="paint13_linear_99_1750" x1="163.764" y1="40.0792" x2="184.065" y2="40.0792" gradientUnits="userSpaceOnUse">
<stop stop-color="#C28017"/>
<stop offset="1" stop-color="#E8A230"/>
</linearGradient>
<linearGradient id="paint14_linear_99_1750" x1="193.903" y1="122.529" x2="263.714" y2="122.529" gradientUnits="userSpaceOnUse">
<stop stop-color="#C28017"/>
<stop offset="1" stop-color="#E8A230"/>
</linearGradient>
<linearGradient id="paint15_linear_99_1750" x1="190.714" y1="147.053" x2="266.903" y2="147.053" gradientUnits="userSpaceOnUse">
<stop stop-color="#C28017"/>
<stop offset="1" stop-color="#E8A230"/>
</linearGradient>
<linearGradient id="paint16_linear_99_1750" x1="223.47" y1="130.532" x2="234.627" y2="130.532" gradientUnits="userSpaceOnUse">
<stop stop-color="#C28017"/>
<stop offset="1" stop-color="#E8A230"/>
</linearGradient>
<linearGradient id="paint17_linear_99_1750" x1="217.287" y1="135.12" x2="240.811" y2="135.12" gradientUnits="userSpaceOnUse">
<stop stop-color="#C28017"/>
<stop offset="1" stop-color="#E8A230"/>
</linearGradient>
<linearGradient id="paint18_linear_99_1750" x1="186.871" y1="112.83" x2="256.682" y2="112.83" gradientUnits="userSpaceOnUse">
<stop stop-color="#C28017"/>
<stop offset="1" stop-color="#E8A230"/>
</linearGradient>
<linearGradient id="paint19_linear_99_1750" x1="183.683" y1="137.354" x2="259.872" y2="137.354" gradientUnits="userSpaceOnUse">
<stop stop-color="#C28017"/>
<stop offset="1" stop-color="#E8A230"/>
</linearGradient>
<linearGradient id="paint20_linear_99_1750" x1="210.255" y1="125.422" x2="233.78" y2="125.422" gradientUnits="userSpaceOnUse">
<stop stop-color="#C28017"/>
<stop offset="1" stop-color="#E8A230"/>
</linearGradient>
<linearGradient id="paint21_linear_99_1750" x1="112.238" y1="159.725" x2="117.827" y2="169.372" gradientUnits="userSpaceOnUse">
<stop offset="0.5961" stop-color="#E8E7E2"/>
<stop offset="1" stop-color="#D2D1CE"/>
</linearGradient>
<linearGradient id="paint22_linear_99_1750" x1="102.017" y1="126.513" x2="107.611" y2="136.169" gradientUnits="userSpaceOnUse">
<stop offset="0.5961" stop-color="#E8E7E2"/>
<stop offset="1" stop-color="#D2D1CE"/>
</linearGradient>
<linearGradient id="paint23_linear_99_1750" x1="91.8075" y1="93.3152" x2="97.3986" y2="102.966" gradientUnits="userSpaceOnUse">
<stop offset="0.5961" stop-color="#E8E7E2"/>
<stop offset="1" stop-color="#D2D1CE"/>
</linearGradient>
<linearGradient id="paint24_linear_99_1750" x1="81.5867" y1="60.1023" x2="87.1829" y2="69.7625" gradientUnits="userSpaceOnUse">
<stop offset="0.5961" stop-color="#E8E7E2"/>
<stop offset="1" stop-color="#D2D1CE"/>
</linearGradient>
<linearGradient id="paint25_linear_99_1750" x1="71.3686" y1="26.8885" x2="76.9699" y2="36.5562" gradientUnits="userSpaceOnUse">
<stop offset="0.5961" stop-color="#E8E7E2"/>
<stop offset="1" stop-color="#D2D1CE"/>
</linearGradient>
<clipPath id="clip0_99_1750">
<rect width="358" height="213" fill="white"/>
</clipPath>
</defs>
</svg>
