<svg width="247" height="122" viewBox="0 0 247 122" fill="none" xmlns="http://www.w3.org/2000/svg">
<g clip-path="url(#clip0_99_1732)">
<path d="M8.16531 102.2L2.9162 105.112L5.83237 109.771L10.4983 112.974L9.6234 108.606L8.16531 102.2Z" fill="#C28017"/>
<path d="M18.0803 116.759C18.0803 116.759 13.1228 115.303 2.9162 105.112L3.49943 108.898C3.49943 108.898 11.9563 118.506 23.621 120.835L18.0803 116.759Z" fill="#C28017"/>
<path d="M35.8689 108.315C35.8689 119.671 27.7037 124.329 17.7887 118.797C8.16529 112.974 0 98.9976 0 87.642C0 76.2864 8.16529 71.6277 18.0803 77.1599C27.9953 82.6922 35.8689 96.9595 35.8689 108.315Z" fill="#C28017"/>
<path d="M5.24908 75.9953L135.019 1.16471C138.227 -0.873474 142.893 -0.582305 147.85 2.32939C157.765 8.15278 165.93 21.8377 165.93 33.4845C165.93 39.0167 163.889 43.0931 160.681 45.1313L30.9114 119.962C34.1192 117.924 36.1605 114.138 36.1605 108.315C36.1605 96.9595 27.9952 82.9833 18.0803 77.1599C12.8311 74.2482 8.45688 74.2482 5.24908 75.9953Z" fill="url(#paint0_linear_99_1732)"/>
<path d="M68.8217 97.8331L116.939 69.8808C120.146 67.8426 122.188 64.0574 122.188 58.234C122.188 46.8784 114.022 32.9023 104.107 27.0789C99.1499 24.1672 94.484 23.876 91.2762 25.9142L43.1594 53.8665C46.3672 51.8283 51.033 52.1195 55.9905 55.0312C65.9055 60.8546 74.0708 74.5395 74.0708 86.1863C74.0708 92.0097 72.0295 96.0861 68.8217 97.8331Z" fill="#35322E"/>
<path opacity="0.3" d="M17.497 80.0715C9.62338 74.8305 2.91618 78.9069 2.33294 87.9331C1.74971 97.8329 6.99882 105.403 13.706 109.771C27.9953 119.088 32.0779 94.9212 17.497 85.3126C5.54073 77.451 3.49941 96.9594 15.4557 105.112C25.3707 111.809 20.4132 87.6419 13.4144 89.0978C9.915 89.9713 12.8312 95.2124 14.2893 97.2505L12.2479 98.9976C6.41559 90.2625 10.2066 82.9832 16.039 87.3508C27.412 95.5035 26.2456 115.885 14.5809 108.024C1.89701e-07 98.4152 1.45809 72.21 16.3306 82.1097C28.8701 90.5536 34.1192 110.935 26.5372 115.303C22.7462 117.632 9.62338 112.683 6.12397 106.859C5.54073 105.986 4.9575 105.112 4.66588 104.239L2.91618 105.112C6.41559 110.062 13.706 114.43 13.706 114.43C19.5384 117.924 24.4959 118.506 27.9953 116.759C38.2019 110.935 30.6198 88.5155 17.497 80.0715Z" fill="#BA7A1C"/>
<path d="M89.235 103.074L83.9858 105.986L86.902 110.644L91.5679 113.847L89.235 103.074Z" fill="#50AFDB"/>
<path d="M99.15 117.633C99.15 117.633 94.1925 116.177 83.9858 105.986L84.5691 109.771C84.5691 109.771 93.026 119.38 104.691 121.709L99.15 117.633Z" fill="#50AFDB"/>
<path d="M116.939 109.189C116.939 120.544 108.773 125.203 98.8584 119.671C88.9434 113.847 80.7781 100.162 80.7781 88.5156C80.7781 76.8689 88.9434 72.5013 98.8584 78.0335C109.065 83.8569 116.939 97.8331 116.939 109.189Z" fill="#2C90CF"/>
<path d="M86.3188 76.8688L216.089 2.03825C219.296 6.06691e-05 223.962 0.29123 228.92 3.20292C238.835 9.02631 247 22.7113 247 34.3581C247 39.8903 244.959 43.9666 241.751 46.0048L111.981 120.835C115.189 118.797 117.23 115.012 117.23 109.189C117.23 97.833 109.065 83.8569 99.15 78.0335C94.1925 75.4129 89.5266 75.1218 86.3188 76.8688Z" fill="#2C90CF"/>
<path d="M150.183 98.7065L198.3 71.0454C201.508 69.0072 203.549 65.222 203.549 59.3986C203.549 48.043 195.384 34.0668 185.469 28.2435C180.511 25.3318 175.845 25.0406 172.638 27.0788L124.521 55.031C127.728 52.9929 132.394 53.284 137.352 56.1957C147.267 62.0191 155.432 75.7041 155.432 87.3508C155.141 92.8831 153.099 96.9594 150.183 98.7065Z" fill="#35322E"/>
<path opacity="0.3" d="M98.5667 80.9451C90.6931 75.704 83.9859 79.7804 83.4026 88.8067C82.8194 98.7064 88.0685 106.277 94.7757 110.644C109.065 119.962 113.148 95.7947 98.5667 86.1861C86.6104 78.3246 84.5691 97.8329 96.5254 105.986C106.44 112.683 101.483 88.5155 94.4841 89.9713C90.9847 90.8448 93.9009 96.0859 95.359 98.1241L93.6092 99.8711C87.7769 91.136 91.5679 83.8568 97.4003 88.2243C108.773 96.3771 107.607 116.759 95.9422 108.897C81.3613 99.2888 82.8194 73.0835 97.6919 82.9833C110.231 91.4272 115.481 111.809 107.899 116.177C104.107 118.506 90.9847 113.556 87.4853 107.733C86.9021 106.859 86.3188 105.986 86.0272 105.112L84.2775 106.277C87.7769 111.227 95.0673 115.594 95.0673 115.594C100.9 119.088 105.857 119.671 109.357 117.924C119.272 111.809 111.69 89.6802 98.5667 80.9451Z" fill="#8E962A"/>
</g>
<defs>
<linearGradient id="paint0_linear_99_1732" x1="76.4644" y1="34.9797" x2="101.823" y2="78.9696" gradientUnits="userSpaceOnUse">
<stop stop-color="#FFB948"/>
<stop offset="1" stop-color="#F2AA36"/>
</linearGradient>
<clipPath id="clip0_99_1732">
<rect width="247" height="122" fill="white"/>
</clipPath>
</defs>
</svg>
