<svg width="62" height="51" viewBox="0 0 62 51" fill="none" xmlns="http://www.w3.org/2000/svg">
<g clip-path="url(#clip0_10_310)">
<path d="M9.1099 46.609L7.11096 46.7391V45.6982C7.63527 46.0235 8.29067 46.3488 9.1099 46.609Z" fill="#E30613" stroke="#1D1D1B" stroke-width="0.3266" stroke-miterlimit="10"/>
<path d="M7.04548 45.6331L3.40806 44.885L3.11313 44.6898L4.52222 43.4213L4.16176 42.9009L0.131104 40.7217L1.9662 40.5591C2.49051 41.0144 3.27698 41.6975 4.12899 42.6407C5.04654 43.6815 5.27592 44.1694 5.96409 44.8524C6.25901 45.0801 6.58671 45.3729 7.04548 45.6331Z" fill="#E30613" stroke="#1D1D1B" stroke-width="0.3266" stroke-miterlimit="10"/>
<path d="M57.6417 42.9662L57.2813 43.389L58.6904 44.4949L57.4451 45.1779L54.9874 45.5357L54.8563 45.5683L54.8235 45.6333L54.4958 46.1862L54.332 46.5765L51.9398 46.8693L51.8743 46.9018L43.387 49.6339L42.0434 49.8291C41.683 49.8941 41.2897 49.9267 40.9293 49.9917C40.4377 49.5364 40.11 49.1461 39.8806 48.8533C39.6185 48.5281 39.4874 48.3329 39.2252 48.2353C38.832 48.1052 38.6026 48.3329 38.3405 48.1703C38.2094 48.1052 38.2094 48.0077 37.98 47.162C37.8489 46.7066 37.7834 46.5765 37.8817 46.479C38.0128 46.3163 38.2421 46.5115 38.5698 46.3814C38.9303 46.2188 38.8975 45.861 39.258 45.6984C39.4546 45.6008 39.684 45.6008 39.8151 45.6333C39.8479 45.5682 40.0772 45.2755 39.9789 44.8202C39.9134 44.4949 39.684 44.2998 39.5857 44.2022C39.7496 44.007 39.9134 43.8119 40.0772 43.6167C40.4049 43.6167 40.6999 43.6167 41.0276 43.6167C41.0931 43.7143 41.1259 43.7793 41.1914 43.8769C41.4863 43.8769 41.7485 43.8769 42.0434 43.8769C42.109 44.0395 42.2728 44.4624 42.7316 44.7551C43.0593 44.9828 43.3542 45.0478 43.5508 45.0478C43.6164 45.4381 43.7147 45.8285 43.7802 46.2188C44.4356 45.9911 45.517 45.4707 46.5656 44.4299C47.8109 43.1939 48.3024 41.8278 48.4662 41.1448C48.1713 41.1773 47.7126 41.2098 47.221 41.0472C46.6967 40.8846 46.3035 40.5918 45.8447 40.0389C44.8616 38.933 44.3045 37.632 44.0096 36.7864C43.8785 36.9165 43.7474 37.0791 43.5836 37.2092C43.2559 37.0791 42.535 36.7538 42.3056 36.0708C42.2073 35.7781 42.2073 35.4853 42.4039 34.5746C42.6005 33.729 42.6988 33.2086 43.0265 32.4279C43.2887 31.7124 43.7474 30.7691 44.4356 29.6958C46.0741 29.7283 47.7453 29.7283 49.3838 29.7609L49.3183 29.7934L50.3341 30.9643L50.9567 31.0293L54.0043 31.2895L55.5117 32.0702L57.8056 34.8999L58.6576 36.5587L61.4102 38.6078L61.4758 39.8438L60.2633 40.2666L61.9673 40.3967L59.8373 42.0555L57.6417 42.9662Z" fill="#E30613" stroke="#1D1D1B" stroke-width="0.3266" stroke-miterlimit="10"/>
<path d="M24.1184 47.1621C23.8563 48.0077 23.889 48.0728 23.7579 48.1704C23.4958 48.333 23.2664 48.1053 22.8732 48.2354C22.5782 48.333 22.4799 48.5282 22.2178 48.8534C21.9884 49.1461 21.6607 49.5364 21.1692 49.9918C20.7432 49.9267 20.3171 49.8942 19.8911 49.8292L11.666 47.6174L9.10996 46.6091C8.29072 46.3489 7.63533 46.0237 7.11102 45.6984V45.6659L7.01271 45.6334C6.5867 45.3407 6.25901 45.0804 5.96408 44.8202C5.27592 44.1697 5.04653 43.6819 4.12899 42.6085C3.27698 41.6653 2.52328 40.9497 1.96619 40.5269L0.426025 39.356L0.491565 38.4127L3.27698 36.4287L6.61947 31.8751L8.45457 31.127C9.40488 31.062 10.3552 30.9969 11.3055 30.9318C11.5677 30.7692 11.8626 30.5741 12.1575 30.3789C12.4197 30.1838 12.6818 30.0211 12.9112 29.826H12.8785C14.4842 29.826 16.0899 29.7935 17.6628 29.7935C18.1216 30.444 18.6787 31.3872 19.1047 32.5581C19.5962 33.9242 19.7601 35.1276 19.7928 36.0058C19.7601 36.1685 19.6618 36.4937 19.3996 36.7864C19.0719 37.1767 18.6459 37.3069 18.4821 37.3394C18.3182 37.1767 18.1871 37.0141 18.0888 36.884C18.056 37.1117 17.3351 40.4618 14.8774 41.1123C14.5497 41.2099 14.1237 41.275 13.6322 41.2099C13.8288 41.8929 14.3203 43.2265 15.5328 44.495C16.5814 45.5358 17.6956 46.0562 18.3182 46.2839C18.3837 45.8936 18.4821 45.5033 18.5476 45.113C18.7114 45.0804 19.0391 45.0154 19.3668 44.8202C19.8256 44.5275 19.9895 44.1047 20.055 43.9421C20.3499 43.9421 20.6121 43.9421 20.907 43.9421C20.9725 43.8445 21.0053 43.7794 21.0708 43.6819C21.3985 43.6819 21.6935 43.6819 22.0212 43.6819C22.185 43.877 22.3489 44.1047 22.5455 44.2998C22.4799 44.3324 22.185 44.495 22.0867 44.8528C21.9884 45.2756 22.2178 45.6334 22.2506 45.6659C22.3816 45.6334 22.611 45.6334 22.8076 45.731C23.1681 45.8936 23.1353 46.2514 23.4958 46.414C23.8235 46.5441 24.0856 46.3489 24.184 46.5116C24.315 46.5766 24.2823 46.7067 24.1184 47.1621Z" fill="#E30613" stroke="#1D1D1B" stroke-width="0.3266" stroke-miterlimit="10"/>
<path d="M36.0793 22.0522C35.9154 22.2148 32.9989 25.012 29.3943 24.0688C27.6903 23.6134 26.6416 22.5401 26.1829 21.9871L27.1004 22.0197L27.1987 20.2308L27.2643 14.3762L27.297 14.2786L28.9683 13.2052L30.4429 12.8149H31.9175L34.1459 13.9533L34.7685 14.6038V21.6944L34.8668 22.0522H36.0793Z" fill="#E30613" stroke="#1D1D1B" stroke-width="0.3266" stroke-miterlimit="10"/>
<path d="M42.3055 50.9349H19.203L19.8912 49.829C20.3172 49.8941 20.7432 49.9266 21.1692 49.9916C21.6607 49.5363 21.9884 49.146 22.2178 48.8532C22.48 48.528 22.611 48.3328 22.8732 48.2353C23.2664 48.1052 23.4958 48.3328 23.758 48.1702C23.8891 48.1052 23.889 48.0076 24.1184 47.1619C24.2495 46.7066 24.3151 46.5765 24.2167 46.4789C24.0857 46.3163 23.8563 46.5114 23.5286 46.3813C23.1681 46.2187 23.2009 45.8609 22.8404 45.6983C22.6438 45.6007 22.4144 45.6007 22.2833 45.6332C22.2506 45.6007 21.9884 45.2429 22.1195 44.8201C22.2178 44.4623 22.5127 44.2997 22.5783 44.2671C22.6438 44.137 22.7093 44.0395 22.7421 43.9094C23.1026 43.8768 23.3975 43.9419 23.6269 44.0069C24.9049 44.3647 25.4948 45.6983 25.9208 46.674C26.1829 47.227 26.4778 48.0726 26.6089 49.1785C27.6248 49.1785 28.6734 49.1785 29.6893 49.1785C29.6893 43.7142 29.6893 38.2825 29.6565 32.8182C30.5413 32.8182 31.3933 32.8182 32.2781 32.7856C32.2781 38.2825 32.2453 43.7467 32.2453 49.2435H35.4239C35.4239 49.1785 35.4239 49.1134 35.4239 49.0159C35.4567 48.1702 35.7844 47.5522 36.1449 46.9017C36.8986 45.5682 37.259 44.8851 37.4884 44.69C38.1438 44.137 38.8647 43.9419 39.3235 43.8768C39.3563 43.9419 39.3891 44.0069 39.4218 44.072C39.4218 44.1045 39.4546 44.137 39.4546 44.1696C39.4546 44.2021 39.4874 44.2346 39.4874 44.2671L39.5201 44.2346C39.6512 44.3322 39.8478 44.5273 39.9134 44.8526C40.0117 45.2754 39.7823 45.6007 39.7495 45.6657C39.6184 45.6332 39.3891 45.6332 39.1924 45.7308C38.832 45.8934 38.8647 46.2512 38.5043 46.4138C38.1766 46.5439 37.9144 46.3488 37.8161 46.5114C37.7506 46.609 37.7833 46.7391 37.9144 47.1944C38.1766 48.0401 38.1438 48.1052 38.2749 48.2027C38.537 48.3654 38.7664 48.1377 39.1597 48.2678C39.4546 48.3654 39.5529 48.5605 39.8151 48.8858C40.0444 49.1785 40.3721 49.5688 40.8637 50.0242C41.2241 49.9591 41.6174 49.9266 41.9778 49.8615L42.3055 50.9349Z" fill="#1D1D1B" stroke="#1D1D1B" stroke-width="0.3266" stroke-miterlimit="10"/>
<path d="M15.5 2.732V4.03302L14.3531 6.34233L13.5339 5.49667L13.2389 5.62677L13.1406 6.57001L11.5349 6.60254L10.9778 5.46415L10.2241 6.11466L9.37213 6.14718L8.91336 7.83851L8.38904 11.0911L10.2897 15.8073V16.9456L10.2241 17.3034L10.1586 17.3685L13.5994 17.4661C13.5994 18.2141 13.6322 18.9622 13.6322 19.7428C13.37 20.8487 12.9768 21.6944 12.6819 22.2798C11.5022 24.4916 9.92921 25.6625 9.53598 25.9227C8.71674 26.5081 7.93027 26.8659 7.40596 27.0611C7.34042 26.996 7.27488 26.9635 7.20934 26.8985L5.30871 24.1988L3.80131 23.093L0.819277 22.8002L0.196655 23.158V20.2958L1.27805 16.4252L0.196655 17.1408L0.655429 15.0592L4.4567 8.09871L6.84888 3.67524L9.50321 2.2116L13.2062 0.227539H13.6649L14.6153 1.82129L15.5 2.732Z" fill="#E30613" stroke="#1D1D1B" stroke-width="0.3266" stroke-miterlimit="10"/>
<path d="M60.4927 16.4253L61.6068 20.5235V23.1581L60.2633 20.7186L61.0497 22.6051L60.9187 22.8979L58.0022 23.1581L56.3965 24.329L54.3647 27.3213C54.1354 27.0936 53.8077 26.7684 53.3489 26.4106C52.8901 26.0528 52.6935 26.0203 52.3003 25.7601C51.3172 25.1421 50.6945 24.2964 50.0392 23.3857C49.777 23.028 49.6132 22.8003 49.4165 22.4425C49.2199 22.1172 48.6956 21.1089 48.499 19.7103C48.4335 19.1899 48.3679 18.4744 48.4662 17.5962C49.5148 17.5637 50.5635 17.5311 51.6121 17.4986V17.4336L51.481 15.8073L53.4472 11.1561L52.628 6.66762L52.333 6.08216H51.2516L50.8912 6.47247L48.8267 6.53752L48.7611 5.39912H48.4335L47.8108 6.40742L47.4504 6.27731L46.4673 4.26073L46.1068 3.64275L46.3034 3.02476L48.1058 0.0649414L54.5614 3.28497L61.2791 15.6772L61.574 17.1734L60.4927 16.4253Z" fill="#E30613" stroke="#1D1D1B" stroke-width="0.3266" stroke-miterlimit="10"/>
<path d="M54.3648 27.3213L54.2337 27.5165L52.1692 28.9801H52.1364C51.9398 28.85 51.6777 28.6224 51.35 28.3296C50.4652 27.5816 49.6787 26.8985 48.9906 25.9228C48.6629 25.4674 48.925 25.7276 47.8436 23.7435C47.4176 22.9304 47.1555 22.5401 46.9261 21.8571C46.6967 21.2391 46.5656 20.6861 46.4673 20.3284C46.369 20.3284 46.2707 20.3284 46.1724 20.3284C45.6153 20.9789 45.0582 21.109 44.8288 21.1415C44.5011 21.2066 44.2062 21.1415 43.6164 21.0439C43.092 20.9463 42.666 20.8488 42.3711 20.7512C41.7813 20.7512 41.1914 20.7837 40.6343 20.7837C40.2411 20.8488 39.5202 20.9789 38.7992 21.5318C38.406 21.8245 38.1438 22.1498 37.98 22.41C37.7178 22.7353 37.3246 23.2231 36.8331 23.7761C36.1121 24.5242 35.5223 25.1421 34.6375 25.6625C34.1787 25.9228 33.3923 26.3131 32.3109 26.4757C32.3109 28.5898 32.3109 30.6715 32.3109 32.7856C31.4261 32.7856 30.5741 32.7856 29.6893 32.8182C29.6893 30.704 29.6893 28.5573 29.6893 26.4432C29.165 26.3781 28.1164 26.2155 27.0022 25.4999C25.888 24.7844 25.2982 23.9062 25.0032 23.4508C24.7739 23.0605 24.4462 22.6051 23.9874 22.1498C23.2337 21.3692 22.4144 20.9789 21.8574 20.7512C21.3003 20.6536 20.5138 20.6211 19.5963 20.7187C18.777 20.8162 18.0889 21.0114 17.5646 21.2066C17.3679 21.174 17.1713 21.174 17.0075 21.1415C16.5815 20.8162 16.1555 20.491 15.6967 20.1657C15.5656 20.8162 15.369 21.5643 15.0085 22.3775C14.8447 22.8003 14.4842 23.6134 13.6977 24.7518C12.4853 26.5733 11.0434 28.0044 9.96202 28.9801C9.07724 28.3296 8.22523 27.6791 7.34045 27.0286C7.86477 26.8335 8.65124 26.4757 9.47048 25.8902C9.86371 25.5975 11.4694 24.4266 12.6164 22.2474C12.9113 21.6619 13.3045 20.8162 13.5667 19.7104C13.5667 18.9623 13.5339 18.2142 13.5339 17.4336H13.665L16.5159 19.4502L21.628 19.3851L25.036 21.9221L26.1502 21.9872C26.609 22.5401 27.6903 23.6134 29.3616 24.0688C32.9335 25.012 35.8827 22.2148 36.0466 22.0522H36.5054L40.2411 19.5152H45.0582L47.6142 17.5637C47.647 17.5637 48.3352 17.5312 48.4007 17.5312H48.4335C48.3352 18.4094 48.4007 19.1249 48.4662 19.6453C48.6629 21.0765 49.22 22.0522 49.3838 22.3775C49.5804 22.7353 49.7443 22.9629 50.0064 23.3207C50.6618 24.2314 51.2517 25.0446 52.2675 25.6951C52.6608 25.9553 52.8574 25.9878 53.3161 26.3456C53.8077 26.7359 54.1354 27.0611 54.3648 27.3213Z" fill="#1D1D1B" stroke="#1D1D1B" stroke-width="0.3266" stroke-miterlimit="10"/>
<path d="M52.1364 28.9476L50.3669 29.5981L49.2855 29.8258C47.647 29.7932 45.9757 29.7932 44.3373 29.7607C43.6163 30.8341 43.1903 31.7773 42.9282 32.4929C42.6005 33.306 42.5022 33.7939 42.3056 34.6395C42.1089 35.5503 42.1089 35.843 42.2072 36.1357C42.4694 36.8187 43.1903 37.1765 43.4853 37.2741C43.1248 37.6644 42.7643 38.0222 42.4039 38.4125C41.7157 38.9004 41.2569 39.3883 40.9292 39.7786C39.7495 41.2422 39.4546 42.836 39.3563 43.454C39.3235 43.6491 39.3235 43.7792 39.2907 43.9093C38.7992 43.9744 38.0783 44.1695 37.4557 44.7224C37.2263 44.9176 36.8658 45.5681 36.1121 46.9342C35.7516 47.5847 35.4239 48.2027 35.3912 49.0483C35.3912 49.1459 35.3912 49.211 35.3912 49.276H32.2125C32.2125 43.7792 32.2453 38.3149 32.2453 32.8181C32.2453 30.704 32.2453 28.6223 32.2453 26.5082C33.3267 26.313 34.0804 25.9552 34.5719 25.695C35.4895 25.1746 36.0466 24.5566 36.7675 23.8085C37.2918 23.2556 37.6523 22.7677 37.9144 22.4425C38.0783 22.1823 38.3404 21.857 38.7337 21.5643C39.4546 21.0114 40.1755 20.8812 40.5688 20.8162C41.1586 20.8162 41.7485 20.7837 42.3056 20.7837C42.6005 20.8812 43.0265 20.9788 43.5508 21.0764C44.1406 21.174 44.4683 21.239 44.7633 21.174C44.9927 21.1415 45.5497 20.9788 46.1068 20.3608C46.2051 20.3608 46.3034 20.3608 46.4017 20.3608C46.4673 20.7186 46.5984 21.2716 46.8605 21.8895C47.1227 22.5726 47.3521 22.9629 47.7781 23.776C48.8595 25.7601 48.5973 25.4999 48.925 25.9552C49.6132 26.931 50.4324 27.614 51.2844 28.3621C51.6776 28.5898 51.9726 28.8175 52.1364 28.9476Z" fill="white" stroke="#1D1D1B" stroke-width="0.3266" stroke-miterlimit="10"/>
<path d="M29.6893 49.1785C28.6734 49.1785 27.6248 49.1785 26.6089 49.1785C26.4778 48.0726 26.1501 47.2269 25.9208 46.674C25.4948 45.7308 24.8721 44.3647 23.6269 44.0069C23.3975 43.9419 23.1026 43.9093 22.7421 43.9093C22.7421 43.8118 22.7093 43.6491 22.6766 43.454C22.5783 42.8035 22.2178 40.6243 20.6776 39.1931C20.1861 38.7378 20.055 38.7703 19.3013 38.0873C19.0064 37.7945 18.7442 37.5343 18.5148 37.3067C18.6787 37.2741 19.1047 37.144 19.4324 36.7537C19.6945 36.461 19.7928 36.1357 19.8256 35.9731C19.7928 35.0949 19.629 33.8915 19.1375 32.5254C18.7115 31.3545 18.1544 30.4113 17.6956 29.7607C16.0899 29.7607 14.4842 29.7933 12.9112 29.7933C11.9609 29.5656 11.0434 29.3054 10.0931 29.0777C10.0603 29.0452 10.0275 29.0452 9.99475 29.0127C11.1089 28.0369 12.518 26.5732 13.7305 24.7843C14.4842 23.6459 14.8446 22.8328 15.0413 22.41C15.369 21.5968 15.5983 20.8162 15.7294 20.1982C16.1554 20.5235 16.5814 20.8488 17.0402 21.174C17.2368 21.2065 17.4334 21.2065 17.5973 21.2391C18.1216 21.0439 18.777 20.8488 19.629 20.7512C20.5465 20.6536 21.333 20.6861 21.8901 20.7837C22.4472 21.0114 23.2337 21.4342 24.0201 22.1823C24.4789 22.6377 24.8066 23.093 25.036 23.4833C25.2981 23.9387 25.9208 24.8169 27.0349 25.5324C28.1163 26.2155 29.1649 26.4106 29.722 26.4757C29.722 28.5898 29.722 30.7365 29.722 32.8507C29.6893 38.2824 29.6893 43.7467 29.6893 49.1785Z" fill="white" stroke="#1D1D1B" stroke-width="0.3266" stroke-miterlimit="10"/>
<path d="M7.20935 21.5318C7.66812 21.2391 8.25798 20.7838 8.81506 20.0682C9.69984 18.9948 10.0275 17.889 10.1914 17.271" stroke="#1D1D1B" stroke-width="0.3266" stroke-miterlimit="10"/>
<path d="M3.76852 15.2871C3.53914 15.5473 3.11313 16.1002 2.94929 16.9134C2.78544 17.6289 2.88375 18.2144 2.94929 18.5397C3.17867 18.3445 3.4736 18.0193 3.76852 17.5964C4.09622 17.076 4.26007 16.5881 4.32561 16.2629" stroke="#1D1D1B" stroke-width="0.3266" stroke-miterlimit="10"/>
<path d="M1.63851 20.7188C1.34358 21.4343 1.04866 22.1173 0.786499 22.8329" stroke="#1D1D1B" stroke-width="0.3266" stroke-miterlimit="10"/>
<path d="M9.20826 34.542C8.94611 34.6721 7.43871 35.3877 6.94716 37.079C6.68501 37.9897 6.81609 38.7703 6.9144 39.1606C7.86471 38.998 9.24103 38.9004 10.8795 39.2257C11.7315 39.3883 12.4524 39.6485 13.0423 39.9087C13.2389 40.3315 13.4355 40.7218 13.6322 41.1447" stroke="#1D1D1B" stroke-width="0.3266" stroke-miterlimit="10"/>
<path d="M7.111 45.6984C7.07823 45.6658 7.04546 45.6658 7.0127 45.6333" stroke="#1D1D1B" stroke-width="0.3266" stroke-miterlimit="10"/>
<path d="M16.9419 33.2084C16.5159 32.9482 15.8605 32.623 15.0413 32.5254C14.8447 32.4929 14.6481 32.4929 14.4515 32.4929C13.5667 32.4929 12.7147 32.5254 11.8299 32.5254C11.7316 32.4603 11.4367 32.2327 11.3056 31.7773C11.1745 31.387 11.2728 31.0292 11.3383 30.9316" stroke="#1D1D1B" stroke-width="0.3266" stroke-miterlimit="10"/>
<path d="M32.2781 32.8182C34.8341 32.7856 37.3901 32.7856 39.9462 32.7531C41.1259 31.3545 42.3056 29.9559 43.4853 28.5898" stroke="#1D1D1B" stroke-width="0.3266" stroke-miterlimit="10"/>
<path d="M18.6132 28.5249C19.7601 29.9886 20.907 31.4197 22.054 32.8833C24.5772 32.8508 27.1332 32.8508 29.6565 32.8183" stroke="#1D1D1B" stroke-width="0.3266" stroke-miterlimit="10"/>
<path d="M44.7305 33.2733C45.6152 32.7203 46.3362 32.6227 46.8277 32.6227C47.3193 32.6227 47.647 32.7528 48.5645 32.7203C49.1871 32.7203 49.4821 32.7203 49.777 32.5902C50.4651 32.265 50.7273 31.4844 50.8584 31.0615" stroke="#1D1D1B" stroke-width="0.3266" stroke-miterlimit="10"/>
<path d="M52.8901 34.5747C53.1522 34.7048 54.2664 35.1927 54.889 36.4937C55.4461 37.6646 55.2167 38.7054 55.1512 39.0307C53.9059 39.0632 52.6607 39.0958 51.4154 39.1283C51.0877 39.1608 50.3668 39.2584 49.6131 39.7463C48.8922 40.2341 48.5317 40.8847 48.4006 41.1774" stroke="#1D1D1B" stroke-width="0.3266" stroke-miterlimit="10"/>
<path d="M39.5528 44.2345C39.5201 44.202 39.4873 44.202 39.4873 44.1694" stroke="#1D1D1B" stroke-width="0.3266" stroke-miterlimit="10"/>
<path d="M58.461 15.3521C58.6576 15.6123 59.0181 16.1327 59.1819 16.9133C59.3458 17.6288 59.2147 18.2468 59.1491 18.5396C58.8214 18.1492 58.4937 17.6614 58.1988 17.0759C58.0022 16.6856 57.8384 16.3278 57.7073 16.0026" stroke="#1D1D1B" stroke-width="0.3266" stroke-miterlimit="10"/>
<path d="M54.6597 21.5319C53.906 20.7188 53.0867 19.7105 52.333 18.5721C52.0709 18.1493 51.8087 17.759 51.5793 17.3687" stroke="#1D1D1B" stroke-width="0.3266" stroke-miterlimit="10"/>
<path d="M60.1322 40.1362C58.8542 40.9819 58.1005 41.8926 57.6417 42.5756C57.1174 43.3563 56.7241 44.267 55.6428 45.0151C55.4134 45.1777 55.184 45.2753 54.758 45.5029C54.0698 45.8607 53.054 46.2836 51.8087 46.7714" stroke="#1D1D1B" stroke-width="0.3266" stroke-miterlimit="10"/>
</g>
<defs>
<clipPath id="clip0_10_310">
<rect width="62" height="51" fill="white"/>
</clipPath>
</defs>
</svg>
