<svg width="108" height="108" viewBox="0 0 108 108" fill="none" xmlns="http://www.w3.org/2000/svg">
<path d="M92.0498 15.9501H92.043L103.356 18.2113C103.964 18.3328 104.463 18.7783 104.639 19.3791C104.727 19.6709 104.735 19.9813 104.661 20.2772C104.588 20.5732 104.435 20.8436 104.22 21.0598L94.9523 30.3343C93.8434 31.4411 92.3407 32.0626 90.774 32.0623H83.0925L63.7875 51.3741C64.1558 52.7647 64.2235 54.2179 63.9862 55.6368C63.7488 57.0556 63.2118 58.4077 62.411 59.6027C61.6101 60.7978 60.5638 61.8085 59.3417 62.5675C58.1197 63.3264 56.7499 63.8163 55.3236 64.0044C53.8974 64.1924 52.4474 64.0744 51.0704 63.6582C49.6933 63.2419 48.4208 62.537 47.3375 61.5904C46.2542 60.6438 45.3851 59.4772 44.7881 58.1683C44.191 56.8595 43.8798 55.4384 43.875 53.9998C43.876 52.4466 44.2341 50.9144 44.9217 49.5216C45.6092 48.1288 46.6078 46.9128 47.8402 45.9674C49.0726 45.0221 50.5059 44.3727 52.0293 44.0696C53.5526 43.7664 55.1253 43.8176 56.6257 44.2191L75.9375 24.9006V17.2258C75.9375 15.6598 76.5585 14.1546 77.6655 13.0476L86.94 3.77308C87.1562 3.55795 87.4266 3.40543 87.7226 3.33174C88.0185 3.25805 88.3289 3.26594 88.6207 3.35458C89.2215 3.53008 89.667 4.02958 89.7885 4.63708L92.0498 15.9501Z" fill="#999999"/>
<path d="M13.5002 53.9999C13.5071 59.7911 14.756 65.5135 17.1625 70.7811C19.569 76.0486 23.0773 80.7388 27.4506 84.5352C31.8239 88.3316 36.9605 91.146 42.5139 92.7884C48.0674 94.4309 53.9085 94.8632 59.6433 94.0563C65.378 93.2494 70.873 91.2219 75.7576 88.1108C80.6422 84.9996 84.8027 80.877 87.9585 76.0212C91.1144 71.1654 93.1921 65.6892 94.0516 59.9621C94.9111 54.235 94.5324 48.3902 92.9409 42.8219C92.7175 42.1713 92.6288 41.4821 92.6802 40.7962C92.7316 40.1103 92.9221 39.442 93.2401 38.832C93.558 38.2221 93.9968 37.6832 94.5296 37.2482C95.0625 36.8133 95.6783 36.4913 96.3395 36.3019C97.0008 36.1125 97.6937 36.0597 98.376 36.1466C99.0583 36.2335 99.7158 36.4584 100.308 36.8076C100.901 37.1567 101.416 37.6229 101.823 38.1776C102.23 38.7323 102.52 39.3639 102.674 40.0341C105.756 50.8174 105.171 62.3186 101.01 72.7334C96.8498 83.1481 89.3498 91.8871 79.6867 97.5793C70.0237 103.271 58.7444 105.595 47.6184 104.185C36.4924 102.775 26.1493 97.7111 18.2117 89.7884C10.2827 81.8528 5.21371 71.5086 3.80045 60.3801C2.3872 49.2515 4.70974 37.9687 10.4034 28.3031C16.0971 18.6375 24.8395 11.1364 35.2581 6.97762C45.6767 2.8188 57.1814 2.23772 67.9659 5.32562C69.2501 5.701 70.3334 6.56943 70.9792 7.74112C71.625 8.91282 71.7807 10.2925 71.4123 11.5787C71.044 12.8648 70.1814 13.9529 69.0133 14.605C67.8451 15.2572 66.4663 15.4205 65.1782 15.0591C59.1476 13.3289 52.7975 13.0231 46.6286 14.1659C40.4597 15.3087 34.6405 17.8688 29.6299 21.6444C24.6193 25.42 20.5542 30.308 17.7551 35.9228C14.956 41.5377 13.4994 47.726 13.5002 53.9999Z" fill="#999999"/>
<path d="M33.7498 54.0002C33.7502 57.6897 34.7579 61.309 36.6642 64.4679C38.5705 67.6267 41.3031 70.2052 44.5672 71.9251C47.8312 73.645 51.5029 74.4411 55.1862 74.2275C58.8695 74.014 62.4246 72.7988 65.4681 70.7132C68.5109 68.6223 70.9243 65.7393 72.4471 62.376C73.9699 59.0127 74.5443 55.2971 74.1081 51.631C73.9901 50.7413 74.1113 49.8363 74.4594 49.0091C74.8074 48.1819 75.3697 47.4624 76.0882 46.9247C76.8067 46.3871 77.6555 46.0506 78.5473 45.95C79.4391 45.8494 80.3416 45.9883 81.1618 46.3525C81.9819 46.7118 82.692 47.2823 83.2196 48.0056C83.7473 48.729 84.0737 49.5793 84.1656 50.47C84.899 56.7346 83.664 63.0723 80.632 68.6032C77.6 74.1341 72.9215 78.584 67.2456 81.3352C61.5698 84.0864 55.1783 85.0024 48.9582 83.9562C42.7381 82.91 36.998 79.9533 32.5346 75.4967C28.0711 71.04 25.1058 65.3044 24.0501 59.0859C22.9944 52.8674 23.9007 46.4745 26.6433 40.7945C29.3859 35.1145 33.8287 30.4292 39.355 27.3888C44.8813 24.3484 51.217 23.1038 57.4828 23.8277C58.1537 23.89 58.8055 24.0855 59.3998 24.4029C59.9942 24.7203 60.5192 25.1532 60.9441 25.6761C61.369 26.199 61.6852 26.8015 61.8743 27.4483C62.0633 28.095 62.1213 28.773 62.045 29.4424C61.9686 30.1119 61.7593 30.7594 61.4295 31.3469C61.0996 31.9344 60.6558 32.4502 60.124 32.864C59.5922 33.2778 58.9832 33.5812 58.3326 33.7566C57.682 33.932 57.003 33.9757 56.3353 33.8852C53.498 33.5558 50.6231 33.8303 47.8994 34.6908C45.1757 35.5513 42.6649 36.9783 40.5319 38.878C38.3988 40.7777 36.6918 43.1072 35.5229 45.7135C34.3541 48.3198 33.7498 51.1438 33.7498 54.0002Z" fill="#999999"/>
</svg>
