<svg width="51" height="36" viewBox="0 0 51 36" fill="none" xmlns="http://www.w3.org/2000/svg">
<path d="M7.25537 29.1882C7.25537 26.3096 10.9904 22.5395 12.9029 20.6269C13.7659 19.7639 15.0332 18.6815 15.6908 17.6952C17.4007 15.1303 20.7496 12.8511 23.4427 11.3822C24.4568 10.829 25.8585 9.6516 27.0219 9.4577C29.0651 9.11717 31.0901 9.32742 33.1551 9.09798C35.0258 8.89013 36.7644 8.14473 38.6588 8.14473C39.7398 8.14473 41.5347 8.01221 42.3818 7.35335C43.043 6.83914 46.0403 7.42778 44.2344 7.49723C42.7602 7.55393 41.4947 8.14473 39.9537 8.14473C38.3447 8.14473 37.3696 9.09668 35.9069 9.42173C34.6115 9.70959 32.9875 10.7347 31.6982 10.7347C30.6082 10.7347 28.9371 11.3503 27.9751 11.7779C27.2911 12.0819 26.5997 11.9356 25.9607 12.3534C25.1731 12.8684 24.7449 13.3247 23.7664 13.3247C22.7865 13.3247 21.4953 14.7375 20.529 15.1952C19.3143 15.7706 17.8789 16.798 16.644 17.2096" stroke="#F3F2EF" stroke-width="13" stroke-linecap="round" stroke-dasharray="26 52 78 104"/>
</svg>
