<svg width="1571" height="803" viewBox="0 0 1571 803" fill="none" xmlns="http://www.w3.org/2000/svg">
<path d="M372.455 8.46993L398.955 8.46993L356.455 139.092L329.942 139.092L372.455 8.46993Z" fill="#D9D9D9"/>
<path d="M325.455 8.46993L351.955 8.46993L309.455 139.092L282.942 139.092L325.455 8.46993Z" fill="#D9D9D9"/>
<path d="M278.455 8.46993L304.955 8.46993L262.455 139.092L235.942 139.092L278.455 8.46993Z" fill="#D9D9D9"/>
<path d="M231.455 8.46993L257.955 8.46993L215.455 139.092L188.942 139.092L231.455 8.46993Z" fill="#D9D9D9"/>
<path d="M184.455 8.46993L210.955 8.46993L168.455 139.092L141.942 139.092L184.455 8.46993Z" fill="#D9D9D9"/>
<path d="M137.455 8.46993L163.955 8.46993L121.455 139.092L94.942 139.092L137.455 8.46993Z" fill="#D9D9D9"/>
<path d="M90.4554 8.46993L116.955 8.46993L74.4554 139.092L47.942 139.092L90.4554 8.46993Z" fill="#D9D9D9"/>
<path d="M42.5134 8.46993L69.0134 8.46993L26.5134 139.092L2.41007e-05 139.092L42.5134 8.46993Z" fill="#D9D9D9"/>
<path d="M1544.46 663.47L1570.96 663.47L1528.46 794.092L1501.94 794.092L1544.46 663.47Z" fill="#D9D9D9"/>
<path d="M1497.46 663.47L1523.96 663.47L1481.46 794.092L1454.94 794.092L1497.46 663.47Z" fill="#D9D9D9"/>
<path d="M1450.46 663.47L1476.96 663.47L1434.46 794.092L1407.94 794.092L1450.46 663.47Z" fill="#D9D9D9"/>
<path d="M1403.46 663.47L1429.96 663.47L1387.46 794.092L1360.94 794.092L1403.46 663.47Z" fill="#D9D9D9"/>
<path d="M1356.46 663.47L1382.96 663.47L1340.46 794.092L1313.94 794.092L1356.46 663.47Z" fill="#D9D9D9"/>
<path d="M1309.46 663.47L1335.96 663.47L1293.46 794.092L1266.94 794.092L1309.46 663.47Z" fill="#D9D9D9"/>
<path d="M1262.46 663.47L1288.96 663.47L1246.46 794.092L1219.94 794.092L1262.46 663.47Z" fill="#D9D9D9"/>
<path d="M1214.51 663.47L1241.01 663.47L1198.51 794.092L1172 794.092L1214.51 663.47Z" fill="#D9D9D9"/>
<path d="M1165.46 663.47L1191.96 663.47L1149.46 794.092L1122.94 794.092L1165.46 663.47Z" fill="#D9D9D9"/>
<path d="M1118.46 663.47L1144.96 663.47L1102.46 794.092L1075.94 794.092L1118.46 663.47Z" fill="#D9D9D9"/>
<path d="M1071.46 663.47L1097.96 663.47L1055.46 794.092L1028.94 794.092L1071.46 663.47Z" fill="#D9D9D9"/>
<path d="M1024.46 663.47L1050.96 663.47L1008.46 794.092L981.942 794.092L1024.46 663.47Z" fill="#D9D9D9"/>
<path d="M977.455 663.47L1003.96 663.47L961.455 794.092L934.942 794.092L977.455 663.47Z" fill="#D9D9D9"/>
<path d="M930.455 663.47L956.955 663.47L914.455 794.092L887.942 794.092L930.455 663.47Z" fill="#D9D9D9"/>
<path d="M883.455 663.47L909.955 663.47L867.455 794.092L840.942 794.092L883.455 663.47Z" fill="#D9D9D9"/>
<path d="M835.513 663.47L862.013 663.47L819.513 794.092L793 794.092L835.513 663.47Z" fill="#D9D9D9"/>
</svg>
