<svg width="108" height="108" viewBox="0 0 108 108" fill="none" xmlns="http://www.w3.org/2000/svg">
<path d="M54 99C48.45 99 43.218 97.932 38.304 95.796C33.393 93.657 29.1 90.75 25.425 87.075C21.75 83.4 18.843 79.107 16.704 74.196C14.568 69.282 13.5 64.05 13.5 58.5H22.5C22.5 67.2 25.575 74.625 31.725 80.775C37.875 86.925 45.3 90 54 90C62.7 90 70.125 86.925 76.275 80.775C82.425 74.625 85.5 67.2 85.5 58.5H94.5C94.5 64.05 93.432 69.282 91.296 74.196C89.157 79.107 86.25 83.4 82.575 87.075C78.9 90.75 74.607 93.657 69.696 95.796C64.782 97.932 59.55 99 54 99ZM13.5 58.5C13.5 52.95 14.568 47.718 16.704 42.804C18.843 37.893 21.75 33.6 25.425 29.925C29.1 26.25 33.393 23.3445 38.304 21.2085C43.218 19.0695 48.45 18 54 18C58.65 18 63.1125 18.75 67.3875 20.25C71.6625 21.75 75.675 23.925 79.425 26.775L85.725 20.475L92.025 26.775L85.725 33.075C88.575 36.825 90.75 40.8375 92.25 45.1125C93.75 49.3875 94.5 53.85 94.5 58.5H85.5C85.5 49.8 82.425 42.375 76.275 36.225C70.125 30.075 62.7 27 54 27C45.3 27 37.875 30.075 31.725 36.225C25.575 42.375 22.5 49.8 22.5 58.5H13.5ZM40.5 13.5V4.5H67.5V13.5H40.5ZM54 27C46.05 27 39.15 29.5875 33.3 34.7625C27.45 39.9375 23.9625 46.35 22.8375 54H38.8125L44.6625 64.8L63 32.625L74.7 54H85.1625C84.0375 46.35 80.55 39.9375 74.7 34.7625C68.85 29.5875 61.95 27 54 27ZM54 90C61.95 90 68.85 87.4125 74.7 82.2375C80.55 77.0625 84.0375 70.65 85.1625 63H69.1875L63.3375 52.2L45 84.375L33.3 63H22.8375C23.9625 70.65 27.45 77.0625 33.3 82.2375C39.15 87.4125 46.05 90 54 90ZM54 90C45.3 90 37.875 86.925 31.725 80.775C25.575 74.625 22.5 67.2 22.5 58.5C22.5 49.8 25.575 42.375 31.725 36.225C37.875 30.075 45.3 27 54 27C62.7 27 70.125 30.075 76.275 36.225C82.425 42.375 85.5 49.8 85.5 58.5C85.5 67.2 82.425 74.625 76.275 80.775C70.125 86.925 62.7 90 54 90Z" fill="#999999"/>
</svg>
