<svg width="194" height="281" viewBox="0 0 194 281" fill="none" xmlns="http://www.w3.org/2000/svg">
<path d="M0 212.521C0 227.244 6.12961 248.565 33.2021 264.81C56.6989 279.025 108.801 291.208 156.816 266.333C187.464 249.073 191.55 226.736 192.061 216.075L0 212.521Z" fill="#0D0F17"/>
<path d="M0.510803 94.7451L0 212.521C0 226.736 9.19442 240.443 27.0725 251.103C64.361 272.933 125.146 273.948 163.456 252.626C182.867 241.966 192.572 227.244 192.572 213.029L193.083 94.7451H0.510803Z" fill="url(#paint0_linear_154_985)"/>
<path d="M159.881 43.4717C138.427 30.2726 97.563 20.1194 52.6125 34.3338C40.8641 37.8874 1.5324 53.6248 0 94.2373C0 108.452 9.19442 122.158 27.0725 132.819C64.361 154.648 125.146 155.664 163.456 134.342C182.867 123.681 192.572 108.959 192.572 94.745C192.572 73.9311 181.845 56.6707 159.881 43.4717Z" fill="url(#paint1_radial_154_985)"/>
<path d="M34.7339 47.0249V72.4077C34.7339 81.5456 40.3527 90.1757 52.1011 97.2829C76.1088 111.497 115.441 112.005 139.959 98.2982C152.218 91.191 158.859 82.0532 158.859 72.9154V47.5326L34.7339 47.0249Z" fill="url(#paint2_linear_154_985)"/>
<path d="M159.138 46.9974C159.194 27.3714 131.339 11.3826 96.9215 11.2853C62.5043 11.1881 34.5582 27.0192 34.5021 46.6452C34.4459 66.2712 62.301 82.26 96.7181 82.3572C131.135 82.4545 159.081 66.6233 159.138 46.9974Z" fill="#2E2E2E"/>
<path d="M30.6475 38.395V53.6247C30.6475 63.2702 36.7771 72.9157 49.5471 80.5305C75.0872 95.7602 116.973 96.2679 143.024 81.5458C156.305 73.931 162.945 64.2855 162.945 54.1324V38.9027L30.6475 38.395Z" fill="url(#paint3_linear_154_985)"/>
<path d="M163.158 38.4478C163.218 17.4199 133.536 0.28988 96.8622 0.186719C60.1882 0.0835571 30.4095 17.0464 30.3496 38.0742C30.2898 59.102 59.9714 76.2321 96.6454 76.3352C133.319 76.4384 163.098 59.4756 163.158 38.4478Z" fill="#FFB948"/>
<path d="M147.621 135.357C115.952 150.079 78.1524 136.372 137.916 107.944C181.845 87.1297 185.421 118.097 147.621 135.357Z" fill="url(#paint4_linear_154_985)"/>
<path d="M192.572 105.405C192.572 119.62 182.867 134.342 163.456 145.002C125.146 166.324 64.361 165.816 27.0725 143.48C10.216 133.834 1.5324 121.143 0 108.451V203.383C0 217.597 9.19442 231.304 27.0725 241.965C64.361 263.794 125.146 264.809 163.456 243.488C182.867 232.827 192.572 218.105 192.572 203.891V105.405Z" fill="url(#paint5_linear_154_985)"/>
<path opacity="0.5" d="M61.2962 179.523C66.4042 181.046 68.4474 181.554 73.5554 182.569C76.1094 188.661 77.131 191.707 79.685 197.799C77.131 202.875 76.1094 205.921 73.5554 210.998C68.4474 209.983 65.8934 209.475 61.2962 207.952C58.7422 201.86 57.7205 198.306 55.1665 192.215C57.7205 187.138 58.7422 184.6 61.2962 179.523ZM62.8286 156.679C61.807 159.217 60.7853 160.74 59.2529 163.786C61.2962 168.355 61.807 170.893 63.8502 175.462C67.4258 176.477 69.469 176.985 73.0446 177.492C75.0878 173.431 75.5986 171.908 77.6418 167.847C76.1094 164.293 75.0878 161.755 73.5554 158.202C69.9798 158.202 66.4042 157.694 62.8286 156.679ZM56.6989 161.247C57.7205 159.217 58.2313 157.694 59.2529 156.171C55.1665 155.156 51.0801 154.14 46.9937 152.617C47.5045 154.648 48.5261 156.171 49.5477 159.217C52.6125 160.232 54.1449 160.74 56.6989 161.247ZM34.2237 226.735C31.1589 225.212 30.1373 224.705 27.0725 222.674C25.5401 225.212 25.0293 226.228 23.4969 228.766C25.0293 232.827 25.5401 234.858 27.0725 239.427C29.6265 240.95 31.1589 241.965 34.2237 243.488C35.7561 240.95 36.2669 239.427 37.7993 236.888C36.2669 232.827 35.7561 230.796 34.2237 226.735ZM0.510803 115.558V134.849C2.04321 135.865 3.06481 137.388 5.10801 138.911C6.64042 136.372 7.15121 134.849 9.19442 132.311C8.17282 129.265 7.66202 127.234 6.64041 124.696C5.10801 122.666 4.08641 120.127 3.06481 118.097C2.04321 117.081 1.0216 116.574 0.510803 115.558ZM27.5833 160.74C32.1805 163.278 34.7345 164.801 39.3317 166.832C41.8857 162.263 42.9073 160.232 45.4613 155.663C44.9505 154.14 44.4397 153.125 43.9289 151.602C37.7993 149.571 32.1805 146.525 27.0725 143.479C25.5401 142.464 24.0077 141.449 22.9861 140.941C22.4753 141.449 21.9645 142.464 21.9645 142.972C24.0077 150.079 25.0293 153.633 27.5833 160.74ZM166.01 201.352C164.478 205.921 163.456 208.46 161.924 213.028C163.456 216.074 164.478 217.597 166.01 220.643C169.075 219.12 170.608 218.105 174.183 216.074C175.716 211.505 176.737 208.967 178.27 203.891C176.737 200.845 175.716 199.829 174.183 196.783C170.608 198.814 169.075 199.829 166.01 201.352ZM159.881 212.013C162.435 205.414 163.456 201.86 166.01 194.753C163.456 190.184 162.435 188.153 159.881 183.584C155.284 185.615 152.73 186.63 147.622 188.661C145.068 195.26 144.046 198.306 141.492 204.906C144.046 209.983 145.068 212.013 147.622 217.09C152.73 215.059 155.284 214.044 159.881 212.013ZM108.801 173.431C110.333 169.878 110.844 168.355 112.376 164.801C111.355 162.77 110.844 161.247 109.822 159.725C106.247 160.232 103.182 160.232 99.6063 160.232C99.0955 161.755 98.0739 163.278 97.0522 165.309C98.5847 168.862 99.0955 170.385 100.628 173.431C104.203 173.939 105.736 173.939 108.801 173.431ZM0 152.11V154.648C1.5324 159.217 2.04321 161.755 3.57561 166.832C2.04321 169.37 1.0216 170.893 0 172.924V175.462C2.04321 172.416 2.554 170.893 4.59721 167.339C3.06481 161.247 2.04321 158.202 0 152.11ZM128.211 161.247C129.744 164.801 130.765 166.324 132.298 169.878C135.873 168.862 137.406 168.355 140.47 167.339C142.003 162.77 143.024 160.74 144.557 156.171C144.046 155.156 143.535 154.14 143.024 153.125C138.938 154.648 134.341 155.663 129.744 156.679C129.233 158.202 128.722 159.725 128.211 161.247ZM131.787 225.212C133.319 228.258 133.83 229.781 135.362 232.827C138.427 231.812 139.96 231.812 142.514 230.796C144.046 226.735 144.557 225.212 146.089 221.151C144.557 218.105 144.046 217.09 142.514 214.044C139.449 215.059 137.916 215.567 135.362 216.074C134.341 219.628 133.319 221.659 131.787 225.212ZM115.441 185.107C119.017 184.6 121.06 184.6 124.636 183.584C126.679 179.015 127.19 176.985 129.233 172.416C127.19 168.862 126.679 166.832 124.636 162.77C121.06 163.278 119.017 163.786 115.441 164.293C113.398 168.862 112.887 170.893 110.844 175.462C112.887 179.015 113.909 181.046 115.441 185.107ZM92.9658 206.937C95.5198 200.845 97.0522 198.306 99.6063 192.215C104.714 192.215 107.779 192.215 112.887 191.707C115.441 197.291 116.974 200.337 119.528 205.921C116.974 212.521 115.441 215.567 112.887 221.659C107.779 222.166 104.714 222.166 99.6063 222.166C96.5414 216.074 95.5198 213.028 92.9658 206.937ZM93.9874 206.937C96.5415 212.521 97.563 215.059 100.117 220.643C105.225 220.643 107.268 220.643 112.376 220.136C114.93 214.551 115.952 211.505 118.506 205.921C115.952 200.845 114.93 198.306 112.376 192.722C107.268 193.23 104.714 193.23 100.117 193.23C97.563 198.814 96.0307 201.352 93.9874 206.937ZM36.7777 203.891C33.7129 202.368 31.6697 201.352 28.6049 199.829C27.0725 202.875 26.0509 204.398 24.5185 206.937C26.0509 211.505 27.0725 214.044 28.6049 219.12C31.6697 221.151 33.2021 221.659 36.7777 223.182C38.3101 220.136 39.3317 218.613 40.8641 215.567C39.3317 210.998 38.8209 208.46 36.7777 203.891ZM88.3686 224.705C89.901 221.151 90.9226 219.12 92.455 215.567C90.9226 211.505 89.901 209.475 88.3686 205.921C84.793 205.414 83.2606 205.414 79.685 204.906C78.1526 208.46 77.131 210.49 75.5986 214.044C77.131 218.105 78.1526 220.136 79.685 224.197C83.2606 224.197 84.793 224.705 88.3686 224.705ZM42.3965 233.335C39.3317 238.919 37.7993 241.965 35.2453 246.534C35.7561 246.534 35.7561 247.041 36.2669 247.041C38.3101 242.98 39.8425 239.934 42.3965 234.858C49.0369 237.396 52.1017 238.919 58.7422 240.95C61.2962 247.041 62.8286 251.103 64.361 255.672C64.8718 255.672 64.8718 255.672 65.3826 255.672C63.3394 250.087 61.807 246.026 59.2529 239.427C52.6125 237.396 49.0369 236.381 42.3965 233.335ZM80.7066 167.339C84.2822 167.847 85.8146 167.847 89.3902 168.355C90.9226 165.309 91.4334 163.278 92.9658 160.74C87.8578 160.74 82.7498 160.232 77.6418 159.725C78.1526 161.755 79.1742 163.786 80.7066 167.339ZM149.665 219.628C147.622 224.705 147.111 226.735 145.068 231.812C147.111 235.365 147.622 236.888 149.665 240.442C153.24 238.919 155.284 238.411 158.859 236.888C160.392 231.812 161.413 229.273 163.456 224.197C161.924 221.151 160.902 219.12 158.859 216.074C155.284 217.09 153.24 218.105 149.665 219.628ZM89.901 258.21C94.4982 258.718 96.5414 258.718 101.139 258.718V259.225C101.649 259.225 101.649 259.225 102.16 259.225C101.649 258.718 101.649 258.21 101.139 257.702C96.0306 257.702 93.9874 257.702 88.8794 257.195C88.3686 257.702 88.3686 258.718 87.8578 259.225C88.3686 259.225 88.8794 259.225 88.8794 259.225C89.3902 258.21 89.3902 258.21 89.901 258.21ZM127.19 225.212C120.038 226.735 116.463 227.243 109.822 227.751C106.247 235.873 104.714 239.934 101.139 248.057C103.182 252.118 104.203 255.164 105.736 258.718C106.247 258.718 106.247 258.718 106.757 258.718C105.225 255.672 104.203 252.626 102.16 248.564C105.225 240.95 107.268 237.396 110.333 229.273C116.973 228.766 120.038 228.258 126.679 226.735C129.744 233.335 131.787 236.888 134.852 243.488C132.808 248.564 131.787 251.61 130.254 255.164C130.765 255.164 130.765 255.164 131.276 255.164C132.808 251.61 134.341 248.057 135.873 242.98C132.298 236.381 130.765 232.827 127.19 225.212ZM26.0509 218.613C24.5185 213.536 23.4969 210.998 21.9645 205.414C18.3888 203.383 16.8564 201.86 13.2808 199.829C11.7484 202.875 10.7268 204.398 9.19442 206.937C10.7268 212.521 11.7484 215.059 13.2808 220.643C16.8564 223.182 18.3888 224.197 21.9645 226.228C23.4969 223.182 24.0077 221.659 26.0509 218.613ZM72.023 234.35C74.0662 230.289 74.577 228.766 76.6202 224.705C74.577 220.136 74.0662 218.105 72.023 213.536C68.4474 213.028 66.4042 212.521 62.8286 211.505C60.7854 215.059 60.2746 217.09 58.2314 220.643C60.2746 225.212 60.7854 227.751 62.8286 232.319C66.915 233.335 68.4474 233.842 72.023 234.35ZM22.9861 203.383C25.5401 199.322 26.5617 197.291 28.6049 192.722C26.0509 185.615 25.0293 182.061 22.9861 174.954C18.3888 171.908 15.8348 170.385 11.2376 167.339C9.19443 171.401 7.66202 173.431 5.61882 176.985C7.66202 184.6 9.19443 188.153 11.2376 195.26C15.8348 198.814 18.3888 200.337 22.9861 203.383ZM22.9861 169.37C24.5185 166.832 25.0293 165.816 26.5617 163.278C25.0293 159.217 24.5185 157.186 22.9861 152.617C20.4321 151.094 18.8997 150.079 16.3456 148.048C14.8132 150.587 14.3024 151.602 12.77 154.14C14.3024 158.709 14.8132 160.74 16.3456 164.801C18.3889 166.832 19.9213 167.847 22.9861 169.37ZM6.64041 203.891C8.17282 201.352 8.68362 200.337 10.216 198.306C8.68362 193.738 8.17282 191.707 6.64041 187.138C4.08641 185.107 2.55401 184.092 0 181.554V197.799V198.306C2.55401 200.845 4.08641 201.86 6.64041 203.891ZM56.1881 218.105C57.7205 215.059 58.2314 214.044 59.7638 210.998C58.2314 207.444 57.7205 205.414 56.1881 201.352C53.1233 200.337 51.5909 199.829 49.0369 198.814C47.5045 201.352 46.9937 202.875 45.4613 205.921C46.9937 209.983 47.5045 212.013 49.0369 215.567C52.1017 216.582 53.6341 217.09 56.1881 218.105ZM38.3101 169.37C34.7345 167.847 33.2021 166.832 29.6265 164.801C28.0941 167.847 27.0725 169.37 25.0293 172.924C26.5617 178 27.5833 180.538 29.6265 186.123C33.2021 188.153 34.7345 189.169 38.3101 190.692C39.8425 187.138 40.8641 185.615 42.9073 182.061C40.8641 176.985 39.8425 174.447 38.3101 169.37ZM53.6341 184.6C55.1665 181.554 56.1881 179.523 57.7205 176.477C56.1881 171.908 55.1665 169.878 53.6341 165.309C50.0585 164.293 48.5261 163.278 45.4613 162.263C43.9289 165.309 42.9073 166.832 41.3749 169.878C42.9073 174.447 43.9289 176.985 45.4613 181.046C49.0369 183.077 50.5693 183.584 53.6341 184.6Z" fill="#D69630"/>
<path d="M167.032 176.477C160.903 169.37 159.37 166.832 155.284 162.263C157.838 160.74 159.881 159.725 161.924 158.202C164.478 160.74 167.032 163.786 169.586 166.324C172.651 159.725 175.205 152.618 177.759 146.526C179.802 145.003 181.846 142.972 184.4 140.941C180.824 151.095 176.738 161.755 172.14 172.416C172.14 173.431 171.63 184.6 171.63 185.615C169.586 187.138 167.543 188.153 165.5 189.676C167.032 189.169 167.032 178 167.032 176.477ZM82.2393 236.381C82.2393 237.904 81.2177 237.904 79.6853 237.904C80.7069 239.427 81.2177 239.934 82.2393 241.457C81.7285 241.457 81.7285 241.457 81.2177 241.457C80.1961 239.934 79.6853 239.427 78.6637 237.904C78.1529 237.904 76.1097 237.904 75.5989 237.904C75.5989 239.427 75.5989 239.934 75.5989 241.457C75.0881 241.457 75.0881 241.457 74.5773 241.457C74.5773 238.412 74.5773 234.858 74.5773 231.812C82.7501 231.812 82.2393 230.797 82.2393 236.381ZM75.5989 232.827C75.5989 232.827 75.0881 232.827 75.0881 233.335C75.0881 234.35 75.0881 234.858 75.0881 236.381C75.0881 236.889 75.0881 236.889 75.5989 236.889C77.1313 236.889 79.1745 236.889 80.7069 236.889C80.7069 236.889 81.2177 236.889 81.2177 236.381C81.2177 231.812 82.2393 232.827 75.5989 232.827ZM100.628 203.891C106.247 202.876 111.355 201.86 116.974 199.83C116.974 201.353 116.463 213.029 116.463 213.536C118.506 213.029 120.549 212.521 122.082 211.506C122.082 209.983 123.103 177.493 123.103 175.97C121.06 176.477 119.017 177.493 116.974 178C116.974 186.123 116.974 183.585 116.463 191.707C110.844 193.23 105.736 194.753 100.117 195.768C100.117 186.631 100.117 191.199 100.117 182.062C98.0741 182.569 96.031 182.569 93.9878 183.077C93.9878 183.585 93.9877 217.09 93.4769 218.105C95.5201 218.105 97.5634 217.598 99.6066 217.09C100.628 216.582 100.628 205.414 100.628 203.891ZM73.5557 233.335C73.5557 237.904 74.0665 237.904 69.4693 237.396C68.9585 237.396 66.9153 237.396 66.4045 236.889C66.4045 238.411 66.4045 238.919 66.4045 240.442C65.8937 240.442 65.8937 240.442 65.3829 240.442C65.3829 237.396 65.3829 233.843 65.3829 230.797C70.4909 231.812 73.5557 230.797 73.5557 233.335ZM72.5341 233.335C72.5341 232.827 72.5341 232.827 72.0233 232.827C70.4909 232.827 68.4477 232.827 66.9153 232.32C66.9153 232.32 66.4045 232.32 66.4045 232.827C66.4045 233.843 66.4045 234.35 66.4045 235.873C66.4045 236.381 66.4045 236.381 66.9153 236.381C74.0665 236.889 72.5341 237.396 72.5341 233.335ZM62.8289 219.628C62.8289 218.613 67.4261 203.891 69.4693 197.799C71.5125 205.414 74.0665 212.521 76.1097 220.136C77.6421 220.136 79.1745 220.136 80.7069 220.136C84.2825 208.46 87.3473 196.276 90.9229 184.6C88.8797 185.108 86.8365 185.108 84.2825 185.108C81.7285 193.23 81.2177 196.276 78.1529 205.921C76.1097 199.322 74.0665 192.215 72.0233 185.615C69.9801 185.615 68.4477 185.615 66.4045 185.615C64.3613 192.722 63.3397 196.784 60.2749 205.414C58.2316 198.307 55.6776 190.692 54.1452 184.6C52.102 184.6 50.0588 184.092 48.0156 184.092C51.0804 195.768 54.6561 207.444 58.2317 219.121C59.7641 219.121 61.2965 219.121 62.8289 219.628ZM152.219 191.707C146.089 195.261 139.449 198.307 132.809 200.845C132.809 199.322 132.809 195.768 132.809 194.753C137.917 192.722 143.025 190.184 148.133 187.646C148.133 187.138 148.643 180.539 148.643 180.031C143.535 182.569 138.427 185.108 133.319 187.138C133.319 186.123 133.319 181.554 133.319 181.046C139.449 178.508 146.089 175.462 152.73 171.908C152.73 170.385 152.73 165.817 153.241 164.294C145.068 168.863 136.384 172.924 127.701 175.97C127.701 177.493 126.679 209.983 126.679 211.506C134.852 208.46 143.535 204.398 151.708 199.83C152.219 197.799 152.219 192.722 152.219 191.707ZM84.7933 241.457C83.2609 241.457 83.2609 238.919 83.2609 236.381C83.2609 230.797 83.2609 231.304 87.3473 231.304C88.8797 231.304 91.4337 230.289 91.4337 232.827C90.9229 242.473 91.9445 240.95 84.7933 241.457ZM90.4121 232.827C88.3689 232.32 86.3257 232.827 84.7933 232.827L84.2825 233.335C84.2825 237.396 84.2825 237.904 84.2825 239.934C84.2825 240.442 84.2825 240.442 84.7933 240.442C86.3257 240.442 88.3689 240.442 89.9013 239.934L90.4121 239.427C90.4121 235.366 90.4121 234.858 90.4121 232.827ZM148.133 223.182C147.622 223.182 147.622 223.689 147.111 223.689C147.111 222.166 147.111 221.659 147.111 220.136C145.068 221.151 143.025 222.166 140.981 223.182C140.981 224.705 140.981 225.212 140.981 226.735C140.471 226.735 140.471 226.735 139.96 227.243C140.471 216.075 139.449 217.598 144.046 215.567C149.154 213.029 148.643 212.521 148.133 223.182ZM142.003 217.598L141.492 218.105C141.492 219.628 141.492 220.136 141.492 221.659C143.535 220.644 145.579 219.628 147.622 218.613C147.622 213.536 148.643 214.552 142.003 217.598ZM155.795 208.967C154.773 210.998 153.752 213.029 152.73 215.059C151.708 215.567 151.198 216.075 150.176 216.582C150.176 214.552 150.176 214.044 150.176 212.013C149.665 212.013 149.665 212.521 149.154 212.521C149.154 213.536 148.643 221.659 148.643 222.674C149.154 222.674 149.154 222.166 149.665 222.166C149.665 220.644 149.665 219.628 149.665 217.598C150.687 217.09 151.197 216.582 152.219 216.075C153.241 217.09 153.751 217.598 154.773 218.613C155.284 218.105 155.284 218.105 155.795 218.105C154.773 217.09 153.752 216.075 152.73 215.059C153.752 212.521 155.284 209.983 156.305 207.952C156.816 208.46 156.306 208.967 155.795 208.967ZM175.716 191.707C172.14 212.013 172.14 215.567 169.076 217.598C109.312 258.21 56.1884 248.057 52.6128 246.534C51.5912 246.026 51.0804 243.996 51.0804 242.473C57.2101 215.059 48.0156 228.258 92.9661 223.182C120.549 220.136 147.622 208.46 173.673 189.676C175.205 188.661 176.227 189.676 175.716 191.707ZM174.184 191.199C174.184 191.199 137.917 220.136 92.9661 225.212C51.5912 229.781 57.21 220.644 55.1668 230.797C51.5912 247.549 50.5696 245.011 58.7425 246.534C98.585 252.118 132.809 241.457 169.586 216.582C170.097 216.075 170.608 215.567 170.608 214.552C172.14 207.444 173.673 200.337 174.694 192.722C175.205 191.199 174.694 190.692 174.184 191.199ZM138.427 222.674C136.384 223.689 134.341 224.197 132.298 225.212C132.298 223.182 132.298 222.674 132.298 220.644C131.787 220.644 131.787 220.644 131.276 221.151C131.276 225.212 131.276 227.243 130.765 231.304C131.276 231.304 131.276 231.304 131.787 230.797C131.787 229.274 131.787 228.258 131.787 226.228C133.83 225.212 135.873 224.705 137.917 223.689C137.917 225.72 137.917 226.228 137.917 228.258C138.427 228.258 138.427 228.258 138.938 227.751C138.938 226.735 139.449 218.613 139.449 217.598C138.938 217.598 138.938 217.598 138.427 218.105C138.427 220.136 138.427 220.644 138.427 222.674ZM157.838 217.598C160.392 216.075 162.435 214.552 164.989 213.029C164.989 212.521 164.989 212.521 164.989 212.013C162.946 213.536 160.903 214.552 158.86 216.075C158.86 214.552 158.86 214.044 158.86 212.521C160.392 211.506 161.924 210.49 163.968 209.475C163.968 208.967 163.968 208.967 163.968 208.46C162.435 209.475 160.392 210.49 158.86 211.506C158.86 209.983 158.86 209.475 158.86 207.952C160.903 206.937 162.946 205.414 164.989 203.891C164.989 203.383 164.989 203.383 164.989 202.876C162.435 204.399 160.392 205.921 157.838 207.444C157.838 215.059 157.838 217.598 157.838 217.598ZM91.9445 232.32C93.4769 232.32 93.9877 232.32 95.5202 231.812C95.5202 232.32 95.5202 237.904 95.5202 240.442C96.031 240.442 96.031 240.442 96.5418 240.442C96.5418 239.934 96.5418 232.32 96.5418 231.812C98.0742 231.812 98.5849 231.304 100.117 231.304C100.117 230.797 100.117 230.797 100.117 230.289C97.5633 230.797 95.0093 230.797 92.4553 231.304C91.9445 231.304 91.9445 231.812 91.9445 232.32ZM108.29 238.412C108.801 238.412 108.801 238.412 109.312 238.412C109.312 237.396 109.312 229.781 109.312 228.258C108.801 228.258 108.801 228.258 108.29 228.258C108.801 229.274 108.29 237.396 108.29 238.412ZM100.117 239.934C102.161 239.427 104.715 238.919 107.269 238.412C107.269 237.904 107.269 237.904 107.269 237.396C105.225 237.904 103.182 238.412 101.139 238.412C101.139 236.889 101.139 236.381 101.139 235.366C102.671 234.858 104.204 234.858 106.247 234.35C106.247 233.843 106.247 233.843 106.247 233.335C104.715 233.843 103.182 233.843 101.139 234.35C101.139 232.827 101.139 232.32 101.139 231.304C103.182 230.797 105.225 230.797 107.269 230.289C107.269 229.781 107.269 229.781 107.269 229.274C104.715 229.781 102.671 230.289 100.117 230.797C100.117 236.381 100.117 236.381 100.117 239.934ZM130.255 223.689C130.255 220.644 128.722 222.166 124.125 224.197C123.614 224.197 122.593 225.212 122.593 226.228C122.593 230.797 122.593 230.289 126.168 228.766C127.19 228.258 127.701 228.258 128.722 227.751C128.722 227.751 129.233 227.751 129.233 228.258C129.233 231.812 129.744 230.797 123.614 232.827C123.103 232.827 123.103 232.32 123.103 231.812C122.593 231.812 122.593 231.812 122.082 232.32C122.082 234.858 123.614 233.843 125.657 232.827C127.19 232.32 129.233 231.812 129.744 229.781C129.744 227.751 130.255 225.72 128.722 226.228C122.593 228.766 123.103 229.274 123.103 225.212C123.103 224.705 123.103 224.705 123.614 224.705C125.147 224.197 127.19 223.689 128.722 222.674C128.722 222.674 129.233 222.674 129.233 223.182C129.233 223.182 129.233 223.182 129.233 223.689C129.744 223.689 129.744 223.689 130.255 223.689ZM117.485 234.858C115.441 232.32 113.909 230.289 111.866 227.751C111.355 227.751 111.355 227.751 110.844 228.258V238.412C111.355 238.412 111.355 238.412 111.866 238.412C111.866 235.873 111.866 232.32 111.866 229.781C113.398 232.32 115.441 234.858 117.485 236.889C117.995 236.889 117.995 236.889 118.506 236.381C118.506 229.274 119.017 226.735 119.017 226.228C118.506 226.228 118.506 226.228 117.995 226.735C117.485 228.258 117.485 232.32 117.485 234.858Z" fill="url(#paint6_linear_154_985)"/>
<defs>
<linearGradient id="paint0_linear_154_985" x1="-0.00510801" y1="181.573" x2="193.062" y2="181.573" gradientUnits="userSpaceOnUse">
<stop stop-color="#0D0F17"/>
<stop offset="0.3368" stop-color="#181A20"/>
<stop offset="1" stop-color="#2B2B2E"/>
</linearGradient>
<radialGradient id="paint1_radial_154_985" cx="0" cy="0" r="1" gradientUnits="userSpaceOnUse" gradientTransform="translate(166.349 90.6157) scale(180.508 179.397)">
<stop stop-color="#39393D"/>
<stop offset="0.468" stop-color="#2B2B2E"/>
<stop offset="1" stop-color="#1A1B21"/>
</radialGradient>
<linearGradient id="paint2_linear_154_985" x1="34.67" y1="77.4422" x2="158.923" y2="77.4422" gradientUnits="userSpaceOnUse">
<stop stop-color="#0D0F17"/>
<stop offset="0.3368" stop-color="#181A20"/>
<stop offset="1" stop-color="#2B2B2E"/>
</linearGradient>
<linearGradient id="paint3_linear_154_985" x1="30.4763" y1="65.1267" x2="163.117" y2="65.1267" gradientUnits="userSpaceOnUse">
<stop stop-color="#C28017"/>
<stop offset="1" stop-color="#E8A230"/>
</linearGradient>
<linearGradient id="paint4_linear_154_985" x1="140.55" y1="102.638" x2="139.193" y2="142.253" gradientUnits="userSpaceOnUse">
<stop stop-color="#39393D"/>
<stop offset="1" stop-color="#1A1B21"/>
</linearGradient>
<linearGradient id="paint5_linear_154_985" x1="-0.358072" y1="182.082" x2="189.33" y2="182.082" gradientUnits="userSpaceOnUse">
<stop stop-color="#C28017"/>
<stop offset="1" stop-color="#E8A230"/>
</linearGradient>
<linearGradient id="paint6_linear_154_985" x1="35.5751" y1="195.031" x2="176.741" y2="195.031" gradientUnits="userSpaceOnUse">
<stop stop-color="#B5B4B4"/>
<stop offset="1" stop-color="white"/>
</linearGradient>
</defs>
</svg>
