<svg width="62" height="51" viewBox="0 0 62 51" fill="none" xmlns="http://www.w3.org/2000/svg">
<g clip-path="url(#clip0_0_15)">
<path d="M9.10997 46.6091L7.11102 46.7392V45.6984C7.63534 46.0236 8.29073 46.3489 9.10997 46.6091Z" fill="#E30613" stroke="#1D1D1B" stroke-width="0.3266" stroke-miterlimit="10"/>
<path d="M7.04548 45.6333L3.40806 44.8852L3.11313 44.6901L4.52222 43.4216L4.16176 42.9012L0.131104 40.722L1.9662 40.5593C2.49051 41.0147 3.27698 41.6977 4.12899 42.641C5.04654 43.6818 5.27592 44.1697 5.96409 44.8527C6.25901 45.0804 6.58671 45.3731 7.04548 45.6333Z" fill="#E30613" stroke="#1D1D1B" stroke-width="0.3266" stroke-miterlimit="10"/>
<path d="M57.6417 42.9662L57.2812 43.389L58.6903 44.4949L57.445 45.1779L54.9873 45.5357L54.8563 45.5683L54.8235 45.6333L54.4958 46.1862L54.3319 46.5765L51.9398 46.8693L51.8742 46.9018L43.3869 49.6339L42.0434 49.8291C41.6829 49.8941 41.2897 49.9267 40.9292 49.9917C40.4376 49.5364 40.11 49.1461 39.8806 48.8533C39.6184 48.5281 39.4873 48.3329 39.2252 48.2353C38.8319 48.1052 38.6026 48.3329 38.3404 48.1703C38.2093 48.1052 38.2093 48.0077 37.9799 47.162C37.8489 46.7066 37.7833 46.5765 37.8816 46.479C38.0127 46.3163 38.2421 46.5115 38.5698 46.3814C38.9302 46.2188 38.8975 45.861 39.2579 45.6984C39.4546 45.6008 39.6839 45.6008 39.815 45.6333C39.8478 45.5682 40.0772 45.2755 39.9789 44.8202C39.9133 44.4949 39.684 44.2998 39.5856 44.2022C39.7495 44.007 39.9133 43.8119 40.0772 43.6167C40.4049 43.6167 40.6998 43.6167 41.0275 43.6167C41.093 43.7143 41.1258 43.7793 41.1913 43.8769C41.4863 43.8769 41.7484 43.8769 42.0434 43.8769C42.1089 44.0395 42.2727 44.4624 42.7315 44.7551C43.0592 44.9828 43.3541 45.0478 43.5508 45.0478C43.6163 45.4381 43.7146 45.8285 43.7801 46.2188C44.4355 45.9911 45.5169 45.4707 46.5656 44.4299C47.8108 43.1939 48.3023 41.8278 48.4662 41.1448C48.1713 41.1773 47.7125 41.2098 47.2209 41.0472C46.6966 40.8846 46.3034 40.5918 45.8446 40.0389C44.8615 38.933 44.3045 37.632 44.0095 36.7864C43.8785 36.9165 43.7474 37.0791 43.5835 37.2092C43.2558 37.0791 42.5349 36.7538 42.3055 36.0708C42.2072 35.7781 42.2072 35.4853 42.4038 34.5746C42.6004 33.729 42.6987 33.2086 43.0264 32.4279C43.2886 31.7124 43.7474 30.7691 44.4355 29.6958C46.074 29.7283 47.7453 29.7283 49.3837 29.7609L49.3182 29.7934L50.3341 30.9643L50.9567 31.0293L54.0042 31.2895L55.5116 32.0702L57.8055 34.8999L58.6575 36.5587L61.4102 38.6078L61.4757 39.8438L60.2632 40.2666L61.9672 40.3967L59.8372 42.0555L57.6417 42.9662Z" fill="#E30613" stroke="#1D1D1B" stroke-width="0.3266" stroke-miterlimit="10"/>
<path d="M24.1184 47.162C23.8563 48.0077 23.889 48.0727 23.7579 48.1703C23.4958 48.3329 23.2664 48.1053 22.8732 48.2354C22.5782 48.3329 22.4799 48.5281 22.2178 48.8533C21.9884 49.1461 21.6607 49.5364 21.1692 49.9917C20.7432 49.9267 20.3171 49.8942 19.8911 49.8291L11.666 47.6174L9.10996 46.6091C8.29072 46.3489 7.63533 46.0236 7.11102 45.6984V45.6658L7.01271 45.6333C6.5867 45.3406 6.25901 45.0804 5.96408 44.8202C5.27592 44.1697 5.04653 43.6818 4.12899 42.6084C3.27698 41.6652 2.52328 40.9496 1.96619 40.5268L0.426025 39.3559L0.491565 38.4127L3.27698 36.4286L6.61947 31.875L8.45457 31.1269C9.40488 31.0619 10.3552 30.9968 11.3055 30.9318C11.5677 30.7692 11.8626 30.574 12.1575 30.3789C12.4197 30.1837 12.6818 30.0211 12.9112 29.8259H12.8785C14.4842 29.8259 16.0899 29.7934 17.6628 29.7934C18.1216 30.4439 18.6787 31.3871 19.1047 32.5581C19.5962 33.9241 19.7601 35.1276 19.7928 36.0058C19.7601 36.1684 19.6618 36.4937 19.3996 36.7864C19.0719 37.1767 18.6459 37.3068 18.4821 37.3393C18.3182 37.1767 18.1871 37.0141 18.0888 36.884C18.056 37.1116 17.3351 40.4618 14.8774 41.1123C14.5497 41.2099 14.1237 41.2749 13.6322 41.2098C13.8288 41.8929 14.3203 43.2264 15.5328 44.4949C16.5814 45.5357 17.6956 46.0562 18.3182 46.2838C18.3837 45.8935 18.4821 45.5032 18.5476 45.1129C18.7114 45.0804 19.0391 45.0153 19.3668 44.8202C19.8256 44.5275 19.9895 44.1046 20.055 43.942C20.3499 43.942 20.6121 43.942 20.907 43.942C20.9725 43.8444 21.0053 43.7794 21.0708 43.6818C21.3985 43.6818 21.6935 43.6818 22.0212 43.6818C22.185 43.8769 22.3489 44.1046 22.5455 44.2998C22.4799 44.3323 22.185 44.4949 22.0867 44.8527C21.9884 45.2755 22.2178 45.6333 22.2506 45.6658C22.3816 45.6333 22.611 45.6333 22.8076 45.7309C23.1681 45.8935 23.1353 46.2513 23.4958 46.4139C23.8235 46.544 24.0856 46.3489 24.184 46.5115C24.315 46.5766 24.2823 46.7067 24.1184 47.162Z" fill="#E30613" stroke="#1D1D1B" stroke-width="0.3266" stroke-miterlimit="10"/>
<path d="M36.0793 22.0523C35.9155 22.2149 32.999 25.0121 29.3943 24.0689C27.6903 23.6135 26.6417 22.5402 26.1829 21.9873L27.1005 22.0198L27.1988 20.2309L27.2643 14.3763L27.2971 14.2787L28.9683 13.2054L30.443 12.8151H31.9176L34.1459 13.9535L34.7685 14.604V21.6945L34.8669 22.0523H36.0793Z" fill="#E30613" stroke="#1D1D1B" stroke-width="0.3266" stroke-miterlimit="10"/>
<path d="M42.3055 50.9349H19.203L19.8912 49.8291C20.3172 49.8941 20.7432 49.9266 21.1692 49.9917C21.6607 49.5363 21.9884 49.146 22.2178 48.8533C22.48 48.528 22.611 48.3329 22.8732 48.2353C23.2664 48.1052 23.4958 48.3329 23.758 48.1703C23.8891 48.1052 23.889 48.0076 24.1184 47.162C24.2495 46.7066 24.3151 46.5765 24.2167 46.4789C24.0857 46.3163 23.8563 46.5115 23.5286 46.3814C23.1681 46.2187 23.2009 45.861 22.8404 45.6983C22.6438 45.6008 22.4144 45.6008 22.2833 45.6333C22.2506 45.6008 21.9884 45.243 22.1195 44.8201C22.2178 44.4624 22.5127 44.2997 22.5783 44.2672C22.6438 44.1371 22.7093 44.0395 22.7421 43.9094C23.1026 43.8769 23.3975 43.942 23.6269 44.007C24.9049 44.3648 25.4948 45.6983 25.9208 46.6741C26.1829 47.227 26.4778 48.0727 26.6089 49.1786C27.6248 49.1786 28.6734 49.1786 29.6893 49.1786C29.6893 43.7143 29.6893 38.2825 29.6565 32.8182C30.5413 32.8182 31.3933 32.8182 32.2781 32.7857C32.2781 38.2825 32.2453 43.7468 32.2453 49.2436H35.4239C35.4239 49.1786 35.4239 49.1135 35.4239 49.0159C35.4567 48.1703 35.7844 47.5523 36.1449 46.9018C36.8986 45.5682 37.259 44.8852 37.4884 44.69C38.1438 44.1371 38.8647 43.942 39.3235 43.8769C39.3563 43.942 39.3891 44.007 39.4218 44.0721C39.4218 44.1046 39.4546 44.1371 39.4546 44.1696C39.4546 44.2022 39.4874 44.2347 39.4874 44.2672L39.5201 44.2347C39.6512 44.3323 39.8478 44.5274 39.9134 44.8527C40.0117 45.2755 39.7823 45.6008 39.7495 45.6658C39.6184 45.6333 39.3891 45.6333 39.1924 45.7309C38.832 45.8935 38.8647 46.2513 38.5043 46.4139C38.1766 46.544 37.9144 46.3488 37.8161 46.5115C37.7506 46.609 37.7833 46.7391 37.9144 47.1945C38.1766 48.0402 38.1438 48.1052 38.2749 48.2028C38.537 48.3654 38.7664 48.1377 39.1597 48.2678C39.4546 48.3654 39.5529 48.5606 39.8151 48.8858C40.0444 49.1786 40.3721 49.5689 40.8637 50.0242C41.2241 49.9592 41.6174 49.9266 41.9778 49.8616L42.3055 50.9349Z" fill="#1D1D1B" stroke="#1D1D1B" stroke-width="0.3266" stroke-miterlimit="10"/>
<path d="M15.5 2.73213V4.03315L14.3531 6.34246L13.5339 5.49679L13.2389 5.62689L13.1406 6.57013L11.5349 6.60266L10.9778 5.46427L10.2241 6.11478L9.37213 6.1473L8.91336 7.83863L8.38904 11.0912L10.2897 15.8074V16.9458L10.2241 17.3036L10.1586 17.3686L13.5994 17.4662C13.5994 18.2143 13.6322 18.9624 13.6322 19.743C13.37 20.8488 12.9768 21.6945 12.6819 22.28C11.5022 24.4917 9.92921 25.6626 9.53598 25.9228C8.71674 26.5083 7.93027 26.8661 7.40596 27.0612C7.34042 26.9962 7.27488 26.9636 7.20934 26.8986L5.30871 24.199L3.80131 23.0931L0.819277 22.8004L0.196655 23.1581V20.2959L1.27805 16.4254L0.196655 17.1409L0.655429 15.0593L4.4567 8.09883L6.84888 3.67536L9.50321 2.21172L13.2062 0.227661H13.6649L14.6153 1.82141L15.5 2.73213Z" fill="#E30613" stroke="#1D1D1B" stroke-width="0.3266" stroke-miterlimit="10"/>
<path d="M60.4927 16.4254L61.6068 20.5236V23.1582L60.2633 20.7188L61.0497 22.6052L60.9187 22.898L58.0022 23.1582L56.3965 24.3291L54.3647 27.3214C54.1354 27.0938 53.8077 26.7685 53.3489 26.4107C52.8901 26.0529 52.6935 26.0204 52.3003 25.7602C51.3172 25.1422 50.6945 24.2966 50.0392 23.3859C49.777 23.0281 49.6132 22.8004 49.4165 22.4426C49.2199 22.1174 48.6956 21.1091 48.499 19.7105C48.4335 19.1901 48.3679 18.4745 48.4662 17.5963C49.5148 17.5638 50.5635 17.5313 51.6121 17.4987V17.4337L51.481 15.8074L53.4472 11.1563L52.628 6.66774L52.333 6.08228H51.2516L50.8912 6.47259L48.8267 6.53764L48.7611 5.39925H48.4335L47.8108 6.40754L47.4504 6.27744L46.4673 4.26085L46.1068 3.64287L46.3034 3.02488L48.1058 0.0650635L54.5614 3.28509L61.2791 15.6773L61.574 17.1735L60.4927 16.4254Z" fill="#E30613" stroke="#1D1D1B" stroke-width="0.3266" stroke-miterlimit="10"/>
<path d="M54.3647 27.3215L54.2336 27.5166L52.1691 28.9803H52.1364C51.9398 28.8502 51.6776 28.6225 51.3499 28.3298C50.4651 27.5817 49.6787 26.8986 48.9905 25.9229C48.6628 25.4675 48.925 25.7277 47.8436 23.7437C47.4176 22.9305 47.1554 22.5402 46.926 21.8572C46.6966 21.2392 46.5656 20.6863 46.4672 20.3285C46.3689 20.3285 46.2706 20.3285 46.1723 20.3285C45.6152 20.979 45.0582 21.1091 44.8288 21.1416C44.5011 21.2067 44.2061 21.1416 43.6163 21.044C43.092 20.9465 42.666 20.8489 42.3711 20.7513C41.7812 20.7513 41.1913 20.7838 40.6343 20.7838C40.241 20.8489 39.5201 20.979 38.7992 21.5319C38.4059 21.8247 38.1438 22.1499 37.9799 22.4101C37.7178 22.7354 37.3245 23.2233 36.833 23.7762C36.1121 24.5243 35.5222 25.1423 34.6374 25.6627C34.1787 25.9229 33.3922 26.3132 32.3108 26.4758C32.3108 28.59 32.3108 30.6716 32.3108 32.7858C31.426 32.7858 30.574 32.7858 29.6892 32.8183C29.6892 30.7041 29.6892 28.5574 29.6892 26.4433C29.1649 26.3782 28.1163 26.2156 27.0021 25.5C25.888 24.7845 25.2981 23.9063 25.0032 23.4509C24.7738 23.0606 24.4461 22.6053 23.9873 22.1499C23.2336 21.3693 22.4144 20.979 21.8573 20.7513C21.3002 20.6537 20.5138 20.6212 19.5962 20.7188C18.777 20.8164 18.0888 21.0115 17.5645 21.2067C17.3679 21.1741 17.1713 21.1741 17.0074 21.1416C16.5814 20.8164 16.1554 20.4911 15.6966 20.1659C15.5656 20.8164 15.3689 21.5645 15.0085 22.3776C14.8446 22.8004 14.4842 23.6136 13.6977 24.752C12.4852 26.5734 11.0434 28.0045 9.96196 28.9803C9.07718 28.3298 8.22517 27.6793 7.34039 27.0287C7.86471 26.8336 8.65118 26.4758 9.47041 25.8903C9.86365 25.5976 11.4694 24.4267 12.6163 22.2475C12.9112 21.662 13.3045 20.8164 13.5666 19.7105C13.5666 18.9624 13.5338 18.2143 13.5338 17.4337H13.6649L16.5159 19.4503L21.6279 19.3852L25.036 21.9222L26.1501 21.9873C26.6089 22.5402 27.6903 23.6136 29.3615 24.0689C32.9334 25.0122 35.8827 22.215 36.0465 22.0523H36.5053L40.241 19.5153H45.0582L47.6142 17.5638C47.6469 17.5638 48.3351 17.5313 48.4006 17.5313H48.4334C48.3351 18.4095 48.4006 19.125 48.4662 19.6455C48.6628 21.0766 49.2199 22.0523 49.3837 22.3776C49.5804 22.7354 49.7442 22.9631 50.0064 23.3208C50.6618 24.2315 51.2516 25.0447 52.2675 25.6952C52.6607 25.9554 52.8573 25.9879 53.3161 26.3457C53.8076 26.736 54.1353 27.0613 54.3647 27.3215Z" fill="#1D1D1B" stroke="#1D1D1B" stroke-width="0.3266" stroke-miterlimit="10"/>
<path d="M52.1364 28.9477L50.3669 29.5982L49.2855 29.8259C47.647 29.7934 45.9757 29.7934 44.3373 29.7608C43.6163 30.8342 43.1903 31.7774 42.9282 32.493C42.6005 33.3061 42.5022 33.794 42.3056 34.6397C42.1089 35.5504 42.1089 35.8431 42.2072 36.1358C42.4694 36.8189 43.1903 37.1767 43.4853 37.2742C43.1248 37.6645 42.7643 38.0223 42.4039 38.4126C41.7157 38.9005 41.2569 39.3884 40.9292 39.7787C39.7495 41.2423 39.4546 42.8361 39.3563 43.4541C39.3235 43.6492 39.3235 43.7793 39.2907 43.9094C38.7992 43.9745 38.0783 44.1696 37.4557 44.7226C37.2263 44.9177 36.8658 45.5682 36.1121 46.9343C35.7516 47.5848 35.4239 48.2028 35.3912 49.0485C35.3912 49.146 35.3912 49.2111 35.3912 49.2761H32.2125C32.2125 43.7793 32.2453 38.315 32.2453 32.8182C32.2453 30.7041 32.2453 28.6224 32.2453 26.5083C33.3267 26.3131 34.0804 25.9554 34.5719 25.6951C35.4895 25.1747 36.0466 24.5568 36.7675 23.8087C37.2918 23.2557 37.6523 22.7679 37.9144 22.4426C38.0783 22.1824 38.3404 21.8571 38.7337 21.5644C39.4546 21.0115 40.1755 20.8814 40.5688 20.8163C41.1586 20.8163 41.7485 20.7838 42.3056 20.7838C42.6005 20.8814 43.0265 20.9789 43.5508 21.0765C44.1406 21.1741 44.4683 21.2392 44.7633 21.1741C44.9927 21.1416 45.5497 20.9789 46.1068 20.361C46.2051 20.361 46.3034 20.361 46.4017 20.361C46.4673 20.7187 46.5984 21.2717 46.8605 21.8897C47.1227 22.5727 47.3521 22.963 47.7781 23.7761C48.8595 25.7602 48.5973 25.5 48.925 25.9554C49.6132 26.9311 50.4324 27.6142 51.2844 28.3622C51.6776 28.5899 51.9726 28.8176 52.1364 28.9477Z" fill="white" stroke="#1D1D1B" stroke-width="0.3266" stroke-miterlimit="10"/>
<path d="M29.6893 49.1786C28.6734 49.1786 27.6248 49.1786 26.6089 49.1786C26.4778 48.0727 26.1501 47.2271 25.9208 46.6741C25.4948 45.7309 24.8721 44.3648 23.6269 44.007C23.3975 43.942 23.1026 43.9095 22.7421 43.9095C22.7421 43.8119 22.7093 43.6493 22.6766 43.4541C22.5783 42.8036 22.2178 40.6244 20.6776 39.1933C20.1861 38.7379 20.055 38.7704 19.3013 38.0874C19.0064 37.7947 18.7442 37.5345 18.5148 37.3068C18.6787 37.2743 19.1047 37.1442 19.4324 36.7539C19.6945 36.4611 19.7928 36.1359 19.8256 35.9732C19.7928 35.095 19.629 33.8916 19.1375 32.5255C18.7115 31.3546 18.1544 30.4114 17.6956 29.7609C16.0899 29.7609 14.4842 29.7934 12.9112 29.7934C11.9609 29.5657 11.0434 29.3055 10.0931 29.0778C10.0603 29.0453 10.0275 29.0453 9.99475 29.0128C11.1089 28.037 12.518 26.5734 13.7305 24.7845C14.4842 23.6461 14.8446 22.8329 15.0413 22.4101C15.369 21.597 15.5983 20.8163 15.7294 20.1984C16.1554 20.5236 16.5814 20.8489 17.0402 21.1741C17.2368 21.2067 17.4334 21.2067 17.5973 21.2392C18.1216 21.044 18.777 20.8489 19.629 20.7513C20.5465 20.6537 21.333 20.6862 21.8901 20.7838C22.4472 21.0115 23.2337 21.4343 24.0201 22.1824C24.4789 22.6378 24.8066 23.0931 25.036 23.4834C25.2981 23.9388 25.9208 24.817 27.0349 25.5325C28.1163 26.2156 29.1649 26.4107 29.722 26.4758C29.722 28.5899 29.722 30.7366 29.722 32.8508C29.6893 38.2825 29.6893 43.7468 29.6893 49.1786Z" fill="white" stroke="#1D1D1B" stroke-width="0.3266" stroke-miterlimit="10"/>
<path d="M7.20935 21.5319C7.66812 21.2392 8.25798 20.7838 8.81506 20.0683C9.69984 18.9949 10.0275 17.889 10.1914 17.2711" stroke="#1D1D1B" stroke-width="0.3266" stroke-miterlimit="10"/>
<path d="M3.76852 15.287C3.53914 15.5472 3.11313 16.1001 2.94929 16.9133C2.78544 17.6288 2.88375 18.2143 2.94929 18.5395C3.17867 18.3444 3.4736 18.0191 3.76852 17.5963C4.09622 17.0759 4.26007 16.588 4.32561 16.2628" stroke="#1D1D1B" stroke-width="0.3266" stroke-miterlimit="10"/>
<path d="M1.63851 20.7188C1.34358 21.4343 1.04866 22.1173 0.786499 22.8329" stroke="#1D1D1B" stroke-width="0.3266" stroke-miterlimit="10"/>
<path d="M9.20826 34.5421C8.94611 34.6722 7.43871 35.3878 6.94716 37.0791C6.68501 37.9898 6.81609 38.7704 6.9144 39.1607C7.86471 38.9981 9.24103 38.9005 10.8795 39.2258C11.7315 39.3884 12.4524 39.6486 13.0423 39.9088C13.2389 40.3317 13.4355 40.722 13.6322 41.1448" stroke="#1D1D1B" stroke-width="0.3266" stroke-miterlimit="10"/>
<path d="M7.111 45.6984C7.07823 45.6658 7.04546 45.6658 7.0127 45.6333" stroke="#1D1D1B" stroke-width="0.3266" stroke-miterlimit="10"/>
<path d="M16.9419 33.2085C16.5159 32.9483 15.8605 32.6231 15.0412 32.5255C14.8446 32.493 14.648 32.493 14.4514 32.493C13.5666 32.493 12.7146 32.5255 11.8298 32.5255C11.7315 32.4605 11.4366 32.2328 11.3055 31.7774C11.1744 31.3871 11.2727 31.0293 11.3383 30.9318" stroke="#1D1D1B" stroke-width="0.3266" stroke-miterlimit="10"/>
<path d="M32.278 32.8183C34.834 32.7858 37.3901 32.7858 39.9461 32.7532C41.1258 31.3546 42.3055 29.956 43.4852 28.59" stroke="#1D1D1B" stroke-width="0.3266" stroke-miterlimit="10"/>
<path d="M18.6132 28.5249C19.7601 29.9886 20.907 31.4197 22.054 32.8833C24.5772 32.8508 27.1332 32.8508 29.6565 32.8183" stroke="#1D1D1B" stroke-width="0.3266" stroke-miterlimit="10"/>
<path d="M44.7305 33.2736C45.6152 32.7207 46.3362 32.6231 46.8277 32.6231C47.3193 32.6231 47.647 32.7532 48.5645 32.7207C49.1871 32.7207 49.4821 32.7207 49.777 32.5906C50.4651 32.2653 50.7273 31.4847 50.8584 31.0619" stroke="#1D1D1B" stroke-width="0.3266" stroke-miterlimit="10"/>
<path d="M52.8901 34.5746C53.1522 34.7047 54.2664 35.1926 54.889 36.4936C55.4461 37.6646 55.2167 38.7054 55.1512 39.0306C53.9059 39.0632 52.6607 39.0957 51.4154 39.1282C51.0877 39.1607 50.3668 39.2583 49.6131 39.7462C48.8922 40.2341 48.5317 40.8846 48.4006 41.1773" stroke="#1D1D1B" stroke-width="0.3266" stroke-miterlimit="10"/>
<path d="M39.5529 44.2347C39.5201 44.2022 39.4874 44.2022 39.4874 44.1697" stroke="#1D1D1B" stroke-width="0.3266" stroke-miterlimit="10"/>
<path d="M58.4609 15.3521C58.6575 15.6123 59.018 16.1327 59.1818 16.9133C59.3457 17.6288 59.2146 18.2468 59.1491 18.5396C58.8214 18.1492 58.4937 17.6614 58.1988 17.0759C58.0021 16.6856 57.8383 16.3278 57.7072 16.0026" stroke="#1D1D1B" stroke-width="0.3266" stroke-miterlimit="10"/>
<path d="M54.6596 21.5319C53.9059 20.7188 53.0867 19.7105 52.333 18.5721C52.0708 18.1493 51.8087 17.759 51.5793 17.3687" stroke="#1D1D1B" stroke-width="0.3266" stroke-miterlimit="10"/>
<path d="M60.1322 40.1365C58.8542 40.9821 58.1005 41.8928 57.6417 42.5759C57.1174 43.3565 56.7241 44.2672 55.6428 45.0153C55.4134 45.1779 55.184 45.2755 54.758 45.5032C54.0698 45.861 53.054 46.2838 51.8087 46.7717" stroke="#1D1D1B" stroke-width="0.3266" stroke-miterlimit="10"/>
</g>
<defs>
<clipPath id="clip0_0_15">
<rect width="62" height="51" fill="white"/>
</clipPath>
</defs>
</svg>
